<svg xmlns="http://www.w3.org/2000/svg" width="533.559" height="537.768" viewBox="0 0 533.559 537.768"><path d="M269.514,132.9a65.958,65.958,0,0,0-2.4,7.6,31.369,31.369,0,0,0-4.2-6.8,27.125,27.125,0,0,0-13.8-8.8,45.8,45.8,0,0,0-8-1.4,33.062,33.062,0,0,0,5.6,21.4,49.787,49.787,0,0,0,10.4,10.2c3.4,2.4,6.8,3.4,9.2,2.6a210.256,210.256,0,0,0-20.4-29.2s6,6.4,11.6,13.4c5.4,7,10.6,14.6,10.6,14.6s4.4-8,8.4-16.6,7.2-17.8,7.2-17.8a222.914,222.914,0,0,1-13.8,35.6c2.6.6,5.8-.6,9-3.6a37.929,37.929,0,0,0,8.8-13.2,31.258,31.258,0,0,0,1.2-18,31.639,31.639,0,0,0-2.6-8.4,35.037,35.037,0,0,0-6.8,4.8A35.991,35.991,0,0,0,269.514,132.9Z" transform="translate(240.997 114.5)" fill="#bbac9a"/><path d="M264.947,124.9a46.262,46.262,0,0,0-5.2-6,26.52,26.52,0,0,0-14.8-6.6,37.6,37.6,0,0,0-8.2-.2,35.592,35.592,0,0,0,1.4,7.2,28.534,28.534,0,0,0,7.4,13.2,44.125,44.125,0,0,0,11.8,8.6c3.6,2,7.2,2.6,9.4,1.4a200.466,200.466,0,0,0-24.4-25.8s6.8,5.2,13.4,11.4,12.8,13,12.8,13,3.4-8.6,6-17.8c2.8-9.2,4.6-18.8,4.6-18.8a240.455,240.455,0,0,1-8.6,37.2c2.6.4,5.6-1.4,8.4-4.8a35.771,35.771,0,0,0,6.8-14.4,31.643,31.643,0,0,0-1.4-18,39.349,39.349,0,0,0-4-8.2,36.835,36.835,0,0,0-6,5.8,35.035,35.035,0,0,0-8,14.8A39.622,39.622,0,0,0,264.947,124.9Z" transform="translate(236.764 96.3)" fill="#bbac9a"/><path d="M260.147,109.3a38.6,38.6,0,0,0-6-5.2,26.63,26.63,0,0,0-15.6-4.4,47.657,47.657,0,0,0-8,1,31.962,31.962,0,0,0,2.4,7,29.843,29.843,0,0,0,9.2,12,45.331,45.331,0,0,0,13,6.8c4,1.4,7.6,1.4,9.6,0a201.424,201.424,0,0,0-28-22s7.4,4.2,14.8,9.4,14.4,11,14.4,11a138.088,138.088,0,0,0,3.4-18.4c1.4-9.4,1.8-19.2,1.8-19.2a235.687,235.687,0,0,1-3,38c2.6,0,5.4-2.2,7.6-6a37.881,37.881,0,0,0,4.6-15.2,31.062,31.062,0,0,0-4-17.6,36.976,36.976,0,0,0-5-7.4,49.585,49.585,0,0,0-5.2,6.4,36.206,36.206,0,0,0-5.8,15.8A54.234,54.234,0,0,0,260.147,109.3Z" transform="translate(230.564 79.1)" fill="#bbac9a"/><path d="M253.047,94.9a39.482,39.482,0,0,0-6.8-4.4,27.817,27.817,0,0,0-16.2-2,31.573,31.573,0,0,0-7.8,2,49.329,49.329,0,0,0,3.4,6.6,27.136,27.136,0,0,0,10.8,10.4,47.474,47.474,0,0,0,13.8,4.8c4,.8,7.6.4,9.4-1.4a217.149,217.149,0,0,0-30.8-17.6s8,3.2,16,7.2c8.2,4,16,8.8,16,8.8s.8-9,.6-18.6c0-9.4-1-19.2-1-19.2a223.561,223.561,0,0,1,2.6,38c2.6-.4,5-3,6.6-7a34.654,34.654,0,0,0,2.4-15.8,31.759,31.759,0,0,0-6.6-16.8,35.818,35.818,0,0,0-6-6.6,47.122,47.122,0,0,0-4,7.2,34.826,34.826,0,0,0-3.4,16.4C252.247,89.7,252.647,92.5,253.047,94.9Z" transform="translate(222.264 63.3)" fill="#bbac9a"/><path d="M243.047,81.2a29.774,29.774,0,0,0-7.2-3.4,26.149,26.149,0,0,0-16.2.2,38.5,38.5,0,0,0-7.4,3.2,41.42,41.42,0,0,0,4.4,6,28.774,28.774,0,0,0,12.2,8.8,45.61,45.61,0,0,0,14.4,2.8c4.2.2,7.6-.8,9.2-2.8a198.1,198.1,0,0,0-33-13s8.6,2,17,4.8c8.6,2.8,17,6.4,17,6.4s-.6-9.2-2.2-18.6c-1.4-9.4-3.8-18.8-3.8-18.8a229.2,229.2,0,0,1,8,37.2c2.6-.8,4.6-3.6,5.6-7.8a37.966,37.966,0,0,0,0-15.8,34.26,34.26,0,0,0-9-15.6,35.859,35.859,0,0,0-7-5.8,36.061,36.061,0,0,0-3,7.8,34.892,34.892,0,0,0-1.2,16.6A72.831,72.831,0,0,0,243.047,81.2Z" transform="translate(212.264 49)" fill="#bbac9a"/><path d="M207.547,69.2a40.963,40.963,0,0,0-7,4.2,42.394,42.394,0,0,0,5.2,5.4,28.534,28.534,0,0,0,13.4,7,46.32,46.32,0,0,0,14.6.8c4.2-.6,7.4-2,8.6-4.2a201.459,201.459,0,0,0-34.6-8.2s8.6.6,17.4,2.2c8.8,1.4,17.8,3.8,17.8,3.8s-2-9-4.8-18a178.433,178.433,0,0,0-6.4-18.2,236.755,236.755,0,0,1,13.4,35.8c2.4-1.2,4-4.2,4.4-8.6a35.808,35.808,0,0,0-2.2-15.8,32.373,32.373,0,0,0-11.2-14.2,35.719,35.719,0,0,0-7.8-4.6,43.37,43.37,0,0,0-1.8,8.2,35.422,35.422,0,0,0,1.4,16.8,63.557,63.557,0,0,0,3.2,7.2,28.147,28.147,0,0,0-7.6-2.2A25.972,25.972,0,0,0,207.547,69.2Z" transform="translate(200.564 36.6)" fill="#bbac9a"/><path d="M212.947,50.9c1.4,2.4,3,4.8,4.4,6.8a35.025,35.025,0,0,0-8-1,26.683,26.683,0,0,0-15.4,5,39.822,39.822,0,0,0-6.2,5.2,29.344,29.344,0,0,0,5.8,4.6,27.337,27.337,0,0,0,14.2,5,47,47,0,0,0,14.6-1.4c4.2-1.2,7-3,8-5.4a215.144,215.144,0,0,0-35.4-3,146.009,146.009,0,0,1,17.6-.4c8.8.2,18,1.2,18,1.2s-3.2-8.6-7.4-17.2c-4-8.6-9-17-9-17a219.023,219.023,0,0,1,18.4,33.4c2-1.6,3.2-4.8,3-9.2a35.372,35.372,0,0,0-4.6-15.2,32.044,32.044,0,0,0-13-12.4,44.92,44.92,0,0,0-8.4-3.4,28.928,28.928,0,0,0-.4,8A34.329,34.329,0,0,0,212.947,50.9Z" transform="translate(187.764 26.5)" fill="#bbac9a"/><path d="M196.447,42.4a40.555,40.555,0,0,0,5.2,6.2,26.817,26.817,0,0,0-8,0,27.277,27.277,0,0,0-14.6,7.2,34.585,34.585,0,0,0-5.4,6,50,50,0,0,0,6.4,3.6,28.482,28.482,0,0,0,14.8,2.8,46.02,46.02,0,0,0,14.2-3.6c3.8-1.6,6.4-3.8,7-6.4a205.136,205.136,0,0,0-35.4,2.2s8.6-1.8,17.4-2.8,18-1.4,18-1.4-4.4-8.2-9.8-16c-5.2-7.8-11.4-15.4-11.4-15.4a229.31,229.31,0,0,1,23,30.4c1.8-1.6,2.4-5.2,1.6-9.4a37.907,37.907,0,0,0-6.6-14.4,33.041,33.041,0,0,0-14.8-10.4,41.821,41.821,0,0,0-8.8-2.2,28.436,28.436,0,0,0,1,8A35.93,35.93,0,0,0,196.447,42.4Z" transform="translate(173.664 18.8)" fill="#bbac9a"/><path d="M180.747,43.926a38.529,38.529,0,0,0,14.2,1,76.552,76.552,0,0,0,10.2-2.2,230.314,230.314,0,0,0-37.8-13.6,261.41,261.41,0,0,1,38.8,11.4,37.984,37.984,0,0,0-6.2-8.8,29.267,29.267,0,0,0-12.8-8.4,31.3,31.3,0,0,0-18.8.4,34.184,34.184,0,0,0-8.2,3.8,54.165,54.165,0,0,0,5.8,6.8A38.022,38.022,0,0,0,180.747,43.926Z" transform="translate(160.164 22.074)" fill="#bbac9a"/><path d="M128.847,60.8l20.4-10.4,20.4,10.4-4-22,16.6-15.6-22.8-3.2-10.2-20-10.2,20-22.8,3.2,16.6,15.6Z" transform="translate(116.264)" fill="#bbac9a"/><path d="M122.347,29.027a230.315,230.315,0,0,0-37.8,13.6,50.392,50.392,0,0,0,10.2,2.2,31.572,31.572,0,0,0,14.2-1,38.023,38.023,0,0,0,14.8-9.6,54.163,54.163,0,0,0,5.8-6.8,34.184,34.184,0,0,0-8.2-3.8,31.283,31.283,0,0,0-18.8-.4,31.112,31.112,0,0,0-12.8,8.4,38.044,38.044,0,0,0-6.2,8.8A220.987,220.987,0,0,1,122.347,29.027Z" transform="translate(83.564 21.973)" fill="#bbac9a"/><path d="M95.316,25.2s-6.2,7.6-11.4,15.4c-5.4,8-9.8,16-9.8,16s9.2.2,18,1.4c9,1,17.4,2.8,17.4,2.8a205.136,205.136,0,0,0-35.4-2.2c.4,2.4,3.2,4.6,7,6.4a46.02,46.02,0,0,0,14.2,3.6,28.077,28.077,0,0,0,14.8-2.8,50,50,0,0,0,6.4-3.6,45.734,45.734,0,0,0-5.4-6,25.951,25.951,0,0,0-14.6-7.2,53.407,53.407,0,0,0-8,0c1.8-1.8,3.4-4,5.2-6.2a34.139,34.139,0,0,0,6.2-15.6,42.373,42.373,0,0,0,.6-8.4,41.821,41.821,0,0,0-8.8,2.2,30.629,30.629,0,0,0-14.8,10.4,37.951,37.951,0,0,0-6.6,14.4c-.8,4.4-.2,7.8,2,9.8A229.311,229.311,0,0,1,95.316,25.2Z" transform="translate(69.994 18.8)" fill="#bbac9a"/><path d="M58.359,67.2a239.977,239.977,0,0,1,18.4-33.4s-5,8.4-9,17c-4.2,8.6-7.4,17.2-7.4,17.2s9-1,18-1.2,17.6.4,17.6.4a216.9,216.9,0,0,0-35.4,3c1,2.4,4,4.2,8,5.4a47,47,0,0,0,14.6,1.4,31.391,31.391,0,0,0,14.2-5,41.619,41.619,0,0,0,5.8-4.6,39.932,39.932,0,0,0-6.2-5.2,26.2,26.2,0,0,0-15.4-5,33.7,33.7,0,0,0-8,1,44.281,44.281,0,0,0,4.4-6.8,36.835,36.835,0,0,0,3.8-16.4,53.427,53.427,0,0,0-.6-8.4,32.684,32.684,0,0,0-8.4,3.4,30.778,30.778,0,0,0-13,12.4,35.371,35.371,0,0,0-4.6,15.2C54.959,62,55.959,65.2,58.359,67.2Z" transform="translate(55.151 26.6)" fill="#bbac9a"/><path d="M46.216,80.1a229.1,229.1,0,0,1,13.4-35.8s-3.6,9.2-6.4,18.2a171.062,171.062,0,0,0-4.8,18s9-2.4,17.8-3.8c8.8-1.6,17.4-2.2,17.4-2.2a222.049,222.049,0,0,0-34.6,8.2c1.2,2.4,4.4,3.6,8.6,4.2a53.517,53.517,0,0,0,14.6-.8,30.465,30.465,0,0,0,13.4-7,42.4,42.4,0,0,0,5.2-5.4,40.962,40.962,0,0,0-7-4.2,25.972,25.972,0,0,0-16-2.6,33.185,33.185,0,0,0-7.6,2.2,63.385,63.385,0,0,0,3.2-7.4,38.145,38.145,0,0,0,1.4-16.8,43.215,43.215,0,0,0-1.8-8.2,35.719,35.719,0,0,0-7.8,4.6,32.4,32.4,0,0,0-11.2,14.2,36.344,36.344,0,0,0-2.2,16C42.416,75.9,44.016,78.9,46.216,80.1Z" transform="translate(41.694 36.7)" fill="#bbac9a"/><path d="M35.972,94.2a233.975,233.975,0,0,1,8-37.2s-2.4,9.4-3.8,18.8c-1.6,9.4-2.2,18.6-2.2,18.6s8.4-3.6,17-6.4,17-4.8,17-4.8a205.112,205.112,0,0,0-33,13c1.6,2,5,2.8,9.2,2.8a45.609,45.609,0,0,0,14.4-2.8,30.573,30.573,0,0,0,12.2-8.8,41.419,41.419,0,0,0,4.4-6,38.5,38.5,0,0,0-7.4-3.2,27.691,27.691,0,0,0-16.2-.2,60.173,60.173,0,0,0-7.2,3.4,72.833,72.833,0,0,0,2.2-7.8,38.438,38.438,0,0,0-1-16.8,55.205,55.205,0,0,0-3-7.8,35.859,35.859,0,0,0-7,5.8,30.225,30.225,0,0,0-9,15.6,43.215,43.215,0,0,0-.2,16C31.572,90.6,33.572,93.4,35.972,94.2Z" transform="translate(29.738 49)" fill="#bbac9a"/><path d="M28.6,109.7a224.8,224.8,0,0,1,2.6-38s-1,9.8-1,19.2c-.2,9.4.6,18.6.6,18.6s8-4.8,16-8.8,16-7.2,16-7.2A199.306,199.306,0,0,0,32,111.1c1.8,1.6,5.2,2,9.4,1.4a47.474,47.474,0,0,0,13.8-4.8A30.054,30.054,0,0,0,66,97.3a49.209,49.209,0,0,0,3.4-6.6,47.892,47.892,0,0,0-7.8-2,26.13,26.13,0,0,0-16.2,2,44.281,44.281,0,0,0-6.8,4.4c.4-2.4.8-5.2,1-8a35.679,35.679,0,0,0-3.4-16.6,47.124,47.124,0,0,0-4-7.2,35.818,35.818,0,0,0-6,6.6,31.759,31.759,0,0,0-6.6,16.8,36.028,36.028,0,0,0,2.4,16C23.8,106.7,26,109.3,28.6,109.7Z" transform="translate(19.509 63.3)" fill="#bbac9a"/><path d="M23.356,125.5a235.912,235.912,0,0,1-3-38s.4,9.8,1.8,19.2,3.4,18.4,3.4,18.4,7-6,14.4-11a165.749,165.749,0,0,1,14.8-9.4,217.735,217.735,0,0,0-28,22c2.2,1.4,5.6,1.2,9.6,0a45.331,45.331,0,0,0,13-6.8,31.224,31.224,0,0,0,9.2-12,31.962,31.962,0,0,0,2.4-7,31.2,31.2,0,0,0-8-1,26.63,26.63,0,0,0-15.6,4.4,51.006,51.006,0,0,0-6,5.2c0-2.4,0-5.2-.2-8a36.181,36.181,0,0,0-5.8-15.8,54.336,54.336,0,0,0-5-6.6,36.975,36.975,0,0,0-5,7.4,35.013,35.013,0,0,0-4.2,17.8,37.881,37.881,0,0,0,4.6,15.2C18.156,123.3,20.756,125.5,23.356,125.5Z" transform="translate(11.154 79.1)" fill="#bbac9a"/><path d="M12.565,136.8c2.8,3.4,5.8,5.2,8.4,4.8a219.4,219.4,0,0,1-8.6-37.2s2,9.8,4.6,18.8c2.6,9.2,6,17.8,6,17.8s6.2-7,12.8-13,13.4-11.4,13.4-11.4a200.466,200.466,0,0,0-24.4,25.8c2.2,1,5.6.4,9.4-1.4a44.125,44.125,0,0,0,11.8-8.6,29.519,29.519,0,0,0,7.4-13.2,35.455,35.455,0,0,0,1.4-7.2,37.984,37.984,0,0,0-8.2.2,26.526,26.526,0,0,0-14.8,6.6,36.091,36.091,0,0,0-5.2,6c-.4-2.6-.8-5.2-1.4-8a35.012,35.012,0,0,0-8-14.8,51.859,51.859,0,0,0-6-5.8,39.4,39.4,0,0,0-4,8.2,33.485,33.485,0,0,0-1.4,18A38.637,38.637,0,0,0,12.565,136.8Z" transform="translate(5.145 96.2)" fill="#bbac9a"/><path d="M12.143,154c3.2,3,6.6,4.2,9,3.6A243.7,243.7,0,0,1,7.343,122s3.2,9.2,7.2,17.8c3.8,8.6,8.4,16.6,8.4,16.6s5-7.6,10.6-14.6c5.6-7.2,11.6-13.4,11.6-13.4a222.92,222.92,0,0,0-20.4,29.2c2.4.8,5.8-.2,9.2-2.6a45.23,45.23,0,0,0,10.4-10.2,28.644,28.644,0,0,0,5.4-14,52.235,52.235,0,0,0,.2-7.4,29.252,29.252,0,0,0-8,1.4,27.624,27.624,0,0,0-13.8,8.8,62.447,62.447,0,0,0-4.2,6.8,65.96,65.96,0,0,0-2.4-7.6,35.991,35.991,0,0,0-10-13.6,50.839,50.839,0,0,0-6.8-4.8,39.76,39.76,0,0,0-2.6,8.6,30.683,30.683,0,0,0,1.2,17.8A37.9,37.9,0,0,0,12.143,154Z" transform="translate(1.368 114.4)" fill="#bbac9a"/><path d="M14.5,171.4c3.6,2.4,7,3.2,9.4,2.2A242.127,242.127,0,0,1,5.1,140.4S9.7,149,14.9,157s10.8,15.2,10.8,15.2a174.688,174.688,0,0,1,8.4-16c4.4-7.8,9.4-14.8,9.4-14.8a214.745,214.745,0,0,0-16,31.8c2.6.4,5.8-1.2,8.8-4a46.342,46.342,0,0,0,8.8-11.6,28.782,28.782,0,0,0,3.4-14.8,33.858,33.858,0,0,0-.8-7.4,33.041,33.041,0,0,0-7.6,2.6,25.974,25.974,0,0,0-12.4,10.6,46.076,46.076,0,0,0-3.2,7.4,80.016,80.016,0,0,0-3.6-7.2,38.066,38.066,0,0,0-12-12A38.832,38.832,0,0,0,1.5,133a37.767,37.767,0,0,0-1.4,9,30.7,30.7,0,0,0,3.8,17.6A36.567,36.567,0,0,0,14.5,171.4Z" transform="translate(0.008 133)" fill="#bbac9a"/><path d="M19.759,190c4,1.8,7.4,2.2,9.6.8a237.55,237.55,0,0,1-23.4-30.2s5.8,7.8,12,15,12.8,13.6,12.8,13.6c0,.2,2.6-8.8,6-17,3.2-8.2,7.2-16,7.2-16a202.947,202.947,0,0,0-11.2,33.8c2.6,0,5.4-2,8-5.2a51.042,51.042,0,0,0,7-12.8,28.374,28.374,0,0,0,1.2-15,34.478,34.478,0,0,0-1.8-7.2,32.539,32.539,0,0,0-7.2,3.6,26.856,26.856,0,0,0-10.6,12.2,40.159,40.159,0,0,0-2.2,7.6,65.963,65.963,0,0,0-4.6-6.6,38.432,38.432,0,0,0-13.6-10,46.906,46.906,0,0,0-7.8-2.8,32.233,32.233,0,0,0,.2,9,31.165,31.165,0,0,0,6.2,17A34.9,34.9,0,0,0,19.759,190Z" transform="translate(0.952 149.8)" fill="#bbac9a"/><path d="M36.947,208.4A228.04,228.04,0,0,1,9.347,182s6.8,7,14,13.2a168.957,168.957,0,0,0,14.8,11.6c.2,0,1.4-9.2,3.6-17.8,2-8.8,4.8-17,4.8-17a216.609,216.609,0,0,0-6.2,35c2.6-.4,5-2.8,7.2-6.4a50.88,50.88,0,0,0,5.2-13.8,28.266,28.266,0,0,0-1-15,35.862,35.862,0,0,0-2.8-6.8,43.489,43.489,0,0,0-6.6,4.6,25.724,25.724,0,0,0-8.8,13.6,38.1,38.1,0,0,0-1,8,48.929,48.929,0,0,0-5.4-6,37.28,37.28,0,0,0-14.8-8,38.681,38.681,0,0,0-8.2-1.6,42.807,42.807,0,0,0,1.2,9,36.13,36.13,0,0,0,8.4,16.2,35.752,35.752,0,0,0,13.6,8.2C31.547,210.2,34.947,210,36.947,208.4Z" transform="translate(4.164 165)" fill="#bbac9a"/><path d="M47.347,224.1a215.483,215.483,0,0,1-31.2-22s7.8,6,15.8,11,16.2,9.2,16.2,9.2,0-9.4.8-18.2,2.4-17.4,2.4-17.4a232.3,232.3,0,0,0-1,35.6c2.4-.6,4.6-3.4,6.2-7.2a49.516,49.516,0,0,0,3-14.4,29.734,29.734,0,0,0-3.2-14.6,38.8,38.8,0,0,0-3.8-6.4,34.853,34.853,0,0,0-5.8,5.6,26.674,26.674,0,0,0-6.6,14.8,35.443,35.443,0,0,0,.2,8c-2-1.6-4-3.4-6.4-5a34.768,34.768,0,0,0-15.8-5.8,51.95,51.95,0,0,0-8.4-.4,65.8,65.8,0,0,0,2.6,8.6,33.616,33.616,0,0,0,11,14.4,36.024,36.024,0,0,0,14.6,6.2C42.147,226.7,45.747,226.1,47.347,224.1Z" transform="translate(9.764 179.7)" fill="#bbac9a"/><path d="M59.247,238.4a259.964,259.964,0,0,1-34-17.4s8.6,4.8,17.2,8.6,17.4,6.8,17.4,6.8-1.4-9-1.8-18-.2-17.6-.2-17.6a218.776,218.776,0,0,0,4.2,35.4c2.2-1,4-4.2,5-8.2a47.885,47.885,0,0,0,1-14.6,29.42,29.42,0,0,0-5.4-14,34.644,34.644,0,0,0-4.8-5.8,31.553,31.553,0,0,0-5,6.4,27.122,27.122,0,0,0-4.4,15.6,45.078,45.078,0,0,0,1.4,7.8,40.632,40.632,0,0,0-7-4.2,37.4,37.4,0,0,0-16.6-3.4,39.477,39.477,0,0,0-8.2.8,52.019,52.019,0,0,0,3.8,8.2,32.042,32.042,0,0,0,13,12.8,38.269,38.269,0,0,0,15.4,4C54.647,241.8,57.847,240.6,59.247,238.4Z" transform="translate(18.064 193.6)" fill="#bbac9a"/><path d="M64.347,255c4.2-.6,7.4-2.2,8.4-4.6a233.663,233.663,0,0,1-36.2-12.2,189.752,189.752,0,0,0,18.4,6c9.2,2.6,18.2,4.2,18.2,4.2s-2.6-8.8-4.4-17.6-2.8-17.4-2.8-17.4a204.328,204.328,0,0,0,9.2,34.4c2.2-1.4,3.4-4.6,3.8-8.8a47.437,47.437,0,0,0-1.2-14.6,32.166,32.166,0,0,0-7.4-13.2,39.217,39.217,0,0,0-5.6-5,34.33,34.33,0,0,0-4,7,26.879,26.879,0,0,0-2.2,16.2,42.148,42.148,0,0,0,2.4,7.6c-2.2-1-4.6-2-7.4-3a34.935,34.935,0,0,0-16.8-1,55.049,55.049,0,0,0-8,2,38.993,38.993,0,0,0,4.8,7.6,32.852,32.852,0,0,0,15,10.6A35.3,35.3,0,0,0,64.347,255Z" transform="translate(28.764 206.2)" fill="#bbac9a"/><path d="M86.947,260.2a228.9,228.9,0,0,1-37.6-6.8s9.6,2,19,3.2a168.882,168.882,0,0,0,18.6,1.6s-3.8-8.4-6.8-16.8-5.2-16.8-5.2-16.8a207.876,207.876,0,0,0,14,32.6c2-1.6,2.8-5,2.6-9.2a44.811,44.811,0,0,0-3.2-14.2,27.486,27.486,0,0,0-9.2-12,36.763,36.763,0,0,0-6.2-4.2,31.7,31.7,0,0,0-3,7.6,26.413,26.413,0,0,0,.2,16.2,40.351,40.351,0,0,0,3.6,7.2,73.818,73.818,0,0,0-7.8-2,37.717,37.717,0,0,0-16.8,1.6,37.3,37.3,0,0,0-7.6,3.2,47.878,47.878,0,0,0,6,6.8,30.81,30.81,0,0,0,16,8.4,32.713,32.713,0,0,0,15.6-.6C83.347,264.8,86.147,262.6,86.947,260.2Z" transform="translate(41.564 217.6)" fill="#bbac9a"/><path d="M102.647,267.3a224.1,224.1,0,0,1-38.2-1.4s9.8.6,19.2.4,18.6-1.2,18.6-1.2-5-7.8-9.2-15.6-7.6-15.8-7.6-15.8a219.6,219.6,0,0,0,18.6,30.2c1.8-1.8,2-5.2,1.2-9.4a59.778,59.778,0,0,0-5.4-13.6,29.481,29.481,0,0,0-10.8-10.4,35.769,35.769,0,0,0-6.6-3.2,43.472,43.472,0,0,0-1.8,8,26.116,26.116,0,0,0,2.6,16,54.915,54.915,0,0,0,4.6,6.6,49.254,49.254,0,0,0-8-.8,37.4,37.4,0,0,0-16.4,4,38.629,38.629,0,0,0-7.2,4.2,37.521,37.521,0,0,0,6.8,5.8,29.541,29.541,0,0,0,17.2,5.8,35.724,35.724,0,0,0,15.6-2.8C99.847,272.3,102.247,269.9,102.647,267.3Z" transform="translate(56.264 227.3)" fill="#bbac9a"/><path d="M118.447,272.3a235.019,235.019,0,0,1-38,4.2s9.8-.8,19.2-2.4,18.2-4,18.2-4-6.2-6.8-11.4-14-9.8-14.6-9.8-14.6a205.506,205.506,0,0,0,22.8,27.2c1.4-2.2,1.2-5.6-.2-9.6a48.992,48.992,0,0,0-7.2-12.8,28.642,28.642,0,0,0-12.2-8.8,38.325,38.325,0,0,0-7-2.2,32.439,32.439,0,0,0-.6,8,26.225,26.225,0,0,0,4.8,15.4,30.016,30.016,0,0,0,5.4,5.8,56.28,56.28,0,0,0-8,.4,33.329,33.329,0,0,0-15.6,6.2,36.767,36.767,0,0,0-6.4,5.2,40.609,40.609,0,0,0,7.6,4.8,35.736,35.736,0,0,0,17.6,4,34.019,34.019,0,0,0,15-5C116.447,277.7,118.447,274.9,118.447,272.3Z" transform="translate(72.464 235.3)" fill="#bbac9a"/><path d="M134.947,273.9a216.061,216.061,0,0,1-36.8,9.8s9.6-2.2,18.6-5.2c9.2-3,17.6-6.6,17.6-6.6a169.668,169.668,0,0,1-13.4-12.2c-6.4-6.4-12-13-12-13a217.363,217.363,0,0,0,26.6,23.6c1.2-2.2.4-5.6-1.6-9.4a50.578,50.578,0,0,0-9-11.6,29.023,29.023,0,0,0-13.4-7,29.839,29.839,0,0,0-7.4-1.2,38.444,38.444,0,0,0,.6,8,26.494,26.494,0,0,0,7.2,14.6,35.763,35.763,0,0,0,6.2,5,62.99,62.99,0,0,0-8,1.6,36.985,36.985,0,0,0-14.6,8.4,47.721,47.721,0,0,0-5.6,6.2,39.872,39.872,0,0,0,8.2,3.6,31.841,31.841,0,0,0,18,.8,46.994,46.994,0,0,0,14.2-7C133.747,279.5,135.347,276.5,134.947,273.9Z" transform="translate(89.964 241.1)" fill="#bbac9a"/><path d="M115.947,287.691s9.2-3.6,17.6-7.8c8.6-4.2,16.4-9,16.4-9s-7.8-4.8-15-10.2c-7.2-5.2-13.6-11-14.2-11.4a212.42,212.42,0,0,0,29.8,19.4c.8-2.4-.6-5.6-3-9a47.2,47.2,0,0,0-10.6-10.2,28.387,28.387,0,0,0-14.2-5,37.5,37.5,0,0,0-7.4,0,46.237,46.237,0,0,0,1.8,8,27.561,27.561,0,0,0,9.2,13.4,41.649,41.649,0,0,0,7,4,71.3,71.3,0,0,0-7.6,2.8,35.886,35.886,0,0,0-13.2,10.6,45.336,45.336,0,0,0-4.6,7,38.04,38.04,0,0,0,8.8,2.4,33.571,33.571,0,0,0,18-1.8,35.566,35.566,0,0,0,13-9.2c2.8-3.2,4-6.6,3.2-9A230.34,230.34,0,0,1,115.947,287.691Z" transform="translate(107.964 244.309)" fill="#bbac9a"/><path d="M424.947,236.7c-.122-107.314-87.086-194.278-194.4-194.4-107.314.122-194.278,87.086-194.4,194.4.122,107.314,87.086,194.278,194.4,194.4C337.861,430.978,424.825,344.014,424.947,236.7Zm-194.4,192.4c-106.21-.12-192.28-86.19-192.4-192.4.12-106.21,86.19-192.28,192.4-192.4,106.21.12,192.28,86.19,192.4,192.4C422.827,342.91,336.757,428.98,230.547,429.1Z" transform="translate(36.164 42.3)" fill="#bbac9a"/><path d="M161.97,272.991a44.283,44.283,0,0,0-7.6-2.8,35.066,35.066,0,0,0,7-4,26.281,26.281,0,0,0,9.2-13.4,32.866,32.866,0,0,0,1.8-8,37.5,37.5,0,0,0-7.4,0,28.394,28.394,0,0,0-14.2,5,47.2,47.2,0,0,0-10.6,10.2c-2.6,3.2-3.8,6.6-3,9a195.967,195.967,0,0,0,29.8-19.4s-6.4,5.6-13.6,11-15,10.2-15,10.2,7.8,4.8,16.4,9c8.4,4.2,17.6,7.8,17.6,7.8a239.279,239.279,0,0,1-35-15c-.8,2.4.4,5.6,3.2,9a37.4,37.4,0,0,0,13,9.2,31.723,31.723,0,0,0,18,1.8,41.042,41.042,0,0,0,8.2-2,45.33,45.33,0,0,0-4.6-7A34,34,0,0,0,161.97,272.991Z" transform="translate(136.941 244.609)" fill="#bbac9a"/><path d="M194.385,278.5a36.985,36.985,0,0,0-14.6-8.4,62.99,62.99,0,0,0-8-1.6,45.283,45.283,0,0,0,6.2-5,26.494,26.494,0,0,0,7.2-14.6,38.444,38.444,0,0,0,.6-8,48.481,48.481,0,0,0-7.4,1.2,29.022,29.022,0,0,0-13.4,7,50.577,50.577,0,0,0-9,11.6c-2,3.6-2.6,7-1.6,9.4a217.216,217.216,0,0,0,26.6-23.6s-5.6,6.6-12,13c-6.4,6.2-13.4,12.2-13.4,12.2a152.489,152.489,0,0,0,17.4,6.6c9,3,18.6,5.2,18.6,5.2a236.357,236.357,0,0,1-36.8-9.8c-.4,2.4,1.4,5.6,4.6,8.4a37.762,37.762,0,0,0,14.2,7.2,31.948,31.948,0,0,0,18-.8,33.941,33.941,0,0,0,8.4-3.8A36.151,36.151,0,0,0,194.385,278.5Z" transform="translate(153.926 240.9)" fill="#bbac9a"/><path d="M196.125,264.7a54.855,54.855,0,0,0-8-.4,37.75,37.75,0,0,0,5.4-5.8,27.729,27.729,0,0,0,4.8-15.4,32.438,32.438,0,0,0-.6-8,44.2,44.2,0,0,0-7,2.2,28.642,28.642,0,0,0-12.2,8.8,52.457,52.457,0,0,0-7.2,12.8c-1.4,4-1.6,7.4-.2,9.6a205.5,205.5,0,0,0,22.8-27.2s-4.4,7.4-9.8,14.6c-5.2,7-11.4,14-11.4,14a152.15,152.15,0,0,0,18.2,4c9.4,1.6,19.2,2.4,19.2,2.4a232.55,232.55,0,0,1-38-4.2c0,2.6,2.2,5.4,5.8,7.8a38.821,38.821,0,0,0,15,5,31.7,31.7,0,0,0,17.8-3.6c4.8-2.2,7.6-4.8,7.4-5.2a36.766,36.766,0,0,0-6.4-5.2A38.122,38.122,0,0,0,196.125,264.7Z" transform="translate(170.186 235.1)" fill="#bbac9a"/><path d="M211.671,257.2c-2.8.2-5.6.4-8,.8a38.715,38.715,0,0,0,4.6-6.6,26.117,26.117,0,0,0,2.6-16,38.764,38.764,0,0,0-1.8-8,35.768,35.768,0,0,0-6.6,3.2,27.947,27.947,0,0,0-10.8,10.4,41.883,41.883,0,0,0-5.4,13.6c-.8,4-.6,7.4,1.2,9.4a219.6,219.6,0,0,0,18.6-30.2s-3.4,8-7.6,15.8-9.2,15.6-9.2,15.6,9,1,18.6,1.2c9.4.2,19.2-.4,19.2-.4a224.091,224.091,0,0,1-38.2,1.4c.4,2.6,2.8,5,6.8,6.8a35.724,35.724,0,0,0,15.6,2.8,31.035,31.035,0,0,0,17-6c4.2-3,6.8-5.8,7-5.6a38.628,38.628,0,0,0-7.2-4.2A34.872,34.872,0,0,0,211.671,257.2Z" transform="translate(185.84 227.4)" fill="#bbac9a"/><path d="M225.662,246.6a73.817,73.817,0,0,0-7.8,2,40.217,40.217,0,0,0,3.6-7.2,27.99,27.99,0,0,0,.2-16.2,31.7,31.7,0,0,0-3-7.6,61.891,61.891,0,0,0-6.2,4.2,28.716,28.716,0,0,0-9.2,12,51.067,51.067,0,0,0-3.2,14.2c-.2,4.2.6,7.6,2.6,9.2a219.109,219.109,0,0,0,14-32.6s-2.2,8.4-5.2,16.8-6.8,16.8-6.8,16.8,9.2-.4,18.6-1.6,19-3.2,19-3.2a232.659,232.659,0,0,1-37.6,6.8c.8,2.6,3.6,4.6,7.8,5.8a36.952,36.952,0,0,0,15.8.6,30.81,30.81,0,0,0,16-8.4,38.909,38.909,0,0,0,5.8-6.8,37.3,37.3,0,0,0-7.6-3.2A35.033,35.033,0,0,0,225.662,246.6Z" transform="translate(200.049 217.6)" fill="#bbac9a"/><path d="M238.51,234a40.8,40.8,0,0,0-7.4,3,42.147,42.147,0,0,0,2.4-7.6,28.211,28.211,0,0,0-2.2-16.2,34.331,34.331,0,0,0-4-7,24.132,24.132,0,0,0-5.6,5,28.23,28.23,0,0,0-7.4,13.2,47.437,47.437,0,0,0-1.2,14.6c.4,4.2,1.6,7.4,3.8,8.8a204.138,204.138,0,0,0,9.2-34.4s-1,8.6-2.8,17.4-4.4,17.6-4.4,17.6,9-1.6,18.2-4.2,18.4-6,18.4-6a233.663,233.663,0,0,1-36.2,12.2c1,2.4,4,4,8.4,4.6a38.048,38.048,0,0,0,15.8-1.8,31.575,31.575,0,0,0,14.6-10.6c3.2-4.2,4.8-7.6,5.2-7.6a47.1,47.1,0,0,0-8-2A35.06,35.06,0,0,0,238.51,234Z" transform="translate(213 206.2)" fill="#bbac9a"/><path d="M249.033,219.1a71.86,71.86,0,0,0-7,4.2,31.827,31.827,0,0,0,1.4-7.8,27.571,27.571,0,0,0-4.4-15.6,31.554,31.554,0,0,0-5-6.4,34.644,34.644,0,0,0-4.8,5.8,27.866,27.866,0,0,0-5.4,14,47.886,47.886,0,0,0,1,14.6c1,4.2,2.6,7.2,5,8.2a198.63,198.63,0,0,0,4.2-35.4s.4,8.6-.2,17.6c-.4,8.8-1.8,18-1.8,18s8.8-3,17.4-6.8,17.2-8.6,17.2-8.6a218.565,218.565,0,0,1-34,17.4c1.4,2,4.6,3.2,9,3.2a35.24,35.24,0,0,0,15.4-4,31.089,31.089,0,0,0,12.8-12.6,67.973,67.973,0,0,0,4-8.4,39.475,39.475,0,0,0-8.2-.8A37.428,37.428,0,0,0,249.033,219.1Z" transform="translate(223.677 193.5)" fill="#bbac9a"/><path d="M257.66,203.1a41.8,41.8,0,0,0-6.4,5,35.443,35.443,0,0,0,.2-8,26.674,26.674,0,0,0-6.6-14.8,34.854,34.854,0,0,0-5.8-5.6,38.8,38.8,0,0,0-3.8,6.4,29.238,29.238,0,0,0-3.2,14.6,48.115,48.115,0,0,0,3,14.4c1.6,3.8,3.8,6.6,6.2,7.2a190.617,190.617,0,0,0-1-35.6s1.6,8.4,2.4,17.4.8,18.2.8,18.2,8.2-4.2,16.2-9.2,15.8-11,15.8-11a239.78,239.78,0,0,1-31.2,22c1.6,2,5,2.6,9.4,2a33.441,33.441,0,0,0,14.6-6.2,32.1,32.1,0,0,0,11-14.4c2-5,2.4-8.8,2.6-8.6a51.951,51.951,0,0,0-8.4.4A34.768,34.768,0,0,0,257.66,203.1Z" transform="translate(232.05 179.7)" fill="#bbac9a"/><path d="M278.8,177a38.634,38.634,0,0,0-14.8,8,72.752,72.752,0,0,0-5.4,6,38.1,38.1,0,0,0-1-8,26.531,26.531,0,0,0-8.8-13.6,34.405,34.405,0,0,0-6.6-4.6,35.861,35.861,0,0,0-2.8,6.8,30.443,30.443,0,0,0-1,15,46.258,46.258,0,0,0,5.2,13.8c2.2,3.8,4.6,6.2,7.2,6.4a196.754,196.754,0,0,0-6.2-35s2.8,8.2,4.8,17c2.2,8.6,3.6,17.8,3.6,17.8s7.6-5.4,14.8-11.6,14-13.2,14-13.2a243.81,243.81,0,0,1-27.6,26.4c2,1.8,5.4,1.8,9.6.6a35.777,35.777,0,0,0,13.6-8.2,31.832,31.832,0,0,0,8.6-15.8,29.287,29.287,0,0,0,1-9.4A38.681,38.681,0,0,0,278.8,177Z" transform="translate(237.91 164.8)" fill="#bbac9a"/><path d="M282.164,156.6a34.678,34.678,0,0,0-13.6,10,43.881,43.881,0,0,0-4.6,6.6,40.158,40.158,0,0,0-2.2-7.6,26.736,26.736,0,0,0-10.6-12.2,40.015,40.015,0,0,0-7.2-3.6,34.6,34.6,0,0,0-1.8,7.2,30.566,30.566,0,0,0,1.2,15,45.411,45.411,0,0,0,7,12.8c2.6,3.2,5.4,5.2,8,5.2a197.055,197.055,0,0,0-11.2-33.8s3.8,7.6,7.2,16c3.4,8.2,6,17,6,17s6.6-6.4,12.8-13.6c6.2-7,12-15,12-15a224.051,224.051,0,0,1-23.4,30.2c2.2,1.4,5.6,1,9.6-.8a37.237,37.237,0,0,0,12.2-10.2,32.821,32.821,0,0,0,6.2-17c.4-5.2-.2-9,.2-9A46.907,46.907,0,0,0,282.164,156.6Z" transform="translate(241.746 149.8)" fill="#bbac9a"/><path d="M270.154,148.8a60.451,60.451,0,0,0-3.6,7.2,39.373,39.373,0,0,0-3.2-7.4,29.252,29.252,0,0,0-12.4-10.6,33.041,33.041,0,0,0-7.6-2.6,33.857,33.857,0,0,0-.8,7.4,30,30,0,0,0,3.4,14.8,50.368,50.368,0,0,0,8.8,11.6c3.2,2.8,6.2,4.4,8.8,4a214.741,214.741,0,0,0-16-31.8s5,7,9.4,14.8c4.4,7.6,8.4,16,8.4,16s5.6-7.2,10.8-15.2,9.8-16.6,9.8-16.6a242.136,242.136,0,0,1-18.8,33.2c2.4,1,5.8.2,9.4-2.2a36.543,36.543,0,0,0,10.6-11.8,34.288,34.288,0,0,0,3.8-17.6,35.364,35.364,0,0,0-1.4-9,38.833,38.833,0,0,0-7.4,3.8A34.389,34.389,0,0,0,270.154,148.8Z" transform="translate(242.557 133)" fill="#bbac9a"/><path d="M130.117,228.215l-12.628-30.4h-1.648l-11.562,30.4a5.2,5.2,0,0,1-5.212,3.8v1.066h8.944v-1.066q-4.119,0-2.6-3.8l2.618-6.836h12.484l2.762,6.836q1.551,3.855-2.568,3.8v1.066H135.2v-1.066A5.51,5.51,0,0,1,130.117,228.215Zm-21.67-7.854q.387-1,5.672-14.834,5.334,13.284,5.988,14.834Z" transform="translate(99.084 197.815)" fill="#bbac9a"/><path d="M126.009,195.953l6.884,2.328q7.173,2.424,7.49-4.63l-1.044-.17q-1,2.835-3.078,2.2l-7.344-2.23q-6.981-2.133-7.054,4.678l1.116.146Q123.876,195.227,126.009,195.953Z" transform="translate(121.88 192.943)" fill="#bbac9a"/><path d="M143.048,198.785a3.922,3.922,0,0,1,4.436,4.436v19.028q-11.223-14.907-16.07-22.106a4.393,4.393,0,0,1-1.212-2.328H117.864v.97a3.892,3.892,0,0,1,4.35,3.372,3.949,3.949,0,0,1-.012,1.064v24.456a3.9,3.9,0,0,1-4.338,4.46v.946h9.89v-.9a3.921,3.921,0,0,1-4.4-3.368,3.973,3.973,0,0,1,.016-1.142v-26l23.366,31.414H148.6V203.225a3.847,3.847,0,0,1,4.364-4.388v-1.018h-9.914Z" transform="translate(117.881 197.815)" fill="#bbac9a"/><path d="M155.024,197.529a19.438,19.438,0,0,0-9.89,2.568,17.754,17.754,0,0,0-6.714,6.762,19.057,19.057,0,0,0-2.278,9.332,17.069,17.069,0,0,0,5.26,12.678,17.7,17.7,0,0,0,12.968,5.186,18.924,18.924,0,0,0,9.38-2.424,17.729,17.729,0,0,0,6.8-6.666,18.334,18.334,0,0,0,2.5-9.476,17.9,17.9,0,0,0-4.752-13.016A17.649,17.649,0,0,0,155.024,197.529Zm11.1,18.006a23.068,23.068,0,0,1-1.6,8.776,15.358,15.358,0,0,1-4.292,6.2,9.073,9.073,0,0,1-5.816,2.23,9.5,9.5,0,0,1-7.974-4.8,20.38,20.38,0,0,1-3.322-11.8,24.443,24.443,0,0,1,1.454-8.628,15.115,15.115,0,0,1,4.146-6.254,9.1,9.1,0,0,1,6.156-2.376,9.431,9.431,0,0,1,8.266,4.582A21.6,21.6,0,0,1,166.124,215.535Z" transform="translate(136.155 197.501)" fill="#bbac9a"/><path d="M175.271,213.9a47.177,47.177,0,0,0-6.472-2.762,18.8,18.8,0,0,1-6.156-3.078,4.457,4.457,0,0,1-1.31-2.328,5.8,5.8,0,0,1,.1-2.982,4.157,4.157,0,0,1,1.478-2.374,7.154,7.154,0,0,1,4.678-1.6,7.6,7.6,0,0,1,6.52,2.812,15.506,15.506,0,0,1,2.884,6.4l.9-.1-.752-9.818h-.946q-.048,2.184-3.442.68a13.377,13.377,0,0,0-5.4-1.188,12.486,12.486,0,0,0-8.484,2.86,8.9,8.9,0,0,0-2.86,6.762q.048,5.721,7.418,9.454a41.156,41.156,0,0,0,3.828,1.648,32.411,32.411,0,0,1,4.388,1.988,9.339,9.339,0,0,1,2.666,2.108,5.473,5.473,0,0,1,1.066,2.74,7.2,7.2,0,0,1-.388,3.222A5.276,5.276,0,0,1,173,230.969a9.107,9.107,0,0,1-5.842,1.48,10.761,10.761,0,0,1-7.418-3.03,14.213,14.213,0,0,1-3.538-6.884h-.872v10.8h.872a3.289,3.289,0,0,1,.752-2.2,1.355,1.355,0,0,1,1.442-.376,11.922,11.922,0,0,1,2.1,1,14.985,14.985,0,0,0,6.762,2.086,12.3,12.3,0,0,0,9.382-3.032,11.186,11.186,0,0,0,3.684-7.828,9.7,9.7,0,0,0-1.164-5.5A11.306,11.306,0,0,0,175.271,213.9Z" transform="translate(155.344 197.559)" fill="#bbac9a"/><path d="M151.782,267.519h6.5q7.035,0,7.038-2.166,0-2.979-16.844-2.438-10.5.273-10.77-10.56V88.831l-1.08-4.06L126.378,91q-8.9,5.685-9.708,6.228-16.182,9.477-39.1,11.37-8.9.813-8.9,2.436,0,2.436,6.97,2.166H89.318q6.7,0,7.508,4.316.534,2.7.538,34.806v100.36q0,4.86-1.608,7.282-2.685,2.706-14.48,2.972a101.251,101.251,0,0,0-10.458.268c-.9.178-1.342.81-1.342,1.888q0,2.43,6.77,2.43H122Q147.992,267.243,151.782,267.519Z" transform="translate(68.683 84.771)" fill="#bbac9a"/><path d="M251.447,167.752q-16.206-15.972-40.452-15.974-17.433,0-32.14,13.538,4.086-33.03,25.082-55.232a65.579,65.579,0,0,1,22.356-15.432,70.7,70.7,0,0,1,26.994-6.226c2,0,3-.542,3-1.624q0-1.893-10.29-1.9-33.846,0-58.478,14.754a103.761,103.761,0,0,0-38.174,39.122q-13.542,24.366-13.536,53.876,0,34.926,19.492,56.45t51.17,21.524q22.743,0,38.174-13.266,23.007-19.494,23.012-49.816Q267.657,183.727,251.447,167.752ZM218.923,255.2q-4.605,10.83-15.16,10.83-10.02,0-15.162-10.018-9.744-18.948-9.746-49.816,0-45.21,20.3-45.212,13,0,18.682,13.806T223.527,220Q223.527,244.371,218.923,255.2Z" transform="translate(135.826 84.906)" fill="#bbac9a"/></svg>