<?xml version="1.0" encoding="UTF-8" standalone="no"?>
<svg
   width="266.779"
   height="268.884"
   viewBox="0 0 266.779 268.884"
   version="1.1"
   id="svg102"
   sodipodi:docname="20-anos-emblem.svg"
   inkscape:version="1.2.2 (b0a8486541, 2022-12-01)"
   xmlns:inkscape="http://www.inkscape.org/namespaces/inkscape"
   xmlns:sodipodi="http://sodipodi.sourceforge.net/DTD/sodipodi-0.dtd"
   xmlns="http://www.w3.org/2000/svg"
   xmlns:svg="http://www.w3.org/2000/svg">
  <defs
     id="defs106" />
  <sodipodi:namedview
     id="namedview104"
     pagecolor="#ffffff"
     bordercolor="#000000"
     borderopacity="0.25"
     inkscape:showpageshadow="2"
     inkscape:pageopacity="0.0"
     inkscape:pagecheckerboard="0"
     inkscape:deskcolor="#d1d1d1"
     showgrid="false"
     inkscape:zoom="3.1835289"
     inkscape:cx="133.49965"
     inkscape:cy="132.24318"
     inkscape:window-width="1920"
     inkscape:window-height="1015"
     inkscape:window-x="1920"
     inkscape:window-y="37"
     inkscape:window-maximized="1"
     inkscape:current-layer="g100" />
  <g
     transform="translate(0.008)"
     id="g100">
    <path
       d="M255.247,123.7a32.979,32.979,0,0,0-1.2,3.8,15.684,15.684,0,0,0-2.1-3.4,13.562,13.562,0,0,0-6.9-4.4,22.9,22.9,0,0,0-4-.7,16.531,16.531,0,0,0,2.8,10.7,24.893,24.893,0,0,0,5.2,5.1c1.7,1.2,3.4,1.7,4.6,1.3a105.128,105.128,0,0,0-10.2-14.6s3,3.2,5.8,6.7c2.7,3.5,5.3,7.3,5.3,7.3s2.2-4,4.2-8.3,3.6-8.9,3.6-8.9a111.457,111.457,0,0,1-6.9,17.8c1.3.3,2.9-.3,4.5-1.8a18.964,18.964,0,0,0,4.4-6.6,15.629,15.629,0,0,0,.6-9,15.82,15.82,0,0,0-1.3-4.2,17.518,17.518,0,0,0-3.4,2.4A18,18,0,0,0,255.247,123.7Z"
       fill="#cbbb46"
       id="path2" />
    <path
       d="M250.847,110.6a23.128,23.128,0,0,0-2.6-3,13.26,13.26,0,0,0-7.4-3.3,18.8,18.8,0,0,0-4.1-.1,17.8,17.8,0,0,0,.7,3.6,14.267,14.267,0,0,0,3.7,6.6,22.062,22.062,0,0,0,5.9,4.3c1.8,1,3.6,1.3,4.7.7a100.232,100.232,0,0,0-12.2-12.9s3.4,2.6,6.7,5.7,6.4,6.5,6.4,6.5,1.7-4.3,3-8.9c1.4-4.6,2.3-9.4,2.3-9.4a120.229,120.229,0,0,1-4.3,18.6c1.3.2,2.8-.7,4.2-2.4a17.886,17.886,0,0,0,3.4-7.2,15.822,15.822,0,0,0-.7-9,19.675,19.675,0,0,0-2-4.1,18.418,18.418,0,0,0-3,2.9,17.517,17.517,0,0,0-4,7.4A19.812,19.812,0,0,0,250.847,110.6Z"
       fill="#cbbb46"
       id="path4" />
    <path
       d="M245.347,94.2a19.3,19.3,0,0,0-3-2.6,13.315,13.315,0,0,0-7.8-2.2,23.829,23.829,0,0,0-4,.5,15.981,15.981,0,0,0,1.2,3.5,14.922,14.922,0,0,0,4.6,6,22.666,22.666,0,0,0,6.5,3.4c2,.7,3.8.7,4.8,0a100.712,100.712,0,0,0-14-11s3.7,2.1,7.4,4.7,7.2,5.5,7.2,5.5a69.044,69.044,0,0,0,1.7-9.2c.7-4.7.9-9.6.9-9.6a117.843,117.843,0,0,1-1.5,19c1.3,0,2.7-1.1,3.8-3a18.94,18.94,0,0,0,2.3-7.6,15.531,15.531,0,0,0-2-8.8,18.488,18.488,0,0,0-2.5-3.7,24.793,24.793,0,0,0-2.6,3.2,18.1,18.1,0,0,0-2.9,7.9A27.117,27.117,0,0,0,245.347,94.2Z"
       fill="#cbbb46"
       id="path6" />
    <path
       d="M237.647,79.1a19.741,19.741,0,0,0-3.4-2.2,13.908,13.908,0,0,0-8.1-1,15.787,15.787,0,0,0-3.9,1,24.665,24.665,0,0,0,1.7,3.3,13.568,13.568,0,0,0,5.4,5.2,23.737,23.737,0,0,0,6.9,2.4c2,.4,3.8.2,4.7-.7a108.574,108.574,0,0,0-15.4-8.8s4,1.6,8,3.6c4.1,2,8,4.4,8,4.4s.4-4.5.3-9.3c0-4.7-.5-9.6-.5-9.6a111.779,111.779,0,0,1,1.3,19c1.3-.2,2.5-1.5,3.3-3.5a17.327,17.327,0,0,0,1.2-7.9,15.879,15.879,0,0,0-3.3-8.4,17.909,17.909,0,0,0-3-3.3,23.562,23.562,0,0,0-2,3.6,17.413,17.413,0,0,0-1.7,8.2C237.247,76.5,237.447,77.9,237.647,79.1Z"
       fill="#cbbb46"
       id="path8" />
    <path
       d="M227.647,65.1a14.887,14.887,0,0,0-3.6-1.7,13.075,13.075,0,0,0-8.1.1,19.249,19.249,0,0,0-3.7,1.6,20.71,20.71,0,0,0,2.2,3,14.387,14.387,0,0,0,6.1,4.4,22.805,22.805,0,0,0,7.2,1.4c2.1.1,3.8-.4,4.6-1.4a99.049,99.049,0,0,0-16.5-6.5s4.3,1,8.5,2.4c4.3,1.4,8.5,3.2,8.5,3.2s-.3-4.6-1.1-9.3c-.7-4.7-1.9-9.4-1.9-9.4a114.6,114.6,0,0,1,4,18.6c1.3-.4,2.3-1.8,2.8-3.9a18.983,18.983,0,0,0,0-7.9,17.13,17.13,0,0,0-4.5-7.8,17.93,17.93,0,0,0-3.5-2.9,18.031,18.031,0,0,0-1.5,3.9,17.446,17.446,0,0,0-.6,8.3A36.416,36.416,0,0,0,227.647,65.1Z"
       fill="#cbbb46"
       id="path10" />
    <path
       d="M204.047,52.9a20.481,20.481,0,0,0-3.5,2.1,21.2,21.2,0,0,0,2.6,2.7,14.267,14.267,0,0,0,6.7,3.5,23.16,23.16,0,0,0,7.3.4c2.1-.3,3.7-1,4.3-2.1a100.73,100.73,0,0,0-17.3-4.1s4.3.3,8.7,1.1c4.4.7,8.9,1.9,8.9,1.9s-1-4.5-2.4-9a89.217,89.217,0,0,0-3.2-9.1,118.378,118.378,0,0,1,6.7,17.9c1.2-.6,2-2.1,2.2-4.3a17.9,17.9,0,0,0-1.1-7.9,16.186,16.186,0,0,0-5.6-7.1,17.86,17.86,0,0,0-3.9-2.3,21.685,21.685,0,0,0-.9,4.1,17.711,17.711,0,0,0,.7,8.4,31.778,31.778,0,0,0,1.6,3.6,14.073,14.073,0,0,0-3.8-1.1A12.986,12.986,0,0,0,204.047,52.9Z"
       fill="#cbbb46"
       id="path12" />
    <path
       d="M200.347,38.7c.7,1.2,1.5,2.4,2.2,3.4a17.512,17.512,0,0,0-4-.5,13.342,13.342,0,0,0-7.7,2.5,19.911,19.911,0,0,0-3.1,2.6,14.672,14.672,0,0,0,2.9,2.3,13.669,13.669,0,0,0,7.1,2.5,23.5,23.5,0,0,0,7.3-.7c2.1-.6,3.5-1.5,4-2.7a107.572,107.572,0,0,0-17.7-1.5,73,73,0,0,1,8.8-.2c4.4.1,9,.6,9,.6s-1.6-4.3-3.7-8.6c-2-4.3-4.5-8.5-4.5-8.5a109.511,109.511,0,0,1,9.2,16.7c1-.8,1.6-2.4,1.5-4.6a17.686,17.686,0,0,0-2.3-7.6,16.022,16.022,0,0,0-6.5-6.2,22.46,22.46,0,0,0-4.2-1.7,14.464,14.464,0,0,0-.2,4A17.165,17.165,0,0,0,200.347,38.7Z"
       fill="#cbbb46"
       id="path14" />
    <path
       d="M185.047,30.6a20.277,20.277,0,0,0,2.6,3.1,13.408,13.408,0,0,0-4,0,13.638,13.638,0,0,0-7.3,3.6,17.292,17.292,0,0,0-2.7,3,25,25,0,0,0,3.2,1.8,14.241,14.241,0,0,0,7.4,1.4,23.01,23.01,0,0,0,7.1-1.8c1.9-.8,3.2-1.9,3.5-3.2a102.568,102.568,0,0,0-17.7,1.1s4.3-.9,8.7-1.4,9-.7,9-.7-2.2-4.1-4.9-8c-2.6-3.9-5.7-7.7-5.7-7.7a114.655,114.655,0,0,1,11.5,15.2c.9-.8,1.2-2.6.8-4.7a18.953,18.953,0,0,0-3.3-7.2,16.52,16.52,0,0,0-7.4-5.2,20.91,20.91,0,0,0-4.4-1.1,14.218,14.218,0,0,0,.5,4A17.965,17.965,0,0,0,185.047,30.6Z"
       fill="#cbbb46"
       id="path16" />
    <path
       d="M170.447,33a19.264,19.264,0,0,0,7.1.5,38.276,38.276,0,0,0,5.1-1.1,115.157,115.157,0,0,0-18.9-6.8,130.705,130.705,0,0,1,19.4,5.7,18.992,18.992,0,0,0-3.1-4.4,14.633,14.633,0,0,0-6.4-4.2,15.649,15.649,0,0,0-9.4.2,17.092,17.092,0,0,0-4.1,1.9,27.083,27.083,0,0,0,2.9,3.4A19.011,19.011,0,0,0,170.447,33Z"
       fill="#cbbb46"
       id="path18" />
    <path
       d="M122.547,30.4l10.2-5.2,10.2,5.2-2-11,8.3-7.8-11.4-1.6-5.1-10-5.1,10-11.4,1.6,8.3,7.8Z"
       fill="#cbbb46"
       id="path20" />
    <path
       d="M102.947,25.5a115.158,115.158,0,0,0-18.9,6.8,25.2,25.2,0,0,0,5.1,1.1,15.786,15.786,0,0,0,7.1-.5,19.011,19.011,0,0,0,7.4-4.8,27.081,27.081,0,0,0,2.9-3.4,17.092,17.092,0,0,0-4.1-1.9,14.39,14.39,0,0,0-15.8,4,19.022,19.022,0,0,0-3.1,4.4A110.493,110.493,0,0,1,102.947,25.5Z"
       fill="#cbbb46"
       id="path22" />
    <path
       d="M82.647,22s-3.1,3.8-5.7,7.7c-2.7,4-4.9,8-4.9,8s4.6.1,9,.7c4.5.5,8.7,1.4,8.7,1.4a102.568,102.568,0,0,0-17.7-1.1c.2,1.2,1.6,2.3,3.5,3.2a23.01,23.01,0,0,0,7.1,1.8,14.039,14.039,0,0,0,7.4-1.4,25,25,0,0,0,3.2-1.8,22.867,22.867,0,0,0-2.7-3,12.976,12.976,0,0,0-7.3-3.6,26.7,26.7,0,0,0-4,0c.9-.9,1.7-2,2.6-3.1a17.07,17.07,0,0,0,3.1-7.8,21.186,21.186,0,0,0,.3-4.2,20.91,20.91,0,0,0-4.4,1.1,15.314,15.314,0,0,0-7.4,5.2,18.975,18.975,0,0,0-3.3,7.2c-.4,2.2-.1,3.9,1,4.9A114.655,114.655,0,0,1,82.647,22Z"
       fill="#cbbb46"
       id="path24" />
    <path
       d="M56.747,46.9a119.988,119.988,0,0,1,9.2-16.7s-2.5,4.2-4.5,8.5c-2.1,4.3-3.7,8.6-3.7,8.6s4.5-.5,9-.6,8.8.2,8.8.2a108.451,108.451,0,0,0-17.7,1.5c.5,1.2,2,2.1,4,2.7a23.5,23.5,0,0,0,7.3.7,15.7,15.7,0,0,0,7.1-2.5,20.809,20.809,0,0,0,2.9-2.3,19.966,19.966,0,0,0-3.1-2.6,13.1,13.1,0,0,0-7.7-2.5,16.85,16.85,0,0,0-4,.5,22.141,22.141,0,0,0,2.2-3.4,18.418,18.418,0,0,0,1.9-8.2,26.714,26.714,0,0,0-.3-4.2,16.342,16.342,0,0,0-4.2,1.7,15.389,15.389,0,0,0-6.5,6.2,17.686,17.686,0,0,0-2.3,7.6C55.047,44.3,55.547,45.9,56.747,46.9Z"
       fill="#cbbb46"
       id="path26" />
    <path
       d="M43.947,58.4a114.552,114.552,0,0,1,6.7-17.9s-1.8,4.6-3.2,9.1a85.531,85.531,0,0,0-2.4,9s4.5-1.2,8.9-1.9c4.4-.8,8.7-1.1,8.7-1.1a111.024,111.024,0,0,0-17.3,4.1c.6,1.2,2.2,1.8,4.3,2.1a26.758,26.758,0,0,0,7.3-.4,15.232,15.232,0,0,0,6.7-3.5,21.2,21.2,0,0,0,2.6-2.7,20.481,20.481,0,0,0-3.5-2.1,12.986,12.986,0,0,0-8-1.3,16.593,16.593,0,0,0-3.8,1.1,31.692,31.692,0,0,0,1.6-3.7,19.072,19.072,0,0,0,.7-8.4,21.608,21.608,0,0,0-.9-4.1,17.859,17.859,0,0,0-3.9,2.3,16.2,16.2,0,0,0-5.6,7.1,18.172,18.172,0,0,0-1.1,8C42.047,56.3,42.847,57.8,43.947,58.4Z"
       fill="#cbbb46"
       id="path28" />
    <path
       d="M32.847,71.6a116.987,116.987,0,0,1,4-18.6s-1.2,4.7-1.9,9.4c-.8,4.7-1.1,9.3-1.1,9.3s4.2-1.8,8.5-3.2,8.5-2.4,8.5-2.4a102.556,102.556,0,0,0-16.5,6.5c.8,1,2.5,1.4,4.6,1.4a22.8,22.8,0,0,0,7.2-1.4,15.286,15.286,0,0,0,6.1-4.4,20.709,20.709,0,0,0,2.2-3,19.249,19.249,0,0,0-3.7-1.6,13.846,13.846,0,0,0-8.1-.1,30.086,30.086,0,0,0-3.6,1.7,36.416,36.416,0,0,0,1.1-3.9,19.219,19.219,0,0,0-.5-8.4,27.6,27.6,0,0,0-1.5-3.9,17.93,17.93,0,0,0-3.5,2.9,15.112,15.112,0,0,0-4.5,7.8,21.607,21.607,0,0,0-.1,8C30.647,69.8,31.647,71.2,32.847,71.6Z"
       fill="#cbbb46"
       id="path30" />
    <path
       d="M24.047,86.5a112.4,112.4,0,0,1,1.3-19s-.5,4.9-.5,9.6c-.1,4.7.3,9.3.3,9.3s4-2.4,8-4.4,8-3.6,8-3.6a99.653,99.653,0,0,0-15.4,8.8c.9.8,2.6,1,4.7.7a23.737,23.737,0,0,0,6.9-2.4,15.027,15.027,0,0,0,5.4-5.2,24.6,24.6,0,0,0,1.7-3.3,23.946,23.946,0,0,0-3.9-1,13.065,13.065,0,0,0-8.1,1,22.141,22.141,0,0,0-3.4,2.2c.2-1.2.4-2.6.5-4a17.84,17.84,0,0,0-1.7-8.3,23.562,23.562,0,0,0-2-3.6,17.909,17.909,0,0,0-3,3.3,15.879,15.879,0,0,0-3.3,8.4,18.014,18.014,0,0,0,1.2,8C21.647,85,22.747,86.3,24.047,86.5Z"
       fill="#cbbb46"
       id="path32" />
    <path
       d="M17.247,102.3a117.956,117.956,0,0,1-1.5-19s.2,4.9.9,9.6,1.7,9.2,1.7,9.2,3.5-3,7.2-5.5a82.875,82.875,0,0,1,7.4-4.7,108.868,108.868,0,0,0-14,11c1.1.7,2.8.6,4.8,0a22.666,22.666,0,0,0,6.5-3.4,15.612,15.612,0,0,0,4.6-6,15.981,15.981,0,0,0,1.2-3.5,15.6,15.6,0,0,0-4-.5,13.315,13.315,0,0,0-7.8,2.2,25.5,25.5,0,0,0-3,2.6c0-1.2,0-2.6-.1-4a18.09,18.09,0,0,0-2.9-7.9,27.168,27.168,0,0,0-2.5-3.3,18.488,18.488,0,0,0-2.5,3.7,17.507,17.507,0,0,0-2.1,8.9,18.94,18.94,0,0,0,2.3,7.6C14.647,101.2,15.947,102.3,17.247,102.3Z"
       fill="#cbbb46"
       id="path34" />
    <path
       d="M8.847,116.5c1.4,1.7,2.9,2.6,4.2,2.4a109.7,109.7,0,0,1-4.3-18.6s1,4.9,2.3,9.4c1.3,4.6,3,8.9,3,8.9s3.1-3.5,6.4-6.5,6.7-5.7,6.7-5.7a100.233,100.233,0,0,0-12.2,12.9c1.1.5,2.8.2,4.7-.7a22.063,22.063,0,0,0,5.9-4.3,14.759,14.759,0,0,0,3.7-6.6,17.727,17.727,0,0,0,.7-3.6,18.992,18.992,0,0,0-4.1.1,13.263,13.263,0,0,0-7.4,3.3,18.046,18.046,0,0,0-2.6,3c-.2-1.3-.4-2.6-.7-4a17.506,17.506,0,0,0-4-7.4,25.929,25.929,0,0,0-3-2.9,19.7,19.7,0,0,0-2,4.1,16.742,16.742,0,0,0-.7,9A19.319,19.319,0,0,0,8.847,116.5Z"
       fill="#cbbb46"
       id="path36" />
    <path
       d="M6.747,134.2c1.6,1.5,3.3,2.1,4.5,1.8a121.848,121.848,0,0,1-6.9-17.8s1.6,4.6,3.6,8.9c1.9,4.3,4.2,8.3,4.2,8.3s2.5-3.8,5.3-7.3c2.8-3.6,5.8-6.7,5.8-6.7a111.459,111.459,0,0,0-10.2,14.6c1.2.4,2.9-.1,4.6-1.3a22.615,22.615,0,0,0,5.2-5.1,14.322,14.322,0,0,0,2.7-7,26.118,26.118,0,0,0,.1-3.7,14.626,14.626,0,0,0-4,.7,13.812,13.812,0,0,0-6.9,4.4,31.224,31.224,0,0,0-2.1,3.4,32.979,32.979,0,0,0-1.2-3.8,18,18,0,0,0-5-6.8,25.419,25.419,0,0,0-3.4-2.4,19.88,19.88,0,0,0-1.3,4.3,15.342,15.342,0,0,0,.6,8.9A18.951,18.951,0,0,0,6.747,134.2Z"
       fill="#cbbb46"
       id="path38" />
    <path
       d="M7.247,152.2c1.8,1.2,3.5,1.6,4.7,1.1a121.064,121.064,0,0,1-9.4-16.6s2.3,4.3,4.9,8.3,5.4,7.6,5.4,7.6a87.344,87.344,0,0,1,4.2-8c2.2-3.9,4.7-7.4,4.7-7.4a107.373,107.373,0,0,0-8,15.9c1.3.2,2.9-.6,4.4-2a23.171,23.171,0,0,0,4.4-5.8,14.391,14.391,0,0,0,1.7-7.4,16.929,16.929,0,0,0-.4-3.7,16.52,16.52,0,0,0-3.8,1.3,12.987,12.987,0,0,0-6.2,5.3,23.038,23.038,0,0,0-1.6,3.7,40.008,40.008,0,0,0-1.8-3.6,19.033,19.033,0,0,0-6-6,19.416,19.416,0,0,0-3.7-1.9,18.883,18.883,0,0,0-.7,4.5,15.35,15.35,0,0,0,1.9,8.8A18.283,18.283,0,0,0,7.247,152.2Z"
       fill="#cbbb46"
       id="path40" />
    <path
       d="M10.347,169.9c2,.9,3.7,1.1,4.8.4a118.775,118.775,0,0,1-11.7-15.1s2.9,3.9,6,7.5,6.4,6.8,6.4,6.8c0,.1,1.3-4.4,3-8.5,1.6-4.1,3.6-8,3.6-8a101.474,101.474,0,0,0-5.6,16.9c1.3,0,2.7-1,4-2.6a25.521,25.521,0,0,0,3.5-6.4,14.187,14.187,0,0,0,.6-7.5,17.239,17.239,0,0,0-.9-3.6,16.269,16.269,0,0,0-3.6,1.8,13.428,13.428,0,0,0-5.3,6.1,20.079,20.079,0,0,0-1.1,3.8,32.982,32.982,0,0,0-2.3-3.3,19.216,19.216,0,0,0-6.8-5,23.453,23.453,0,0,0-3.9-1.4,16.116,16.116,0,0,0,.1,4.5,15.583,15.583,0,0,0,3.1,8.5A17.447,17.447,0,0,0,10.347,169.9Z"
       fill="#cbbb46"
       id="path42" />
    <path
       d="M20.547,186.7a114.02,114.02,0,0,1-13.8-13.2s3.4,3.5,7,6.6a84.479,84.479,0,0,0,7.4,5.8c.1,0,.7-4.6,1.8-8.9,1-4.4,2.4-8.5,2.4-8.5a108.3,108.3,0,0,0-3.1,17.5c1.3-.2,2.5-1.4,3.6-3.2a25.44,25.44,0,0,0,2.6-6.9,14.133,14.133,0,0,0-.5-7.5,17.931,17.931,0,0,0-1.4-3.4,21.745,21.745,0,0,0-3.3,2.3,12.862,12.862,0,0,0-4.4,6.8,19.049,19.049,0,0,0-.5,4,24.465,24.465,0,0,0-2.7-3,18.64,18.64,0,0,0-7.4-4,19.34,19.34,0,0,0-4.1-.8,21.4,21.4,0,0,0,.6,4.5,18.065,18.065,0,0,0,4.2,8.1,17.876,17.876,0,0,0,6.8,4.1C17.847,187.6,19.547,187.5,20.547,186.7Z"
       fill="#cbbb46"
       id="path44" />
    <path
       d="M28.547,201.9a107.742,107.742,0,0,1-15.6-11s3.9,3,7.9,5.5,8.1,4.6,8.1,4.6,0-4.7.4-9.1,1.2-8.7,1.2-8.7a116.15,116.15,0,0,0-.5,17.8c1.2-.3,2.3-1.7,3.1-3.6a24.758,24.758,0,0,0,1.5-7.2,14.867,14.867,0,0,0-1.6-7.3,19.4,19.4,0,0,0-1.9-3.2,17.427,17.427,0,0,0-2.9,2.8,13.337,13.337,0,0,0-3.3,7.4,17.722,17.722,0,0,0,.1,4c-1-.8-2-1.7-3.2-2.5a17.384,17.384,0,0,0-7.9-2.9,25.975,25.975,0,0,0-4.2-.2,32.9,32.9,0,0,0,1.3,4.3,16.808,16.808,0,0,0,5.5,7.2,18.012,18.012,0,0,0,7.3,3.1C25.947,203.2,27.747,202.9,28.547,201.9Z"
       fill="#cbbb46"
       id="path46" />
    <path
       d="M38.647,216a129.982,129.982,0,0,1-17-8.7s4.3,2.4,8.6,4.3,8.7,3.4,8.7,3.4-.7-4.5-.9-9-.1-8.8-.1-8.8a109.388,109.388,0,0,0,2.1,17.7c1.1-.5,2-2.1,2.5-4.1a23.942,23.942,0,0,0,.5-7.3,14.71,14.71,0,0,0-2.7-7,17.322,17.322,0,0,0-2.4-2.9,15.776,15.776,0,0,0-2.5,3.2,13.561,13.561,0,0,0-2.2,7.8,22.539,22.539,0,0,0,.7,3.9,20.316,20.316,0,0,0-3.5-2.1,18.7,18.7,0,0,0-8.3-1.7,19.739,19.739,0,0,0-4.1.4,26.01,26.01,0,0,0,1.9,4.1,16.021,16.021,0,0,0,6.5,6.4,19.135,19.135,0,0,0,7.7,2C36.347,217.7,37.947,217.1,38.647,216Z"
       fill="#cbbb46"
       id="path48" />
    <path
       d="M46.547,230.6c2.1-.3,3.7-1.1,4.2-2.3a116.832,116.832,0,0,1-18.1-6.1,94.876,94.876,0,0,0,9.2,3c4.6,1.3,9.1,2.1,9.1,2.1s-1.3-4.4-2.2-8.8-1.4-8.7-1.4-8.7a102.164,102.164,0,0,0,4.6,17.2c1.1-.7,1.7-2.3,1.9-4.4a23.718,23.718,0,0,0-.6-7.3,16.083,16.083,0,0,0-3.7-6.6,19.609,19.609,0,0,0-2.8-2.5,17.165,17.165,0,0,0-2,3.5,13.439,13.439,0,0,0-1.1,8.1,21.074,21.074,0,0,0,1.2,3.8c-1.1-.5-2.3-1-3.7-1.5a17.468,17.468,0,0,0-8.4-.5,27.524,27.524,0,0,0-4,1,19.5,19.5,0,0,0,2.4,3.8,16.426,16.426,0,0,0,7.5,5.3A17.648,17.648,0,0,0,46.547,230.6Z"
       fill="#cbbb46"
       id="path50" />
    <path
       d="M64.247,238.9a114.45,114.45,0,0,1-18.8-3.4s4.8,1,9.5,1.6a84.441,84.441,0,0,0,9.3.8s-1.9-4.2-3.4-8.4-2.6-8.4-2.6-8.4a103.938,103.938,0,0,0,7,16.3c1-.8,1.4-2.5,1.3-4.6a22.406,22.406,0,0,0-1.6-7.1,13.743,13.743,0,0,0-4.6-6,18.382,18.382,0,0,0-3.1-2.1,15.85,15.85,0,0,0-1.5,3.8,13.207,13.207,0,0,0,.1,8.1,20.175,20.175,0,0,0,1.8,3.6,36.909,36.909,0,0,0-3.9-1,18.858,18.858,0,0,0-8.4.8,18.651,18.651,0,0,0-3.8,1.6,23.939,23.939,0,0,0,3,3.4,15.405,15.405,0,0,0,8,4.2,16.357,16.357,0,0,0,7.8-.3C62.447,241.2,63.847,240.1,64.247,238.9Z"
       fill="#cbbb46"
       id="path52" />
    <path
       d="M79.447,247.3a112.048,112.048,0,0,1-19.1-.7s4.9.3,9.6.2,9.3-.6,9.3-.6-2.5-3.9-4.6-7.8-3.8-7.9-3.8-7.9a109.8,109.8,0,0,0,9.3,15.1c.9-.9,1-2.6.6-4.7a29.889,29.889,0,0,0-2.7-6.8,14.74,14.74,0,0,0-5.4-5.2,17.884,17.884,0,0,0-3.3-1.6,21.736,21.736,0,0,0-.9,4,13.058,13.058,0,0,0,1.3,8,27.457,27.457,0,0,0,2.3,3.3,24.625,24.625,0,0,0-4-.4,18.7,18.7,0,0,0-8.2,2,19.314,19.314,0,0,0-3.6,2.1,18.761,18.761,0,0,0,3.4,2.9,14.77,14.77,0,0,0,8.6,2.9,17.862,17.862,0,0,0,7.8-1.4C78.047,249.8,79.247,248.6,79.447,247.3Z"
       fill="#cbbb46"
       id="path54" />
    <path
       d="M95.447,253.8a117.508,117.508,0,0,1-19,2.1s4.9-.4,9.6-1.2,9.1-2,9.1-2-3.1-3.4-5.7-7-4.9-7.3-4.9-7.3a102.752,102.752,0,0,0,11.4,13.6c.7-1.1.6-2.8-.1-4.8a24.5,24.5,0,0,0-3.6-6.4,14.321,14.321,0,0,0-6.1-4.4,19.162,19.162,0,0,0-3.5-1.1,16.22,16.22,0,0,0-.3,4,13.113,13.113,0,0,0,2.4,7.7,15.008,15.008,0,0,0,2.7,2.9,28.144,28.144,0,0,0-4,.2,16.664,16.664,0,0,0-7.8,3.1,18.383,18.383,0,0,0-3.2,2.6,20.305,20.305,0,0,0,3.8,2.4,17.868,17.868,0,0,0,8.8,2,17.009,17.009,0,0,0,7.5-2.5C94.447,256.5,95.447,255.1,95.447,253.8Z"
       fill="#cbbb46"
       id="path56" />
    <path
       d="M112.447,257.5a108.031,108.031,0,0,1-18.4,4.9s4.8-1.1,9.3-2.6c4.6-1.5,8.8-3.3,8.8-3.3a84.835,84.835,0,0,1-6.7-6.1c-3.2-3.2-6-6.5-6-6.5a108.681,108.681,0,0,0,13.3,11.8c.6-1.1.2-2.8-.8-4.7a25.289,25.289,0,0,0-4.5-5.8,14.511,14.511,0,0,0-6.7-3.5,14.919,14.919,0,0,0-3.7-.6,19.222,19.222,0,0,0,.3,4,13.247,13.247,0,0,0,3.6,7.3,17.882,17.882,0,0,0,3.1,2.5,31.5,31.5,0,0,0-4,.8,18.493,18.493,0,0,0-7.3,4.2,23.86,23.86,0,0,0-2.8,3.1,19.936,19.936,0,0,0,4.1,1.8,15.921,15.921,0,0,0,9,.4,23.5,23.5,0,0,0,7.1-3.5C111.847,260.3,112.647,258.8,112.447,257.5Z"
       fill="#cbbb46"
       id="path58" />
    <path
       d="M111.947,266s4.6-1.8,8.8-3.9c4.3-2.1,8.2-4.5,8.2-4.5s-3.9-2.4-7.5-5.1c-3.6-2.6-6.8-5.5-7.1-5.7a106.21,106.21,0,0,0,14.9,9.7c.4-1.2-.3-2.8-1.5-4.5a23.6,23.6,0,0,0-5.3-5.1,14.193,14.193,0,0,0-7.1-2.5,18.749,18.749,0,0,0-3.7,0,23.118,23.118,0,0,0,.9,4,13.78,13.78,0,0,0,4.6,6.7,20.825,20.825,0,0,0,3.5,2,35.652,35.652,0,0,0-3.8,1.4,17.943,17.943,0,0,0-6.6,5.3,22.668,22.668,0,0,0-2.3,3.5,19.02,19.02,0,0,0,4.4,1.2,16.786,16.786,0,0,0,9-.9,17.783,17.783,0,0,0,6.5-4.6c1.4-1.6,2-3.3,1.6-4.5A115.169,115.169,0,0,1,111.947,266Z"
       fill="#cbbb46"
       id="path60" />
    <path
       d="M230.547,139.5a97.2,97.2,0,1,0-97.2,97.2A97.31,97.31,0,0,0,230.547,139.5Zm-97.2,96.2a96.2,96.2,0,1,1,96.2-96.2A96.309,96.309,0,0,1,133.347,235.7Z"
       fill="#cbbb46"
       id="path62" />
    <path
       d="M149.447,258.8a22.141,22.141,0,0,0-3.8-1.4,17.533,17.533,0,0,0,3.5-2,13.141,13.141,0,0,0,4.6-6.7,16.433,16.433,0,0,0,.9-4,18.749,18.749,0,0,0-3.7,0,14.2,14.2,0,0,0-7.1,2.5,23.6,23.6,0,0,0-5.3,5.1c-1.3,1.6-1.9,3.3-1.5,4.5a97.984,97.984,0,0,0,14.9-9.7s-3.2,2.8-6.8,5.5-7.5,5.1-7.5,5.1,3.9,2.4,8.2,4.5c4.2,2.1,8.8,3.9,8.8,3.9a119.64,119.64,0,0,1-17.5-7.5c-.4,1.2.2,2.8,1.6,4.5a18.7,18.7,0,0,0,6.5,4.6,15.861,15.861,0,0,0,9,.9,20.521,20.521,0,0,0,4.1-1,22.665,22.665,0,0,0-2.3-3.5A17,17,0,0,0,149.447,258.8Z"
       fill="#cbbb46"
       id="path64" />
    <path
       d="M174.147,259.7a18.492,18.492,0,0,0-7.3-4.2,31.5,31.5,0,0,0-4-.8,22.641,22.641,0,0,0,3.1-2.5,13.247,13.247,0,0,0,3.6-7.3,19.222,19.222,0,0,0,.3-4,24.241,24.241,0,0,0-3.7.6,14.511,14.511,0,0,0-6.7,3.5,25.289,25.289,0,0,0-4.5,5.8c-1,1.8-1.3,3.5-.8,4.7a108.608,108.608,0,0,0,13.3-11.8s-2.8,3.3-6,6.5c-3.2,3.1-6.7,6.1-6.7,6.1a76.244,76.244,0,0,0,8.7,3.3c4.5,1.5,9.3,2.6,9.3,2.6a118.179,118.179,0,0,1-18.4-4.9c-.2,1.2.7,2.8,2.3,4.2a18.881,18.881,0,0,0,7.1,3.6,15.974,15.974,0,0,0,9-.4,16.97,16.97,0,0,0,4.2-1.9A18.075,18.075,0,0,0,174.147,259.7Z"
       fill="#cbbb46"
       id="path66" />
    <path
       d="M183.147,249.9a27.428,27.428,0,0,0-4-.2,18.875,18.875,0,0,0,2.7-2.9,13.864,13.864,0,0,0,2.4-7.7,16.219,16.219,0,0,0-.3-4,22.1,22.1,0,0,0-3.5,1.1,14.321,14.321,0,0,0-6.1,4.4,26.228,26.228,0,0,0-3.6,6.4c-.7,2-.8,3.7-.1,4.8a102.752,102.752,0,0,0,11.4-13.6s-2.2,3.7-4.9,7.3c-2.6,3.5-5.7,7-5.7,7a76.075,76.075,0,0,0,9.1,2c4.7.8,9.6,1.2,9.6,1.2a116.275,116.275,0,0,1-19-2.1c0,1.3,1.1,2.7,2.9,3.9a19.411,19.411,0,0,0,7.5,2.5,15.85,15.85,0,0,0,8.9-1.8c2.4-1.1,3.8-2.4,3.7-2.6a18.383,18.383,0,0,0-3.2-2.6A19.061,19.061,0,0,0,183.147,249.9Z"
       fill="#cbbb46"
       id="path68" />
    <path
       d="M198.747,242.3c-1.4.1-2.8.2-4,.4a19.357,19.357,0,0,0,2.3-3.3,13.058,13.058,0,0,0,1.3-8,19.382,19.382,0,0,0-.9-4,17.884,17.884,0,0,0-3.3,1.6,13.973,13.973,0,0,0-5.4,5.2,20.942,20.942,0,0,0-2.7,6.8c-.4,2-.3,3.7.6,4.7a109.8,109.8,0,0,0,9.3-15.1s-1.7,4-3.8,7.9-4.6,7.8-4.6,7.8,4.5.5,9.3.6c4.7.1,9.6-.2,9.6-.2a112.045,112.045,0,0,1-19.1.7c.2,1.3,1.4,2.5,3.4,3.4a17.862,17.862,0,0,0,7.8,1.4,15.517,15.517,0,0,0,8.5-3c2.1-1.5,3.4-2.9,3.5-2.8a19.314,19.314,0,0,0-3.6-2.1A17.436,17.436,0,0,0,198.747,242.3Z"
       fill="#cbbb46"
       id="path70" />
    <path
       d="M212.847,232.1a36.908,36.908,0,0,0-3.9,1,20.109,20.109,0,0,0,1.8-3.6,14,14,0,0,0,.1-8.1,15.85,15.85,0,0,0-1.5-3.8,30.945,30.945,0,0,0-3.1,2.1,14.358,14.358,0,0,0-4.6,6,25.534,25.534,0,0,0-1.6,7.1c-.1,2.1.3,3.8,1.3,4.6a109.554,109.554,0,0,0,7-16.3s-1.1,4.2-2.6,8.4-3.4,8.4-3.4,8.4,4.6-.2,9.3-.8,9.5-1.6,9.5-1.6a116.33,116.33,0,0,1-18.8,3.4c.4,1.3,1.8,2.3,3.9,2.9a18.476,18.476,0,0,0,7.9.3,15.405,15.405,0,0,0,8-4.2,19.455,19.455,0,0,0,2.9-3.4,18.651,18.651,0,0,0-3.8-1.6A17.516,17.516,0,0,0,212.847,232.1Z"
       fill="#cbbb46"
       id="path72" />
    <path
       d="M225.747,220.1a20.4,20.4,0,0,0-3.7,1.5,21.074,21.074,0,0,0,1.2-3.8,14.106,14.106,0,0,0-1.1-8.1,17.165,17.165,0,0,0-2-3.5,12.066,12.066,0,0,0-2.8,2.5,14.115,14.115,0,0,0-3.7,6.6,23.718,23.718,0,0,0-.6,7.3c.2,2.1.8,3.7,1.9,4.4a102.069,102.069,0,0,0,4.6-17.2s-.5,4.3-1.4,8.7-2.2,8.8-2.2,8.8,4.5-.8,9.1-2.1,9.2-3,9.2-3a116.831,116.831,0,0,1-18.1,6.1c.5,1.2,2,2,4.2,2.3a19.024,19.024,0,0,0,7.9-.9,15.787,15.787,0,0,0,7.3-5.3c1.6-2.1,2.4-3.8,2.6-3.8a23.548,23.548,0,0,0-4-1A17.53,17.53,0,0,0,225.747,220.1Z"
       fill="#cbbb46"
       id="path74" />
    <path
       d="M236.347,206.3a35.93,35.93,0,0,0-3.5,2.1,15.913,15.913,0,0,0,.7-3.9,13.785,13.785,0,0,0-2.2-7.8,15.777,15.777,0,0,0-2.5-3.2,17.322,17.322,0,0,0-2.4,2.9,13.933,13.933,0,0,0-2.7,7,23.943,23.943,0,0,0,.5,7.3c.5,2.1,1.3,3.6,2.5,4.1a99.315,99.315,0,0,0,2.1-17.7s.2,4.3-.1,8.8c-.2,4.4-.9,9-.9,9s4.4-1.5,8.7-3.4,8.6-4.3,8.6-4.3a109.282,109.282,0,0,1-17,8.7c.7,1,2.3,1.6,4.5,1.6a17.62,17.62,0,0,0,7.7-2,15.544,15.544,0,0,0,6.4-6.3,33.987,33.987,0,0,0,2-4.2,19.738,19.738,0,0,0-4.1-.4A18.714,18.714,0,0,0,236.347,206.3Z"
       fill="#cbbb46"
       id="path76" />
    <path
       d="M244.847,191.4a20.9,20.9,0,0,0-3.2,2.5,17.721,17.721,0,0,0,.1-4,13.337,13.337,0,0,0-3.3-7.4,17.427,17.427,0,0,0-2.9-2.8,19.4,19.4,0,0,0-1.9,3.2,14.619,14.619,0,0,0-1.6,7.3,24.057,24.057,0,0,0,1.5,7.2c.8,1.9,1.9,3.3,3.1,3.6a95.309,95.309,0,0,0-.5-17.8s.8,4.2,1.2,8.7.4,9.1.4,9.1,4.1-2.1,8.1-4.6,7.9-5.5,7.9-5.5a119.89,119.89,0,0,1-15.6,11c.8,1,2.5,1.3,4.7,1a16.72,16.72,0,0,0,7.3-3.1,16.052,16.052,0,0,0,5.5-7.2c1-2.5,1.2-4.4,1.3-4.3a25.975,25.975,0,0,0-4.2.2A17.384,17.384,0,0,0,244.847,191.4Z"
       fill="#cbbb46"
       id="path78" />
    <path
       d="M258.347,170.9a19.317,19.317,0,0,0-7.4,4,36.376,36.376,0,0,0-2.7,3,19.049,19.049,0,0,0-.5-4,13.266,13.266,0,0,0-4.4-6.8,17.2,17.2,0,0,0-3.3-2.3,17.931,17.931,0,0,0-1.4,3.4,15.221,15.221,0,0,0-.5,7.5,23.129,23.129,0,0,0,2.6,6.9c1.1,1.9,2.3,3.1,3.6,3.2a98.377,98.377,0,0,0-3.1-17.5s1.4,4.1,2.4,8.5c1.1,4.3,1.8,8.9,1.8,8.9s3.8-2.7,7.4-5.8,7-6.6,7-6.6a121.9,121.9,0,0,1-13.8,13.2c1,.9,2.7.9,4.8.3a17.889,17.889,0,0,0,6.8-4.1,15.916,15.916,0,0,0,4.3-7.9,14.643,14.643,0,0,0,.5-4.7A19.341,19.341,0,0,0,258.347,170.9Z"
       fill="#cbbb46"
       id="path80" />
    <path
       d="M261.947,153.2a17.339,17.339,0,0,0-6.8,5,21.941,21.941,0,0,0-2.3,3.3,20.078,20.078,0,0,0-1.1-3.8,13.368,13.368,0,0,0-5.3-6.1,20.008,20.008,0,0,0-3.6-1.8,17.3,17.3,0,0,0-.9,3.6,15.283,15.283,0,0,0,.6,7.5,22.705,22.705,0,0,0,3.5,6.4c1.3,1.6,2.7,2.6,4,2.6a98.528,98.528,0,0,0-5.6-16.9s1.9,3.8,3.6,8c1.7,4.1,3,8.5,3,8.5s3.3-3.2,6.4-6.8c3.1-3.5,6-7.5,6-7.5a112.025,112.025,0,0,1-11.7,15.1c1.1.7,2.8.5,4.8-.4a18.619,18.619,0,0,0,6.1-5.1,16.41,16.41,0,0,0,3.1-8.5c.2-2.6-.1-4.5.1-4.5A23.454,23.454,0,0,0,261.947,153.2Z"
       fill="#cbbb46"
       id="path82" />
    <path
       d="M256.347,140.9a30.223,30.223,0,0,0-1.8,3.6,19.687,19.687,0,0,0-1.6-3.7,14.626,14.626,0,0,0-6.2-5.3,16.521,16.521,0,0,0-3.8-1.3,16.929,16.929,0,0,0-.4,3.7,15,15,0,0,0,1.7,7.4,25.184,25.184,0,0,0,4.4,5.8c1.6,1.4,3.1,2.2,4.4,2a107.372,107.372,0,0,0-8-15.9s2.5,3.5,4.7,7.4c2.2,3.8,4.2,8,4.2,8s2.8-3.6,5.4-7.6,4.9-8.3,4.9-8.3a121.067,121.067,0,0,1-9.4,16.6c1.2.5,2.9.1,4.7-1.1a18.272,18.272,0,0,0,5.3-5.9,17.144,17.144,0,0,0,1.9-8.8,17.682,17.682,0,0,0-.7-4.5,19.417,19.417,0,0,0-3.7,1.9A17.2,17.2,0,0,0,256.347,140.9Z"
       fill="#cbbb46"
       id="path84" />
    <path
       d="M114.592,213.015l-6.314-15.2h-.824l-5.781,15.2a2.6,2.6,0,0,1-2.606,1.9v.533h4.472v-.533q-2.06,0-1.3-1.9l1.309-3.418h6.242l1.381,3.418q.776,1.928-1.284,1.9v.533h7.247v-.533A2.755,2.755,0,0,1,114.592,213.015Zm-10.835-3.927q.193-.5,2.836-7.417,2.667,6.642,2.994,7.417Z"
       fill="#cbbb46"
       id="path86" />
    <path
       d="M123.936,194.448l3.442,1.164q3.586,1.212,3.745-2.315l-.522-.085q-.5,1.417-1.539,1.1L125.39,193.2q-3.49-1.067-3.527,2.339l.558.073Q122.87,194.085,123.936,194.448Z"
       fill="#cbbb46"
       id="path88" />
    <path
       d="M130.456,198.3a1.961,1.961,0,0,1,2.218,2.218v9.514q-5.611-7.453-8.035-11.053a2.2,2.2,0,0,1-.606-1.164h-6.169v.485a1.946,1.946,0,0,1,2.175,1.686,1.975,1.975,0,0,1-.006.532v12.228a1.95,1.95,0,0,1-2.169,2.23v.473h4.945V215a1.96,1.96,0,0,1-2.2-1.684,1.986,1.986,0,0,1,.008-.571v-13L132.3,215.452h.933V200.52a1.923,1.923,0,0,1,2.182-2.194v-.509h-4.957Z"
       fill="#cbbb46"
       id="path90" />
    <path
       d="M145.581,197.515a9.719,9.719,0,0,0-4.945,1.284,8.877,8.877,0,0,0-3.357,3.381,9.528,9.528,0,0,0-1.139,4.666,8.535,8.535,0,0,0,2.63,6.339,8.848,8.848,0,0,0,6.484,2.593,9.462,9.462,0,0,0,4.69-1.212,8.865,8.865,0,0,0,3.4-3.333,9.167,9.167,0,0,0,1.249-4.738,8.947,8.947,0,0,0-2.376-6.508A8.825,8.825,0,0,0,145.581,197.515Zm5.55,9a11.534,11.534,0,0,1-.8,4.388,7.679,7.679,0,0,1-2.146,3.1,4.537,4.537,0,0,1-2.908,1.115,4.748,4.748,0,0,1-3.987-2.4,10.19,10.19,0,0,1-1.661-5.9,12.221,12.221,0,0,1,.727-4.314,7.557,7.557,0,0,1,2.073-3.127,4.551,4.551,0,0,1,3.078-1.188,4.715,4.715,0,0,1,4.133,2.291A10.8,10.8,0,0,1,151.131,206.518Z"
       fill="#cbbb46"
       id="path92" />
    <path
       d="M165.3,205.731a23.588,23.588,0,0,0-3.236-1.381,9.4,9.4,0,0,1-3.078-1.539,2.228,2.228,0,0,1-.655-1.164,2.9,2.9,0,0,1,.049-1.491,2.078,2.078,0,0,1,.739-1.187,3.577,3.577,0,0,1,2.339-.8,3.8,3.8,0,0,1,3.26,1.406,7.753,7.753,0,0,1,1.442,3.2l.449-.048-.376-4.909h-.473q-.024,1.092-1.721.34a6.689,6.689,0,0,0-2.7-.594,6.243,6.243,0,0,0-4.242,1.43,4.451,4.451,0,0,0-1.43,3.381q.024,2.86,3.709,4.727a20.578,20.578,0,0,0,1.914.824,16.206,16.206,0,0,1,2.194.994,4.67,4.67,0,0,1,1.333,1.054,2.736,2.736,0,0,1,.533,1.37,3.6,3.6,0,0,1-.194,1.611,2.638,2.638,0,0,1-.993,1.309,4.553,4.553,0,0,1-2.921.74,5.38,5.38,0,0,1-3.709-1.515,7.106,7.106,0,0,1-1.769-3.442h-.436v5.4h.436a1.645,1.645,0,0,1,.376-1.1.678.678,0,0,1,.721-.188,5.961,5.961,0,0,1,1.048.5,7.492,7.492,0,0,0,3.381,1.043,6.151,6.151,0,0,0,4.691-1.516,5.593,5.593,0,0,0,1.842-3.914,4.852,4.852,0,0,0-.582-2.751A5.653,5.653,0,0,0,165.3,205.731Z"
       fill="#cbbb46"
       id="path94" />
    <text
       xml:space="preserve"
       style="font-style:normal;font-variant:normal;font-weight:normal;font-stretch:normal;font-size:138.667px;font-family:FreeSerif;-inkscape-font-specification:FreeSerif;fill:#cbbb46;fill-opacity:1"
       x="65.678719"
       y="180.85371"
       id="text367"><tspan
         sodipodi:role="line"
         id="tspan365"
         x="65.678719"
         y="180.85371"
         style="font-style:normal;font-variant:normal;font-weight:normal;font-stretch:normal;font-size:138.667px;font-family:FreeSerif;-inkscape-font-specification:FreeSerif;fill:#cbbb46;fill-opacity:1">20</tspan></text>
  </g>
</svg>
