<svg xmlns="http://www.w3.org/2000/svg" width="100" height="92.187" viewBox="0 0 100 92.187"><g transform="translate(0)"><g transform="translate(0 0)"><path d="M100,69.414a20.725,20.725,0,0,0-5.988-14.562A15.453,15.453,0,0,0,73.578,35.783a20.692,20.692,0,0,0-35.511-8.9A17.825,17.825,0,0,0,7.09,43.459,24.017,24.017,0,0,0,2.015,70.127a1.953,1.953,0,0,0,3.577-1.571,20.11,20.11,0,0,1,5.081-23.1,1.953,1.953,0,0,0,.5-2.221A13.916,13.916,0,0,1,35.637,30.194,20.577,20.577,0,0,0,32.764,40.7v15l-6.813,6.813V45.983a1.953,1.953,0,0,0-3.906,0V55.46l-3.768-3.768a1.953,1.953,0,0,0-2.762,2.762l6.531,6.53v19.5a19.937,19.937,0,0,1-5.033-1.151,1.953,1.953,0,0,0-1.359,3.662,23.846,23.846,0,0,0,6.392,1.412V96.292A11.08,11.08,0,0,0,7.418,111.06a1.953,1.953,0,0,0,1.77,1.127H90.129a1.953,1.953,0,1,0,0-3.906H81.25V90.024A20.731,20.731,0,0,0,100,69.414ZM79.3,38.594A11.549,11.549,0,0,1,89.934,54.623a1.953,1.953,0,0,0,.5,2.221A16.793,16.793,0,0,1,81.25,86.094V79.188l6.8-6.8a1.953,1.953,0,0,0-2.762-2.762L81.25,73.664V60.307a1.953,1.953,0,0,0-3.906,0v7.356l-3.173-3.173V40.7c0-.3-.008-.6-.021-.9A11.519,11.519,0,0,1,79.3,38.594ZM74.039,69.882l3.3,3.3V86.095a16.853,16.853,0,0,1-9.109-4.044,20.649,20.649,0,0,0,5.8-12.169ZM53.468,23.906a16.816,16.816,0,0,1,16.8,16.8V67.556a16.819,16.819,0,0,1-14.844,16.68V77.331l6.8-6.8a1.953,1.953,0,0,0-2.762-2.762l-4.036,4.036V58.449a1.953,1.953,0,1,0-3.906,0V65.8L48.808,63.1a1.953,1.953,0,1,0-2.762,2.762l5.469,5.469V84.236a16.819,16.819,0,0,1-14.844-16.68V40.7A16.816,16.816,0,0,1,53.468,23.906ZM48.3,95.3a11.112,11.112,0,0,0-3.454.552,12.4,12.4,0,0,0-18.892-2.909v-8.54A23.64,23.64,0,0,0,37.3,80.469a20.692,20.692,0,0,0,14.217,7.7v7.614A11.04,11.04,0,0,0,48.3,95.3ZM32.764,61.228v6.328A20.576,20.576,0,0,0,35.154,77.2a19.78,19.78,0,0,1-9.2,3.281V68.041ZM10.287,106.38a7.169,7.169,0,0,1,12.272-5.037,1.953,1.953,0,0,0,3.3-.952,8.569,8.569,0,0,1,8.32-6.678A8.48,8.48,0,0,1,42.1,99.1a1.953,1.953,0,0,0,2.756.992,7.174,7.174,0,0,1,10.359,8.191H10.542a7.129,7.129,0,0,1-.255-1.9Zm48.923,1.9a11.059,11.059,0,0,0-3.79-10.375V88.167a20.576,20.576,0,0,0,9.8-3.576,20.765,20.765,0,0,0,12.125,5.431v18.259Z" transform="translate(0 -20)" fill="#ddaf8d"/><path d="M38.754,302.724a1.952,1.952,0,1,0-1.381.572A1.969,1.969,0,0,0,38.754,302.724Z" transform="translate(-28.502 -244.822)" fill="#ddaf8d"/></g></g></svg>