<svg xmlns="http://www.w3.org/2000/svg" xmlns:xlink="http://www.w3.org/1999/xlink" width="97.714" height="97.714" viewBox="0 0 97.714 97.714"><defs><linearGradient id="a" x1="0.5" y1="1.083" x2="0.5" y2="-0.017" gradientUnits="objectBoundingBox"><stop offset="0" stop-color="#fff"/><stop offset="1" stop-color="#00549f"/></linearGradient><linearGradient id="b" y1="-0.012" y2="1.053" xlink:href="#a"/></defs><circle cx="37.394" cy="37.394" r="37.394" transform="translate(0 28.62) rotate(-22.5)" fill="url(#a)"/><g transform="translate(5.411 5.709)"><path d="M73.859,120.916a45.131,45.131,0,0,1-27.17-9A45.9,45.9,0,0,1,30.441,89.084a1.27,1.27,0,0,1,2.424-.763A42.976,42.976,0,1,0,86.933,34.464a1.271,1.271,0,0,1,.773-2.421,45.516,45.516,0,0,1-13.847,88.873Z" transform="translate(-30.382 -31.983)" fill="#05538e"/></g><g transform="translate(0.828 0.589)"><path d="M122.045,26.175l-4.308-6.013-1.25.3,5.24,7.312,1.044-.138L126,19.022l-1.366.13Z" transform="translate(-77.89 -19.022)" fill="#eeb700"/><rect width="1.194" height="7.712" transform="translate(33.986 2.72) rotate(-18.612)" fill="#eeb700"/><path d="M85.761,28.166l-7.725,4.09.558,1.055,3.343-1.77,3.045,5.8,1.057-.555-3.046-5.8L86.32,29.22Z" transform="translate(-54.629 -24.554)" fill="#eeb700"/><path d="M59.03,44.328,63.4,48.936l-9.14-.518-.854.977,5.321,5.813.88-.806L55.28,49.671l9.1.392.9-.843L59.9,43.507Z" transform="translate(-39.73 -33.835)" fill="#eeb700"/><rect width="1.193" height="7.731" transform="matrix(0.585, -0.811, 0.811, 0.585, 9.631, 20.153)" fill="#eeb700"/><path d="M33.063,76.845l-1.05-.568-4.09,7.555,1.05.568,1.761-3.252L36.553,84.3l.569-1.049L31.3,80.1Z" transform="translate(-24.312 -53.659)" fill="#eeb700"/><rect width="1.194" height="7.699" transform="translate(0 47.49) rotate(-86.899)" fill="#eeb700"/><path d="M26.138,150.956a3.913,3.913,0,0,0-3.761-2.112,3.4,3.4,0,0,0-2.767,1.14,4.814,4.814,0,0,0-.758,3.58l.623,4.914,7.8-1-.606-4.5A5,5,0,0,0,26.138,150.956Zm-5.63,6.186-.474-3.743-.005-.034a3.69,3.69,0,0,1,.5-2.623,2.249,2.249,0,0,1,1.845-.705,2.905,2.905,0,0,1,3.1,2.982l.455,3.424Z" transform="translate(-18.781 -97.56)" fill="#eeb700"/><path d="M28.034,105.464l-.087-.045a6.29,6.29,0,0,0-1.517-.27,1.806,1.806,0,0,0-1.909,1.679c-.006.028-.564,2.874-.747,3.583-.171.665-.3.977-1.212.8-.633-.124-.853-.386-.892-.525.143-.523.811-2.966,1.162-4.318a.81.81,0,0,1,.318-.544.567.567,0,0,1,.413.033l.274-.548.281-.544a1.788,1.788,0,0,0-1.464-.061,1.88,1.88,0,0,0-1.008,1.356c-.39,1.505-1.177,4.373-1.185,4.4l-.021.134c0,.058-.045,1.437,1.886,1.817a2.012,2.012,0,0,0,2.634-1.692c.192-.744.74-3.536.77-3.692,0-.029.1-.707.573-.658a8.7,8.7,0,0,1,1.137.173,1.029,1.029,0,0,1,.465.958c-.207.984-1.267,4.669-1.276,4.7-.038.127-.193.532-.608.421L25.7,113.8a1.821,1.821,0,0,0,.47.064,1.779,1.779,0,0,0,1.628-1.325c.044-.153,1.083-3.765,1.3-4.793A2.236,2.236,0,0,0,28.034,105.464Z" transform="translate(-19.784 -70.775)" fill="#eeb700"/><path d="M155.359,20.918l-6.659-.567a1.339,1.339,0,0,0-1.492,1.18l-.476,5.6A1.35,1.35,0,0,0,148,28.544l6.659.566c.043,0,.085.005.126.005a1.329,1.329,0,0,0,1.366-1.185l.476-5.6A1.348,1.348,0,0,0,155.359,20.918Zm-.425,6.908a.158.158,0,0,1-.146.064l-6.681-.567c-.11-.009-.157-.077-.156-.091l.476-5.6c0-.013.05-.064.166-.064h0l6.659.567c.11.009.156.076.155.091Z" transform="translate(-96.184 -19.823)" fill="#eeb700"/></g><path d="M106.617,128.846a23.547,23.547,0,0,0,23.66-23.434c0-12.942-20.089-33.321-23.66-47.1-3.537,13.774-23.434,34.153-23.434,47.1A23.434,23.434,0,0,0,106.617,128.846Z" transform="translate(-58.372 -45.179)" fill="url(#b)"/><path d="M131.668,146.339v-.013h-.2a6.022,6.022,0,0,1-2.694-.638,2.126,2.126,0,0,1-1.008-.922,11.343,11.343,0,0,1-.368-3.828V114.272a12.3,12.3,0,0,1,.33-3.751,1.889,1.889,0,0,1,1.057-1.048,6.058,6.058,0,0,1,2.683-.62h.2v-.014c.68-.069,1.213-1.042,1.213-1.748s-.533-.88-1.213-.949v-.014H114.631v0c-.013,0-.026,0-.039,0-.745,0-1.348.211-1.348.963s.6,1.762,1.348,1.762c.013,0,.026,0,.039,0v0h.687a5.839,5.839,0,0,1,2.67.643,2.124,2.124,0,0,1,1.032.916,11.5,11.5,0,0,1,.369,3.86V124.5H99.967V114.272a11.716,11.716,0,0,1,.342-3.739,1.957,1.957,0,0,1,1.045-1.06,6.062,6.062,0,0,1,2.684-.62h.365c.744,0,1.347-1.009,1.347-1.762s-.6-.963-1.347-.963H86.711a.582.582,0,0,0-.295.073c-.54.178-.933.285-.933.89,0,.753.6,1.762,1.348,1.762a1.336,1.336,0,0,0,.2-.02l.012.02h.842a6.023,6.023,0,0,1,2.695.638,2.129,2.129,0,0,1,1.008.921,11.47,11.47,0,0,1,.369,3.86v26.665c0,3.1-.433,3.96-.611,4.177a4.342,4.342,0,0,1-3.46,1.211H86.832c-.744,0-1.348,1.009-1.348,1.762s.6.963,1.348.963H104.4c.744,0,1.347-.21,1.347-.963s-.6-1.762-1.347-1.762h-.365a5.829,5.829,0,0,1-2.67-.643,2.119,2.119,0,0,1-1.033-.916,11.334,11.334,0,0,1-.369-3.829V128.35h19.422v12.587c0,3.09-.449,3.949-.644,4.177a4.3,4.3,0,0,1-3.427,1.211h-.726c-.745,0-1.348,1.009-1.348,1.762s.6.963,1.348.963h17.076v-.014c.68-.07,1.213-.243,1.213-.949S132.349,146.408,131.668,146.339Z" transform="translate(-59.823 -72.931)" fill="#05538e"/><path d="M131.668,143.848v-.013h-.2a6.079,6.079,0,0,1-2.694-.631,2.117,2.117,0,0,1-1.008-.912,11.112,11.112,0,0,1-.368-3.788v-26.38a12.036,12.036,0,0,1,.33-3.71,1.878,1.878,0,0,1,1.057-1.037,6.111,6.111,0,0,1,2.683-.613h.2v-.014c.68-.068,1.213-1.031,1.213-1.729s-.533-.871-1.213-.939v-.014H114.631v0c-.013,0-.026,0-.039,0-.745,0-1.348.208-1.348.953s.6,1.743,1.348,1.743c.013,0,.026,0,.039,0v0h.687a5.888,5.888,0,0,1,2.67.636,2.115,2.115,0,0,1,1.032.906,11.26,11.26,0,0,1,.369,3.818v10.116H99.967V112.125a11.468,11.468,0,0,1,.342-3.7,1.946,1.946,0,0,1,1.045-1.048,6.115,6.115,0,0,1,2.684-.613h.365c.744,0,1.347-1,1.347-1.743s-.6-.953-1.347-.953H86.711a.582.582,0,0,0-.295.072c-.54.176-.933.282-.933.881,0,.744.6,1.743,1.348,1.743a1.338,1.338,0,0,0,.2-.02l.012.02h.842a6.074,6.074,0,0,1,2.695.631,2.117,2.117,0,0,1,1.008.911,11.227,11.227,0,0,1,.369,3.818V138.5c0,3.066-.433,3.918-.611,4.132a4.368,4.368,0,0,1-3.46,1.2H86.832c-.744,0-1.348,1-1.348,1.743s.6.953,1.348.953H104.4c.744,0,1.347-.208,1.347-.953s-.6-1.743-1.347-1.743h-.365a5.883,5.883,0,0,1-2.67-.636,2.111,2.111,0,0,1-1.033-.907,11.1,11.1,0,0,1-.369-3.788V126.053h19.422V138.5c0,3.057-.449,3.907-.644,4.132a4.321,4.321,0,0,1-3.427,1.2h-.726c-.745,0-1.348,1-1.348,1.743s.6.953,1.348.953h17.076v-.014c.68-.068,1.213-.241,1.213-.939S132.349,143.917,131.668,143.848Z" transform="translate(-59.823 -71.63)" fill="#eeb700"/><path d="M97.219,110.172a4.918,4.918,0,0,1,2.762,4.756v28.92a6.766,6.766,0,0,1-2.388,4.424,4.932,4.932,0,0,0,3.462-4.731V114.7A4.112,4.112,0,0,0,97.219,110.172Z" transform="translate(-66.382 -75.315)" fill="#05538e"/><path d="M169.263,110.172a4.918,4.918,0,0,1,2.762,4.756v28.92a6.766,6.766,0,0,1-2.388,4.424,4.932,4.932,0,0,0,3.462-4.731V114.7A4.112,4.112,0,0,0,169.263,110.172Z" transform="translate(-110.841 -75.315)" fill="#05538e"/></svg>