<svg xmlns="http://www.w3.org/2000/svg" width="100" height="100" viewBox="0 0 100 100"><g transform="translate(0)"><path d="M24.9,31.5H17.09A17.11,17.11,0,0,0,0,48.59v64.453a7.332,7.332,0,0,0,7.324,7.324H34.668a7.332,7.332,0,0,0,7.324-7.324V48.59A17.11,17.11,0,0,0,24.9,31.5Zm-9.414,3.023A14.569,14.569,0,0,1,3.023,46.988,14.183,14.183,0,0,1,15.488,34.523ZM2.93,72.809a17.957,17.957,0,0,1,1.627-7.49L8.408,70.8a4.361,4.361,0,0,0-.6,2.2V94.488a4.372,4.372,0,0,0,.419,1.87l-4.47,6.362a4.37,4.37,0,0,1-.832-2.568Zm9.277,26.074H29.785a4.362,4.362,0,0,0,1.873-.42l4.166,5.929a4.381,4.381,0,0,1-1.157.156H7.324a4.381,4.381,0,0,1-1.157-.156l4.166-5.929A4.362,4.362,0,0,0,12.207,98.883Zm-1.465-4.395V73a1.466,1.466,0,0,1,1.465-1.465H29.785A1.466,1.466,0,0,1,31.25,73V94.488a1.466,1.466,0,0,1-1.465,1.465H12.207A1.466,1.466,0,0,1,10.742,94.488Zm20.6-25.594a4.376,4.376,0,0,0-1.556-.285H12.207a4.376,4.376,0,0,0-1.556.285L6.163,62.508a18.049,18.049,0,0,1,29.666,0Zm7.721,44.148a4.4,4.4,0,0,1-4.395,4.395H7.324a4.4,4.4,0,0,1-4.395-4.395v-7.035a7.286,7.286,0,0,0,4.395,1.469H34.668a7.286,7.286,0,0,0,4.395-1.469Zm0-12.891a4.366,4.366,0,0,1-.832,2.567l-4.47-6.361a4.372,4.372,0,0,0,.419-1.87V73a4.361,4.361,0,0,0-.6-2.2l3.851-5.48a17.957,17.957,0,0,1,1.627,7.49Zm0-38.029a20.984,20.984,0,0,0-36.133,0V49.949A17.494,17.494,0,0,0,18.449,34.43h5.679A17.5,17.5,0,0,0,39.063,49.875ZM27.1,34.6A14.189,14.189,0,0,1,38.957,46.89,14.709,14.709,0,0,1,27.1,34.6Zm0,0" transform="translate(0 -25.348)" fill="#ddaf8d"/><path d="M321.9,31.5H314.09A17.11,17.11,0,0,0,297,48.59v64.453a7.332,7.332,0,0,0,7.324,7.324h27.344a7.332,7.332,0,0,0,7.324-7.324V48.59A17.11,17.11,0,0,0,321.9,31.5Zm14.055,15.39A14.709,14.709,0,0,1,324.1,34.6,14.189,14.189,0,0,1,335.957,46.89ZM312.488,34.523a14.569,14.569,0,0,1-12.466,12.466A14.183,14.183,0,0,1,312.488,34.523ZM299.93,72.809a17.957,17.957,0,0,1,1.627-7.49l3.851,5.48a4.361,4.361,0,0,0-.6,2.2V94.488a4.373,4.373,0,0,0,.419,1.87l-4.47,6.362a4.369,4.369,0,0,1-.832-2.568Zm9.277,26.074h17.578a4.362,4.362,0,0,0,1.873-.42l4.166,5.929a4.382,4.382,0,0,1-1.157.156H304.324a4.381,4.381,0,0,1-1.157-.156l4.166-5.929A4.362,4.362,0,0,0,309.207,98.883Zm-1.465-4.395V73a1.466,1.466,0,0,1,1.465-1.465h17.578A1.466,1.466,0,0,1,328.25,73V94.488a1.466,1.466,0,0,1-1.465,1.465H309.207A1.466,1.466,0,0,1,307.742,94.488Zm20.6-25.594a4.376,4.376,0,0,0-1.556-.285H309.207a4.376,4.376,0,0,0-1.556.285l-4.488-6.387a18.049,18.049,0,0,1,29.666,0Zm7.721,44.148a4.4,4.4,0,0,1-4.395,4.395H304.324a4.4,4.4,0,0,1-4.395-4.395v-7.035a7.286,7.286,0,0,0,4.395,1.469h27.344a7.286,7.286,0,0,0,4.395-1.469Zm0-12.891a4.366,4.366,0,0,1-.832,2.567l-4.47-6.361a4.373,4.373,0,0,0,.419-1.87V73a4.361,4.361,0,0,0-.6-2.2l3.851-5.48a17.957,17.957,0,0,1,1.627,7.49Zm0-38.029a20.984,20.984,0,0,0-36.133,0V49.949a17.494,17.494,0,0,0,15.52-15.519h5.679a17.5,17.5,0,0,0,14.935,15.446Zm0,0" transform="translate(-238.992 -25.348)" fill="#ddaf8d"/><path d="M249,497h2.93v2.93H249Zm0,0" transform="translate(-200.367 -399.93)" fill="#ddaf8d"/><path d="M249,30h2.93v88.281H249Zm0,0" transform="translate(-200.367 -24.141)" fill="#ddaf8d"/><path d="M249,0h2.93V2.93H249Zm0,0" transform="translate(-200.367)" fill="#ddaf8d"/><path d="M29.5,441.5h2.93v2.93H29.5Zm0,0" transform="translate(-23.739 -355.27)" fill="#ddaf8d"/><path d="M170.5,441.5h2.93v2.93H170.5Zm0,0" transform="translate(-137.199 -355.27)" fill="#ddaf8d"/><path d="M328.5,441.5h2.93v2.93H328.5Zm0,0" transform="translate(-264.34 -355.27)" fill="#ddaf8d"/><path d="M469.5,441.5h2.93v2.93H469.5Zm0,0" transform="translate(-377.801 -355.27)" fill="#ddaf8d"/></g></svg>