<svg xmlns="http://www.w3.org/2000/svg" xmlns:xlink="http://www.w3.org/1999/xlink" width="23" height="23" viewBox="0 0 23 23"><defs><clipPath id="a"><path d="M0-13.013H1.533v4.391H3.257v-4.391H4.762l.447-1.4H3.256l-.005-1.127c0-.461.119-.729.726-.729H5.154V-17.9l-.162-.023A6.192,6.192,0,0,0,3.974-18a2.337,2.337,0,0,0-2.451,2.381l.009,1.209H0Z" transform="translate(0 18)" fill="#fff" clip-rule="evenodd"/></clipPath><clipPath id="b"><path d="M-1016,303.459h750.175V-56H-1016Z" transform="translate(1016 56)" fill="#fff"/></clipPath></defs><circle cx="11.5" cy="11.5" r="11.5" fill="#bbac9a"/><g transform="translate(9.117 7.033)" clip-path="url(#a)"><g transform="translate(-529.29 -19.796)" clip-path="url(#b)"><path d="M-5-23H5.419V-8.413H-5Z" transform="translate(531.685 40.192)" fill="#fff"/></g></g></svg>