<svg xmlns="http://www.w3.org/2000/svg" xmlns:xlink="http://www.w3.org/1999/xlink" width="23" height="23" viewBox="0 0 23 23"><defs><clipPath id="a"><path d="M93.3-9.645a1.9,1.9,0,0,1-1.9,1.9H86.845a1.9,1.9,0,0,1-1.9-1.9V-14.2a1.9,1.9,0,0,1,1.9-1.9H91.4a1.9,1.9,0,0,1,1.9,1.9v4.552ZM91.4-17H86.845a2.807,2.807,0,0,0-2.8,2.8v4.552a2.807,2.807,0,0,0,2.8,2.8H91.4a2.807,2.807,0,0,0,2.8-2.8V-14.2A2.807,2.807,0,0,0,91.4-17Z" transform="translate(-84.041 17)" fill="#fff" clip-rule="evenodd"/></clipPath><clipPath id="b"><path d="M-1016,356.346h866.459V-56H-1016Z" transform="translate(1016 56)" fill="#fff"/></clipPath><clipPath id="c"><path d="M90.75-8.547a1.718,1.718,0,0,1-1.716-1.716,1.718,1.718,0,0,1,1.716-1.716,1.718,1.718,0,0,1,1.716,1.716A1.718,1.718,0,0,1,90.75-8.547m0-4.334a2.621,2.621,0,0,0-2.618,2.618A2.62,2.62,0,0,0,90.75-7.645a2.62,2.62,0,0,0,2.618-2.617,2.621,2.621,0,0,0-2.618-2.618" transform="translate(-88.133 12.881)" fill="#fff" clip-rule="evenodd"/></clipPath><clipPath id="e"><path d="M96.578-14.159a.664.664,0,0,0-.467.193.664.664,0,0,0-.194.467.666.666,0,0,0,.194.467.666.666,0,0,0,.467.193.667.667,0,0,0,.467-.193.666.666,0,0,0,.193-.467.664.664,0,0,0-.193-.467.664.664,0,0,0-.467-.193" transform="translate(-95.917 14.159)" fill="#fff" clip-rule="evenodd"/></clipPath></defs><g transform="translate(-0.114)"><circle cx="11.5" cy="11.5" r="11.5" transform="translate(0.114)" fill="#bbac9a"/><g transform="translate(6.535 6.421)"><g clip-path="url(#a)"><g transform="translate(-661.903 -23.307)" clip-path="url(#b)"><path d="M79.041-22H95.217V-5.865H79.041Z" transform="translate(579.853 42.319)" fill="#fff"/></g></g><g transform="translate(2.462 2.462)" clip-path="url(#c)"><g transform="translate(-664.365 -25.768)" clip-path="url(#b)"><path d="M83.133-17.881H94.385V-6.669H83.133Z" transform="translate(578.224 40.661)" fill="#fff"/></g></g><g transform="translate(7.146 1.698)" clip-path="url(#e)"><g transform="translate(-669.049 -25.004)" clip-path="url(#b)"><path d="M90.917-19.159h7.339v7.3H90.917Z" transform="translate(575.123 41.175)" fill="#fff"/></g></g></g></g></svg>