<?xml version="1.0" encoding="utf-8"?>
<!-- Generator: Adobe Illustrator 25.2.3, SVG Export Plug-In . SVG Version: 6.00 Build 0)  -->
<svg version="1.1" id="Layer_1" xmlns="http://www.w3.org/2000/svg" xmlns:xlink="http://www.w3.org/1999/xlink" x="0px" y="0px"
	 viewBox="0 0 212.1 136.5" style="enable-background:new 0 0 212.1 136.5;" xml:space="preserve">
<style type="text/css">
	.st0{enable-background:new    ;}
	.st1{fill:#706C6C;}
	.st2{fill:#BBAC9A;}
</style>
<g transform="translate(-273.961 -1653)">
	<g class="st0">
		<path class="st1" d="M317.8,1655v6.6c0,0.8,0.4,1.2,1.1,1.2v0.3h-3.7v-0.3c0.8,0,1.1-0.4,1.1-1.2v-5.5h-1.1v-0.3
			c0.8-0.1,1.5-0.4,2-0.8H317.8z"/>
		<path class="st1" d="M327.7,1657.4c0.4-0.6,0.9-0.9,1.6-0.9c0.4,0,0.8,0.1,1.2,0.3c0.3,0.2,0.4,0.4,0.4,0.7c0,0.1,0,0.3-0.1,0.4
			c-0.1,0.1-0.2,0.2-0.4,0.2c-0.2,0-0.3,0-0.4-0.1c-0.1-0.1-0.2-0.2-0.3-0.4c-0.1-0.2-0.2-0.4-0.3-0.5c-0.1-0.1-0.3-0.2-0.5-0.1
			c-0.3,0-0.5,0.2-0.8,0.6c-0.2,0.4-0.4,0.9-0.4,1.4v2.6c0,0.9,0.3,1.4,0.9,1.4v0.2h-3.2v-0.2c0.6,0,0.9-0.5,0.9-1.4v-3.4
			c0-0.7-0.3-1-0.9-1v-0.2l2.2-0.4C327.7,1656.6,327.7,1656.9,327.7,1657.4z"/>
		<path class="st1" d="M336.9,1657.3c0.5,0.6,0.8,1.3,0.9,2.3h-4.6c-0.1,0.8,0.1,1.5,0.5,2.1c0.4,0.6,0.9,0.9,1.6,0.8
			c0.5,0,1-0.2,1.4-0.6s0.6-0.9,0.8-1.5h0.2c-0.2,0.9-0.5,1.5-1.1,2c-0.6,0.5-1.2,0.7-2,0.7c-0.8,0-1.6-0.3-2.2-1
			c-0.6-0.6-0.9-1.4-0.9-2.3c0-1,0.3-1.8,0.9-2.4c0.6-0.7,1.4-1,2.3-1C335.6,1656.4,336.4,1656.7,336.9,1657.3z M334,1657
			c-0.2,0.2-0.3,0.4-0.5,0.7c-0.1,0.3-0.2,0.5-0.2,0.8c-0.1,0.3-0.1,0.5-0.1,0.8h2.9c0-0.3,0-0.7-0.1-1c-0.1-0.4-0.2-0.7-0.5-1
			c-0.2-0.3-0.5-0.5-0.9-0.5C334.4,1656.7,334.2,1656.8,334,1657z"/>
		<path class="st1" d="M344.1,1657c0.3,0.2,0.4,0.5,0.4,0.7c0,0.2-0.1,0.3-0.2,0.4c-0.1,0.1-0.3,0.1-0.4,0.1c-0.1,0-0.2-0.1-0.3-0.2
			c-0.1-0.1-0.2-0.3-0.2-0.5c-0.1-0.3-0.2-0.5-0.2-0.6c-0.2-0.1-0.4-0.2-0.7-0.2c-0.4,0-0.7,0.2-1,0.5c-0.3,0.3-0.5,0.7-0.6,1.2
			c-0.1,0.5-0.2,0.9-0.2,1.4c0,0.7,0.2,1.4,0.6,1.9c0.4,0.5,0.9,0.8,1.5,0.8c1,0,1.6-0.7,2-2.1h0.2c-0.1,0.8-0.5,1.5-1,2
			c-0.5,0.5-1.1,0.7-1.8,0.7c-0.9,0-1.6-0.3-2.2-0.9c-0.6-0.6-0.9-1.4-0.9-2.3c0-1,0.3-1.8,0.8-2.4c0.6-0.7,1.4-1,2.4-1
			C343,1656.4,343.6,1656.6,344.1,1657z"/>
		<path class="st1" d="M351.4,1657.4c0.6,0.6,0.9,1.4,0.9,2.4c0,1-0.3,1.8-1,2.4c-0.6,0.7-1.4,1-2.3,1c-0.9,0-1.6-0.3-2.2-1
			c-0.6-0.6-0.9-1.4-0.9-2.3c0-1,0.3-1.8,0.9-2.4c0.6-0.7,1.4-1,2.3-1C350.1,1656.4,350.9,1656.8,351.4,1657.4z M348.1,1657.7
			c-0.3,0.6-0.4,1.3-0.4,2.2c0,0.8,0.1,1.5,0.4,2.1c0.3,0.6,0.6,0.9,1.1,0.9c0.4,0,0.8-0.3,1.1-0.9c0.3-0.6,0.5-1.3,0.5-2.2
			c0-0.9-0.1-1.6-0.4-2.2c-0.3-0.5-0.6-0.8-1.1-0.8C348.8,1656.8,348.4,1657.1,348.1,1657.7z"/>
		<path class="st1" d="M359.2,1657c0.4,0.4,0.6,0.9,0.6,1.6v2.8c0,0.9,0.3,1.3,0.9,1.4v0.2h-3.3v-0.2c0.6,0,0.9-0.5,0.9-1.4v-3
			c0-0.4-0.1-0.7-0.3-1c-0.2-0.3-0.5-0.4-0.9-0.4c-0.3,0-0.6,0.1-0.9,0.4c-0.2,0.3-0.3,0.6-0.3,1v3c0,0.9,0.3,1.3,0.9,1.4v0.2h-3.3
			v-0.2c0.6,0,0.9-0.5,0.9-1.4v-3.5c0-0.7-0.3-1-0.9-0.9v-0.2l2.2-0.4c0.1,0.1,0.2,0.4,0.2,0.9c0.5-0.6,1.1-0.9,1.9-0.9
			C358.3,1656.4,358.8,1656.6,359.2,1657z"/>
		<path class="st1" d="M367.2,1657.4c0.6,0.6,0.9,1.4,0.9,2.4c0,1-0.3,1.8-1,2.4c-0.6,0.7-1.4,1-2.3,1c-0.9,0-1.6-0.3-2.2-1
			c-0.6-0.6-0.9-1.4-0.9-2.3c0-1,0.3-1.8,0.9-2.4c0.6-0.7,1.4-1,2.3-1C365.9,1656.4,366.6,1656.8,367.2,1657.4z M363.8,1657.7
			c-0.3,0.6-0.4,1.3-0.4,2.2c0,0.8,0.1,1.5,0.4,2.1c0.3,0.6,0.6,0.9,1.1,0.9c0.4,0,0.8-0.3,1.1-0.9c0.3-0.6,0.5-1.3,0.5-2.2
			c0-0.9-0.1-1.6-0.4-2.2c-0.3-0.5-0.6-0.8-1.1-0.8C364.5,1656.8,364.1,1657.1,363.8,1657.7z"/>
		<path class="st1" d="M374.5,1657c0.3,0.2,0.4,0.5,0.4,0.7c0,0.2-0.1,0.3-0.2,0.4c-0.1,0.1-0.3,0.1-0.4,0.1c-0.1,0-0.2-0.1-0.3-0.2
			c-0.1-0.1-0.2-0.3-0.2-0.5c-0.1-0.3-0.2-0.5-0.2-0.6c-0.2-0.1-0.4-0.2-0.7-0.2c-0.4,0-0.7,0.2-1,0.5c-0.3,0.3-0.5,0.7-0.6,1.2
			c-0.1,0.5-0.2,0.9-0.2,1.4c0,0.7,0.2,1.4,0.6,1.9c0.4,0.5,0.9,0.8,1.5,0.8c1,0,1.6-0.7,2-2.1h0.2c-0.1,0.8-0.5,1.5-1,2
			c-0.5,0.5-1.1,0.7-1.8,0.7c-0.9,0-1.6-0.3-2.2-0.9c-0.6-0.6-0.9-1.4-0.9-2.3c0-1,0.3-1.8,0.8-2.4c0.6-0.7,1.4-1,2.4-1
			C373.4,1656.4,374,1656.6,374.5,1657z"/>
		<path class="st1" d="M376.3,1656.8l2.4-0.4v5c0,0.8,0.3,1.3,0.9,1.3v0.2h-3.3v-0.2c0.6,0,0.9-0.5,0.9-1.3v-3.6
			c0-0.7-0.3-1-0.9-0.9V1656.8z M378.8,1654.5c0,0.3-0.1,0.5-0.3,0.6c-0.2,0.2-0.4,0.3-0.6,0.3c-0.2,0-0.5-0.1-0.6-0.3
			c-0.2-0.2-0.3-0.4-0.3-0.6c0-0.3,0.1-0.5,0.3-0.6c0.2-0.2,0.4-0.3,0.6-0.3c0.2,0,0.5,0.1,0.6,0.3
			C378.7,1654,378.8,1654.2,378.8,1654.5z"/>
		<path class="st1" d="M386.3,1657c0.2,0.2,0.3,0.3,0.4,0.5c0.5-0.7,1.1-1.1,1.9-1.1c0.6,0,1.1,0.2,1.5,0.6c0.4,0.4,0.5,0.9,0.5,1.6
			v2.8c0,0.9,0.3,1.3,0.9,1.4v0.2h-3.3v-0.2c0.6,0,0.9-0.5,0.9-1.4v-3c0-0.4-0.1-0.7-0.3-1c-0.2-0.3-0.5-0.4-0.8-0.4
			c-0.3,0-0.6,0.1-0.8,0.4c-0.2,0.3-0.3,0.6-0.3,1v3c0,0.9,0.3,1.3,0.9,1.4v0.2h-3.3v-0.2c0.6,0,0.9-0.5,0.9-1.4v-3
			c0-0.4-0.1-0.7-0.3-1c-0.2-0.3-0.5-0.4-0.8-0.4c-0.3,0-0.6,0.1-0.8,0.4c-0.2,0.3-0.4,0.6-0.3,1v3c0,0.9,0.3,1.3,0.9,1.4v0.2h-3.3
			v-0.2c0.6,0,0.9-0.5,0.9-1.4v-3.5c0-0.7-0.3-1-0.9-0.9v-0.2l2.2-0.4c0.1,0.1,0.2,0.4,0.2,0.9c0.4-0.6,1-0.9,1.8-0.9
			C385.4,1656.5,385.9,1656.6,386.3,1657z"/>
		<path class="st1" d="M392.5,1656.8l2.4-0.4v5c0,0.8,0.3,1.3,0.9,1.3v0.2h-3.3v-0.2c0.6,0,0.9-0.5,0.9-1.3v-3.6
			c0-0.7-0.3-1-0.9-0.9V1656.8z M395.1,1654.5c0,0.3-0.1,0.5-0.3,0.6c-0.2,0.2-0.4,0.3-0.6,0.3c-0.2,0-0.5-0.1-0.6-0.3
			c-0.2-0.2-0.3-0.4-0.3-0.6c0-0.3,0.1-0.5,0.3-0.6c0.2-0.2,0.4-0.3,0.6-0.3c0.2,0,0.5,0.1,0.6,0.3
			C395,1654,395.1,1654.2,395.1,1654.5z"/>
		<path class="st1" d="M402.2,1657.3c0.5,0.6,0.8,1.3,0.9,2.3h-4.6c-0.1,0.8,0.1,1.5,0.5,2.1c0.4,0.6,0.9,0.9,1.6,0.8
			c0.5,0,1-0.2,1.4-0.6s0.6-0.9,0.8-1.5h0.2c-0.2,0.9-0.5,1.5-1.1,2c-0.6,0.5-1.2,0.7-2,0.7c-0.8,0-1.6-0.3-2.2-1
			c-0.6-0.6-0.9-1.4-0.9-2.3c0-1,0.3-1.8,0.9-2.4c0.6-0.7,1.4-1,2.3-1C401,1656.4,401.7,1656.7,402.2,1657.3z M399.3,1657
			c-0.2,0.2-0.3,0.4-0.5,0.7c-0.1,0.3-0.2,0.5-0.2,0.8c-0.1,0.3-0.1,0.5-0.1,0.8h2.9c0-0.3,0-0.7-0.1-1c-0.1-0.4-0.2-0.7-0.5-1
			c-0.2-0.3-0.5-0.5-0.9-0.5C399.8,1656.7,399.5,1656.8,399.3,1657z"/>
		<path class="st1" d="M410,1657c0.4,0.4,0.6,0.9,0.6,1.6v2.8c0,0.9,0.3,1.3,0.9,1.4v0.2h-3.3v-0.2c0.6,0,0.9-0.5,0.9-1.4v-3
			c0-0.4-0.1-0.7-0.3-1c-0.2-0.3-0.5-0.4-0.9-0.4c-0.3,0-0.6,0.1-0.9,0.4c-0.2,0.3-0.3,0.6-0.3,1v3c0,0.9,0.3,1.3,0.9,1.4v0.2h-3.3
			v-0.2c0.6,0,0.9-0.5,0.9-1.4v-3.5c0-0.7-0.3-1-0.9-0.9v-0.2l2.2-0.4c0.1,0.1,0.2,0.4,0.2,0.9c0.5-0.6,1.1-0.9,1.9-0.9
			C409.1,1656.4,409.6,1656.6,410,1657z"/>
		<path class="st1" d="M414.9,1654.3v2.3h1.3v0.3h-1.3v4.4c0,0.5,0.1,0.8,0.3,1c0.2,0.2,0.4,0.2,0.8,0.1c0.1,0,0.3-0.1,0.6-0.2
			l0.1,0.3c-0.2,0.1-0.4,0.2-0.7,0.3c-1.7,0.6-2.6,0.1-2.6-1.4v-4.6h-0.9v-0.2c0.5-0.1,0.9-0.4,1.3-0.9c0.4-0.5,0.7-1,0.9-1.6H414.9
			z"/>
		<path class="st1" d="M423.1,1657.4c0.6,0.6,0.9,1.4,0.9,2.4c0,1-0.3,1.8-1,2.4c-0.6,0.7-1.4,1-2.3,1c-0.9,0-1.6-0.3-2.2-1
			c-0.6-0.6-0.9-1.4-0.9-2.3c0-1,0.3-1.8,0.9-2.4c0.6-0.7,1.4-1,2.3-1C421.8,1656.4,422.6,1656.8,423.1,1657.4z M419.8,1657.7
			c-0.3,0.6-0.4,1.3-0.4,2.2c0,0.8,0.1,1.5,0.4,2.1c0.3,0.6,0.6,0.9,1.1,0.9c0.4,0,0.8-0.3,1.1-0.9c0.3-0.6,0.5-1.3,0.5-2.2
			c0-0.9-0.1-1.6-0.4-2.2c-0.3-0.5-0.6-0.8-1.1-0.8C420.4,1656.8,420.1,1657.1,419.8,1657.7z"/>
		<path class="st1" d="M435.1,1662.4c-0.6,0.5-1.2,0.7-1.9,0.7c-0.8,0-1.5-0.3-2-0.9c-0.5-0.6-0.7-1.4-0.7-2.4c0-1,0.3-1.8,0.8-2.5
			c0.5-0.6,1.2-0.9,2-0.9c0.7,0,1.3,0.2,1.9,0.6v-2.2c0-0.7-0.3-1-0.9-0.9v-0.2l2.4-0.4v8.1c0,0.7,0.3,1,0.9,0.9v0.2l-2.2,0.5
			C435.2,1663,435.1,1662.8,435.1,1662.4z M432.4,1657.7c-0.3,0.5-0.4,1.2-0.4,2c0,0.9,0.2,1.6,0.5,2.1c0.3,0.6,0.8,0.8,1.3,0.8
			c0.3,0,0.6-0.2,0.9-0.5c0.3-0.3,0.4-0.7,0.4-1.2v-3.4c-0.1-0.2-0.3-0.4-0.6-0.5c-0.3-0.2-0.5-0.2-0.8-0.2
			C433.2,1656.9,432.7,1657.2,432.4,1657.7z"/>
		<path class="st1" d="M443.9,1657.3c0.5,0.6,0.8,1.3,0.9,2.3h-4.6c-0.1,0.8,0.1,1.5,0.5,2.1c0.4,0.6,0.9,0.9,1.6,0.8
			c0.5,0,1-0.2,1.4-0.6s0.6-0.9,0.8-1.5h0.2c-0.2,0.9-0.5,1.5-1.1,2c-0.6,0.5-1.2,0.7-2,0.7c-0.8,0-1.6-0.3-2.2-1
			c-0.6-0.6-0.9-1.4-0.9-2.3c0-1,0.3-1.8,0.9-2.4c0.6-0.7,1.4-1,2.3-1C442.7,1656.4,443.4,1656.7,443.9,1657.3z M441,1657
			c-0.2,0.2-0.3,0.4-0.5,0.7c-0.1,0.3-0.2,0.5-0.2,0.8c-0.1,0.3-0.1,0.5-0.1,0.8h2.9c0-0.3,0-0.7-0.1-1c-0.1-0.4-0.2-0.7-0.5-1
			c-0.2-0.3-0.5-0.5-0.9-0.5C441.5,1656.7,441.2,1656.8,441,1657z"/>
	</g>
	<g class="st0">
		<path class="st1" d="M303.4,1677.8c-0.2,0-0.4,0-0.6-0.1c-0.3-0.2-0.5-0.5-0.6-0.9c-0.1-0.4-0.1-0.8,0-1.3
			c0.1-0.5,0.4-0.9,0.7-1.3c0.4-0.3,0.8-0.5,1.3-0.6v0.4c-0.3,0.1-0.6,0.3-0.9,0.6c-0.3,0.3-0.4,0.6-0.5,0.9c0,0.1-0.1,0.3-0.1,0.4
			c0,0.2,0.1,0.2,0.2,0.1c0.1-0.1,0.3-0.1,0.5-0.1c0.2,0,0.5,0.1,0.6,0.3c0.2,0.2,0.3,0.4,0.3,0.7c0,0.3-0.1,0.5-0.3,0.7
			C303.9,1677.7,303.7,1677.8,303.4,1677.8z M306.1,1677.8c-0.2,0-0.4,0-0.6-0.1c-0.3-0.2-0.5-0.5-0.6-0.9c-0.1-0.4-0.1-0.8,0-1.3
			c0.1-0.5,0.4-0.9,0.7-1.3c0.4-0.3,0.8-0.5,1.3-0.6v0.4c-0.3,0.1-0.6,0.3-0.9,0.6c-0.3,0.3-0.4,0.6-0.5,0.9c0,0.1-0.1,0.3-0.1,0.4
			c0,0.2,0.1,0.2,0.2,0.1c0.1-0.1,0.3-0.1,0.5-0.1c0.2,0,0.5,0.1,0.6,0.3c0.2,0.2,0.3,0.4,0.3,0.7c0,0.3-0.1,0.5-0.3,0.7
			C306.6,1677.7,306.3,1677.8,306.1,1677.8z"/>
		<path class="st1" d="M315.4,1673.8l0.1,2.2l-0.2,0c-0.1-1.3-0.8-2-2.2-2h-2.3v3.8h1.2c0.9,0,1.4-0.5,1.4-1.4h0.2v3.1h-0.2
			c0-0.9-0.5-1.4-1.4-1.4h-1.2v3c0,1,0.7,1.5,2.1,1.5c1.9,0,3-0.8,3-2.4l0.2,0l-0.2,2.6h-8v-0.3c0.8,0,1.2-0.4,1.2-1.1v-6.4
			c0-0.8-0.4-1.2-1.2-1.2v-0.3H315.4z"/>
		<path class="st1" d="M320.8,1676.6v0.2c-0.6,0-0.6,0.4-0.1,1.2l0.5,0.9l0.7-0.9c0.6-0.8,0.6-1.2-0.1-1.2v-0.2h2.2v0.2
			c-0.6,0-1.2,0.4-1.8,1.2l-0.8,1.1l1.4,2.4c0.4,0.8,0.9,1.2,1.5,1.2v0.2h-3.3v-0.2c0.6,0,0.7-0.4,0.2-1.2l-0.8-1.4l-1,1.4
			c-0.5,0.8-0.5,1.2,0.1,1.2v0.2h-2.2v-0.2c0.6,0,1.2-0.4,1.8-1.2l1.2-1.7l-1.1-1.9c-0.5-0.8-1-1.2-1.5-1.2v-0.2H320.8z"/>
		<path class="st1" d="M329.4,1677c0.3,0.2,0.4,0.5,0.4,0.7c0,0.2-0.1,0.3-0.2,0.4c-0.1,0.1-0.3,0.1-0.4,0.1c-0.1,0-0.2-0.1-0.3-0.2
			c-0.1-0.1-0.2-0.3-0.2-0.5c-0.1-0.3-0.2-0.5-0.2-0.6c-0.2-0.1-0.4-0.2-0.7-0.2c-0.4,0-0.7,0.2-1,0.5c-0.3,0.3-0.5,0.7-0.6,1.2
			c-0.1,0.5-0.2,0.9-0.2,1.4c0,0.7,0.2,1.4,0.6,1.9c0.4,0.5,0.9,0.8,1.5,0.8c1,0,1.6-0.7,2-2.1h0.2c-0.1,0.8-0.5,1.5-1,2
			c-0.5,0.5-1.1,0.7-1.8,0.7c-0.9,0-1.6-0.3-2.2-0.9c-0.6-0.6-0.9-1.4-0.9-2.3c0-1,0.3-1.8,0.8-2.4c0.6-0.7,1.4-1,2.4-1
			C328.3,1676.4,328.9,1676.6,329.4,1677z"/>
		<path class="st1" d="M336.6,1677.3c0.5,0.6,0.8,1.3,0.9,2.3h-4.6c-0.1,0.8,0.1,1.5,0.5,2.1c0.4,0.6,0.9,0.9,1.6,0.8
			c0.5,0,1-0.2,1.4-0.6s0.6-0.9,0.8-1.5h0.2c-0.2,0.9-0.5,1.5-1.1,2c-0.6,0.5-1.2,0.7-2,0.7c-0.8,0-1.6-0.3-2.2-1
			c-0.6-0.6-0.9-1.4-0.9-2.3c0-1,0.3-1.8,0.9-2.4c0.6-0.7,1.4-1,2.3-1C335.4,1676.4,336.1,1676.7,336.6,1677.3z M333.7,1677
			c-0.2,0.2-0.3,0.4-0.5,0.7c-0.1,0.3-0.2,0.5-0.2,0.8c-0.1,0.3-0.1,0.5-0.1,0.8h2.9c0-0.3,0-0.7-0.1-1c-0.1-0.4-0.2-0.7-0.5-1
			c-0.2-0.3-0.5-0.5-0.9-0.5C334.2,1676.7,333.9,1676.8,333.7,1677z"/>
		<path class="st1" d="M341,1681.4c0,0.9,0.3,1.3,0.9,1.4v0.2h-3.3v-0.2c0.6,0,0.9-0.5,0.9-1.4v-6.5c0-0.7-0.3-1-0.9-0.9v-0.2
			l2.5-0.4v3V1681.4z"/>
		<path class="st1" d="M348.2,1677.3c0.5,0.6,0.8,1.3,0.9,2.3h-4.6c-0.1,0.8,0.1,1.5,0.5,2.1c0.4,0.6,0.9,0.9,1.6,0.8
			c0.5,0,1-0.2,1.4-0.6s0.6-0.9,0.8-1.5h0.2c-0.2,0.9-0.5,1.5-1.1,2c-0.6,0.5-1.2,0.7-2,0.7c-0.8,0-1.6-0.3-2.2-1
			c-0.6-0.6-0.9-1.4-0.9-2.3c0-1,0.3-1.8,0.9-2.4c0.6-0.7,1.4-1,2.3-1C347,1676.4,347.7,1676.7,348.2,1677.3z M345.3,1677
			c-0.2,0.2-0.3,0.4-0.5,0.7c-0.1,0.3-0.2,0.5-0.2,0.8c-0.1,0.3-0.1,0.5-0.1,0.8h2.9c0-0.3,0-0.7-0.1-1c-0.1-0.4-0.2-0.7-0.5-1
			c-0.2-0.3-0.5-0.5-0.9-0.5C345.8,1676.7,345.5,1676.8,345.3,1677z"/>
		<path class="st1" d="M356,1677c0.4,0.4,0.6,0.9,0.6,1.6v2.8c0,0.9,0.3,1.3,0.9,1.4v0.2h-3.3v-0.2c0.6,0,0.9-0.5,0.9-1.4v-3
			c0-0.4-0.1-0.7-0.3-1c-0.2-0.3-0.5-0.4-0.9-0.4c-0.3,0-0.6,0.1-0.9,0.4c-0.2,0.3-0.3,0.6-0.3,1v3c0,0.9,0.3,1.3,0.9,1.4v0.2h-3.3
			v-0.2c0.6,0,0.9-0.5,0.9-1.4v-3.5c0-0.7-0.3-1-0.9-0.9v-0.2l2.2-0.4c0.1,0.1,0.2,0.4,0.2,0.9c0.5-0.6,1.1-0.9,1.9-0.9
			C355.1,1676.4,355.6,1676.6,356,1677z"/>
		<path class="st1" d="M363.6,1677c0.3,0.2,0.4,0.5,0.4,0.7c0,0.2-0.1,0.3-0.2,0.4c-0.1,0.1-0.3,0.1-0.4,0.1c-0.1,0-0.2-0.1-0.3-0.2
			c-0.1-0.1-0.2-0.3-0.2-0.5c-0.1-0.3-0.2-0.5-0.2-0.6c-0.2-0.1-0.4-0.2-0.7-0.2c-0.4,0-0.7,0.2-1,0.5c-0.3,0.3-0.5,0.7-0.6,1.2
			c-0.1,0.5-0.2,0.9-0.2,1.4c0,0.7,0.2,1.4,0.6,1.9c0.4,0.5,0.9,0.8,1.5,0.8c1,0,1.6-0.7,2-2.1h0.2c-0.1,0.8-0.5,1.5-1,2
			c-0.5,0.5-1.1,0.7-1.8,0.7c-0.9,0-1.6-0.3-2.2-0.9c-0.6-0.6-0.9-1.4-0.9-2.3c0-1,0.3-1.8,0.8-2.4c0.6-0.7,1.4-1,2.4-1
			C362.5,1676.4,363.1,1676.6,363.6,1677z"/>
		<path class="st1" d="M365.4,1676.8l2.4-0.4v5c0,0.8,0.3,1.3,0.9,1.3v0.2h-3.3v-0.2c0.6,0,0.9-0.5,0.9-1.3v-3.6
			c0-0.7-0.3-1-0.9-0.9V1676.8z M367.9,1674.5c0,0.3-0.1,0.5-0.3,0.6c-0.2,0.2-0.4,0.3-0.6,0.3c-0.2,0-0.5-0.1-0.6-0.3
			c-0.2-0.2-0.3-0.4-0.3-0.6c0-0.3,0.1-0.5,0.3-0.6c0.2-0.2,0.4-0.3,0.6-0.3c0.2,0,0.5,0.1,0.6,0.3
			C367.8,1674,367.9,1674.2,367.9,1674.5z"/>
		<path class="st1" d="M374.9,1677.4c0.2,0.3,0.3,0.8,0.3,1.4v3.2c0,0.4,0.1,0.6,0.3,0.7c0.2,0.1,0.5,0,0.9-0.3l0.1,0.2
			c-0.5,0.3-0.9,0.5-1.4,0.5c-0.9,0-1.3-0.3-1.4-0.9c-0.2,0.3-0.4,0.5-0.8,0.7c-0.3,0.2-0.8,0.3-1.3,0.3c-0.5,0-1-0.2-1.4-0.5
			c-0.4-0.3-0.5-0.8-0.5-1.3c0-0.9,0.5-1.5,1.5-1.8c1.6-0.6,2.5-1.2,2.4-1.9c0-0.6-0.4-0.8-1.3-0.8c-0.3,0-0.6,0.1-0.7,0.2
			c0,0-0.1,0.2-0.3,0.6c-0.1,0.2-0.2,0.3-0.3,0.4c-0.1,0.1-0.2,0.2-0.3,0.2c-0.1,0-0.3,0-0.4-0.1c-0.1-0.1-0.2-0.2-0.2-0.4
			c0-0.2,0.1-0.5,0.4-0.7c0.5-0.4,1.1-0.6,1.9-0.6C373.7,1676.4,374.5,1676.8,374.9,1677.4z M372.2,1679.7c-0.3,0.1-0.5,0.4-0.7,0.6
			c-0.1,0.3-0.2,0.6-0.2,0.9c0,0.3,0.1,0.7,0.3,0.9c0.2,0.3,0.4,0.4,0.8,0.4c0.4,0,0.7-0.2,1-0.6c0.2-0.4,0.3-1,0.3-1.6v-1.6
			C373.4,1679,372.9,1679.3,372.2,1679.7z"/>
		<path class="st1" d="M387.5,1673.8l3.3,8c0.3,0.6,0.7,1,1.3,1v0.3h-3.8v-0.3c0.7,0,0.9-0.3,0.7-1l-0.7-1.8H385l-0.7,1.8
			c-0.3,0.7,0,1,0.7,1v0.3h-2.3v-0.3c0.6,0,1.1-0.3,1.4-1l3-8H387.5z M385.1,1679.7h3.1c-0.1-0.3-0.6-1.6-1.6-3.9
			C385.7,1678.2,385.2,1679.5,385.1,1679.7z"/>
		<path class="st1" d="M397.3,1677c0.3,0.2,0.4,0.5,0.4,0.7c0,0.2-0.1,0.3-0.2,0.4c-0.1,0.1-0.3,0.1-0.4,0.1c-0.1,0-0.2-0.1-0.3-0.2
			c-0.1-0.1-0.2-0.3-0.2-0.5c-0.1-0.3-0.2-0.5-0.2-0.6c-0.2-0.1-0.4-0.2-0.7-0.2c-0.4,0-0.7,0.2-1,0.5c-0.3,0.3-0.5,0.7-0.6,1.2
			c-0.1,0.5-0.2,0.9-0.2,1.4c0,0.7,0.2,1.4,0.6,1.9c0.4,0.5,0.9,0.8,1.5,0.8c1,0,1.6-0.7,2-2.1h0.2c-0.1,0.8-0.5,1.5-1,2
			c-0.5,0.5-1.1,0.7-1.8,0.7c-0.9,0-1.6-0.3-2.2-0.9c-0.6-0.6-0.9-1.4-0.9-2.3c0-1,0.3-1.8,0.8-2.4c0.6-0.7,1.4-1,2.4-1
			C396.2,1676.4,396.8,1676.6,397.3,1677z"/>
		<path class="st1" d="M404.4,1677.4c0.2,0.3,0.3,0.8,0.3,1.4v3.2c0,0.4,0.1,0.6,0.3,0.7c0.2,0.1,0.5,0,0.9-0.3l0.1,0.2
			c-0.5,0.3-0.9,0.5-1.4,0.5c-0.9,0-1.3-0.3-1.4-0.9c-0.2,0.3-0.4,0.5-0.8,0.7c-0.3,0.2-0.8,0.3-1.3,0.3c-0.5,0-1-0.2-1.4-0.5
			c-0.4-0.3-0.5-0.8-0.5-1.3c0-0.9,0.5-1.5,1.5-1.8c1.6-0.6,2.5-1.2,2.4-1.9c0-0.6-0.4-0.8-1.3-0.8c-0.3,0-0.6,0.1-0.7,0.2
			c0,0-0.1,0.2-0.3,0.6c-0.1,0.2-0.2,0.3-0.3,0.4c-0.1,0.1-0.2,0.2-0.3,0.2c-0.1,0-0.3,0-0.4-0.1c-0.1-0.1-0.2-0.2-0.2-0.4
			c0-0.2,0.1-0.5,0.4-0.7c0.5-0.4,1.1-0.6,1.9-0.6C403.2,1676.4,404,1676.8,404.4,1677.4z M401.6,1679.7c-0.3,0.1-0.5,0.4-0.7,0.6
			c-0.1,0.3-0.2,0.6-0.2,0.9c0,0.3,0.1,0.7,0.3,0.9c0.2,0.3,0.4,0.4,0.8,0.4c0.4,0,0.7-0.2,1-0.6c0.2-0.4,0.3-1,0.3-1.6v-1.6
			C402.9,1679,402.4,1679.3,401.6,1679.7z"/>
		<path class="st1" d="M411.4,1682.4c-0.6,0.5-1.2,0.7-1.9,0.7c-0.8,0-1.5-0.3-2-0.9c-0.5-0.6-0.7-1.4-0.7-2.4c0-1,0.3-1.8,0.8-2.5
			c0.5-0.6,1.2-0.9,2-0.9c0.7,0,1.3,0.2,1.9,0.6v-2.2c0-0.7-0.3-1-0.9-0.9v-0.2l2.4-0.4v8.1c0,0.7,0.3,1,0.9,0.9v0.2l-2.2,0.5
			C411.5,1683,411.4,1682.8,411.4,1682.4z M408.7,1677.7c-0.3,0.5-0.4,1.2-0.4,2c0,0.9,0.2,1.6,0.5,2.1c0.3,0.6,0.8,0.8,1.3,0.8
			c0.3,0,0.6-0.2,0.9-0.5c0.3-0.3,0.4-0.7,0.4-1.2v-3.4c-0.1-0.2-0.3-0.4-0.6-0.5c-0.3-0.2-0.5-0.2-0.8-0.2
			C409.5,1676.9,409,1677.2,408.7,1677.7z"/>
		<path class="st1" d="M420.2,1677.3c0.5,0.6,0.8,1.3,0.9,2.3h-4.6c-0.1,0.8,0.1,1.5,0.5,2.1c0.4,0.6,0.9,0.9,1.6,0.8
			c0.5,0,1-0.2,1.4-0.6s0.6-0.9,0.8-1.5h0.2c-0.2,0.9-0.5,1.5-1.1,2c-0.6,0.5-1.2,0.7-2,0.7c-0.8,0-1.6-0.3-2.2-1
			c-0.6-0.6-0.9-1.4-0.9-2.3c0-1,0.3-1.8,0.9-2.4c0.6-0.7,1.4-1,2.3-1C419,1676.4,419.7,1676.7,420.2,1677.3z M417.3,1677
			c-0.2,0.2-0.3,0.4-0.5,0.7c-0.1,0.3-0.2,0.5-0.2,0.8c-0.1,0.3-0.1,0.5-0.1,0.8h2.9c0-0.3,0-0.7-0.1-1c-0.1-0.4-0.2-0.7-0.5-1
			c-0.2-0.3-0.5-0.5-0.9-0.5C417.8,1676.7,417.5,1676.8,417.3,1677z M418.2,1673.6l-1.2,1.9l0.4,0.2l2.2-2.2H418.2z"/>
		<path class="st1" d="M427.8,1677c0.2,0.2,0.3,0.3,0.4,0.5c0.5-0.7,1.1-1.1,1.9-1.1c0.6,0,1.1,0.2,1.5,0.6c0.4,0.4,0.5,0.9,0.5,1.6
			v2.8c0,0.9,0.3,1.3,0.9,1.4v0.2h-3.3v-0.2c0.6,0,0.9-0.5,0.9-1.4v-3c0-0.4-0.1-0.7-0.3-1c-0.2-0.3-0.5-0.4-0.8-0.4
			c-0.3,0-0.6,0.1-0.8,0.4c-0.2,0.3-0.3,0.6-0.3,1v3c0,0.9,0.3,1.3,0.9,1.4v0.2h-3.3v-0.2c0.6,0,0.9-0.5,0.9-1.4v-3
			c0-0.4-0.1-0.7-0.3-1c-0.2-0.3-0.5-0.4-0.8-0.4c-0.3,0-0.6,0.1-0.8,0.4c-0.2,0.3-0.4,0.6-0.3,1v3c0,0.9,0.3,1.3,0.9,1.4v0.2h-3.3
			v-0.2c0.6,0,0.9-0.5,0.9-1.4v-3.5c0-0.7-0.3-1-0.9-0.9v-0.2l2.2-0.4c0.1,0.1,0.2,0.4,0.2,0.9c0.4-0.6,1-0.9,1.8-0.9
			C427,1676.5,427.5,1676.6,427.8,1677z"/>
		<path class="st1" d="M434.1,1676.8l2.4-0.4v5c0,0.8,0.3,1.3,0.9,1.3v0.2h-3.3v-0.2c0.6,0,0.9-0.5,0.9-1.3v-3.6
			c0-0.7-0.3-1-0.9-0.9V1676.8z M436.6,1674.5c0,0.3-0.1,0.5-0.3,0.6c-0.2,0.2-0.4,0.3-0.6,0.3c-0.2,0-0.5-0.1-0.6-0.3
			c-0.2-0.2-0.3-0.4-0.3-0.6c0-0.3,0.1-0.5,0.3-0.6c0.2-0.2,0.4-0.3,0.6-0.3c0.2,0,0.5,0.1,0.6,0.3
			C436.5,1674,436.6,1674.2,436.6,1674.5z"/>
		<path class="st1" d="M443.6,1677c0.3,0.2,0.4,0.5,0.4,0.7c0,0.2-0.1,0.3-0.2,0.4c-0.1,0.1-0.3,0.1-0.4,0.1c-0.1,0-0.2-0.1-0.3-0.2
			c-0.1-0.1-0.2-0.3-0.2-0.5c-0.1-0.3-0.2-0.5-0.2-0.6c-0.2-0.1-0.4-0.2-0.7-0.2c-0.4,0-0.7,0.2-1,0.5c-0.3,0.3-0.5,0.7-0.6,1.2
			c-0.1,0.5-0.2,0.9-0.2,1.4c0,0.7,0.2,1.4,0.6,1.9c0.4,0.5,0.9,0.8,1.5,0.8c1,0,1.6-0.7,2-2.1h0.2c-0.1,0.8-0.5,1.5-1,2
			c-0.5,0.5-1.1,0.7-1.8,0.7c-0.9,0-1.6-0.3-2.2-0.9c-0.6-0.6-0.9-1.4-0.9-2.3c0-1,0.3-1.8,0.8-2.4c0.6-0.7,1.4-1,2.4-1
			C442.4,1676.4,443.1,1676.6,443.6,1677z"/>
		<path class="st1" d="M450.6,1677.4c0.2,0.3,0.3,0.8,0.3,1.4v3.2c0,0.4,0.1,0.6,0.3,0.7c0.2,0.1,0.5,0,0.9-0.3l0.1,0.2
			c-0.5,0.3-0.9,0.5-1.4,0.5c-0.9,0-1.3-0.3-1.4-0.9c-0.2,0.3-0.4,0.5-0.8,0.7c-0.3,0.2-0.8,0.3-1.3,0.3c-0.5,0-1-0.2-1.4-0.5
			c-0.4-0.3-0.5-0.8-0.5-1.3c0-0.9,0.5-1.5,1.5-1.8c1.6-0.6,2.5-1.2,2.4-1.9c0-0.6-0.4-0.8-1.3-0.8c-0.3,0-0.6,0.1-0.7,0.2
			c0,0-0.1,0.2-0.3,0.6c-0.1,0.2-0.2,0.3-0.3,0.4c-0.1,0.1-0.2,0.2-0.3,0.2c-0.1,0-0.3,0-0.4-0.1c-0.1-0.1-0.2-0.2-0.2-0.4
			c0-0.2,0.1-0.5,0.4-0.7c0.5-0.4,1.1-0.6,1.9-0.6C449.4,1676.4,450.3,1676.8,450.6,1677.4z M447.9,1679.7c-0.3,0.1-0.5,0.4-0.7,0.6
			c-0.1,0.3-0.2,0.6-0.2,0.9c0,0.3,0.1,0.7,0.3,0.9c0.2,0.3,0.4,0.4,0.8,0.4c0.4,0,0.7-0.2,1-0.6c0.2-0.4,0.3-1,0.3-1.6v-1.6
			C449.1,1679,448.6,1679.3,447.9,1679.7z"/>
		<path class="st1" d="M453.9,1673.6c0.2,0,0.4,0,0.6,0.1c0.3,0.2,0.5,0.5,0.6,0.9c0.1,0.4,0.1,0.8,0,1.3c-0.1,0.5-0.4,0.9-0.7,1.3
			c-0.4,0.3-0.8,0.5-1.3,0.6v-0.4c0.3-0.1,0.6-0.3,0.9-0.6c0.3-0.3,0.4-0.6,0.5-0.9c0-0.1,0.1-0.3,0.1-0.4c0-0.2-0.1-0.2-0.2-0.1
			c-0.1,0.1-0.3,0.1-0.5,0.1c-0.2,0-0.5-0.1-0.6-0.3c-0.2-0.2-0.3-0.4-0.3-0.7c0-0.3,0.1-0.5,0.3-0.7
			C453.4,1673.7,453.7,1673.6,453.9,1673.6z M456.6,1673.6c0.2,0,0.4,0,0.6,0.1c0.3,0.2,0.5,0.5,0.6,0.9c0.1,0.4,0.1,0.8,0,1.3
			c-0.1,0.5-0.4,0.9-0.7,1.3c-0.4,0.3-0.8,0.5-1.3,0.6v-0.4c0.3-0.1,0.6-0.3,0.9-0.6c0.3-0.3,0.4-0.6,0.5-0.9c0-0.1,0.1-0.3,0.1-0.4
			c0-0.2-0.1-0.2-0.2-0.1c-0.1,0.1-0.3,0.1-0.5,0.1c-0.2,0-0.5-0.1-0.6-0.3c-0.2-0.2-0.3-0.4-0.3-0.7c0-0.3,0.1-0.5,0.3-0.7
			C456.1,1673.7,456.3,1673.6,456.6,1673.6z"/>
	</g>
	<g class="st0">
		<path class="st1" d="M312.2,1697.4c0.6,0.6,0.9,1.4,0.9,2.4c0,1-0.3,1.8-1,2.4c-0.6,0.7-1.4,1-2.3,1c-0.9,0-1.6-0.3-2.2-1
			c-0.6-0.6-0.9-1.4-0.9-2.3c0-1,0.3-1.8,0.9-2.4c0.6-0.7,1.4-1,2.3-1C310.9,1696.4,311.6,1696.8,312.2,1697.4z M308.8,1697.7
			c-0.3,0.6-0.4,1.3-0.4,2.2c0,0.8,0.1,1.5,0.4,2.1c0.3,0.6,0.6,0.9,1.1,0.9c0.4,0,0.8-0.3,1.1-0.9c0.3-0.6,0.5-1.3,0.5-2.2
			c0-0.9-0.1-1.6-0.4-2.2c-0.3-0.5-0.6-0.8-1.1-0.8C309.5,1696.8,309.1,1697.1,308.8,1697.7z"/>
		<path class="st1" d="M316.6,1694.3v2.3h1.3v0.3h-1.3v4.4c0,0.5,0.1,0.8,0.3,1c0.2,0.2,0.4,0.2,0.8,0.1c0.1,0,0.3-0.1,0.6-0.2
			l0.1,0.3c-0.2,0.1-0.4,0.2-0.7,0.3c-1.7,0.6-2.6,0.1-2.6-1.4v-4.6h-0.9v-0.2c0.5-0.1,0.9-0.4,1.3-0.9c0.4-0.5,0.7-1,0.9-1.6H316.6
			z"/>
		<path class="st1" d="M324.8,1697.4c0.6,0.6,0.9,1.4,0.9,2.4c0,1-0.3,1.8-1,2.4c-0.6,0.7-1.4,1-2.3,1c-0.9,0-1.6-0.3-2.2-1
			c-0.6-0.6-0.9-1.4-0.9-2.3c0-1,0.3-1.8,0.9-2.4c0.6-0.7,1.4-1,2.3-1C323.5,1696.4,324.2,1696.8,324.8,1697.4z M321.4,1697.7
			c-0.3,0.6-0.4,1.3-0.4,2.2c0,0.8,0.1,1.5,0.4,2.1c0.3,0.6,0.6,0.9,1.1,0.9c0.4,0,0.8-0.3,1.1-0.9c0.3-0.6,0.5-1.3,0.5-2.2
			c0-0.9-0.1-1.6-0.4-2.2c-0.3-0.5-0.6-0.8-1.1-0.8C322.1,1696.8,321.7,1697.1,321.4,1697.7z"/>
		<path class="st1" d="M329.1,1697.4c0.4-0.6,0.9-0.9,1.6-0.9c0.4,0,0.8,0.1,1.2,0.3c0.3,0.2,0.4,0.4,0.4,0.7c0,0.1,0,0.3-0.1,0.4
			c-0.1,0.1-0.2,0.2-0.4,0.2s-0.3,0-0.4-0.1c-0.1-0.1-0.2-0.2-0.3-0.4c-0.1-0.2-0.2-0.4-0.3-0.5c-0.1-0.1-0.3-0.2-0.5-0.1
			c-0.3,0-0.5,0.2-0.8,0.6c-0.2,0.4-0.4,0.9-0.4,1.4v2.6c0,0.9,0.3,1.4,0.9,1.4v0.2h-3.2v-0.2c0.6,0,0.9-0.5,0.9-1.4v-3.4
			c0-0.7-0.3-1-0.9-1v-0.2l2.2-0.4C329,1696.6,329.1,1696.9,329.1,1697.4z"/>
		<path class="st1" d="M339.2,1695.9c0.3,0.1,0.5,0.3,0.5,0.5c0,0.1,0,0.3,0,0.4s-0.2,0.2-0.3,0.3s-0.3,0-0.4,0
			c-0.1-0.1-0.3-0.2-0.4-0.3c-0.2-0.2-0.3-0.3-0.5-0.4c-0.1-0.1-0.3-0.1-0.4,0c-0.1,0-0.3,0.1-0.4,0.3c0.6,0.2,1,0.4,1.3,0.7
			c0.3,0.4,0.5,0.8,0.5,1.4c0,0.6-0.3,1.2-0.9,1.7c-0.5,0.4-1.2,0.6-2,0.6c-0.6,0-1.1-0.1-1.6-0.3v0c-0.2,0.1-0.3,0.3-0.4,0.4
			c-0.1,0.2-0.1,0.3-0.1,0.5c0.1,0.3,0.4,0.5,0.9,0.5h2.6c1.6,0,2.5,0.6,2.5,1.9c0,0.8-0.5,1.4-1.4,1.9c-0.7,0.4-1.6,0.6-2.6,0.6
			c-1,0-1.8-0.1-2.4-0.5c-0.3-0.2-0.5-0.4-0.7-0.6c-0.1-0.3-0.2-0.6-0.2-0.9c0-0.5,0.2-0.9,0.6-1.3c-0.2-0.2-0.3-0.4-0.4-0.6
			c-0.1-0.2-0.1-0.4,0-0.6c0.1-0.6,0.6-1.1,1.3-1.4c-0.3-0.2-0.6-0.5-0.8-0.8c-0.2-0.3-0.3-0.7-0.3-1c0-0.7,0.3-1.2,0.8-1.7
			c0.5-0.4,1.2-0.7,2.1-0.7c0.2,0,0.4,0,0.7,0.1c0.5-0.5,1-0.8,1.6-0.8C338.7,1695.8,339,1695.8,339.2,1695.9z M333.1,1704.4
			c0,0.5,0.2,0.9,0.7,1.2c0.5,0.3,1.2,0.4,2.2,0.4c1,0,1.9-0.3,2.6-0.8c0.2-0.1,0.3-0.3,0.4-0.4c0.1-0.2,0.1-0.3,0.1-0.5
			c0-0.2-0.1-0.4-0.3-0.5c-0.2-0.1-0.4-0.2-0.8-0.2h-3.1c-0.3,0-0.6,0-0.8-0.1c-0.2-0.1-0.4-0.1-0.6-0.3
			C333.2,1703.6,333.1,1704,333.1,1704.4z M335.1,1697.3c-0.2,0.4-0.3,0.9-0.3,1.4c0,0.6,0.1,1.1,0.4,1.4c0.2,0.4,0.6,0.6,0.9,0.6
			c0.4,0,0.7-0.2,0.9-0.6c0.3-0.4,0.4-0.9,0.4-1.5c0-0.8-0.2-1.3-0.5-1.7c-0.2-0.2-0.5-0.3-0.8-0.3
			C335.6,1696.7,335.3,1696.9,335.1,1697.3z"/>
		<path class="st1" d="M345.7,1697.4c0.2,0.3,0.3,0.8,0.3,1.4v3.2c0,0.4,0.1,0.6,0.3,0.7c0.2,0.1,0.5,0,0.9-0.3l0.1,0.2
			c-0.5,0.3-0.9,0.5-1.4,0.5c-0.9,0-1.3-0.3-1.4-0.9c-0.2,0.3-0.4,0.5-0.8,0.7c-0.3,0.2-0.8,0.3-1.3,0.3c-0.5,0-1-0.2-1.4-0.5
			c-0.4-0.3-0.5-0.8-0.5-1.3c0-0.9,0.5-1.5,1.5-1.8c1.6-0.6,2.5-1.2,2.4-1.9c0-0.6-0.4-0.8-1.3-0.8c-0.3,0-0.6,0.1-0.7,0.2
			c0,0-0.1,0.2-0.3,0.6c-0.1,0.2-0.2,0.3-0.3,0.4c-0.1,0.1-0.2,0.2-0.3,0.2c-0.1,0-0.3,0-0.4-0.1c-0.1-0.1-0.2-0.2-0.2-0.4
			c0-0.2,0.1-0.5,0.4-0.7c0.5-0.4,1.1-0.6,1.9-0.6C344.5,1696.4,345.3,1696.8,345.7,1697.4z M343,1699.7c-0.3,0.1-0.5,0.4-0.7,0.6
			c-0.1,0.3-0.2,0.6-0.2,0.9c0,0.3,0.1,0.7,0.3,0.9c0.2,0.3,0.4,0.4,0.8,0.4c0.4,0,0.7-0.2,1-0.6c0.2-0.4,0.3-1,0.3-1.6v-1.6
			C344.2,1699,343.7,1699.3,343,1699.7z"/>
		<path class="st1" d="M352.7,1702.4c-0.6,0.5-1.2,0.7-1.9,0.7c-0.8,0-1.5-0.3-2-0.9c-0.5-0.6-0.7-1.4-0.7-2.4c0-1,0.3-1.8,0.8-2.5
			c0.5-0.6,1.2-0.9,2-0.9c0.7,0,1.3,0.2,1.9,0.6v-2.2c0-0.7-0.3-1-0.9-0.9v-0.2l2.4-0.4v8.1c0,0.7,0.3,1,0.9,0.9v0.2l-2.2,0.5
			C352.8,1703,352.8,1702.8,352.7,1702.4z M350,1697.7c-0.3,0.5-0.4,1.2-0.4,2c0,0.9,0.2,1.6,0.5,2.1c0.3,0.6,0.8,0.8,1.3,0.8
			c0.3,0,0.6-0.2,0.9-0.5c0.3-0.3,0.4-0.7,0.4-1.2v-3.4c-0.1-0.2-0.3-0.4-0.6-0.5c-0.3-0.2-0.5-0.2-0.8-0.2
			C350.8,1696.9,350.3,1697.2,350,1697.7z"/>
		<path class="st1" d="M361.7,1697.4c0.6,0.6,0.9,1.4,0.9,2.4c0,1-0.3,1.8-1,2.4c-0.6,0.7-1.4,1-2.3,1c-0.9,0-1.6-0.3-2.2-1
			c-0.6-0.6-0.9-1.4-0.9-2.3c0-1,0.3-1.8,0.9-2.4c0.6-0.7,1.4-1,2.3-1C360.4,1696.4,361.1,1696.8,361.7,1697.4z M358.3,1697.7
			c-0.3,0.6-0.4,1.3-0.4,2.2c0,0.8,0.1,1.5,0.4,2.1c0.3,0.6,0.6,0.9,1.1,0.9c0.4,0,0.8-0.3,1.1-0.9c0.3-0.6,0.5-1.3,0.5-2.2
			c0-0.9-0.1-1.6-0.4-2.2c-0.3-0.5-0.6-0.8-1.1-0.8C359,1696.8,358.6,1697.1,358.3,1697.7z"/>
		<path class="st1" d="M371.4,1697.2c0.6-0.5,1.3-0.7,1.9-0.7c0.8,0,1.5,0.3,2,0.9c0.5,0.6,0.8,1.4,0.8,2.4c0,1-0.3,1.8-0.8,2.5
			c-0.5,0.6-1.2,0.9-2,0.9c-0.7,0-1.3-0.2-1.9-0.6v2.4c0,0.9,0.3,1.3,0.9,1.4v0.2H369v-0.2c0.6,0,0.9-0.5,0.9-1.4v-6.9
			c0-0.7-0.3-1-0.9-0.9v-0.2l2.2-0.4C371.3,1696.6,371.4,1696.8,371.4,1697.2z M374.1,1701.9c0.3-0.5,0.4-1.2,0.4-2
			c0-0.9-0.2-1.6-0.5-2.1c-0.3-0.6-0.8-0.8-1.3-0.8c-0.3,0-0.6,0.2-0.9,0.5c-0.3,0.3-0.4,0.7-0.4,1.2v3.4c0.1,0.2,0.3,0.3,0.6,0.5
			c0.3,0.2,0.5,0.2,0.8,0.2C373.4,1702.7,373.8,1702.4,374.1,1701.9z"/>
		<path class="st1" d="M382.8,1697.4c0.6,0.6,0.9,1.4,0.9,2.4c0,1-0.3,1.8-1,2.4c-0.6,0.7-1.4,1-2.3,1c-0.9,0-1.6-0.3-2.2-1
			c-0.6-0.6-0.9-1.4-0.9-2.3c0-1,0.3-1.8,0.9-2.4c0.6-0.7,1.4-1,2.3-1C381.5,1696.4,382.3,1696.8,382.8,1697.4z M379.5,1697.7
			c-0.3,0.6-0.4,1.3-0.4,2.2c0,0.8,0.1,1.5,0.4,2.1c0.3,0.6,0.6,0.9,1.1,0.9c0.4,0,0.8-0.3,1.1-0.9c0.3-0.6,0.5-1.3,0.5-2.2
			c0-0.9-0.1-1.6-0.4-2.2c-0.3-0.5-0.6-0.8-1.1-0.8C380.2,1696.8,379.8,1697.1,379.5,1697.7z"/>
		<path class="st1" d="M387.1,1697.4c0.4-0.6,0.9-0.9,1.6-0.9c0.4,0,0.8,0.1,1.2,0.3c0.3,0.2,0.4,0.4,0.4,0.7c0,0.1,0,0.3-0.1,0.4
			s-0.2,0.2-0.4,0.2c-0.2,0-0.3,0-0.4-0.1s-0.2-0.2-0.3-0.4c-0.1-0.2-0.2-0.4-0.3-0.5c-0.1-0.1-0.3-0.2-0.5-0.1
			c-0.3,0-0.5,0.2-0.8,0.6c-0.2,0.4-0.4,0.9-0.4,1.4v2.6c0,0.9,0.3,1.4,0.9,1.4v0.2h-3.2v-0.2c0.6,0,0.9-0.5,0.9-1.4v-3.4
			c0-0.7-0.3-1-0.9-1v-0.2l2.2-0.4C387.1,1696.6,387.1,1696.9,387.1,1697.4z"/>
		<path class="st1" d="M401.6,1693.8l3.3,8c0.3,0.6,0.7,1,1.3,1v0.3h-3.8v-0.3c0.7,0,0.9-0.3,0.7-1l-0.7-1.8h-3.3l-0.7,1.8
			c-0.3,0.7,0,1,0.7,1v0.3h-2.3v-0.3c0.6,0,1.1-0.3,1.4-1l3-8H401.6z M399.3,1699.7h3.1c-0.1-0.3-0.6-1.6-1.6-3.9
			C399.8,1698.2,399.3,1699.5,399.3,1699.7z"/>
		<path class="st1" d="M413.2,1697c0.4,0.4,0.6,0.9,0.6,1.6v2.8c0,0.9,0.3,1.3,0.9,1.4v0.2h-3.3v-0.2c0.6,0,0.9-0.5,0.9-1.4v-3
			c0-0.4-0.1-0.7-0.3-1c-0.2-0.3-0.5-0.4-0.9-0.4c-0.3,0-0.6,0.1-0.9,0.4c-0.2,0.3-0.3,0.6-0.3,1v3c0,0.9,0.3,1.3,0.9,1.4v0.2h-3.3
			v-0.2c0.6,0,0.9-0.5,0.9-1.4v-3.5c0-0.7-0.3-1-0.9-0.9v-0.2l2.2-0.4c0.1,0.1,0.2,0.4,0.2,0.9c0.5-0.6,1.1-0.9,1.9-0.9
			C412.3,1696.4,412.8,1696.6,413.2,1697z"/>
		<path class="st1" d="M420.8,1697.4c0.2,0.3,0.3,0.8,0.3,1.4v3.2c0,0.4,0.1,0.6,0.3,0.7c0.2,0.1,0.5,0,0.9-0.3l0.1,0.2
			c-0.5,0.3-0.9,0.5-1.4,0.5c-0.9,0-1.3-0.3-1.4-0.9c-0.2,0.3-0.4,0.5-0.8,0.7c-0.3,0.2-0.8,0.3-1.3,0.3c-0.5,0-1-0.2-1.4-0.5
			c-0.4-0.3-0.5-0.8-0.5-1.3c0-0.9,0.5-1.5,1.5-1.8c1.6-0.6,2.5-1.2,2.4-1.9c0-0.6-0.4-0.8-1.3-0.8c-0.3,0-0.6,0.1-0.7,0.2
			c0,0-0.1,0.2-0.3,0.6c-0.1,0.2-0.2,0.3-0.3,0.4c-0.1,0.1-0.2,0.2-0.3,0.2c-0.1,0-0.3,0-0.4-0.1c-0.1-0.1-0.2-0.2-0.2-0.4
			c0-0.2,0.1-0.5,0.4-0.7c0.5-0.4,1.1-0.6,1.9-0.6C419.6,1696.4,420.5,1696.8,420.8,1697.4z M418.1,1699.7c-0.3,0.1-0.5,0.4-0.7,0.6
			c-0.1,0.3-0.2,0.6-0.2,0.9c0,0.3,0.1,0.7,0.3,0.9c0.2,0.3,0.4,0.4,0.8,0.4c0.4,0,0.7-0.2,1-0.6c0.2-0.4,0.3-1,0.3-1.6v-1.6
			C419.3,1699,418.8,1699.3,418.1,1699.7z M419,1693.7l-1.2,1.9l0.4,0.2l2.2-2.2H419z"/>
		<path class="st1" d="M429.3,1697c0.4,0.4,0.5,0.9,0.6,1.6v2.8c0,0.9,0.3,1.3,0.9,1.3v0.2h-3.3v-0.2c0.6,0,0.9-0.5,0.9-1.3v-3
			c0-0.4-0.1-0.7-0.3-1c-0.2-0.3-0.5-0.4-0.9-0.4c-0.3,0-0.6,0.1-0.9,0.4c-0.2,0.3-0.3,0.6-0.3,1v3c0,0.9,0.3,1.3,0.9,1.3v0.2h-3.3
			v-0.2c0.6,0,0.9-0.5,0.9-1.3v-6.5c0-0.7-0.3-1-0.9-0.9v-0.2l2.5-0.4v3.9c0.5-0.6,1.1-0.9,1.9-0.9
			C428.4,1696.5,428.9,1696.6,429.3,1697z"/>
		<path class="st1" d="M433.1,1702.6c-0.4-0.4-0.6-0.9-0.6-1.6v-2.8c0-0.9-0.3-1.3-0.9-1.4v-0.2h2.4v4.6c0,0.4,0.1,0.7,0.3,1
			c0.2,0.3,0.5,0.4,0.9,0.4c0.3,0,0.6-0.1,0.9-0.4c0.2-0.3,0.3-0.6,0.3-1l0-3c0-0.9-0.3-1.3-0.9-1.4v-0.2l2.4,0v5
			c0,0.8,0.3,1.1,0.9,1v0.2l-2.2,0.4c-0.1-0.1-0.2-0.4-0.2-0.9c-0.5,0.6-1.1,0.9-1.9,0.9C434,1703.2,433.5,1703,433.1,1702.6z"/>
		<path class="st1" d="M445,1697.4c0.2,0.3,0.3,0.8,0.3,1.4v3.2c0,0.4,0.1,0.6,0.3,0.7c0.2,0.1,0.5,0,0.9-0.3l0.1,0.2
			c-0.5,0.3-0.9,0.5-1.4,0.5c-0.9,0-1.3-0.3-1.4-0.9c-0.2,0.3-0.4,0.5-0.8,0.7c-0.3,0.2-0.8,0.3-1.3,0.3c-0.5,0-1-0.2-1.4-0.5
			c-0.4-0.3-0.5-0.8-0.5-1.3c0-0.9,0.5-1.5,1.5-1.8c1.6-0.6,2.5-1.2,2.4-1.9c0-0.6-0.4-0.8-1.3-0.8c-0.3,0-0.6,0.1-0.7,0.2
			c0,0-0.1,0.2-0.3,0.6c-0.1,0.2-0.2,0.3-0.3,0.4c-0.1,0.1-0.2,0.2-0.3,0.2c-0.1,0-0.3,0-0.4-0.1c-0.1-0.1-0.2-0.2-0.2-0.4
			c0-0.2,0.1-0.5,0.4-0.7c0.5-0.4,1.1-0.6,1.9-0.6C443.8,1696.4,444.7,1696.8,445,1697.4z M442.3,1699.7c-0.3,0.1-0.5,0.4-0.7,0.6
			c-0.1,0.3-0.2,0.6-0.2,0.9c0,0.3,0.1,0.7,0.3,0.9c0.2,0.3,0.4,0.4,0.8,0.4c0.4,0,0.7-0.2,1-0.6c0.2-0.4,0.3-1,0.3-1.6v-1.6
			C443.5,1699,443,1699.3,442.3,1699.7z"/>
		<path class="st1" d="M452.6,1697c0.3,0.2,0.4,0.5,0.4,0.7c0,0.2-0.1,0.3-0.2,0.4c-0.1,0.1-0.3,0.1-0.4,0.1c-0.1,0-0.2-0.1-0.3-0.2
			c-0.1-0.1-0.2-0.3-0.2-0.5c-0.1-0.3-0.2-0.5-0.2-0.6c-0.2-0.1-0.4-0.2-0.7-0.2c-0.4,0-0.7,0.2-1,0.5c-0.3,0.3-0.5,0.7-0.6,1.2
			c-0.1,0.5-0.2,0.9-0.2,1.4c0,0.7,0.2,1.4,0.6,1.9c0.4,0.5,0.9,0.8,1.5,0.8c1,0,1.6-0.7,2-2.1h0.2c-0.1,0.8-0.5,1.5-1,2
			c-0.5,0.5-1.1,0.7-1.8,0.7c-0.9,0-1.6-0.3-2.2-0.9c-0.6-0.6-0.9-1.4-0.9-2.3c0-1,0.3-1.8,0.8-2.4c0.6-0.7,1.4-1,2.4-1
			C451.4,1696.4,452.1,1696.6,452.6,1697z"/>
	</g>
	<g class="st0">
		<path class="st1" d="M337.7,1713.8c0,0.2,0.1,0.4,0.2,0.6l3,6.7l3-7.3l2.6,0v0.3c-0.8,0-1.2,0.4-1.2,1.2v6.4
			c0,0.8,0.4,1.2,1.2,1.2v0.2h-3.9v-0.2c0.8,0,1.2-0.4,1.2-1.2v-6.8l-3.4,8.2h-0.5l-3.7-8.2v6.8c0,0.8,0.4,1.2,1.1,1.2v0.2h-2.6
			v-0.2c0.8,0,1.2-0.4,1.2-1.2v-6.4c0-0.8-0.4-1.2-1.2-1.2v-0.3L337.7,1713.8z"/>
		<path class="st1" d="M352.8,1717.3c0.5,0.6,0.8,1.3,0.9,2.3h-4.6c-0.1,0.8,0.1,1.5,0.5,2.1c0.4,0.6,0.9,0.9,1.6,0.8
			c0.5,0,1-0.2,1.4-0.6s0.6-0.9,0.8-1.5h0.2c-0.2,0.9-0.5,1.5-1.1,2c-0.6,0.5-1.2,0.7-2,0.7c-0.8,0-1.6-0.3-2.2-1
			c-0.6-0.6-0.9-1.4-0.9-2.3c0-1,0.3-1.8,0.9-2.4c0.6-0.7,1.4-1,2.3-1C351.6,1716.4,352.3,1716.7,352.8,1717.3z M349.9,1717
			c-0.2,0.2-0.3,0.4-0.5,0.7c-0.1,0.3-0.2,0.5-0.2,0.8c-0.1,0.3-0.1,0.5-0.1,0.8h2.9c0-0.3,0-0.7-0.1-1c-0.1-0.4-0.2-0.7-0.5-1
			c-0.2-0.3-0.5-0.5-0.9-0.5C350.3,1716.7,350.1,1716.8,349.9,1717z M350.8,1713.6l-1.2,1.9l0.4,0.2l2.2-2.2H350.8z"/>
		<path class="st1" d="M358.3,1716.6v0.2c-0.6,0-0.6,0.4-0.1,1.2l0.5,0.9l0.7-0.9c0.6-0.8,0.6-1.2-0.1-1.2v-0.2h2.2v0.2
			c-0.6,0-1.2,0.4-1.8,1.2l-0.8,1.1l1.4,2.4c0.4,0.8,0.9,1.2,1.5,1.2v0.2h-3.3v-0.2c0.6,0,0.7-0.4,0.2-1.2l-0.8-1.4l-1,1.4
			c-0.5,0.8-0.5,1.2,0.1,1.2v0.2h-2.2v-0.2c0.6,0,1.2-0.4,1.8-1.2l1.2-1.7l-1.1-1.9c-0.5-0.8-1-1.2-1.5-1.2v-0.2H358.3z"/>
		<path class="st1" d="M362.8,1716.8l2.4-0.4v5c0,0.8,0.3,1.3,0.9,1.3v0.2h-3.3v-0.2c0.6,0,0.9-0.5,0.9-1.3v-3.6
			c0-0.7-0.3-1-0.9-0.9V1716.8z M365.3,1714.5c0,0.3-0.1,0.5-0.3,0.6c-0.2,0.2-0.4,0.3-0.6,0.3c-0.2,0-0.5-0.1-0.6-0.3
			c-0.2-0.2-0.3-0.4-0.3-0.6c0-0.3,0.1-0.5,0.3-0.6c0.2-0.2,0.4-0.3,0.6-0.3c0.2,0,0.5,0.1,0.6,0.3
			C365.2,1714,365.3,1714.2,365.3,1714.5z"/>
		<path class="st1" d="M372.3,1717c0.3,0.2,0.4,0.5,0.4,0.7c0,0.2-0.1,0.3-0.2,0.4c-0.1,0.1-0.3,0.1-0.4,0.1c-0.1,0-0.2-0.1-0.3-0.2
			c-0.1-0.1-0.2-0.3-0.2-0.5c-0.1-0.3-0.2-0.5-0.2-0.6c-0.2-0.1-0.4-0.2-0.7-0.2c-0.4,0-0.7,0.2-1,0.5c-0.3,0.3-0.5,0.7-0.6,1.2
			c-0.1,0.5-0.2,0.9-0.2,1.4c0,0.7,0.2,1.4,0.6,1.9c0.4,0.5,0.9,0.8,1.5,0.8c1,0,1.6-0.7,2-2.1h0.2c-0.1,0.8-0.5,1.5-1,2
			c-0.5,0.5-1.1,0.7-1.8,0.7c-0.9,0-1.6-0.3-2.2-0.9c-0.6-0.6-0.9-1.4-0.9-2.3c0-1,0.3-1.8,0.8-2.4c0.6-0.7,1.4-1,2.4-1
			C371.1,1716.4,371.8,1716.6,372.3,1717z"/>
		<path class="st1" d="M379.6,1717.4c0.6,0.6,0.9,1.4,0.9,2.4c0,1-0.3,1.8-1,2.4c-0.6,0.7-1.4,1-2.3,1c-0.9,0-1.6-0.3-2.2-1
			c-0.6-0.6-0.9-1.4-0.9-2.3c0-1,0.3-1.8,0.9-2.4c0.6-0.7,1.4-1,2.3-1C378.3,1716.4,379.1,1716.8,379.6,1717.4z M376.3,1717.7
			c-0.3,0.6-0.4,1.3-0.4,2.2c0,0.8,0.1,1.5,0.4,2.1c0.3,0.6,0.6,0.9,1.1,0.9c0.4,0,0.8-0.3,1.1-0.9c0.3-0.6,0.5-1.3,0.5-2.2
			c0-0.9-0.1-1.6-0.4-2.2c-0.3-0.5-0.6-0.8-1.1-0.8C376.9,1716.8,376.6,1717.1,376.3,1717.7z"/>
		<path class="st1" d="M390.2,1713.8c0,0.1,0.1,0.3,0.3,0.6c0.8,1.3,2.2,3.2,4.2,5.8v-5c0-0.8-0.4-1.2-1.2-1.2v-0.3h2.6v0.3
			c-0.8,0-1.1,0.4-1.1,1.1v7.8h-0.5l-6.1-8.2v6.8c0,0.8,0.4,1.2,1.1,1.2v0.2H387v-0.2c0.8,0,1.1-0.4,1.1-1.2v-6.4
			c0-0.8-0.4-1.2-1.1-1.2v-0.3H390.2z"/>
		<path class="st1" d="M402.7,1717.4c0.6,0.6,0.9,1.4,0.9,2.4c0,1-0.3,1.8-1,2.4c-0.6,0.7-1.4,1-2.3,1c-0.9,0-1.6-0.3-2.2-1
			c-0.6-0.6-0.9-1.4-0.9-2.3c0-1,0.3-1.8,0.9-2.4c0.6-0.7,1.4-1,2.3-1C401.4,1716.4,402.1,1716.8,402.7,1717.4z M399.3,1717.7
			c-0.3,0.6-0.4,1.3-0.4,2.2c0,0.8,0.1,1.5,0.4,2.1c0.3,0.6,0.6,0.9,1.1,0.9c0.4,0,0.8-0.3,1.1-0.9c0.3-0.6,0.5-1.3,0.5-2.2
			c0-0.9-0.1-1.6-0.4-2.2c-0.3-0.5-0.6-0.8-1.1-0.8C400,1716.8,399.6,1717.1,399.3,1717.7z"/>
		<path class="st1" d="M406.9,1717.4c0.4-0.6,0.9-0.9,1.6-0.9c0.4,0,0.8,0.1,1.2,0.3c0.3,0.2,0.4,0.4,0.4,0.7c0,0.1,0,0.3-0.1,0.4
			s-0.2,0.2-0.4,0.2c-0.2,0-0.3,0-0.4-0.1s-0.2-0.2-0.3-0.4c-0.1-0.2-0.2-0.4-0.3-0.5c-0.1-0.1-0.3-0.2-0.5-0.1
			c-0.3,0-0.5,0.2-0.8,0.6c-0.2,0.4-0.4,0.9-0.4,1.4v2.6c0,0.9,0.3,1.4,0.9,1.4v0.2h-3.2v-0.2c0.6,0,0.9-0.5,0.9-1.4v-3.4
			c0-0.7-0.3-1-0.9-1v-0.2l2.2-0.4C406.9,1716.6,406.9,1716.9,406.9,1717.4z"/>
		<path class="st1" d="M413.5,1714.3v2.3h1.3v0.3h-1.3v4.4c0,0.5,0.1,0.8,0.3,1c0.2,0.2,0.4,0.2,0.8,0.1c0.1,0,0.3-0.1,0.6-0.2
			l0.1,0.3c-0.2,0.1-0.4,0.2-0.7,0.3c-1.7,0.6-2.6,0.1-2.6-1.4v-4.6h-0.9v-0.2c0.5-0.1,0.9-0.4,1.3-0.9c0.4-0.5,0.7-1,0.9-1.6H413.5
			z"/>
		<path class="st1" d="M421.6,1717.3c0.5,0.6,0.8,1.3,0.9,2.3h-4.6c-0.1,0.8,0.1,1.5,0.5,2.1c0.4,0.6,0.9,0.9,1.6,0.8
			c0.5,0,1-0.2,1.4-0.6s0.6-0.9,0.8-1.5h0.2c-0.2,0.9-0.5,1.5-1.1,2c-0.6,0.5-1.2,0.7-2,0.7c-0.8,0-1.6-0.3-2.2-1
			c-0.6-0.6-0.9-1.4-0.9-2.3c0-1,0.3-1.8,0.9-2.4c0.6-0.7,1.4-1,2.3-1C420.4,1716.4,421.1,1716.7,421.6,1717.3z M418.7,1717
			c-0.2,0.2-0.3,0.4-0.5,0.7c-0.1,0.3-0.2,0.5-0.2,0.8c-0.1,0.3-0.1,0.5-0.1,0.8h2.9c0-0.3,0-0.7-0.1-1c-0.1-0.4-0.2-0.7-0.5-1
			c-0.2-0.3-0.5-0.5-0.9-0.5C419.2,1716.7,418.9,1716.8,418.7,1717z"/>
		<path class="st1" d="M425.3,1722.3c0,0.3-0.1,0.5-0.3,0.6c-0.2,0.2-0.4,0.3-0.6,0.3c-0.2,0-0.5-0.1-0.6-0.3
			c-0.2-0.2-0.3-0.4-0.3-0.6c0-0.3,0.1-0.5,0.3-0.6c0.2-0.2,0.4-0.3,0.6-0.3c0.2,0,0.5,0.1,0.6,0.3
			C425.2,1721.8,425.3,1722,425.3,1722.3z"/>
	</g>
	<g transform="translate(196.209 750.102)">
		<path class="st2" d="M159,1010.4c0.8,0.3,1.7,0.7,3.5,1.6c-0.2-1.8-0.7-3.5-1.5-5.1c-2.4-4.7-7.3-9.3-12.8-12.4
			c0,1.5,0.1,3.1,0.6,4.5C149.9,1003.8,153.7,1008,159,1010.4z"/>
		<path class="st2" d="M208.6,1010.4c5.3-2.3,9.1-6.5,10.3-11.4c0.4-1.5,0.6-3,0.6-4.5c-5.5,3.1-10.4,7.7-12.8,12.4
			c-0.8,1.6-1.3,3.3-1.5,5.1C206.9,1011.1,207.8,1010.7,208.6,1010.4z"/>
		<path class="st2" d="M154.3,1016.8c2-0.3,4-0.8,5.9-1.6c-3.4-1.6-4-1.9-4.9-2.4c-3.9-1.8-8.4-2.2-12.5-1c-2.7,0.7-5.3,1.7-7.7,3.1
			c4.1,1.3,8.4,2.1,12.6,2.2C150,1017.3,152.2,1017.2,154.3,1016.8z"/>
		<path class="st2" d="M212.3,1012.9c-1,0.5-1.5,0.7-4.9,2.4c1.9,0.8,3.9,1.4,5.9,1.6c2.2,0.3,4.4,0.4,6.6,0.3
			c4.3-0.2,8.6-0.9,12.6-2.2c-2.4-1.4-5-2.4-7.7-3.1C220.6,1010.7,216.2,1011,212.3,1012.9z"/>
		<path class="st2" d="M146.8,1008.9l-2.8-1.3c-5.5-2.5-11.7-2.7-17.3-0.7c-1.5,0.5-2.9,1.2-4.3,1.9
			C128.8,1011.2,139.8,1012.2,146.8,1008.9z"/>
		<path class="st2" d="M223.6,1007.5l-2.8,1.3c7,3.3,18,2.3,24.5,0c-1.4-0.8-2.8-1.4-4.3-1.9
			C235.3,1004.9,229.1,1005.1,223.6,1007.5z"/>
		<path class="st2" d="M142.8,1003.4l5.9,2.5c-0.4-4.6-4.2-11.1-13.9-16.8c-0.3,1.9,0.6,5.4,1.9,8.6
			C138,1000.3,140.2,1002.3,142.8,1003.4z"/>
		<path class="st2" d="M224.7,1003.4c2.7-1.1,4.8-3.1,6.1-5.7c1.4-3.2,2.2-6.7,1.9-8.6c-9.7,5.7-13.5,12.2-13.9,16.8L224.7,1003.4z"
			/>
		<path class="st2" d="M131.4,998.6l3,1.3c-0.4-5.4-6.1-12.3-10.8-16.2c-0.4,1.1-0.5,2.2-0.6,3.3C123,991.9,126.2,996.4,131.4,998.6
			z"/>
		<path class="st2" d="M244.5,987.1c0-1.1-0.2-2.3-0.6-3.3c-4.7,3.9-10.4,10.7-10.8,16.2l3-1.3C241.4,996.4,244.6,991.9,244.5,987.1
			z"/>
		<path class="st2" d="M132.8,1002.5c-3.8-1.7-6.1-2.7-8.7-4c-5.5-0.1-10.9,0.7-16.2,2.2C114.2,1004.2,125.2,1006.3,132.8,1002.5z"
			/>
		<path class="st2" d="M243.4,998.4c-2.6,1.3-4.8,2.3-8.7,4c7.7,3.8,18.7,1.8,24.9-1.8C254.3,999.1,248.9,998.4,243.4,998.4z"/>
		<path class="st2" d="M117.5,991.7c1,0.6,2.1,1.2,3.4,1.9c0.3-4.1-1.8-9.3-3.9-13c-0.2-0.3-0.4-0.7-0.6-1c-0.2-0.3-0.4-0.6-0.6-0.9
			s-0.4-0.6-0.7-0.9s-0.5-0.6-0.7-0.9c-0.5,0.8-0.9,1.6-1.2,2.5c-0.3,1.1-0.6,2.2-0.7,3.3C112.3,986.5,114.2,989.9,117.5,991.7z"/>
		<path class="st2" d="M250.1,991.7c3.2-1.8,5.2-5.2,5-8.9c-0.1-1.1-0.3-2.2-0.7-3.3c-0.3-0.9-0.7-1.7-1.2-2.5
			c-0.2,0.3-0.5,0.6-0.7,0.9c-0.2,0.3-0.5,0.6-0.7,0.9s-0.4,0.6-0.6,0.9s-0.4,0.6-0.6,1c-2.2,3.7-4.3,8.9-3.9,13
			C248,992.9,249.1,992.3,250.1,991.7z"/>
		<path class="st2" d="M119.2,995.7c-0.5-0.3-1.1-0.6-1.5-0.9c-5.9-3.5-12.8-5.1-19.7-4.7c-0.9,0.1-1.7,0.1-2.3,0.2
			C102.2,996,112.5,998.3,119.2,995.7z"/>
		<path class="st2" d="M249.9,994.8c-0.5,0.3-1,0.6-1.5,0.9c6.6,2.6,17,0.2,23.5-5.4c-0.6-0.1-1.4-0.2-2.3-0.2
			C262.8,989.7,255.9,991.3,249.9,994.8z"/>
		<path class="st2" d="M104.7,981.9l0.5,0.5c0.6,0.5,2.3,2.2,3.8,3.4c0.4-1.3,0.6-2.6,0.6-3.9c0-4.4-1.1-8.7-3.2-12.5
			c-1.8,1.9-3.1,4.4-3.6,7C102.5,978.4,103.2,980.5,104.7,981.9L104.7,981.9z"/>
		<path class="st2" d="M258.5,985.8c1.5-1.2,3.3-2.9,3.8-3.4l0.5-0.5l0,0c1.5-1.4,2.2-3.5,1.8-5.6c-0.5-2.6-1.8-5.1-3.6-7
			c-2,3.9-3.1,8.2-3.2,12.5C257.9,983.2,258.1,984.5,258.5,985.8z"/>
		<path class="st2" d="M107.3,987.3c-1.1-1-2.6-2.3-4-3.8c-1.9-1.9-4.4-3.3-7-3.9c-3.1-0.8-6.2-1.3-9.4-1.5
			C91.5,984.5,100.7,988.7,107.3,987.3z"/>
		<path class="st2" d="M264.3,983.5c-1.4,1.5-2.8,2.8-4,3.8c6.6,1.4,15.8-2.8,20.4-9.2c-3.2,0.2-6.3,0.7-9.4,1.5
			C268.6,980.2,266.2,981.6,264.3,983.5z"/>
		<path class="st2" d="M97.5,973.2c0.6,0.9,1.3,1.8,1.8,2.5c2.5-3.5,4-11,2.5-16.2c-2.2,1.4-3.9,3.4-5.1,5.8
			C95.6,967.9,95.9,970.9,97.5,973.2z"/>
		<path class="st2" d="M270.1,973.2c1.6-2.3,1.9-5.3,0.7-7.8c-1.1-2.4-2.9-4.4-5.1-5.8c-1.5,5.1,0.1,12.7,2.5,16.2
			C268.8,975,269.5,974.1,270.1,973.2z"/>
		<path class="st2" d="M95.6,973.5c-1.1-1.8-2.7-3.4-4.5-4.5c-3.3-2-7-3.5-10.8-4.4c3.1,7.7,11.4,12.2,17.3,12
			C96.6,975.1,96,974.3,95.6,973.5z"/>
		<path class="st2" d="M272,973.5c-0.4,0.7-1,1.6-2,3.1c5.9,0.2,14.2-4.3,17.3-12c-3.8,0.9-7.5,2.4-10.8,4.4
			C274.7,970.2,273.2,971.7,272,973.5z"/>
		<path class="st2" d="M92.8,964.4c3.4-2.9,6.7-9.7,6.2-15h0c-6,3-8.7,9.1-6.4,14.6C92.7,964.1,92.7,964.2,92.8,964.4z"/>
		<path class="st2" d="M268.6,949.4c-0.4,5.3,2.9,12.1,6.2,15c0.1-0.1,0.1-0.3,0.2-0.4C277.3,958.5,274.6,952.4,268.6,949.4
			L268.6,949.4z"/>
		<path class="st2" d="M91.3,964.8c-0.3-0.9-0.7-2-1-2.9c-0.4-1.4-1.1-2.7-2.1-3.8c-1.5-1.8-3.5-3.6-7.6-5.7
			c-0.9-0.5-1.9-0.9-2.9-1.3c0.3,1.9,0.9,3.7,1.9,5.3C81.7,960.1,86.4,964.2,91.3,964.8z"/>
		<path class="st2" d="M286.9,952.4c-4.1,2.2-6.1,3.9-7.6,5.7c-0.9,1.1-1.6,2.4-2.1,3.8c-0.3,0.9-0.7,2-1,2.9
			c4.9-0.6,9.6-4.7,11.7-8.4c0.9-1.6,1.6-3.4,1.9-5.3C288.8,951.5,287.9,951.9,286.9,952.4z"/>
		<path class="st2" d="M88.2,952.2c-0.5-3.8-0.5-9-10.1-14.6C77.7,945,83.5,951,88.2,952.2z"/>
		<path class="st2" d="M279.4,952.2c4.6-1.2,10.5-7.2,10.1-14.6C279.9,943.2,279.9,948.4,279.4,952.2z"/>
		<path class="st2" d="M98.1,938.7c-6.2,2.2-9.8,7.6-8.9,13.2c0,0.1,0,0.2,0,0.2c3.9-2.1,8.6-8.1,9-13.4L98.1,938.7z"/>
		<path class="st2" d="M278.4,952.1c0,0,0-0.1,0-0.2c0.9-5.6-2.7-10.9-8.9-13.2l-0.2-0.1C269.8,944,274.5,950,278.4,952.1z"/>
		<path class="st2" d="M88.4,939.4c3.1-1,9.5-5.7,11-11.7C91.4,929.7,88.6,933.9,88.4,939.4z"/>
		<path class="st2" d="M279.1,939.4c-0.1-5.5-2.9-9.7-11-11.7C269.6,933.7,276,938.4,279.1,939.4z"/>
		<path class="st2" d="M87.9,939.4c0.4-5.4-0.8-9.8-7.2-14.8C78.9,931.6,84,937.9,87.9,939.4z"/>
		<path class="st2" d="M279.7,939.4c3.9-1.5,8.9-7.8,7.2-14.8C280.5,929.6,279.3,934,279.7,939.4z"/>
		<path class="st2" d="M93.8,914.4c-5.7,3.2-9.1,10.4-4.6,14.5C95.1,926.3,95.4,919.8,93.8,914.4z"/>
		<path class="st2" d="M278.3,928.9c4.6-4.1,1.1-11.3-4.6-14.5C272.2,919.8,272.5,926.3,278.3,928.9z"/>
		<path class="st2" d="M172.4,1016.4c1.1,0.5,1.9,0.9,4.6,2.2c-0.3-5.6-4.7-10.9-9.5-14.8c-1.6-1.3-3.3-2.5-5-3.5
			c-0.1,2.1,0.2,4.1,0.9,6.1C164.7,1010.9,168.1,1014.6,172.4,1016.4z"/>
		<path class="st2" d="M204.3,1006.4c0.6-2,0.9-4,0.9-6.1c-1.8,1-3.4,2.2-5,3.5c-4.8,3.9-9.2,9.3-9.5,14.8c2.7-1.3,3.5-1.7,4.6-2.2
			C199.5,1014.6,202.8,1010.9,204.3,1006.4z"/>
		<path class="st2" d="M170,1020c-4.7-2.3-10-2.7-15-1.2c-2.3,0.6-4.5,1.5-6.5,2.7c7.4,2.4,18.1,3.8,25.8,0.7
			C171.8,1020.9,171,1020.5,170,1020z"/>
		<path class="st2" d="M197.5,1020c-1,0.5-1.8,0.9-4.3,2.2c7.7,3.1,18.4,1.7,25.8-0.7c-2-1.2-4.2-2.1-6.5-2.7
			C207.5,1017.3,202.2,1017.7,197.5,1020z"/>
		<path class="st2" d="M186.5,1024.6c0.8-0.4,1.5-0.8,2.2-1.2c5.6-3,17.8-9,23.1-11.5c27.4-12.9,33.5-14.7,42.9-21.6
			c-12.6,8.7-43.9,19.4-67.2,31l-1.7,0.8l-2.1,1l-2.1-1l-1.7-0.8c-23.2-11.7-54.5-22.4-67.2-31c9.4,6.9,15.5,8.8,42.9,21.6
			c5.2,2.4,17.5,8.4,23.1,11.5c0.7,0.4,1.5,0.8,2.2,1.2c-11.9,6-13.8,7.8-17.9,14.8c3.7-2.7,12.4-8.5,20.6-13.2
			c8.2,4.7,16.9,10.5,20.6,13.2C200.3,1032.4,198.4,1030.6,186.5,1024.6z"/>
	</g>
</g>
</svg>
