<?xml version="1.0" encoding="utf-8"?>
<!-- Generator: Adobe Illustrator 25.2.3, SVG Export Plug-In . SVG Version: 6.00 Build 0)  -->
<svg version="1.1" id="Layer_1" xmlns="http://www.w3.org/2000/svg" xmlns:xlink="http://www.w3.org/1999/xlink" x="0px" y="0px"
	 viewBox="0 0 212.1 137.5" style="enable-background:new 0 0 212.1 137.5;" xml:space="preserve">
<style type="text/css">
	.st0{enable-background:new    ;}
	.st1{fill:#706C6C;}
	.st2{fill:#BBAC9A;}
</style>
<g transform="translate(-959.961 -1388)">
	<g class="st0">
		<path class="st1" d="M1003.2,1390.4c0.2,0.1,0.4,0.3,0.6,0.6c0.2,0.3,0.2,0.5,0.3,0.8c0,0.3,0,0.7-0.2,1c-0.1,0.3-0.3,0.6-0.6,0.8
			c-0.2,0.1-0.3,0.2-0.5,0.3s-0.5,0.2-0.8,0.3c-0.1,0-0.2,0.1-0.5,0.1c-0.2,0.1-0.4,0.1-0.6,0.1c-0.2,0-0.4,0.1-0.6,0.2
			s-0.4,0.2-0.6,0.3c-0.2,0.1-0.3,0.2-0.5,0.4s-0.3,0.3-0.4,0.5c-0.1,0.2-0.2,0.4-0.2,0.7s-0.1,0.6,0,0.9c0.1-1,0.7-1.6,1.7-1.6
			c0.4,0,0.9,0.1,1.4,0.4c0.6,0.3,1.2,0.4,1.7,0.4c0.5,0,0.8-0.2,1.1-0.7l0.2,0c0,1.4-0.6,2.1-1.7,2.1c-0.4,0-1-0.1-1.7-0.4
			c-0.6-0.3-1.1-0.4-1.4-0.4c-0.4,0-0.8,0.3-1,0.8l-0.2,0c-0.1-0.2-0.2-0.6-0.2-1.1c0-0.7,0.2-1.3,0.6-1.7c0.4-0.4,1.1-0.8,2.1-1.1
			c0.9-0.3,1.4-1,1.4-2.2c0-0.4-0.1-0.7-0.2-1c-0.1-0.3-0.3-0.5-0.5-0.6c-0.2-0.1-0.5-0.2-0.8-0.1c-0.2,0-0.4,0.1-0.6,0.2
			c-0.2,0.1-0.3,0.3-0.4,0.4c-0.1,0.2-0.1,0.3-0.1,0.4c0,0,0,0.1,0,0.2c0,0.1,0,0.1,0,0.2c0,0.1,0,0.2,0,0.3
			c-0.1,0.2-0.2,0.3-0.3,0.4c-0.2,0.1-0.3,0.1-0.5,0.1c-0.2-0.1-0.4-0.2-0.5-0.4c-0.1-0.2-0.1-0.4,0-0.7c0.1-0.3,0.3-0.6,0.6-0.8
			c0.2-0.1,0.5-0.3,0.8-0.4c0.3-0.1,0.6-0.1,0.9-0.2C1001.9,1389.9,1002.6,1390,1003.2,1390.4z"/>
		<path class="st1" d="M1013.4,1392.4c0.4-0.6,0.9-0.9,1.6-0.9c0.4,0,0.8,0.1,1.2,0.3c0.3,0.2,0.4,0.4,0.4,0.7c0,0.1,0,0.3-0.1,0.4
			c-0.1,0.1-0.2,0.2-0.4,0.2c-0.2,0-0.3,0-0.4-0.1c-0.1-0.1-0.2-0.2-0.3-0.4c-0.1-0.2-0.2-0.4-0.3-0.5c-0.1-0.1-0.3-0.2-0.5-0.1
			c-0.3,0-0.5,0.2-0.8,0.6c-0.2,0.4-0.4,0.9-0.4,1.4v2.6c0,0.9,0.3,1.4,0.9,1.4v0.2h-3.2v-0.2c0.6,0,0.9-0.5,0.9-1.4v-3.4
			c0-0.7-0.3-1-0.9-1v-0.2l2.2-0.4C1013.3,1391.6,1013.4,1391.9,1013.4,1392.4z"/>
		<path class="st1" d="M1022.5,1392.3c0.5,0.6,0.8,1.3,0.9,2.3h-4.6c-0.1,0.8,0.1,1.5,0.5,2.1c0.4,0.6,0.9,0.9,1.6,0.8
			c0.5,0,1-0.2,1.4-0.6s0.6-0.9,0.8-1.5h0.2c-0.2,0.9-0.5,1.5-1.1,2c-0.6,0.5-1.2,0.7-2,0.7c-0.8,0-1.6-0.3-2.2-1
			c-0.6-0.6-0.9-1.4-0.9-2.3c0-1,0.3-1.8,0.9-2.4c0.6-0.7,1.4-1,2.3-1C1021.3,1391.4,1022,1391.7,1022.5,1392.3z M1019.6,1392
			c-0.2,0.2-0.3,0.4-0.5,0.7c-0.1,0.3-0.2,0.5-0.2,0.8c-0.1,0.3-0.1,0.5-0.1,0.8h2.9c0-0.3,0-0.7-0.1-1c-0.1-0.4-0.2-0.7-0.5-1
			c-0.2-0.3-0.5-0.5-0.9-0.5C1020.1,1391.7,1019.8,1391.8,1019.6,1392z"/>
		<path class="st1" d="M1029.7,1392c0.3,0.2,0.4,0.5,0.4,0.7c0,0.2-0.1,0.3-0.2,0.4c-0.1,0.1-0.3,0.1-0.4,0.1
			c-0.1,0-0.2-0.1-0.3-0.2c-0.1-0.1-0.2-0.3-0.2-0.5c-0.1-0.3-0.2-0.5-0.2-0.6c-0.2-0.1-0.4-0.2-0.7-0.2c-0.4,0-0.7,0.2-1,0.5
			c-0.3,0.3-0.5,0.7-0.6,1.2c-0.1,0.5-0.2,0.9-0.2,1.4c0,0.7,0.2,1.4,0.6,1.9c0.4,0.5,0.9,0.8,1.5,0.8c1,0,1.6-0.7,2-2.1h0.2
			c-0.1,0.8-0.5,1.5-1,2c-0.5,0.5-1.1,0.7-1.8,0.7c-0.9,0-1.6-0.3-2.2-0.9c-0.6-0.6-0.9-1.4-0.9-2.3c0-1,0.3-1.8,0.8-2.4
			c0.6-0.7,1.4-1,2.4-1C1028.6,1391.4,1029.2,1391.6,1029.7,1392z"/>
		<path class="st1" d="M1037.1,1392.4c0.6,0.6,0.9,1.4,0.9,2.4c0,1-0.3,1.8-1,2.4c-0.6,0.7-1.4,1-2.3,1c-0.9,0-1.6-0.3-2.2-1
			c-0.6-0.6-0.9-1.4-0.9-2.3c0-1,0.3-1.8,0.9-2.4c0.6-0.7,1.4-1,2.3-1C1035.8,1391.4,1036.5,1391.8,1037.1,1392.4z M1033.7,1392.7
			c-0.3,0.6-0.4,1.3-0.4,2.2c0,0.8,0.1,1.5,0.4,2.1c0.3,0.6,0.6,0.9,1.1,0.9c0.4,0,0.8-0.3,1.1-0.9c0.3-0.6,0.5-1.3,0.5-2.2
			c0-0.9-0.1-1.6-0.4-2.2c-0.3-0.5-0.6-0.8-1.1-0.8C1034.4,1391.8,1034,1392.1,1033.7,1392.7z"/>
		<path class="st1" d="M1044.9,1392c0.4,0.4,0.6,0.9,0.6,1.6v2.8c0,0.9,0.3,1.3,0.9,1.4v0.2h-3.3v-0.2c0.6,0,0.9-0.5,0.9-1.4v-3
			c0-0.4-0.1-0.7-0.3-1c-0.2-0.3-0.5-0.4-0.9-0.4c-0.3,0-0.6,0.1-0.9,0.4c-0.2,0.3-0.3,0.6-0.3,1v3c0,0.9,0.3,1.3,0.9,1.4v0.2h-3.3
			v-0.2c0.6,0,0.9-0.5,0.9-1.4v-3.5c0-0.7-0.3-1-0.9-0.9v-0.2l2.2-0.4c0.1,0.1,0.2,0.4,0.2,0.9c0.5-0.6,1.1-0.9,1.9-0.9
			C1044,1391.4,1044.5,1391.6,1044.9,1392z"/>
		<path class="st1" d="M1052.8,1392.4c0.6,0.6,0.9,1.4,0.9,2.4c0,1-0.3,1.8-1,2.4c-0.6,0.7-1.4,1-2.3,1c-0.9,0-1.6-0.3-2.2-1
			c-0.6-0.6-0.9-1.4-0.9-2.3c0-1,0.3-1.8,0.9-2.4c0.6-0.7,1.4-1,2.3-1C1051.5,1391.4,1052.3,1391.8,1052.8,1392.4z M1049.4,1392.7
			c-0.3,0.6-0.4,1.3-0.4,2.2c0,0.8,0.1,1.5,0.4,2.1c0.3,0.6,0.6,0.9,1.1,0.9c0.4,0,0.8-0.3,1.1-0.9c0.3-0.6,0.5-1.3,0.5-2.2
			c0-0.9-0.1-1.6-0.4-2.2c-0.3-0.5-0.6-0.8-1.1-0.8C1050.1,1391.8,1049.7,1392.1,1049.4,1392.7z"/>
		<path class="st1" d="M1060.2,1392c0.3,0.2,0.4,0.5,0.4,0.7c0,0.2-0.1,0.3-0.2,0.4c-0.1,0.1-0.3,0.1-0.4,0.1
			c-0.1,0-0.2-0.1-0.3-0.2c-0.1-0.1-0.2-0.3-0.2-0.5c-0.1-0.3-0.2-0.5-0.2-0.6c-0.2-0.1-0.4-0.2-0.7-0.2c-0.4,0-0.7,0.2-1,0.5
			c-0.3,0.3-0.5,0.7-0.6,1.2c-0.1,0.5-0.2,0.9-0.2,1.4c0,0.7,0.2,1.4,0.6,1.9c0.4,0.5,0.9,0.8,1.5,0.8c1,0,1.6-0.7,2-2.1h0.2
			c-0.1,0.8-0.5,1.5-1,2c-0.5,0.5-1.1,0.7-1.8,0.7c-0.9,0-1.6-0.3-2.2-0.9c-0.6-0.6-0.9-1.4-0.9-2.3c0-1,0.3-1.8,0.8-2.4
			c0.6-0.7,1.4-1,2.4-1C1059,1391.4,1059.7,1391.6,1060.2,1392z"/>
		<path class="st1" d="M1061.9,1391.8l2.4-0.4v5c0,0.8,0.3,1.3,0.9,1.3v0.2h-3.3v-0.2c0.6,0,0.9-0.5,0.9-1.3v-3.6
			c0-0.7-0.3-1-0.9-0.9V1391.8z M1064.4,1389.5c0,0.3-0.1,0.5-0.3,0.6c-0.2,0.2-0.4,0.3-0.6,0.3c-0.2,0-0.5-0.1-0.6-0.3
			c-0.2-0.2-0.3-0.4-0.3-0.6c0-0.3,0.1-0.5,0.3-0.6c0.2-0.2,0.4-0.3,0.6-0.3c0.2,0,0.5,0.1,0.6,0.3
			C1064.3,1389,1064.4,1389.2,1064.4,1389.5z"/>
		<path class="st1" d="M1071.9,1392c0.2,0.2,0.3,0.3,0.4,0.5c0.5-0.7,1.1-1.1,1.9-1.1c0.6,0,1.1,0.2,1.5,0.6
			c0.4,0.4,0.5,0.9,0.5,1.6v2.8c0,0.9,0.3,1.3,0.9,1.4v0.2h-3.3v-0.2c0.6,0,0.9-0.5,0.9-1.4v-3c0-0.4-0.1-0.7-0.3-1
			c-0.2-0.3-0.5-0.4-0.8-0.4c-0.3,0-0.6,0.1-0.8,0.4c-0.2,0.3-0.3,0.6-0.3,1v3c0,0.9,0.3,1.3,0.9,1.4v0.2h-3.3v-0.2
			c0.6,0,0.9-0.5,0.9-1.4v-3c0-0.4-0.1-0.7-0.3-1c-0.2-0.3-0.5-0.4-0.8-0.4c-0.3,0-0.6,0.1-0.8,0.4c-0.2,0.3-0.4,0.6-0.3,1v3
			c0,0.9,0.3,1.3,0.9,1.4v0.2h-3.3v-0.2c0.6,0,0.9-0.5,0.9-1.4v-3.5c0-0.7-0.3-1-0.9-0.9v-0.2l2.2-0.4c0.1,0.1,0.2,0.4,0.2,0.9
			c0.4-0.6,1-0.9,1.8-0.9C1071.1,1391.5,1071.6,1391.6,1071.9,1392z"/>
		<path class="st1" d="M1078.2,1391.8l2.4-0.4v5c0,0.8,0.3,1.3,0.9,1.3v0.2h-3.3v-0.2c0.6,0,0.9-0.5,0.9-1.3v-3.6
			c0-0.7-0.3-1-0.9-0.9V1391.8z M1080.7,1389.5c0,0.3-0.1,0.5-0.3,0.6c-0.2,0.2-0.4,0.3-0.6,0.3c-0.2,0-0.5-0.1-0.6-0.3
			c-0.2-0.2-0.3-0.4-0.3-0.6c0-0.3,0.1-0.5,0.3-0.6c0.2-0.2,0.4-0.3,0.6-0.3c0.2,0,0.5,0.1,0.6,0.3
			C1080.6,1389,1080.7,1389.2,1080.7,1389.5z"/>
		<path class="st1" d="M1087.9,1392.3c0.5,0.6,0.8,1.3,0.9,2.3h-4.6c-0.1,0.8,0.1,1.5,0.5,2.1c0.4,0.6,0.9,0.9,1.6,0.8
			c0.5,0,1-0.2,1.4-0.6s0.6-0.9,0.8-1.5h0.2c-0.2,0.9-0.5,1.5-1.1,2c-0.6,0.5-1.2,0.7-2,0.7c-0.8,0-1.6-0.3-2.2-1
			c-0.6-0.6-0.9-1.4-0.9-2.3c0-1,0.3-1.8,0.9-2.4c0.6-0.7,1.4-1,2.3-1C1086.6,1391.4,1087.3,1391.7,1087.9,1392.3z M1085,1392
			c-0.2,0.2-0.3,0.4-0.5,0.7c-0.1,0.3-0.2,0.5-0.2,0.8c-0.1,0.3-0.1,0.5-0.1,0.8h2.9c0-0.3,0-0.7-0.1-1c-0.1-0.4-0.2-0.7-0.5-1
			c-0.2-0.3-0.5-0.5-0.9-0.5C1085.4,1391.7,1085.2,1391.8,1085,1392z"/>
		<path class="st1" d="M1095.6,1392c0.4,0.4,0.6,0.9,0.6,1.6v2.8c0,0.9,0.3,1.3,0.9,1.4v0.2h-3.3v-0.2c0.6,0,0.9-0.5,0.9-1.4v-3
			c0-0.4-0.1-0.7-0.3-1c-0.2-0.3-0.5-0.4-0.9-0.4c-0.3,0-0.6,0.1-0.9,0.4c-0.2,0.3-0.3,0.6-0.3,1v3c0,0.9,0.3,1.3,0.9,1.4v0.2h-3.3
			v-0.2c0.6,0,0.9-0.5,0.9-1.4v-3.5c0-0.7-0.3-1-0.9-0.9v-0.2l2.2-0.4c0.1,0.1,0.2,0.4,0.2,0.9c0.5-0.6,1.1-0.9,1.9-0.9
			C1094.7,1391.4,1095.2,1391.6,1095.6,1392z"/>
		<path class="st1" d="M1100.5,1389.3v2.3h1.3v0.3h-1.3v4.4c0,0.5,0.1,0.8,0.3,1c0.2,0.2,0.4,0.2,0.8,0.1c0.1,0,0.3-0.1,0.6-0.2
			l0.1,0.3c-0.2,0.1-0.4,0.2-0.7,0.3c-1.7,0.6-2.6,0.1-2.6-1.4v-4.6h-0.9v-0.2c0.5-0.1,0.9-0.4,1.3-0.9c0.4-0.5,0.7-1,0.9-1.6
			H1100.5z"/>
		<path class="st1" d="M1108.8,1392.4c0.6,0.6,0.9,1.4,0.9,2.4c0,1-0.3,1.8-1,2.4c-0.6,0.7-1.4,1-2.3,1c-0.9,0-1.6-0.3-2.2-1
			c-0.6-0.6-0.9-1.4-0.9-2.3c0-1,0.3-1.8,0.9-2.4c0.6-0.7,1.4-1,2.3-1C1107.5,1391.4,1108.2,1391.8,1108.8,1392.4z M1105.4,1392.7
			c-0.3,0.6-0.4,1.3-0.4,2.2c0,0.8,0.1,1.5,0.4,2.1c0.3,0.6,0.6,0.9,1.1,0.9c0.4,0,0.8-0.3,1.1-0.9c0.3-0.6,0.5-1.3,0.5-2.2
			c0-0.9-0.1-1.6-0.4-2.2c-0.3-0.5-0.6-0.8-1.1-0.8C1106.1,1391.8,1105.7,1392.1,1105.4,1392.7z"/>
		<path class="st1" d="M1113.8,1391.6c0.3,0.1,0.5,0.2,0.5,0.1c0.1,0,0.1-0.1,0.1-0.2h0.2l0.2,1.9h-0.2c-0.1-0.5-0.3-0.9-0.6-1.3
			c-0.1-0.1-0.3-0.2-0.6-0.3c-0.2-0.1-0.4-0.1-0.6-0.1c-0.3,0-0.6,0.1-0.8,0.3c-0.2,0.1-0.3,0.3-0.3,0.6c0,0.2,0.1,0.4,0.2,0.6
			c0.1,0.1,0.5,0.3,1.1,0.6c0.6,0.2,1,0.4,1.2,0.5c0.7,0.4,1,1,0.9,1.8c0,0.6-0.3,1.1-0.7,1.5c-0.4,0.4-1,0.6-1.8,0.5
			c-0.3,0-0.5-0.1-0.8-0.2c-0.5-0.2-0.8-0.3-0.9-0.2c-0.1,0-0.2,0.1-0.2,0.3h-0.2l0-2h0.2c0,0.2,0.1,0.4,0.1,0.6
			c0.1,0.2,0.2,0.3,0.4,0.5c0.4,0.4,0.9,0.6,1.4,0.7c0.5,0.1,0.9,0,1.2-0.2c0.3-0.2,0.4-0.4,0.4-0.7c0-0.3,0-0.5-0.2-0.7
			c-0.1-0.1-0.3-0.3-0.6-0.4c-0.4-0.2-0.7-0.3-1-0.4c-0.4-0.1-0.6-0.2-0.8-0.3c-0.8-0.4-1.1-1-1.1-1.8c0-0.5,0.2-1,0.5-1.3
			c0.4-0.4,0.9-0.5,1.5-0.5C1113.1,1391.4,1113.5,1391.5,1113.8,1391.6z"/>
		<path class="st1" d="M1126.4,1397.4c-0.6,0.5-1.2,0.7-1.9,0.7c-0.8,0-1.5-0.3-2-0.9c-0.5-0.6-0.7-1.4-0.7-2.4c0-1,0.3-1.8,0.8-2.5
			c0.5-0.6,1.2-0.9,2-0.9c0.7,0,1.3,0.2,1.9,0.6v-2.2c0-0.7-0.3-1-0.9-0.9v-0.2l2.4-0.4v8.1c0,0.7,0.3,1,0.9,0.9v0.2l-2.2,0.5
			C1126.5,1398,1126.4,1397.8,1126.4,1397.4z M1123.7,1392.7c-0.3,0.5-0.4,1.2-0.4,2c0,0.9,0.2,1.6,0.5,2.1c0.3,0.6,0.8,0.8,1.3,0.8
			c0.3,0,0.6-0.2,0.9-0.5c0.3-0.3,0.4-0.7,0.4-1.2v-3.4c-0.1-0.2-0.3-0.4-0.6-0.5c-0.3-0.2-0.5-0.2-0.8-0.2
			C1124.4,1391.9,1124,1392.2,1123.7,1392.7z"/>
		<path class="st1" d="M1135.2,1392.3c0.5,0.6,0.8,1.3,0.9,2.3h-4.6c-0.1,0.8,0.1,1.5,0.5,2.1c0.4,0.6,0.9,0.9,1.6,0.8
			c0.5,0,1-0.2,1.4-0.6s0.6-0.9,0.8-1.5h0.2c-0.2,0.9-0.5,1.5-1.1,2c-0.6,0.5-1.2,0.7-2,0.7c-0.8,0-1.6-0.3-2.2-1
			c-0.6-0.6-0.9-1.4-0.9-2.3c0-1,0.3-1.8,0.9-2.4c0.6-0.7,1.4-1,2.3-1C1134,1391.4,1134.7,1391.7,1135.2,1392.3z M1132.3,1392
			c-0.2,0.2-0.3,0.4-0.5,0.7c-0.1,0.3-0.2,0.5-0.2,0.8c-0.1,0.3-0.1,0.5-0.1,0.8h2.9c0-0.3,0-0.7-0.1-1c-0.1-0.4-0.2-0.7-0.5-1
			c-0.2-0.3-0.5-0.5-0.9-0.5C1132.7,1391.7,1132.5,1391.8,1132.3,1392z"/>
	</g>
	<g class="st0">
		<path class="st1" d="M990.6,1412.8c-0.2,0-0.4,0-0.6-0.1c-0.3-0.2-0.5-0.5-0.6-0.9c-0.1-0.4-0.1-0.8,0-1.3
			c0.1-0.5,0.4-0.9,0.7-1.3c0.4-0.3,0.8-0.5,1.3-0.6v0.4c-0.3,0.1-0.6,0.3-0.9,0.6c-0.3,0.3-0.4,0.6-0.5,0.9c0,0.1-0.1,0.3-0.1,0.4
			c0,0.2,0.1,0.2,0.2,0.1c0.1-0.1,0.3-0.1,0.5-0.1c0.2,0,0.5,0.1,0.6,0.3c0.2,0.2,0.3,0.4,0.3,0.7c0,0.3-0.1,0.5-0.3,0.7
			C991.1,1412.7,990.8,1412.8,990.6,1412.8z M993.2,1412.8c-0.2,0-0.4,0-0.6-0.1c-0.3-0.2-0.5-0.5-0.6-0.9c-0.1-0.4-0.1-0.8,0-1.3
			c0.1-0.5,0.4-0.9,0.7-1.3c0.4-0.3,0.8-0.5,1.3-0.6v0.4c-0.3,0.1-0.6,0.3-0.9,0.6c-0.3,0.3-0.4,0.6-0.5,0.9c0,0.1-0.1,0.3-0.1,0.4
			c0,0.2,0.1,0.2,0.2,0.1c0.1-0.1,0.3-0.1,0.5-0.1c0.2,0,0.5,0.1,0.6,0.3c0.2,0.2,0.3,0.4,0.3,0.7c0,0.3-0.1,0.5-0.3,0.7
			C993.7,1412.7,993.5,1412.8,993.2,1412.8z"/>
		<path class="st1" d="M1002.6,1408.8l0.1,2.2l-0.2,0c-0.1-1.3-0.8-2-2.2-2H998v3.8h1.2c0.9,0,1.4-0.5,1.4-1.4h0.2v3.1h-0.2
			c0-0.9-0.5-1.4-1.4-1.4H998v3c0,1,0.7,1.5,2.1,1.5c1.9,0,3-0.8,3-2.4l0.2,0l-0.2,2.6h-8v-0.3c0.8,0,1.2-0.4,1.2-1.1v-6.4
			c0-0.8-0.4-1.2-1.2-1.2v-0.3H1002.6z"/>
		<path class="st1" d="M1008,1411.6v0.2c-0.6,0-0.6,0.4-0.1,1.2l0.5,0.9l0.7-0.9c0.6-0.8,0.6-1.2-0.1-1.2v-0.2h2.2v0.2
			c-0.6,0-1.2,0.4-1.8,1.2l-0.8,1.1l1.4,2.4c0.4,0.8,0.9,1.2,1.5,1.2v0.2h-3.3v-0.2c0.6,0,0.7-0.4,0.2-1.2l-0.8-1.4l-1,1.4
			c-0.5,0.8-0.5,1.2,0.1,1.2v0.2h-2.2v-0.2c0.6,0,1.2-0.4,1.8-1.2l1.2-1.7l-1.1-1.9c-0.5-0.8-1-1.2-1.5-1.2v-0.2H1008z"/>
		<path class="st1" d="M1016.6,1412c0.3,0.2,0.4,0.5,0.4,0.7c0,0.2-0.1,0.3-0.2,0.4c-0.1,0.1-0.3,0.1-0.4,0.1
			c-0.1,0-0.2-0.1-0.3-0.2c-0.1-0.1-0.2-0.3-0.2-0.5c-0.1-0.3-0.2-0.5-0.2-0.6c-0.2-0.1-0.4-0.2-0.7-0.2c-0.4,0-0.7,0.2-1,0.5
			c-0.3,0.3-0.5,0.7-0.6,1.2c-0.1,0.5-0.2,0.9-0.2,1.4c0,0.7,0.2,1.4,0.6,1.9c0.4,0.5,0.9,0.8,1.5,0.8c1,0,1.6-0.7,2-2.1h0.2
			c-0.1,0.8-0.5,1.5-1,2c-0.5,0.5-1.1,0.7-1.8,0.7c-0.9,0-1.6-0.3-2.2-0.9c-0.6-0.6-0.9-1.4-0.9-2.3c0-1,0.3-1.8,0.8-2.4
			c0.6-0.7,1.4-1,2.4-1C1015.4,1411.4,1016.1,1411.6,1016.6,1412z"/>
		<path class="st1" d="M1023.8,1412.3c0.5,0.6,0.8,1.3,0.9,2.3h-4.6c-0.1,0.8,0.1,1.5,0.5,2.1c0.4,0.6,0.9,0.9,1.6,0.8
			c0.5,0,1-0.2,1.4-0.6s0.6-0.9,0.8-1.5h0.2c-0.2,0.9-0.5,1.5-1.1,2c-0.6,0.5-1.2,0.7-2,0.7c-0.8,0-1.6-0.3-2.2-1
			c-0.6-0.6-0.9-1.4-0.9-2.3c0-1,0.3-1.8,0.9-2.4c0.6-0.7,1.4-1,2.3-1C1022.5,1411.4,1023.3,1411.7,1023.8,1412.3z M1020.9,1412
			c-0.2,0.2-0.3,0.4-0.5,0.7c-0.1,0.3-0.2,0.5-0.2,0.8c-0.1,0.3-0.1,0.5-0.1,0.8h2.9c0-0.3,0-0.7-0.1-1c-0.1-0.4-0.2-0.7-0.5-1
			c-0.2-0.3-0.5-0.5-0.9-0.5C1021.3,1411.7,1021.1,1411.8,1020.9,1412z"/>
		<path class="st1" d="M1028.1,1416.4c0,0.9,0.3,1.3,0.9,1.4v0.2h-3.3v-0.2c0.6,0,0.9-0.5,0.9-1.4v-6.5c0-0.7-0.3-1-0.9-0.9v-0.2
			l2.5-0.4v3V1416.4z"/>
		<path class="st1" d="M1035.4,1412.3c0.5,0.6,0.8,1.3,0.9,2.3h-4.6c-0.1,0.8,0.1,1.5,0.5,2.1c0.4,0.6,0.9,0.9,1.6,0.8
			c0.5,0,1-0.2,1.4-0.6s0.6-0.9,0.8-1.5h0.2c-0.2,0.9-0.5,1.5-1.1,2c-0.6,0.5-1.2,0.7-2,0.7c-0.8,0-1.6-0.3-2.2-1
			c-0.6-0.6-0.9-1.4-0.9-2.3c0-1,0.3-1.8,0.9-2.4c0.6-0.7,1.4-1,2.3-1C1034.1,1411.4,1034.9,1411.7,1035.4,1412.3z M1032.5,1412
			c-0.2,0.2-0.3,0.4-0.5,0.7c-0.1,0.3-0.2,0.5-0.2,0.8c-0.1,0.3-0.1,0.5-0.1,0.8h2.9c0-0.3,0-0.7-0.1-1c-0.1-0.4-0.2-0.7-0.5-1
			c-0.2-0.3-0.5-0.5-0.9-0.5C1032.9,1411.7,1032.7,1411.8,1032.5,1412z"/>
		<path class="st1" d="M1043.2,1412c0.4,0.4,0.6,0.9,0.6,1.6v2.8c0,0.9,0.3,1.3,0.9,1.4v0.2h-3.3v-0.2c0.6,0,0.9-0.5,0.9-1.4v-3
			c0-0.4-0.1-0.7-0.3-1c-0.2-0.3-0.5-0.4-0.9-0.4c-0.3,0-0.6,0.1-0.9,0.4c-0.2,0.3-0.3,0.6-0.3,1v3c0,0.9,0.3,1.3,0.9,1.4v0.2h-3.3
			v-0.2c0.6,0,0.9-0.5,0.9-1.4v-3.5c0-0.7-0.3-1-0.9-0.9v-0.2l2.2-0.4c0.1,0.1,0.2,0.4,0.2,0.9c0.5-0.6,1.1-0.9,1.9-0.9
			C1042.2,1411.4,1042.8,1411.6,1043.2,1412z"/>
		<path class="st1" d="M1050.8,1412c0.3,0.2,0.4,0.5,0.4,0.7c0,0.2-0.1,0.3-0.2,0.4c-0.1,0.1-0.3,0.1-0.4,0.1
			c-0.1,0-0.2-0.1-0.3-0.2c-0.1-0.1-0.2-0.3-0.2-0.5c-0.1-0.3-0.2-0.5-0.2-0.6c-0.2-0.1-0.4-0.2-0.7-0.2c-0.4,0-0.7,0.2-1,0.5
			c-0.3,0.3-0.5,0.7-0.6,1.2c-0.1,0.5-0.2,0.9-0.2,1.4c0,0.7,0.2,1.4,0.6,1.9c0.4,0.5,0.9,0.8,1.5,0.8c1,0,1.6-0.7,2-2.1h0.2
			c-0.1,0.8-0.5,1.5-1,2c-0.5,0.5-1.1,0.7-1.8,0.7c-0.9,0-1.6-0.3-2.2-0.9c-0.6-0.6-0.9-1.4-0.9-2.3c0-1,0.3-1.8,0.8-2.4
			c0.6-0.7,1.4-1,2.4-1C1049.7,1411.4,1050.3,1411.6,1050.8,1412z"/>
		<path class="st1" d="M1052.5,1411.8l2.4-0.4v5c0,0.8,0.3,1.3,0.9,1.3v0.2h-3.3v-0.2c0.6,0,0.9-0.5,0.9-1.3v-3.6
			c0-0.7-0.3-1-0.9-0.9V1411.8z M1055.1,1409.5c0,0.3-0.1,0.5-0.3,0.6c-0.2,0.2-0.4,0.3-0.6,0.3c-0.2,0-0.5-0.1-0.6-0.3
			c-0.2-0.2-0.3-0.4-0.3-0.6c0-0.3,0.1-0.5,0.3-0.6c0.2-0.2,0.4-0.3,0.6-0.3c0.2,0,0.5,0.1,0.6,0.3
			C1055,1409,1055.1,1409.2,1055.1,1409.5z"/>
		<path class="st1" d="M1062,1412.4c0.2,0.3,0.3,0.8,0.3,1.4v3.2c0,0.4,0.1,0.6,0.3,0.7c0.2,0.1,0.5,0,0.9-0.3l0.1,0.2
			c-0.5,0.3-0.9,0.5-1.4,0.5c-0.9,0-1.3-0.3-1.4-0.9c-0.2,0.3-0.4,0.5-0.8,0.7c-0.3,0.2-0.8,0.3-1.3,0.3c-0.5,0-1-0.2-1.4-0.5
			c-0.4-0.3-0.5-0.8-0.5-1.3c0-0.9,0.5-1.5,1.5-1.8c1.6-0.6,2.5-1.2,2.4-1.9c0-0.6-0.4-0.8-1.3-0.8c-0.3,0-0.6,0.1-0.7,0.2
			c0,0-0.1,0.2-0.3,0.6c-0.1,0.2-0.2,0.3-0.3,0.4c-0.1,0.1-0.2,0.2-0.3,0.2c-0.1,0-0.3,0-0.4-0.1c-0.1-0.1-0.2-0.2-0.2-0.4
			c0-0.2,0.1-0.5,0.4-0.7c0.5-0.4,1.1-0.6,1.9-0.6C1060.9,1411.4,1061.7,1411.8,1062,1412.4z M1059.3,1414.7
			c-0.3,0.1-0.5,0.4-0.7,0.6c-0.1,0.3-0.2,0.6-0.2,0.9c0,0.3,0.1,0.7,0.3,0.9c0.2,0.3,0.4,0.4,0.8,0.4c0.4,0,0.7-0.2,1-0.6
			c0.2-0.4,0.3-1,0.3-1.6v-1.6C1060.6,1414,1060.1,1414.3,1059.3,1414.7z"/>
		<path class="st1" d="M1074.7,1408.8l3.3,8c0.3,0.6,0.7,1,1.3,1v0.3h-3.8v-0.3c0.7,0,0.9-0.3,0.7-1l-0.7-1.8h-3.3l-0.7,1.8
			c-0.3,0.7,0,1,0.7,1v0.3h-2.3v-0.3c0.6,0,1.1-0.3,1.4-1l3-8H1074.7z M1072.3,1414.7h3.1c-0.1-0.3-0.6-1.6-1.6-3.9
			C1072.9,1413.2,1072.4,1414.5,1072.3,1414.7z"/>
		<path class="st1" d="M1084.5,1412c0.3,0.2,0.4,0.5,0.4,0.7c0,0.2-0.1,0.3-0.2,0.4c-0.1,0.1-0.3,0.1-0.4,0.1
			c-0.1,0-0.2-0.1-0.3-0.2c-0.1-0.1-0.2-0.3-0.2-0.5c-0.1-0.3-0.2-0.5-0.2-0.6c-0.2-0.1-0.4-0.2-0.7-0.2c-0.4,0-0.7,0.2-1,0.5
			c-0.3,0.3-0.5,0.7-0.6,1.2c-0.1,0.5-0.2,0.9-0.2,1.4c0,0.7,0.2,1.4,0.6,1.9c0.4,0.5,0.9,0.8,1.5,0.8c1,0,1.6-0.7,2-2.1h0.2
			c-0.1,0.8-0.5,1.5-1,2c-0.5,0.5-1.1,0.7-1.8,0.7c-0.9,0-1.6-0.3-2.2-0.9c-0.6-0.6-0.9-1.4-0.9-2.3c0-1,0.3-1.8,0.8-2.4
			c0.6-0.7,1.4-1,2.4-1C1083.4,1411.4,1084,1411.6,1084.5,1412z"/>
		<path class="st1" d="M1091.5,1412.4c0.2,0.3,0.3,0.8,0.3,1.4v3.2c0,0.4,0.1,0.6,0.3,0.7c0.2,0.1,0.5,0,0.9-0.3l0.1,0.2
			c-0.5,0.3-0.9,0.5-1.4,0.5c-0.9,0-1.3-0.3-1.4-0.9c-0.2,0.3-0.4,0.5-0.8,0.7c-0.3,0.2-0.8,0.3-1.3,0.3c-0.5,0-1-0.2-1.4-0.5
			c-0.4-0.3-0.5-0.8-0.5-1.3c0-0.9,0.5-1.5,1.5-1.8c1.6-0.6,2.5-1.2,2.4-1.9c0-0.6-0.4-0.8-1.3-0.8c-0.3,0-0.6,0.1-0.7,0.2
			c0,0-0.1,0.2-0.3,0.6c-0.1,0.2-0.2,0.3-0.3,0.4c-0.1,0.1-0.2,0.2-0.3,0.2c-0.1,0-0.3,0-0.4-0.1c-0.1-0.1-0.2-0.2-0.2-0.4
			c0-0.2,0.1-0.5,0.4-0.7c0.5-0.4,1.1-0.6,1.9-0.6C1090.4,1411.4,1091.2,1411.8,1091.5,1412.4z M1088.8,1414.7
			c-0.3,0.1-0.5,0.4-0.7,0.6c-0.1,0.3-0.2,0.6-0.2,0.9c0,0.3,0.1,0.7,0.3,0.9c0.2,0.3,0.4,0.4,0.8,0.4c0.4,0,0.7-0.2,1-0.6
			c0.2-0.4,0.3-1,0.3-1.6v-1.6C1090,1414,1089.6,1414.3,1088.8,1414.7z"/>
		<path class="st1" d="M1098.6,1417.4c-0.6,0.5-1.2,0.7-1.9,0.7c-0.8,0-1.5-0.3-2-0.9c-0.5-0.6-0.7-1.4-0.7-2.4c0-1,0.3-1.8,0.8-2.5
			c0.5-0.6,1.2-0.9,2-0.9c0.7,0,1.3,0.2,1.9,0.6v-2.2c0-0.7-0.3-1-0.9-0.9v-0.2l2.4-0.4v8.1c0,0.7,0.3,1,0.9,0.9v0.2l-2.2,0.5
			C1098.7,1418,1098.6,1417.8,1098.6,1417.4z M1095.9,1412.7c-0.3,0.5-0.4,1.2-0.4,2c0,0.9,0.2,1.6,0.5,2.1c0.3,0.6,0.8,0.8,1.3,0.8
			c0.3,0,0.6-0.2,0.9-0.5c0.3-0.3,0.4-0.7,0.4-1.2v-3.4c-0.1-0.2-0.3-0.4-0.6-0.5c-0.3-0.2-0.5-0.2-0.8-0.2
			C1096.6,1411.9,1096.2,1412.2,1095.9,1412.7z"/>
		<path class="st1" d="M1107.4,1412.3c0.5,0.6,0.8,1.3,0.9,2.3h-4.6c-0.1,0.8,0.1,1.5,0.5,2.1c0.4,0.6,0.9,0.9,1.6,0.8
			c0.5,0,1-0.2,1.4-0.6s0.6-0.9,0.8-1.5h0.2c-0.2,0.9-0.5,1.5-1.1,2c-0.6,0.5-1.2,0.7-2,0.7c-0.8,0-1.6-0.3-2.2-1
			c-0.6-0.6-0.9-1.4-0.9-2.3c0-1,0.3-1.8,0.9-2.4c0.6-0.7,1.4-1,2.3-1C1106.1,1411.4,1106.9,1411.7,1107.4,1412.3z M1104.5,1412
			c-0.2,0.2-0.3,0.4-0.5,0.7c-0.1,0.3-0.2,0.5-0.2,0.8c-0.1,0.3-0.1,0.5-0.1,0.8h2.9c0-0.3,0-0.7-0.1-1c-0.1-0.4-0.2-0.7-0.5-1
			c-0.2-0.3-0.5-0.5-0.9-0.5C1104.9,1411.7,1104.7,1411.8,1104.5,1412z M1105.4,1408.6l-1.2,1.9l0.4,0.2l2.2-2.2H1105.4z"/>
		<path class="st1" d="M1115,1412c0.2,0.2,0.3,0.3,0.4,0.5c0.5-0.7,1.1-1.1,1.9-1.1c0.6,0,1.1,0.2,1.5,0.6c0.4,0.4,0.5,0.9,0.5,1.6
			v2.8c0,0.9,0.3,1.3,0.9,1.4v0.2h-3.3v-0.2c0.6,0,0.9-0.5,0.9-1.4v-3c0-0.4-0.1-0.7-0.3-1c-0.2-0.3-0.5-0.4-0.8-0.4
			c-0.3,0-0.6,0.1-0.8,0.4c-0.2,0.3-0.3,0.6-0.3,1v3c0,0.9,0.3,1.3,0.9,1.4v0.2h-3.3v-0.2c0.6,0,0.9-0.5,0.9-1.4v-3
			c0-0.4-0.1-0.7-0.3-1c-0.2-0.3-0.5-0.4-0.8-0.4c-0.3,0-0.6,0.1-0.8,0.4c-0.2,0.3-0.4,0.6-0.3,1v3c0,0.9,0.3,1.3,0.9,1.4v0.2h-3.3
			v-0.2c0.6,0,0.9-0.5,0.9-1.4v-3.5c0-0.7-0.3-1-0.9-0.9v-0.2l2.2-0.4c0.1,0.1,0.2,0.4,0.2,0.9c0.4-0.6,1-0.9,1.8-0.9
			C1114.1,1411.5,1114.6,1411.6,1115,1412z"/>
		<path class="st1" d="M1121.2,1411.8l2.4-0.4v5c0,0.8,0.3,1.3,0.9,1.3v0.2h-3.3v-0.2c0.6,0,0.9-0.5,0.9-1.3v-3.6
			c0-0.7-0.3-1-0.9-0.9V1411.8z M1123.7,1409.5c0,0.3-0.1,0.5-0.3,0.6c-0.2,0.2-0.4,0.3-0.6,0.3c-0.2,0-0.5-0.1-0.6-0.3
			c-0.2-0.2-0.3-0.4-0.3-0.6c0-0.3,0.1-0.5,0.3-0.6c0.2-0.2,0.4-0.3,0.6-0.3c0.2,0,0.5,0.1,0.6,0.3
			C1123.6,1409,1123.7,1409.2,1123.7,1409.5z"/>
		<path class="st1" d="M1130.7,1412c0.3,0.2,0.4,0.5,0.4,0.7c0,0.2-0.1,0.3-0.2,0.4c-0.1,0.1-0.3,0.1-0.4,0.1
			c-0.1,0-0.2-0.1-0.3-0.2c-0.1-0.1-0.2-0.3-0.2-0.5c-0.1-0.3-0.2-0.5-0.2-0.6c-0.2-0.1-0.4-0.2-0.7-0.2c-0.4,0-0.7,0.2-1,0.5
			c-0.3,0.3-0.5,0.7-0.6,1.2c-0.1,0.5-0.2,0.9-0.2,1.4c0,0.7,0.2,1.4,0.6,1.9c0.4,0.5,0.9,0.8,1.5,0.8c1,0,1.6-0.7,2-2.1h0.2
			c-0.1,0.8-0.5,1.5-1,2c-0.5,0.5-1.1,0.7-1.8,0.7c-0.9,0-1.6-0.3-2.2-0.9c-0.6-0.6-0.9-1.4-0.9-2.3c0-1,0.3-1.8,0.8-2.4
			c0.6-0.7,1.4-1,2.4-1C1129.6,1411.4,1130.2,1411.6,1130.7,1412z"/>
		<path class="st1" d="M1137.8,1412.4c0.2,0.3,0.3,0.8,0.3,1.4v3.2c0,0.4,0.1,0.6,0.3,0.7c0.2,0.1,0.5,0,0.9-0.3l0.1,0.2
			c-0.5,0.3-0.9,0.5-1.4,0.5c-0.9,0-1.3-0.3-1.4-0.9c-0.2,0.3-0.4,0.5-0.8,0.7c-0.3,0.2-0.8,0.3-1.3,0.3c-0.5,0-1-0.2-1.4-0.5
			c-0.4-0.3-0.5-0.8-0.5-1.3c0-0.9,0.5-1.5,1.5-1.8c1.6-0.6,2.5-1.2,2.4-1.9c0-0.6-0.4-0.8-1.3-0.8c-0.3,0-0.6,0.1-0.7,0.2
			c0,0-0.1,0.2-0.3,0.6c-0.1,0.2-0.2,0.3-0.3,0.4c-0.1,0.1-0.2,0.2-0.3,0.2c-0.1,0-0.3,0-0.4-0.1c-0.1-0.1-0.2-0.2-0.2-0.4
			c0-0.2,0.1-0.5,0.4-0.7c0.5-0.4,1.1-0.6,1.9-0.6C1136.6,1411.4,1137.4,1411.8,1137.8,1412.4z M1135,1414.7
			c-0.3,0.1-0.5,0.4-0.7,0.6c-0.1,0.3-0.2,0.6-0.2,0.9c0,0.3,0.1,0.7,0.3,0.9c0.2,0.3,0.4,0.4,0.8,0.4c0.4,0,0.7-0.2,1-0.6
			c0.2-0.4,0.3-1,0.3-1.6v-1.6C1136.3,1414,1135.8,1414.3,1135,1414.7z"/>
		<path class="st1" d="M1141.1,1408.6c0.2,0,0.4,0,0.6,0.1c0.3,0.2,0.5,0.5,0.6,0.9c0.1,0.4,0.1,0.8,0,1.3c-0.1,0.5-0.4,0.9-0.7,1.3
			c-0.4,0.3-0.8,0.5-1.3,0.6v-0.4c0.3-0.1,0.6-0.3,0.9-0.6c0.3-0.3,0.4-0.6,0.5-0.9c0-0.1,0.1-0.3,0.1-0.4c0-0.2-0.1-0.2-0.2-0.1
			c-0.1,0.1-0.3,0.1-0.5,0.1c-0.2,0-0.5-0.1-0.6-0.3c-0.2-0.2-0.3-0.4-0.3-0.7c0-0.3,0.1-0.5,0.3-0.7
			C1140.6,1408.7,1140.8,1408.6,1141.1,1408.6z M1143.7,1408.6c0.2,0,0.4,0,0.6,0.1c0.3,0.2,0.5,0.5,0.6,0.9c0.1,0.4,0.1,0.8,0,1.3
			c-0.1,0.5-0.4,0.9-0.7,1.3c-0.4,0.3-0.8,0.5-1.3,0.6v-0.4c0.3-0.1,0.6-0.3,0.9-0.6c0.3-0.3,0.4-0.6,0.5-0.9c0-0.1,0.1-0.3,0.1-0.4
			c0-0.2-0.1-0.2-0.2-0.1c-0.1,0.1-0.3,0.1-0.5,0.1c-0.2,0-0.5-0.1-0.6-0.3c-0.2-0.2-0.3-0.4-0.3-0.7c0-0.3,0.1-0.5,0.3-0.7
			C1143.3,1408.7,1143.5,1408.6,1143.7,1408.6z"/>
	</g>
	<g class="st0">
		<path class="st1" d="M996.5,1432.4c0.6,0.6,0.9,1.4,0.9,2.4c0,1-0.3,1.8-1,2.4c-0.6,0.7-1.4,1-2.3,1c-0.9,0-1.6-0.3-2.2-1
			c-0.6-0.6-0.9-1.4-0.9-2.3c0-1,0.3-1.8,0.9-2.4c0.6-0.7,1.4-1,2.3-1C995.2,1431.4,996,1431.8,996.5,1432.4z M993.2,1432.7
			c-0.3,0.6-0.4,1.3-0.4,2.2c0,0.8,0.1,1.5,0.4,2.1c0.3,0.6,0.6,0.9,1.1,0.9c0.4,0,0.8-0.3,1.1-0.9c0.3-0.6,0.5-1.3,0.5-2.2
			c0-0.9-0.1-1.6-0.4-2.2c-0.3-0.5-0.6-0.8-1.1-0.8C993.8,1431.8,993.5,1432.1,993.2,1432.7z"/>
		<path class="st1" d="M1000.9,1429.3v2.3h1.3v0.3h-1.3v4.4c0,0.5,0.1,0.8,0.3,1c0.2,0.2,0.4,0.2,0.8,0.1c0.1,0,0.3-0.1,0.6-0.2
			l0.1,0.3c-0.2,0.1-0.4,0.2-0.7,0.3c-1.7,0.6-2.6,0.1-2.6-1.4v-4.6h-0.9v-0.2c0.5-0.1,0.9-0.4,1.3-0.9c0.4-0.5,0.7-1,0.9-1.6
			H1000.9z"/>
		<path class="st1" d="M1009.1,1432.4c0.6,0.6,0.9,1.4,0.9,2.4c0,1-0.3,1.8-1,2.4c-0.6,0.7-1.4,1-2.3,1c-0.9,0-1.6-0.3-2.2-1
			c-0.6-0.6-0.9-1.4-0.9-2.3c0-1,0.3-1.8,0.9-2.4c0.6-0.7,1.4-1,2.3-1C1007.8,1431.4,1008.6,1431.8,1009.1,1432.4z M1005.8,1432.7
			c-0.3,0.6-0.4,1.3-0.4,2.2c0,0.8,0.1,1.5,0.4,2.1c0.3,0.6,0.6,0.9,1.1,0.9c0.4,0,0.8-0.3,1.1-0.9c0.3-0.6,0.5-1.3,0.5-2.2
			c0-0.9-0.1-1.6-0.4-2.2c-0.3-0.5-0.6-0.8-1.1-0.8C1006.4,1431.8,1006.1,1432.1,1005.8,1432.7z"/>
		<path class="st1" d="M1013.4,1432.4c0.4-0.6,0.9-0.9,1.6-0.9c0.4,0,0.8,0.1,1.2,0.3c0.3,0.2,0.4,0.4,0.4,0.7c0,0.1,0,0.3-0.1,0.4
			c-0.1,0.1-0.2,0.2-0.4,0.2s-0.3,0-0.4-0.1c-0.1-0.1-0.2-0.2-0.3-0.4c-0.1-0.2-0.2-0.4-0.3-0.5c-0.1-0.1-0.3-0.2-0.5-0.1
			c-0.3,0-0.5,0.2-0.8,0.6c-0.2,0.4-0.4,0.9-0.4,1.4v2.6c0,0.9,0.3,1.4,0.9,1.4v0.2h-3.2v-0.2c0.6,0,0.9-0.5,0.9-1.4v-3.4
			c0-0.7-0.3-1-0.9-1v-0.2l2.2-0.4C1013.4,1431.6,1013.4,1431.9,1013.4,1432.4z"/>
		<path class="st1" d="M1023.5,1430.9c0.3,0.1,0.5,0.3,0.5,0.5c0,0.1,0,0.3,0,0.4c-0.1,0.1-0.2,0.2-0.3,0.3s-0.3,0-0.4,0
			c-0.1-0.1-0.3-0.2-0.4-0.3c-0.2-0.2-0.3-0.3-0.5-0.4c-0.1-0.1-0.3-0.1-0.4,0c-0.1,0-0.3,0.1-0.4,0.3c0.6,0.2,1,0.4,1.3,0.7
			c0.3,0.4,0.5,0.8,0.5,1.4c0,0.6-0.3,1.2-0.9,1.7c-0.5,0.4-1.2,0.6-2,0.6c-0.6,0-1.1-0.1-1.6-0.3v0c-0.2,0.1-0.3,0.3-0.4,0.4
			c-0.1,0.2-0.1,0.3-0.1,0.5c0.1,0.3,0.4,0.5,0.9,0.5h2.6c1.6,0,2.5,0.6,2.5,1.9c0,0.8-0.5,1.4-1.4,1.9c-0.7,0.4-1.6,0.6-2.6,0.6
			c-1,0-1.8-0.1-2.4-0.5c-0.3-0.2-0.5-0.4-0.7-0.6c-0.1-0.3-0.2-0.6-0.2-0.9c0-0.5,0.2-0.9,0.6-1.3c-0.2-0.2-0.3-0.4-0.4-0.6
			c-0.1-0.2-0.1-0.4,0-0.6c0.1-0.6,0.6-1.1,1.3-1.4c-0.3-0.2-0.6-0.5-0.8-0.8c-0.2-0.3-0.3-0.7-0.3-1c0-0.7,0.3-1.2,0.8-1.7
			c0.5-0.4,1.2-0.7,2.1-0.7c0.2,0,0.4,0,0.7,0.1c0.5-0.5,1-0.8,1.6-0.8C1023.1,1430.8,1023.3,1430.8,1023.5,1430.9z M1017.4,1439.4
			c0,0.5,0.2,0.9,0.7,1.2c0.5,0.3,1.2,0.4,2.2,0.4c1,0,1.9-0.3,2.6-0.8c0.2-0.1,0.3-0.3,0.4-0.4c0.1-0.2,0.1-0.3,0.1-0.5
			c0-0.2-0.1-0.4-0.3-0.5c-0.2-0.1-0.4-0.2-0.8-0.2h-3.1c-0.3,0-0.6,0-0.8-0.1c-0.2-0.1-0.4-0.1-0.6-0.3
			C1017.6,1438.6,1017.4,1439,1017.4,1439.4z M1019.4,1432.3c-0.2,0.4-0.3,0.9-0.3,1.4c0,0.6,0.1,1.1,0.4,1.4
			c0.2,0.4,0.6,0.6,0.9,0.6c0.4,0,0.7-0.2,0.9-0.6c0.3-0.4,0.4-0.9,0.4-1.5c0-0.8-0.2-1.3-0.5-1.7c-0.2-0.2-0.5-0.3-0.8-0.3
			C1020,1431.7,1019.7,1431.9,1019.4,1432.3z"/>
		<path class="st1" d="M1030,1432.4c0.2,0.3,0.3,0.8,0.3,1.4v3.2c0,0.4,0.1,0.6,0.3,0.7c0.2,0.1,0.5,0,0.9-0.3l0.1,0.2
			c-0.5,0.3-0.9,0.5-1.4,0.5c-0.9,0-1.3-0.3-1.4-0.9c-0.2,0.3-0.4,0.5-0.8,0.7c-0.3,0.2-0.8,0.3-1.3,0.3c-0.5,0-1-0.2-1.4-0.5
			c-0.4-0.3-0.5-0.8-0.5-1.3c0-0.9,0.5-1.5,1.5-1.8c1.6-0.6,2.5-1.2,2.4-1.9c0-0.6-0.4-0.8-1.3-0.8c-0.3,0-0.6,0.1-0.7,0.2
			c0,0-0.1,0.2-0.3,0.6c-0.1,0.2-0.2,0.3-0.3,0.4c-0.1,0.1-0.2,0.2-0.3,0.2c-0.1,0-0.3,0-0.4-0.1c-0.1-0.1-0.2-0.2-0.2-0.4
			c0-0.2,0.1-0.5,0.4-0.7c0.5-0.4,1.1-0.6,1.9-0.6C1028.8,1431.4,1029.7,1431.8,1030,1432.4z M1027.3,1434.7
			c-0.3,0.1-0.5,0.4-0.7,0.6c-0.1,0.3-0.2,0.6-0.2,0.9c0,0.3,0.1,0.7,0.3,0.9c0.2,0.3,0.4,0.4,0.8,0.4c0.4,0,0.7-0.2,1-0.6
			c0.2-0.4,0.3-1,0.3-1.6v-1.6C1028.5,1434,1028,1434.3,1027.3,1434.7z"/>
		<path class="st1" d="M1037.1,1437.4c-0.6,0.5-1.2,0.7-1.9,0.7c-0.8,0-1.5-0.3-2-0.9c-0.5-0.6-0.7-1.4-0.7-2.4c0-1,0.3-1.8,0.8-2.5
			c0.5-0.6,1.2-0.9,2-0.9c0.7,0,1.3,0.2,1.9,0.6v-2.2c0-0.7-0.3-1-0.9-0.9v-0.2l2.4-0.4v8.1c0,0.7,0.3,1,0.9,0.9v0.2l-2.2,0.5
			C1037.2,1438,1037.1,1437.8,1037.1,1437.4z M1034.4,1432.7c-0.3,0.5-0.4,1.2-0.4,2c0,0.9,0.2,1.6,0.5,2.1c0.3,0.6,0.8,0.8,1.3,0.8
			c0.3,0,0.6-0.2,0.9-0.5c0.3-0.3,0.4-0.7,0.4-1.2v-3.4c-0.1-0.2-0.3-0.4-0.6-0.5c-0.3-0.2-0.5-0.2-0.8-0.2
			C1035.1,1431.9,1034.7,1432.2,1034.4,1432.7z"/>
		<path class="st1" d="M1046,1432.4c0.6,0.6,0.9,1.4,0.9,2.4c0,1-0.3,1.8-1,2.4c-0.6,0.7-1.4,1-2.3,1c-0.9,0-1.6-0.3-2.2-1
			c-0.6-0.6-0.9-1.4-0.9-2.3c0-1,0.3-1.8,0.9-2.4c0.6-0.7,1.4-1,2.3-1C1044.7,1431.4,1045.5,1431.8,1046,1432.4z M1042.6,1432.7
			c-0.3,0.6-0.4,1.3-0.4,2.2c0,0.8,0.1,1.5,0.4,2.1c0.3,0.6,0.6,0.9,1.1,0.9c0.4,0,0.8-0.3,1.1-0.9c0.3-0.6,0.5-1.3,0.5-2.2
			c0-0.9-0.1-1.6-0.4-2.2c-0.3-0.5-0.6-0.8-1.1-0.8C1043.3,1431.8,1042.9,1432.1,1042.6,1432.7z"/>
		<path class="st1" d="M1051,1431.6c0.3,0.1,0.5,0.2,0.5,0.1c0.1,0,0.1-0.1,0.1-0.2h0.2l0.2,1.9h-0.2c-0.1-0.5-0.3-0.9-0.6-1.3
			c-0.1-0.1-0.3-0.2-0.6-0.3c-0.2-0.1-0.4-0.1-0.6-0.1c-0.3,0-0.6,0.1-0.8,0.3c-0.2,0.1-0.3,0.3-0.3,0.6c0,0.2,0.1,0.4,0.2,0.6
			c0.1,0.1,0.5,0.3,1.1,0.6c0.6,0.2,1,0.4,1.2,0.5c0.7,0.4,1,1,0.9,1.8c0,0.6-0.3,1.1-0.7,1.5c-0.4,0.4-1,0.6-1.8,0.5
			c-0.3,0-0.5-0.1-0.8-0.2c-0.5-0.2-0.8-0.3-0.9-0.2c-0.1,0-0.2,0.1-0.2,0.3h-0.2l0-2h0.2c0,0.2,0.1,0.4,0.1,0.6
			c0.1,0.2,0.2,0.3,0.4,0.5c0.4,0.4,0.9,0.6,1.4,0.7c0.5,0.1,0.9,0,1.2-0.2c0.3-0.2,0.4-0.4,0.4-0.7c0-0.3,0-0.5-0.2-0.7
			c-0.1-0.1-0.3-0.3-0.6-0.4c-0.4-0.2-0.7-0.3-1-0.4c-0.4-0.1-0.6-0.2-0.8-0.3c-0.8-0.4-1.1-1-1.1-1.8c0-0.5,0.2-1,0.5-1.3
			c0.4-0.4,0.9-0.5,1.5-0.5C1050.4,1431.4,1050.7,1431.5,1051,1431.6z"/>
		<path class="st1" d="M1061.4,1432.2c0.6-0.5,1.3-0.7,1.9-0.7c0.8,0,1.5,0.3,2,0.9c0.5,0.6,0.7,1.4,0.7,2.4c0,1-0.3,1.8-0.8,2.5
			c-0.5,0.6-1.2,0.9-2,0.9c-0.7,0-1.3-0.2-1.9-0.6v2.4c0,0.9,0.3,1.3,0.9,1.4v0.2h-3.3v-0.2c0.6,0,0.9-0.5,0.9-1.4v-6.9
			c0-0.7-0.3-1-0.9-0.9v-0.2l2.2-0.4C1061.3,1431.6,1061.4,1431.8,1061.4,1432.2z M1064.1,1436.9c0.3-0.5,0.4-1.2,0.4-2
			c0-0.9-0.2-1.6-0.5-2.1c-0.3-0.6-0.8-0.8-1.3-0.8c-0.3,0-0.6,0.2-0.9,0.5c-0.3,0.3-0.4,0.7-0.4,1.2v3.4c0.1,0.2,0.3,0.3,0.6,0.5
			c0.3,0.2,0.5,0.2,0.8,0.2C1063.4,1437.7,1063.8,1437.4,1064.1,1436.9z"/>
		<path class="st1" d="M1072.8,1432.4c0.6,0.6,0.9,1.4,0.9,2.4c0,1-0.3,1.8-1,2.4c-0.6,0.7-1.4,1-2.3,1c-0.9,0-1.6-0.3-2.2-1
			c-0.6-0.6-0.9-1.4-0.9-2.3c0-1,0.3-1.8,0.9-2.4c0.6-0.7,1.4-1,2.3-1C1071.5,1431.4,1072.3,1431.8,1072.8,1432.4z M1069.5,1432.7
			c-0.3,0.6-0.4,1.3-0.4,2.2c0,0.8,0.1,1.5,0.4,2.1c0.3,0.6,0.6,0.9,1.1,0.9c0.4,0,0.8-0.3,1.1-0.9c0.3-0.6,0.5-1.3,0.5-2.2
			c0-0.9-0.1-1.6-0.4-2.2c-0.3-0.5-0.6-0.8-1.1-0.8C1070.1,1431.8,1069.8,1432.1,1069.5,1432.7z"/>
		<path class="st1" d="M1077.1,1432.4c0.4-0.6,0.9-0.9,1.6-0.9c0.4,0,0.8,0.1,1.2,0.3c0.3,0.2,0.4,0.4,0.4,0.7c0,0.1,0,0.3-0.1,0.4
			s-0.2,0.2-0.4,0.2c-0.2,0-0.3,0-0.4-0.1s-0.2-0.2-0.3-0.4c-0.1-0.2-0.2-0.4-0.3-0.5c-0.1-0.1-0.3-0.2-0.5-0.1
			c-0.3,0-0.5,0.2-0.8,0.6c-0.2,0.4-0.4,0.9-0.4,1.4v2.6c0,0.9,0.3,1.4,0.9,1.4v0.2h-3.2v-0.2c0.6,0,0.9-0.5,0.9-1.4v-3.4
			c0-0.7-0.3-1-0.9-1v-0.2l2.2-0.4C1077.1,1431.6,1077.1,1431.9,1077.1,1432.4z"/>
		<path class="st1" d="M1091.6,1428.8l3.3,8c0.3,0.6,0.7,1,1.3,1v0.3h-3.8v-0.3c0.7,0,0.9-0.3,0.7-1l-0.7-1.8h-3.3l-0.7,1.8
			c-0.3,0.7,0,1,0.7,1v0.3h-2.3v-0.3c0.6,0,1.1-0.3,1.4-1l3-8H1091.6z M1089.3,1434.7h3.1c-0.1-0.3-0.6-1.6-1.6-3.9
			C1089.8,1433.2,1089.3,1434.5,1089.3,1434.7z"/>
		<path class="st1" d="M1103.2,1432c0.4,0.4,0.6,0.9,0.6,1.6v2.8c0,0.9,0.3,1.3,0.9,1.4v0.2h-3.3v-0.2c0.6,0,0.9-0.5,0.9-1.4v-3
			c0-0.4-0.1-0.7-0.3-1c-0.2-0.3-0.5-0.4-0.9-0.4c-0.3,0-0.6,0.1-0.9,0.4c-0.2,0.3-0.3,0.6-0.3,1v3c0,0.9,0.3,1.3,0.9,1.4v0.2h-3.3
			v-0.2c0.6,0,0.9-0.5,0.9-1.4v-3.5c0-0.7-0.3-1-0.9-0.9v-0.2l2.2-0.4c0.1,0.1,0.2,0.4,0.2,0.9c0.5-0.6,1.1-0.9,1.9-0.9
			C1102.3,1431.4,1102.8,1431.6,1103.2,1432z"/>
		<path class="st1" d="M1110.8,1432.4c0.2,0.3,0.3,0.8,0.3,1.4v3.2c0,0.4,0.1,0.6,0.3,0.7c0.2,0.1,0.5,0,0.9-0.3l0.1,0.2
			c-0.5,0.3-0.9,0.5-1.4,0.5c-0.9,0-1.3-0.3-1.4-0.9c-0.2,0.3-0.4,0.5-0.8,0.7c-0.3,0.2-0.8,0.3-1.3,0.3c-0.5,0-1-0.2-1.4-0.5
			c-0.4-0.3-0.5-0.8-0.5-1.3c0-0.9,0.5-1.5,1.5-1.8c1.6-0.6,2.5-1.2,2.4-1.9c0-0.6-0.4-0.8-1.3-0.8c-0.3,0-0.6,0.1-0.7,0.2
			c0,0-0.1,0.2-0.3,0.6c-0.1,0.2-0.2,0.3-0.3,0.4c-0.1,0.1-0.2,0.2-0.3,0.2c-0.1,0-0.3,0-0.4-0.1c-0.1-0.1-0.2-0.2-0.2-0.4
			c0-0.2,0.1-0.5,0.4-0.7c0.5-0.4,1.1-0.6,1.9-0.6C1109.6,1431.4,1110.4,1431.8,1110.8,1432.4z M1108.1,1434.7
			c-0.3,0.1-0.5,0.4-0.7,0.6c-0.1,0.3-0.2,0.6-0.2,0.9c0,0.3,0.1,0.7,0.3,0.9c0.2,0.3,0.4,0.4,0.8,0.4c0.4,0,0.7-0.2,1-0.6
			c0.2-0.4,0.3-1,0.3-1.6v-1.6C1109.3,1434,1108.8,1434.3,1108.1,1434.7z M1109,1428.7l-1.2,1.9l0.4,0.2l2.2-2.2H1109z"/>
		<path class="st1" d="M1119.3,1432c0.4,0.4,0.5,0.9,0.6,1.6v2.8c0,0.9,0.3,1.3,0.9,1.3v0.2h-3.3v-0.2c0.6,0,0.9-0.5,0.9-1.3v-3
			c0-0.4-0.1-0.7-0.3-1c-0.2-0.3-0.5-0.4-0.9-0.4c-0.3,0-0.6,0.1-0.9,0.4c-0.2,0.3-0.3,0.6-0.3,1v3c0,0.9,0.3,1.3,0.9,1.3v0.2h-3.3
			v-0.2c0.6,0,0.9-0.5,0.9-1.3v-6.5c0-0.7-0.3-1-0.9-0.9v-0.2l2.5-0.4v3.9c0.5-0.6,1.1-0.9,1.9-0.9
			C1118.3,1431.5,1118.9,1431.6,1119.3,1432z"/>
		<path class="st1" d="M1123.1,1437.6c-0.4-0.4-0.6-0.9-0.6-1.6v-2.8c0-0.9-0.3-1.3-0.9-1.4v-0.2h2.4v4.6c0,0.4,0.1,0.7,0.3,1
			c0.2,0.3,0.5,0.4,0.9,0.4c0.3,0,0.6-0.1,0.9-0.4c0.2-0.3,0.3-0.6,0.3-1l0-3c0-0.9-0.3-1.3-0.9-1.4v-0.2l2.4,0v5
			c0,0.8,0.3,1.1,0.9,1v0.2l-2.2,0.4c-0.1-0.1-0.2-0.4-0.2-0.9c-0.5,0.6-1.1,0.9-1.9,0.9C1124,1438.2,1123.4,1438,1123.1,1437.6z"/>
		<path class="st1" d="M1135,1432.4c0.2,0.3,0.3,0.8,0.3,1.4v3.2c0,0.4,0.1,0.6,0.3,0.7c0.2,0.1,0.5,0,0.9-0.3l0.1,0.2
			c-0.5,0.3-0.9,0.5-1.4,0.5c-0.9,0-1.3-0.3-1.4-0.9c-0.2,0.3-0.4,0.5-0.8,0.7c-0.3,0.2-0.8,0.3-1.3,0.3c-0.5,0-1-0.2-1.4-0.5
			c-0.4-0.3-0.5-0.8-0.5-1.3c0-0.9,0.5-1.5,1.5-1.8c1.6-0.6,2.5-1.2,2.4-1.9c0-0.6-0.4-0.8-1.3-0.8c-0.3,0-0.6,0.1-0.7,0.2
			c0,0-0.1,0.2-0.3,0.6c-0.1,0.2-0.2,0.3-0.3,0.4c-0.1,0.1-0.2,0.2-0.3,0.2c-0.1,0-0.3,0-0.4-0.1c-0.1-0.1-0.2-0.2-0.2-0.4
			c0-0.2,0.1-0.5,0.4-0.7c0.5-0.4,1.1-0.6,1.9-0.6C1133.8,1431.4,1134.6,1431.8,1135,1432.4z M1132.3,1434.7
			c-0.3,0.1-0.5,0.4-0.7,0.6c-0.1,0.3-0.2,0.6-0.2,0.9c0,0.3,0.1,0.7,0.3,0.9c0.2,0.3,0.4,0.4,0.8,0.4c0.4,0,0.7-0.2,1-0.6
			c0.2-0.4,0.3-1,0.3-1.6v-1.6C1133.5,1434,1133,1434.3,1132.3,1434.7z"/>
		<path class="st1" d="M1142.6,1432c0.3,0.2,0.4,0.5,0.4,0.7c0,0.2-0.1,0.3-0.2,0.4c-0.1,0.1-0.3,0.1-0.4,0.1
			c-0.1,0-0.2-0.1-0.3-0.2c-0.1-0.1-0.2-0.3-0.2-0.5c-0.1-0.3-0.2-0.5-0.2-0.6c-0.2-0.1-0.4-0.2-0.7-0.2c-0.4,0-0.7,0.2-1,0.5
			c-0.3,0.3-0.5,0.7-0.6,1.2c-0.1,0.5-0.2,0.9-0.2,1.4c0,0.7,0.2,1.4,0.6,1.9c0.4,0.5,0.9,0.8,1.5,0.8c1,0,1.6-0.7,2-2.1h0.2
			c-0.1,0.8-0.5,1.5-1,2c-0.5,0.5-1.1,0.7-1.8,0.7c-0.9,0-1.6-0.3-2.2-0.9c-0.6-0.6-0.9-1.4-0.9-2.3c0-1,0.3-1.8,0.8-2.4
			c0.6-0.7,1.4-1,2.4-1C1141.4,1431.4,1142.1,1431.6,1142.6,1432z"/>
	</g>
	<g class="st0">
		<path class="st1" d="M1041.6,1449.9c0.8,0.9,1.3,2,1.3,3.4c0,0.9-0.2,1.8-0.7,2.5c-0.5,0.8-1.1,1.3-1.9,1.8l0.4,0.3
			c0.5,0.4,1,0.3,1.5-0.2l0.1,0.1c-0.1,0.3-0.3,0.5-0.5,0.7c-0.3,0.3-0.6,0.5-0.9,0.6c-0.3,0.1-0.6,0.1-0.9,0.1
			c-0.2,0-0.5-0.1-0.7-0.3c-0.4-0.2-0.7-0.5-0.9-0.7c-0.2,0-0.4,0-0.5,0c-0.9,0-1.7-0.2-2.4-0.6c-0.7-0.4-1.3-1-1.7-1.7
			c-0.4-0.7-0.6-1.5-0.6-2.4c0-0.9,0.2-1.7,0.6-2.4c0.4-0.7,1-1.3,1.7-1.8c0.8-0.4,1.6-0.7,2.6-0.7
			C1039.6,1448.6,1040.7,1449,1041.6,1449.9z M1036.4,1449.6c-0.5,0.4-0.8,1-1.1,1.6c-0.3,0.7-0.4,1.4-0.4,2.3
			c0,0.8,0.1,1.5,0.4,2.2c0.2,0.7,0.6,1.2,1.1,1.6c0.4-0.5,0.9-0.7,1.5-0.7c0.6,0,1.2,0.2,1.7,0.6c0.4-0.4,0.7-0.9,1-1.6
			c0.3-0.7,0.4-1.4,0.4-2.2c0-1.3-0.3-2.4-0.8-3.2c-0.5-0.8-1.2-1.2-2.2-1.2C1037.4,1448.9,1036.9,1449.1,1036.4,1449.6z
			 M1036.7,1457.4c0.4,0.3,0.8,0.4,1.3,0.4h0.1c-0.3-0.4-0.7-0.6-1-0.6C1036.9,1457.2,1036.8,1457.3,1036.7,1457.4z"/>
		<path class="st1" d="M1045.2,1457.6c-0.4-0.4-0.6-0.9-0.6-1.6v-2.8c0-0.9-0.3-1.3-0.9-1.4v-0.2h2.4v4.6c0,0.4,0.1,0.7,0.3,1
			c0.2,0.3,0.5,0.4,0.9,0.4c0.3,0,0.6-0.1,0.9-0.4c0.2-0.3,0.3-0.6,0.3-1l0-3c0-0.9-0.3-1.3-0.9-1.4v-0.2l2.4,0v5
			c0,0.8,0.3,1.1,0.9,1v0.2l-2.2,0.4c-0.1-0.1-0.2-0.4-0.2-0.9c-0.5,0.6-1.1,0.9-1.9,0.9C1046.1,1458.2,1045.6,1458,1045.2,1457.6z"
			/>
		<path class="st1" d="M1057.3,1452.3c0.5,0.6,0.8,1.3,0.9,2.3h-4.6c-0.1,0.8,0.1,1.5,0.5,2.1c0.4,0.6,0.9,0.9,1.6,0.8
			c0.5,0,1-0.2,1.4-0.6s0.6-0.9,0.8-1.5h0.2c-0.2,0.9-0.5,1.5-1.1,2c-0.6,0.5-1.2,0.7-2,0.7c-0.8,0-1.6-0.3-2.2-1
			c-0.6-0.6-0.9-1.4-0.9-2.3c0-1,0.3-1.8,0.9-2.4c0.6-0.7,1.4-1,2.3-1C1056,1451.4,1056.7,1451.7,1057.3,1452.3z M1054.4,1452
			c-0.2,0.2-0.3,0.4-0.5,0.7c-0.1,0.3-0.2,0.5-0.2,0.8c-0.1,0.3-0.1,0.5-0.1,0.8h2.9c0-0.3,0-0.7-0.1-1c-0.1-0.4-0.2-0.7-0.5-1
			c-0.2-0.3-0.5-0.5-0.9-0.5C1054.8,1451.7,1054.6,1451.8,1054.4,1452z"/>
		<path class="st1" d="M1061.5,1452.4c0.4-0.6,0.9-0.9,1.6-0.9c0.4,0,0.8,0.1,1.2,0.3c0.3,0.2,0.4,0.4,0.4,0.7c0,0.1,0,0.3-0.1,0.4
			s-0.2,0.2-0.4,0.2c-0.2,0-0.3,0-0.4-0.1s-0.2-0.2-0.3-0.4c-0.1-0.2-0.2-0.4-0.3-0.5c-0.1-0.1-0.3-0.2-0.5-0.1
			c-0.3,0-0.5,0.2-0.8,0.6c-0.2,0.4-0.4,0.9-0.4,1.4v2.6c0,0.9,0.3,1.4,0.9,1.4v0.2h-3.2v-0.2c0.6,0,0.9-0.5,0.9-1.4v-3.4
			c0-0.7-0.3-1-0.9-1v-0.2l2.2-0.4C1061.5,1451.6,1061.5,1451.9,1061.5,1452.4z"/>
		<path class="st1" d="M1071.2,1452.3c0.5,0.6,0.8,1.3,0.9,2.3h-4.6c-0.1,0.8,0.1,1.5,0.5,2.1c0.4,0.6,0.9,0.9,1.6,0.8
			c0.5,0,1-0.2,1.4-0.6s0.6-0.9,0.8-1.5h0.2c-0.2,0.9-0.5,1.5-1.1,2c-0.6,0.5-1.2,0.7-2,0.7c-0.8,0-1.6-0.3-2.2-1
			c-0.6-0.6-0.9-1.4-0.9-2.3c0-1,0.3-1.8,0.9-2.4c0.6-0.7,1.4-1,2.3-1C1069.9,1451.4,1070.6,1451.7,1071.2,1452.3z M1068.3,1452
			c-0.2,0.2-0.3,0.4-0.5,0.7c-0.1,0.3-0.2,0.5-0.2,0.8c-0.1,0.3-0.1,0.5-0.1,0.8h2.9c0-0.3,0-0.7-0.1-1c-0.1-0.4-0.2-0.7-0.5-1
			c-0.2-0.3-0.5-0.5-0.9-0.5C1068.7,1451.7,1068.5,1451.8,1068.3,1452z M1069.2,1448.6l-1.2,1.9l0.4,0.2l2.2-2.2H1069.2z"/>
		<path class="st1" d="M1075.5,1449.3v2.3h1.3v0.3h-1.3v4.4c0,0.5,0.1,0.8,0.3,1c0.2,0.2,0.4,0.2,0.8,0.1c0.1,0,0.3-0.1,0.6-0.2
			l0.1,0.3c-0.2,0.1-0.4,0.2-0.7,0.3c-1.7,0.6-2.6,0.1-2.6-1.4v-4.6h-0.9v-0.2c0.5-0.1,0.9-0.4,1.3-0.9c0.4-0.5,0.7-1,0.9-1.6
			H1075.5z"/>
		<path class="st1" d="M1083.4,1452.4c0.2,0.3,0.3,0.8,0.3,1.4v3.2c0,0.4,0.1,0.6,0.3,0.7c0.2,0.1,0.5,0,0.9-0.3l0.1,0.2
			c-0.5,0.3-0.9,0.5-1.4,0.5c-0.9,0-1.3-0.3-1.4-0.9c-0.2,0.3-0.4,0.5-0.8,0.7c-0.3,0.2-0.8,0.3-1.3,0.3c-0.5,0-1-0.2-1.4-0.5
			c-0.4-0.3-0.5-0.8-0.5-1.3c0-0.9,0.5-1.5,1.5-1.8c1.6-0.6,2.5-1.2,2.4-1.9c0-0.6-0.4-0.8-1.3-0.8c-0.3,0-0.6,0.1-0.7,0.2
			c0,0-0.1,0.2-0.3,0.6c-0.1,0.2-0.2,0.3-0.3,0.4c-0.1,0.1-0.2,0.2-0.3,0.2c-0.1,0-0.3,0-0.4-0.1c-0.1-0.1-0.2-0.2-0.2-0.4
			c0-0.2,0.1-0.5,0.4-0.7c0.5-0.4,1.1-0.6,1.9-0.6C1082.2,1451.4,1083.1,1451.8,1083.4,1452.4z M1080.7,1454.7
			c-0.3,0.1-0.5,0.4-0.7,0.6c-0.1,0.3-0.2,0.6-0.2,0.9c0,0.3,0.1,0.7,0.3,0.9c0.2,0.3,0.4,0.4,0.8,0.4c0.4,0,0.7-0.2,1-0.6
			c0.2-0.4,0.3-1,0.3-1.6v-1.6C1081.9,1454,1081.4,1454.3,1080.7,1454.7z"/>
		<path class="st1" d="M1088.2,1452.4c0.4-0.6,0.9-0.9,1.6-0.9c0.4,0,0.8,0.1,1.2,0.3c0.3,0.2,0.4,0.4,0.4,0.7c0,0.1,0,0.3-0.1,0.4
			s-0.2,0.2-0.4,0.2c-0.2,0-0.3,0-0.4-0.1s-0.2-0.2-0.3-0.4c-0.1-0.2-0.2-0.4-0.3-0.5c-0.1-0.1-0.3-0.2-0.5-0.1
			c-0.3,0-0.5,0.2-0.8,0.6c-0.2,0.4-0.4,0.9-0.4,1.4v2.6c0,0.9,0.3,1.4,0.9,1.4v0.2h-3.2v-0.2c0.6,0,0.9-0.5,0.9-1.4v-3.4
			c0-0.7-0.3-1-0.9-1v-0.2l2.2-0.4C1088.1,1451.6,1088.2,1451.9,1088.2,1452.4z"/>
		<path class="st1" d="M1097.5,1452.4c0.6,0.6,0.9,1.4,0.9,2.4c0,1-0.3,1.8-1,2.4c-0.6,0.7-1.4,1-2.3,1c-0.9,0-1.6-0.3-2.2-1
			c-0.6-0.6-0.9-1.4-0.9-2.3c0-1,0.3-1.8,0.9-2.4c0.6-0.7,1.4-1,2.3-1C1096.2,1451.4,1096.9,1451.8,1097.5,1452.4z M1094.1,1452.7
			c-0.3,0.6-0.4,1.3-0.4,2.2c0,0.8,0.1,1.5,0.4,2.1c0.3,0.6,0.6,0.9,1.1,0.9c0.4,0,0.8-0.3,1.1-0.9c0.3-0.6,0.5-1.3,0.5-2.2
			c0-0.9-0.1-1.6-0.4-2.2c-0.3-0.5-0.6-0.8-1.1-0.8C1094.8,1451.8,1094.4,1452.1,1094.1,1452.7z"/>
		<path class="st1" d="M1101.2,1457.3c0,0.3-0.1,0.5-0.3,0.6c-0.2,0.2-0.4,0.3-0.6,0.3c-0.2,0-0.5-0.1-0.6-0.3
			c-0.2-0.2-0.3-0.4-0.3-0.6c0-0.3,0.1-0.5,0.3-0.6c0.2-0.2,0.4-0.3,0.6-0.3c0.2,0,0.5,0.1,0.6,0.3
			C1101.1,1456.8,1101.2,1457,1101.2,1457.3z"/>
	</g>
	<g transform="translate(882.209 486.102)">
		<path class="st2" d="M159,1010.4c0.8,0.3,1.7,0.7,3.5,1.6c-0.2-1.8-0.7-3.5-1.5-5.1c-2.4-4.7-7.3-9.3-12.8-12.4
			c0,1.5,0.1,3.1,0.6,4.5C149.9,1003.8,153.7,1008,159,1010.4z"/>
		<path class="st2" d="M208.6,1010.4c5.3-2.3,9.1-6.5,10.3-11.4c0.4-1.5,0.6-3,0.6-4.5c-5.5,3.1-10.4,7.7-12.8,12.4
			c-0.8,1.6-1.3,3.3-1.5,5.1C206.9,1011.1,207.8,1010.7,208.6,1010.4z"/>
		<path class="st2" d="M154.3,1016.8c2-0.3,4-0.8,5.9-1.6c-3.4-1.6-4-1.9-4.9-2.4c-3.9-1.8-8.4-2.2-12.5-1c-2.7,0.7-5.3,1.7-7.7,3.1
			c4.1,1.3,8.4,2.1,12.6,2.2C150,1017.3,152.2,1017.2,154.3,1016.8z"/>
		<path class="st2" d="M212.3,1012.9c-1,0.5-1.5,0.7-4.9,2.4c1.9,0.8,3.9,1.4,5.9,1.6c2.2,0.3,4.4,0.4,6.6,0.3
			c4.3-0.2,8.6-0.9,12.6-2.2c-2.4-1.4-5-2.4-7.7-3.1C220.6,1010.7,216.2,1011,212.3,1012.9z"/>
		<path class="st2" d="M146.8,1008.9l-2.8-1.3c-5.5-2.5-11.7-2.7-17.3-0.7c-1.5,0.5-2.9,1.2-4.3,1.9
			C128.8,1011.2,139.8,1012.2,146.8,1008.9z"/>
		<path class="st2" d="M223.6,1007.5l-2.8,1.3c7,3.3,18,2.3,24.5,0c-1.4-0.8-2.8-1.4-4.3-1.9
			C235.3,1004.9,229.1,1005.1,223.6,1007.5z"/>
		<path class="st2" d="M142.8,1003.4l5.9,2.5c-0.4-4.6-4.2-11.1-13.9-16.8c-0.3,1.9,0.6,5.4,1.9,8.6
			C138,1000.3,140.2,1002.3,142.8,1003.4z"/>
		<path class="st2" d="M224.7,1003.4c2.7-1.1,4.8-3.1,6.1-5.7c1.4-3.2,2.2-6.7,1.9-8.6c-9.7,5.7-13.5,12.2-13.9,16.8L224.7,1003.4z"
			/>
		<path class="st2" d="M131.4,998.6l3,1.3c-0.4-5.4-6.1-12.3-10.8-16.2c-0.4,1.1-0.5,2.2-0.6,3.3C123,991.9,126.2,996.4,131.4,998.6
			z"/>
		<path class="st2" d="M244.5,987.1c0-1.1-0.2-2.3-0.6-3.3c-4.7,3.9-10.4,10.7-10.8,16.2l3-1.3C241.4,996.4,244.6,991.9,244.5,987.1
			z"/>
		<path class="st2" d="M132.8,1002.5c-3.8-1.7-6.1-2.7-8.7-4c-5.5-0.1-10.9,0.7-16.2,2.2C114.2,1004.2,125.2,1006.3,132.8,1002.5z"
			/>
		<path class="st2" d="M243.4,998.4c-2.6,1.3-4.8,2.3-8.7,4c7.7,3.8,18.7,1.8,24.9-1.8C254.3,999.1,248.9,998.4,243.4,998.4z"/>
		<path class="st2" d="M117.5,991.7c1,0.6,2.1,1.2,3.4,1.9c0.3-4.1-1.8-9.3-3.9-13c-0.2-0.3-0.4-0.7-0.6-1c-0.2-0.3-0.4-0.6-0.6-0.9
			s-0.4-0.6-0.7-0.9s-0.5-0.6-0.7-0.9c-0.5,0.8-0.9,1.6-1.2,2.5c-0.3,1.1-0.6,2.2-0.7,3.3C112.3,986.5,114.2,989.9,117.5,991.7z"/>
		<path class="st2" d="M250.1,991.7c3.2-1.8,5.2-5.2,5-8.9c-0.1-1.1-0.3-2.2-0.7-3.3c-0.3-0.9-0.7-1.7-1.2-2.5
			c-0.2,0.3-0.5,0.6-0.7,0.9c-0.2,0.3-0.5,0.6-0.7,0.9s-0.4,0.6-0.6,0.9s-0.4,0.6-0.6,1c-2.2,3.7-4.3,8.9-3.9,13
			C248,992.9,249.1,992.3,250.1,991.7z"/>
		<path class="st2" d="M119.2,995.7c-0.5-0.3-1.1-0.6-1.5-0.9c-5.9-3.5-12.8-5.1-19.7-4.7c-0.9,0.1-1.7,0.1-2.3,0.2
			C102.2,996,112.5,998.3,119.2,995.7z"/>
		<path class="st2" d="M249.9,994.8c-0.5,0.3-1,0.6-1.5,0.9c6.6,2.6,17,0.2,23.5-5.4c-0.6-0.1-1.4-0.2-2.3-0.2
			C262.8,989.7,255.9,991.3,249.9,994.8z"/>
		<path class="st2" d="M104.7,981.9l0.5,0.5c0.6,0.5,2.3,2.2,3.8,3.4c0.4-1.3,0.6-2.6,0.6-3.9c0-4.4-1.1-8.7-3.2-12.5
			c-1.8,1.9-3.1,4.4-3.6,7C102.5,978.4,103.2,980.5,104.7,981.9L104.7,981.9z"/>
		<path class="st2" d="M258.5,985.8c1.5-1.2,3.3-2.9,3.8-3.4l0.5-0.5l0,0c1.5-1.4,2.2-3.5,1.8-5.6c-0.5-2.6-1.8-5.1-3.6-7
			c-2,3.9-3.1,8.2-3.2,12.5C257.9,983.2,258.1,984.5,258.5,985.8z"/>
		<path class="st2" d="M107.3,987.3c-1.1-1-2.6-2.3-4-3.8c-1.9-1.9-4.4-3.3-7-3.9c-3.1-0.8-6.2-1.3-9.4-1.5
			C91.5,984.5,100.7,988.7,107.3,987.3z"/>
		<path class="st2" d="M264.3,983.5c-1.4,1.5-2.8,2.8-4,3.8c6.6,1.4,15.8-2.8,20.4-9.2c-3.2,0.2-6.3,0.7-9.4,1.5
			C268.6,980.2,266.2,981.6,264.3,983.5z"/>
		<path class="st2" d="M97.5,973.2c0.6,0.9,1.3,1.8,1.8,2.5c2.5-3.5,4-11,2.5-16.2c-2.2,1.4-3.9,3.4-5.1,5.8
			C95.6,967.9,95.9,970.9,97.5,973.2z"/>
		<path class="st2" d="M270.1,973.2c1.6-2.3,1.9-5.3,0.7-7.8c-1.1-2.4-2.9-4.4-5.1-5.8c-1.5,5.1,0.1,12.7,2.5,16.2
			C268.8,975,269.5,974.1,270.1,973.2z"/>
		<path class="st2" d="M95.6,973.5c-1.1-1.8-2.7-3.4-4.5-4.5c-3.3-2-7-3.5-10.8-4.4c3.1,7.7,11.4,12.2,17.3,12
			C96.6,975.1,96,974.3,95.6,973.5z"/>
		<path class="st2" d="M272,973.5c-0.4,0.7-1,1.6-2,3.1c5.9,0.2,14.2-4.3,17.3-12c-3.8,0.9-7.5,2.4-10.8,4.4
			C274.7,970.2,273.2,971.7,272,973.5z"/>
		<path class="st2" d="M92.8,964.4c3.4-2.9,6.7-9.7,6.2-15h0c-6,3-8.7,9.1-6.4,14.6C92.7,964.1,92.7,964.2,92.8,964.4z"/>
		<path class="st2" d="M268.6,949.4c-0.4,5.3,2.9,12.1,6.2,15c0.1-0.1,0.1-0.3,0.2-0.4C277.3,958.5,274.6,952.4,268.6,949.4
			L268.6,949.4z"/>
		<path class="st2" d="M91.3,964.8c-0.3-0.9-0.7-2-1-2.9c-0.4-1.4-1.1-2.7-2.1-3.8c-1.5-1.8-3.5-3.6-7.6-5.7
			c-0.9-0.5-1.9-0.9-2.9-1.3c0.3,1.9,0.9,3.7,1.9,5.3C81.7,960.1,86.4,964.2,91.3,964.8z"/>
		<path class="st2" d="M286.9,952.4c-4.1,2.2-6.1,3.9-7.6,5.7c-0.9,1.1-1.6,2.4-2.1,3.8c-0.3,0.9-0.7,2-1,2.9
			c4.9-0.6,9.6-4.7,11.7-8.4c0.9-1.6,1.6-3.4,1.9-5.3C288.8,951.5,287.9,951.9,286.9,952.4z"/>
		<path class="st2" d="M88.2,952.2c-0.5-3.8-0.5-9-10.1-14.6C77.7,945,83.5,951,88.2,952.2z"/>
		<path class="st2" d="M279.4,952.2c4.6-1.2,10.5-7.2,10.1-14.6C279.9,943.2,279.9,948.4,279.4,952.2z"/>
		<path class="st2" d="M98.1,938.7c-6.2,2.2-9.8,7.6-8.9,13.2c0,0.1,0,0.2,0,0.2c3.9-2.1,8.6-8.1,9-13.4L98.1,938.7z"/>
		<path class="st2" d="M278.4,952.1c0,0,0-0.1,0-0.2c0.9-5.6-2.7-10.9-8.9-13.2l-0.2-0.1C269.8,944,274.5,950,278.4,952.1z"/>
		<path class="st2" d="M88.4,939.4c3.1-1,9.5-5.7,11-11.7C91.4,929.7,88.6,933.9,88.4,939.4z"/>
		<path class="st2" d="M279.1,939.4c-0.1-5.5-2.9-9.7-11-11.7C269.6,933.7,276,938.4,279.1,939.4z"/>
		<path class="st2" d="M87.9,939.4c0.4-5.4-0.8-9.8-7.2-14.8C78.9,931.6,84,937.9,87.9,939.4z"/>
		<path class="st2" d="M279.7,939.4c3.9-1.5,8.9-7.8,7.2-14.8C280.5,929.6,279.3,934,279.7,939.4z"/>
		<path class="st2" d="M93.8,914.4c-5.7,3.2-9.1,10.4-4.6,14.5C95.1,926.3,95.4,919.8,93.8,914.4z"/>
		<path class="st2" d="M278.3,928.9c4.6-4.1,1.1-11.3-4.6-14.5C272.2,919.8,272.5,926.3,278.3,928.9z"/>
		<path class="st2" d="M172.4,1016.4c1.1,0.5,1.9,0.9,4.6,2.2c-0.3-5.6-4.7-10.9-9.5-14.8c-1.6-1.3-3.3-2.5-5-3.5
			c-0.1,2.1,0.2,4.1,0.9,6.1C164.7,1010.9,168.1,1014.6,172.4,1016.4z"/>
		<path class="st2" d="M204.3,1006.4c0.6-2,0.9-4,0.9-6.1c-1.8,1-3.4,2.2-5,3.5c-4.8,3.9-9.2,9.3-9.5,14.8c2.7-1.3,3.5-1.7,4.6-2.2
			C199.5,1014.6,202.8,1010.9,204.3,1006.4z"/>
		<path class="st2" d="M170,1020c-4.7-2.3-10-2.7-15-1.2c-2.3,0.6-4.5,1.5-6.5,2.7c7.4,2.4,18.1,3.8,25.8,0.7
			C171.8,1020.9,171,1020.5,170,1020z"/>
		<path class="st2" d="M197.5,1020c-1,0.5-1.8,0.9-4.3,2.2c7.7,3.1,18.4,1.7,25.8-0.7c-2-1.2-4.2-2.1-6.5-2.7
			C207.5,1017.3,202.2,1017.7,197.5,1020z"/>
		<path class="st2" d="M186.5,1024.6c0.8-0.4,1.5-0.8,2.2-1.2c5.6-3,17.8-9,23.1-11.5c27.4-12.9,33.5-14.7,42.9-21.6
			c-12.6,8.7-43.9,19.4-67.2,31l-1.7,0.8l-2.1,1l-2.1-1l-1.7-0.8c-23.2-11.7-54.5-22.4-67.2-31c9.4,6.9,15.5,8.8,42.9,21.6
			c5.2,2.4,17.5,8.4,23.1,11.5c0.7,0.4,1.5,0.8,2.2,1.2c-11.9,6-13.8,7.8-17.9,14.8c3.7-2.7,12.4-8.5,20.6-13.2
			c8.2,4.7,16.9,10.5,20.6,13.2C200.3,1032.4,198.4,1030.6,186.5,1024.6z"/>
	</g>
</g>
</svg>
