<?xml version="1.0" encoding="utf-8"?>
<!-- Generator: Adobe Illustrator 25.2.3, SVG Export Plug-In . SVG Version: 6.00 Build 0)  -->
<svg version="1.1" id="Layer_1" xmlns="http://www.w3.org/2000/svg" xmlns:xlink="http://www.w3.org/1999/xlink" x="0px" y="0px"
	 viewBox="0 0 212.1 137.5" style="enable-background:new 0 0 212.1 137.5;" xml:space="preserve">
<style type="text/css">
	.st0{enable-background:new    ;}
	.st1{fill:#706C6C;}
	.st2{fill:#BBAC9A;}
</style>
<g transform="translate(-273.961 -1388)">
	<g class="st0">
		<path class="st1" d="M334.7,1388.8v0.3c-0.8,0-1.1,0.4-1.1,1.2v6c0,1,0.7,1.5,2.1,1.5c0.5,0,1-0.1,1.4-0.2s0.8-0.4,1.1-0.8
			s0.5-0.8,0.6-1.4l0.2,0l-0.2,2.6h-8l0-0.2c0.8,0,1.1-0.4,1.1-1.2v-6.4c0-0.8-0.4-1.2-1.1-1.2v-0.3H334.7z"/>
		<path class="st1" d="M339.9,1391.8l2.4-0.4v5c0,0.8,0.3,1.3,0.9,1.3v0.2h-3.3v-0.2c0.6,0,0.9-0.5,0.9-1.3v-3.6
			c0-0.7-0.3-1-0.9-0.9V1391.8z M342.4,1389.5c0,0.3-0.1,0.5-0.3,0.6c-0.2,0.2-0.4,0.3-0.6,0.3c-0.2,0-0.5-0.1-0.6-0.3
			c-0.2-0.2-0.3-0.4-0.3-0.6c0-0.3,0.1-0.5,0.3-0.6c0.2-0.2,0.4-0.3,0.6-0.3c0.2,0,0.5,0.1,0.6,0.3
			C342.3,1389,342.4,1389.2,342.4,1389.5z"/>
		<path class="st1" d="M349.4,1392c0.3,0.2,0.4,0.5,0.4,0.7c0,0.2-0.1,0.3-0.2,0.4c-0.1,0.1-0.3,0.1-0.4,0.1c-0.1,0-0.2-0.1-0.3-0.2
			c-0.1-0.1-0.2-0.3-0.2-0.5c-0.1-0.3-0.2-0.5-0.2-0.6c-0.2-0.1-0.4-0.2-0.7-0.2c-0.4,0-0.7,0.2-1,0.5c-0.3,0.3-0.5,0.7-0.6,1.2
			c-0.1,0.5-0.2,0.9-0.2,1.4c0,0.7,0.2,1.4,0.6,1.9c0.4,0.5,0.9,0.8,1.5,0.8c1,0,1.6-0.7,2-2.1h0.2c-0.1,0.8-0.5,1.5-1,2
			c-0.5,0.5-1.1,0.7-1.8,0.7c-0.9,0-1.6-0.3-2.2-0.9c-0.6-0.6-0.9-1.4-0.9-2.3c0-1,0.3-1.8,0.8-2.4c0.6-0.7,1.4-1,2.4-1
			C348.3,1391.4,348.9,1391.6,349.4,1392z"/>
		<path class="st1" d="M356.6,1392.3c0.5,0.6,0.8,1.3,0.9,2.3h-4.6c-0.1,0.8,0.1,1.5,0.5,2.1c0.4,0.6,0.9,0.9,1.6,0.8
			c0.5,0,1-0.2,1.4-0.6c0.4-0.4,0.6-0.9,0.8-1.5h0.2c-0.2,0.9-0.5,1.5-1.1,2c-0.6,0.5-1.2,0.7-2,0.7c-0.8,0-1.6-0.3-2.2-1
			c-0.6-0.6-0.9-1.4-0.9-2.3c0-1,0.3-1.8,0.9-2.4c0.6-0.7,1.4-1,2.3-1C355.4,1391.4,356.1,1391.7,356.6,1392.3z M353.7,1392
			c-0.2,0.2-0.3,0.4-0.5,0.7c-0.1,0.3-0.2,0.5-0.2,0.8c-0.1,0.3-0.1,0.5-0.1,0.8h2.9c0-0.3,0-0.7-0.1-1c-0.1-0.4-0.2-0.7-0.5-1
			c-0.2-0.3-0.5-0.5-0.9-0.5C354.2,1391.7,353.9,1391.8,353.7,1392z"/>
		<path class="st1" d="M364.4,1392c0.4,0.4,0.6,0.9,0.6,1.6v2.8c0,0.9,0.3,1.3,0.9,1.4v0.2h-3.3v-0.2c0.6,0,0.9-0.5,0.9-1.4v-3
			c0-0.4-0.1-0.7-0.3-1c-0.2-0.3-0.5-0.4-0.9-0.4c-0.3,0-0.6,0.1-0.9,0.4c-0.2,0.3-0.3,0.6-0.3,1v3c0,0.9,0.3,1.3,0.9,1.4v0.2h-3.3
			v-0.2c0.6,0,0.9-0.5,0.9-1.4v-3.5c0-0.7-0.3-1-0.9-0.9v-0.2l2.2-0.4c0.1,0.1,0.2,0.4,0.2,0.9c0.5-0.6,1.1-0.9,1.9-0.9
			C363.5,1391.4,364,1391.6,364.4,1392z"/>
		<path class="st1" d="M372,1392c0.3,0.2,0.4,0.5,0.4,0.7c0,0.2-0.1,0.3-0.2,0.4c-0.1,0.1-0.3,0.1-0.4,0.1c-0.1,0-0.2-0.1-0.3-0.2
			c-0.1-0.1-0.2-0.3-0.2-0.5c-0.1-0.3-0.2-0.5-0.2-0.6c-0.2-0.1-0.4-0.2-0.7-0.2c-0.4,0-0.7,0.2-1,0.5c-0.3,0.3-0.5,0.7-0.6,1.2
			c-0.1,0.5-0.2,0.9-0.2,1.4c0,0.7,0.2,1.4,0.6,1.9c0.4,0.5,0.9,0.8,1.5,0.8c1,0,1.6-0.7,2-2.1h0.2c-0.1,0.8-0.5,1.5-1,2
			c-0.5,0.5-1.1,0.7-1.8,0.7c-0.9,0-1.6-0.3-2.2-0.9c-0.6-0.6-0.9-1.4-0.9-2.3c0-1,0.3-1.8,0.8-2.4c0.6-0.7,1.4-1,2.4-1
			C370.9,1391.4,371.5,1391.6,372,1392z"/>
		<path class="st1" d="M373.8,1391.8l2.4-0.4v5c0,0.8,0.3,1.3,0.9,1.3v0.2h-3.3v-0.2c0.6,0,0.9-0.5,0.9-1.3v-3.6
			c0-0.7-0.3-1-0.9-0.9V1391.8z M376.3,1389.5c0,0.3-0.1,0.5-0.3,0.6c-0.2,0.2-0.4,0.3-0.6,0.3c-0.2,0-0.5-0.1-0.6-0.3
			c-0.2-0.2-0.3-0.4-0.3-0.6c0-0.3,0.1-0.5,0.3-0.6c0.2-0.2,0.4-0.3,0.6-0.3c0.2,0,0.5,0.1,0.6,0.3
			C376.2,1389,376.3,1389.2,376.3,1389.5z"/>
		<path class="st1" d="M383.3,1392.4c0.2,0.3,0.3,0.8,0.3,1.4v3.2c0,0.4,0.1,0.6,0.3,0.7c0.2,0.1,0.5,0,0.9-0.3l0.1,0.2
			c-0.5,0.3-0.9,0.5-1.4,0.5c-0.9,0-1.3-0.3-1.4-0.9c-0.2,0.3-0.4,0.5-0.8,0.7c-0.3,0.2-0.8,0.3-1.3,0.3c-0.5,0-1-0.2-1.4-0.5
			c-0.4-0.3-0.5-0.8-0.5-1.3c0-0.9,0.5-1.5,1.5-1.8c1.6-0.6,2.5-1.2,2.4-1.9c0-0.6-0.4-0.8-1.3-0.8c-0.3,0-0.6,0.1-0.7,0.2
			c0,0-0.1,0.2-0.3,0.6c-0.1,0.2-0.2,0.3-0.3,0.4c-0.1,0.1-0.2,0.2-0.3,0.2c-0.1,0-0.3,0-0.4-0.1c-0.1-0.1-0.2-0.2-0.2-0.4
			c0-0.2,0.1-0.5,0.4-0.7c0.5-0.4,1.1-0.6,1.9-0.6C382.1,1391.4,383,1391.8,383.3,1392.4z M380.6,1394.7c-0.3,0.1-0.5,0.4-0.7,0.6
			c-0.1,0.3-0.2,0.6-0.2,0.9c0,0.3,0.1,0.7,0.3,0.9c0.2,0.3,0.4,0.4,0.8,0.4c0.4,0,0.7-0.2,1-0.6c0.2-0.4,0.3-1,0.3-1.6v-1.6
			C381.8,1394,381.3,1394.3,380.6,1394.7z"/>
		<path class="st1" d="M387.6,1389.3v2.3h1.3v0.3h-1.3v4.4c0,0.5,0.1,0.8,0.3,1c0.2,0.2,0.4,0.2,0.8,0.1c0.1,0,0.3-0.1,0.6-0.2
			l0.1,0.3c-0.2,0.1-0.4,0.2-0.7,0.3c-1.7,0.6-2.6,0.1-2.6-1.4v-4.6h-0.9v-0.2c0.5-0.1,0.9-0.4,1.3-0.9c0.4-0.5,0.7-1,0.9-1.6H387.6
			z"/>
		<path class="st1" d="M391.6,1397.6c-0.4-0.4-0.6-0.9-0.6-1.6v-2.8c0-0.9-0.3-1.3-0.9-1.4v-0.2h2.4v4.6c0,0.4,0.1,0.7,0.3,1
			c0.2,0.3,0.5,0.4,0.9,0.4c0.3,0,0.6-0.1,0.9-0.4c0.2-0.3,0.3-0.6,0.3-1l0-3c0-0.9-0.3-1.3-0.9-1.4v-0.2l2.4,0v5
			c0,0.8,0.3,1.1,0.9,1v0.2l-2.2,0.4c-0.1-0.1-0.2-0.4-0.2-0.9c-0.5,0.6-1.1,0.9-1.9,0.9C392.5,1398.2,392,1398,391.6,1397.6z"/>
		<path class="st1" d="M400.8,1392.4c0.4-0.6,0.9-0.9,1.6-0.9c0.4,0,0.8,0.1,1.2,0.3c0.3,0.2,0.4,0.4,0.4,0.7c0,0.1,0,0.3-0.1,0.4
			s-0.2,0.2-0.4,0.2c-0.2,0-0.3,0-0.4-0.1s-0.2-0.2-0.3-0.4c-0.1-0.2-0.2-0.4-0.3-0.5c-0.1-0.1-0.3-0.2-0.5-0.1
			c-0.3,0-0.5,0.2-0.8,0.6c-0.2,0.4-0.4,0.9-0.4,1.4v2.6c0,0.9,0.3,1.4,0.9,1.4v0.2h-3.2v-0.2c0.6,0,0.9-0.5,0.9-1.4v-3.4
			c0-0.7-0.3-1-0.9-1v-0.2l2.2-0.4C400.7,1391.6,400.8,1391.9,400.8,1392.4z"/>
		<path class="st1" d="M409.8,1392.4c0.2,0.3,0.3,0.8,0.3,1.4v3.2c0,0.4,0.1,0.6,0.3,0.7c0.2,0.1,0.5,0,0.9-0.3l0.1,0.2
			c-0.5,0.3-0.9,0.5-1.4,0.5c-0.9,0-1.3-0.3-1.4-0.9c-0.2,0.3-0.4,0.5-0.8,0.7c-0.3,0.2-0.8,0.3-1.3,0.3c-0.5,0-1-0.2-1.4-0.5
			c-0.4-0.3-0.5-0.8-0.5-1.3c0-0.9,0.5-1.5,1.5-1.8c1.6-0.6,2.5-1.2,2.4-1.9c0-0.6-0.4-0.8-1.3-0.8c-0.3,0-0.6,0.1-0.7,0.2
			c0,0-0.1,0.2-0.3,0.6c-0.1,0.2-0.2,0.3-0.3,0.4c-0.1,0.1-0.2,0.2-0.3,0.2c-0.1,0-0.3,0-0.4-0.1c-0.1-0.1-0.2-0.2-0.2-0.4
			c0-0.2,0.1-0.5,0.4-0.7c0.5-0.4,1.1-0.6,1.9-0.6C408.6,1391.4,409.4,1391.8,409.8,1392.4z M407,1394.7c-0.3,0.1-0.5,0.4-0.7,0.6
			c-0.1,0.3-0.2,0.6-0.2,0.9c0,0.3,0.1,0.7,0.3,0.9c0.2,0.3,0.4,0.4,0.8,0.4c0.4,0,0.7-0.2,1-0.6c0.2-0.4,0.3-1,0.3-1.6v-1.6
			C408.3,1394,407.8,1394.3,407,1394.7z"/>
		<path class="st1" d="M422.9,1392.3c0.5,0.6,0.8,1.3,0.9,2.3h-4.6c-0.1,0.8,0.1,1.5,0.5,2.1c0.4,0.6,0.9,0.9,1.6,0.8
			c0.5,0,1-0.2,1.4-0.6s0.6-0.9,0.8-1.5h0.2c-0.2,0.9-0.5,1.5-1.1,2c-0.6,0.5-1.2,0.7-2,0.7c-0.8,0-1.6-0.3-2.2-1
			c-0.6-0.6-0.9-1.4-0.9-2.3c0-1,0.3-1.8,0.9-2.4c0.6-0.7,1.4-1,2.3-1C421.6,1391.4,422.4,1391.7,422.9,1392.3z M420,1392
			c-0.2,0.2-0.3,0.4-0.5,0.7c-0.1,0.3-0.2,0.5-0.2,0.8c-0.1,0.3-0.1,0.5-0.1,0.8h2.9c0-0.3,0-0.7-0.1-1c-0.1-0.4-0.2-0.7-0.5-1
			c-0.2-0.3-0.5-0.5-0.9-0.5C420.4,1391.7,420.2,1391.8,420,1392z"/>
		<path class="st1" d="M430.6,1392c0.4,0.4,0.6,0.9,0.6,1.6v2.8c0,0.9,0.3,1.3,0.9,1.4v0.2h-3.3v-0.2c0.6,0,0.9-0.5,0.9-1.4v-3
			c0-0.4-0.1-0.7-0.3-1c-0.2-0.3-0.5-0.4-0.9-0.4c-0.3,0-0.6,0.1-0.9,0.4c-0.2,0.3-0.3,0.6-0.3,1v3c0,0.9,0.3,1.3,0.9,1.4v0.2h-3.3
			v-0.2c0.6,0,0.9-0.5,0.9-1.4v-3.5c0-0.7-0.3-1-0.9-0.9v-0.2l2.2-0.4c0.1,0.1,0.2,0.4,0.2,0.9c0.5-0.6,1.1-0.9,1.9-0.9
			C429.7,1391.4,430.3,1391.6,430.6,1392z"/>
	</g>
	<g class="st0">
		<path class="st1" d="M330.9,1409c0.6,0.2,0.9,0.1,0.9-0.3h0.2l0.1,2.7l-0.2,0c-0.4-1.7-1.4-2.5-3.1-2.5c-0.9,0-1.7,0.5-2.3,1.3
			c-0.6,0.9-0.9,1.9-0.9,3.1c0,0.8,0.1,1.6,0.3,2.2c0.2,0.6,0.5,1.1,1,1.5c0.4,0.4,1,0.6,1.7,0.6c0.6,0,1.1-0.1,1.5-0.5
			c0.4-0.3,0.5-0.7,0.5-1.3v-0.3c0-0.8-0.4-1.3-1.3-1.5v-0.3h4.2v0.3c-0.8,0.2-1.2,0.7-1.2,1.5v1.1c-0.4,0.4-1,0.7-1.5,0.9
			c-0.6,0.3-1.3,0.4-2.1,0.4c-1.4,0-2.6-0.4-3.5-1.3c-0.9-0.9-1.4-2-1.4-3.4c0-0.9,0.2-1.7,0.6-2.4c0.4-0.7,1-1.3,1.8-1.8
			c0.8-0.4,1.7-0.7,2.7-0.7C329.5,1408.6,330.1,1408.8,330.9,1409z"/>
		<path class="st1" d="M339.8,1412.4c0.2,0.3,0.3,0.8,0.3,1.4v3.2c0,0.4,0.1,0.6,0.3,0.7c0.2,0.1,0.5,0,0.9-0.3l0.1,0.2
			c-0.5,0.3-0.9,0.5-1.4,0.5c-0.9,0-1.3-0.3-1.4-0.9c-0.2,0.3-0.4,0.5-0.8,0.7c-0.3,0.2-0.8,0.3-1.3,0.3c-0.5,0-1-0.2-1.4-0.5
			c-0.4-0.3-0.5-0.8-0.5-1.3c0-0.9,0.5-1.5,1.5-1.8c1.6-0.6,2.5-1.2,2.4-1.9c0-0.6-0.4-0.8-1.3-0.8c-0.3,0-0.6,0.1-0.7,0.2
			c0,0-0.1,0.2-0.3,0.6c-0.1,0.2-0.2,0.3-0.3,0.4c-0.1,0.1-0.2,0.2-0.3,0.2c-0.1,0-0.3,0-0.4-0.1c-0.1-0.1-0.2-0.2-0.2-0.4
			c0-0.2,0.1-0.5,0.4-0.7c0.5-0.4,1.1-0.6,1.9-0.6C338.6,1411.4,339.5,1411.8,339.8,1412.4z M337.1,1414.7c-0.3,0.1-0.5,0.4-0.7,0.6
			c-0.1,0.3-0.2,0.6-0.2,0.9c0,0.3,0.1,0.7,0.3,0.9c0.2,0.3,0.4,0.4,0.8,0.4c0.4,0,0.7-0.2,1-0.6c0.2-0.4,0.3-1,0.3-1.6v-1.6
			C338.3,1414,337.8,1414.3,337.1,1414.7z"/>
		<path class="st1" d="M345.3,1411.6c0.3,0.1,0.5,0.2,0.5,0.1c0.1,0,0.1-0.1,0.1-0.2h0.2l0.2,1.9h-0.2c-0.1-0.5-0.3-0.9-0.6-1.3
			c-0.1-0.1-0.3-0.2-0.6-0.3c-0.2-0.1-0.4-0.1-0.6-0.1c-0.3,0-0.6,0.1-0.8,0.3c-0.2,0.1-0.3,0.3-0.3,0.6c0,0.2,0.1,0.4,0.2,0.6
			c0.1,0.1,0.5,0.3,1.1,0.6c0.6,0.2,1,0.4,1.2,0.5c0.7,0.4,1,1,0.9,1.8c0,0.6-0.3,1.1-0.7,1.5c-0.4,0.4-1,0.6-1.8,0.5
			c-0.3,0-0.5-0.1-0.8-0.2c-0.5-0.2-0.8-0.3-0.9-0.2c-0.1,0-0.2,0.1-0.2,0.3h-0.2l0-2h0.2c0,0.2,0.1,0.4,0.1,0.6
			c0.1,0.2,0.2,0.3,0.4,0.5c0.4,0.4,0.9,0.6,1.4,0.7c0.5,0.1,0.9,0,1.2-0.2c0.3-0.2,0.4-0.4,0.4-0.7c0-0.3,0-0.5-0.2-0.7
			c-0.1-0.1-0.3-0.3-0.6-0.4c-0.4-0.2-0.7-0.3-1-0.4c-0.4-0.1-0.6-0.2-0.8-0.3c-0.8-0.4-1.1-1-1.1-1.8c0-0.5,0.2-1,0.5-1.3
			c0.4-0.4,0.9-0.5,1.5-0.5C344.6,1411.4,345,1411.5,345.3,1411.6z"/>
		<path class="st1" d="M350.3,1409.3v2.3h1.3v0.3h-1.3v4.4c0,0.5,0.1,0.8,0.3,1c0.2,0.2,0.4,0.2,0.8,0.1c0.1,0,0.3-0.1,0.6-0.2
			l0.1,0.3c-0.2,0.1-0.4,0.2-0.7,0.3c-1.7,0.6-2.6,0.1-2.6-1.4v-4.6h-0.9v-0.2c0.5-0.1,0.9-0.4,1.3-0.9c0.4-0.5,0.7-1,0.9-1.6H350.3
			z"/>
		<path class="st1" d="M355.4,1412.4c0.4-0.6,0.9-0.9,1.6-0.9c0.4,0,0.8,0.1,1.2,0.3c0.3,0.2,0.4,0.4,0.4,0.7c0,0.1,0,0.3-0.1,0.4
			s-0.2,0.2-0.4,0.2c-0.2,0-0.3,0-0.4-0.1s-0.2-0.2-0.3-0.4c-0.1-0.2-0.2-0.4-0.3-0.5c-0.1-0.1-0.3-0.2-0.5-0.1
			c-0.3,0-0.5,0.2-0.8,0.6c-0.2,0.4-0.4,0.9-0.4,1.4v2.6c0,0.9,0.3,1.4,0.9,1.4v0.2H353v-0.2c0.6,0,0.9-0.5,0.9-1.4v-3.4
			c0-0.7-0.3-1-0.9-1v-0.2l2.2-0.4C355.4,1411.6,355.4,1411.9,355.4,1412.4z"/>
		<path class="st1" d="M364.7,1412.4c0.6,0.6,0.9,1.4,0.9,2.4c0,1-0.3,1.8-1,2.4c-0.6,0.7-1.4,1-2.3,1c-0.9,0-1.6-0.3-2.2-1
			c-0.6-0.6-0.9-1.4-0.9-2.3c0-1,0.3-1.8,0.9-2.4c0.6-0.7,1.4-1,2.3-1C363.4,1411.4,364.2,1411.8,364.7,1412.4z M361.4,1412.7
			c-0.3,0.6-0.4,1.3-0.4,2.2c0,0.8,0.1,1.5,0.4,2.1c0.3,0.6,0.6,0.9,1.1,0.9c0.4,0,0.8-0.3,1.1-0.9c0.3-0.6,0.5-1.3,0.5-2.2
			c0-0.9-0.1-1.6-0.4-2.2c-0.3-0.5-0.6-0.8-1.1-0.8C362,1411.8,361.7,1412.1,361.4,1412.7z"/>
		<path class="st1" d="M372.5,1412c0.4,0.4,0.6,0.9,0.6,1.6v2.8c0,0.9,0.3,1.3,0.9,1.4v0.2h-3.3v-0.2c0.6,0,0.9-0.5,0.9-1.4v-3
			c0-0.4-0.1-0.7-0.3-1c-0.2-0.3-0.5-0.4-0.9-0.4c-0.3,0-0.6,0.1-0.9,0.4c-0.2,0.3-0.3,0.6-0.3,1v3c0,0.9,0.3,1.3,0.9,1.4v0.2h-3.3
			v-0.2c0.6,0,0.9-0.5,0.9-1.4v-3.5c0-0.7-0.3-1-0.9-0.9v-0.2l2.2-0.4c0.1,0.1,0.2,0.4,0.2,0.9c0.5-0.6,1.1-0.9,1.9-0.9
			C371.6,1411.4,372.1,1411.6,372.5,1412z"/>
		<path class="st1" d="M380.4,1412.4c0.6,0.6,0.9,1.4,0.9,2.4c0,1-0.3,1.8-1,2.4c-0.6,0.7-1.4,1-2.3,1c-0.9,0-1.6-0.3-2.2-1
			c-0.6-0.6-0.9-1.4-0.9-2.3c0-1,0.3-1.8,0.9-2.4c0.6-0.7,1.4-1,2.3-1C379.1,1411.4,379.9,1411.8,380.4,1412.4z M377.1,1412.7
			c-0.3,0.6-0.4,1.3-0.4,2.2c0,0.8,0.1,1.5,0.4,2.1c0.3,0.6,0.6,0.9,1.1,0.9c0.4,0,0.8-0.3,1.1-0.9c0.3-0.6,0.5-1.3,0.5-2.2
			c0-0.9-0.1-1.6-0.4-2.2c-0.3-0.5-0.6-0.8-1.1-0.8C377.8,1411.8,377.4,1412.1,377.1,1412.7z"/>
		<path class="st1" d="M388.1,1412c0.2,0.2,0.3,0.3,0.4,0.5c0.5-0.7,1.1-1.1,1.9-1.1c0.6,0,1.1,0.2,1.5,0.6c0.4,0.4,0.5,0.9,0.5,1.6
			v2.8c0,0.9,0.3,1.3,0.9,1.4v0.2h-3.3v-0.2c0.6,0,0.9-0.5,0.9-1.4v-3c0-0.4-0.1-0.7-0.3-1c-0.2-0.3-0.5-0.4-0.8-0.4
			c-0.3,0-0.6,0.1-0.8,0.4c-0.2,0.3-0.3,0.6-0.3,1v3c0,0.9,0.3,1.3,0.9,1.4v0.2h-3.3v-0.2c0.6,0,0.9-0.5,0.9-1.4v-3
			c0-0.4-0.1-0.7-0.3-1c-0.2-0.3-0.5-0.4-0.8-0.4c-0.3,0-0.6,0.1-0.8,0.4c-0.2,0.3-0.4,0.6-0.3,1v3c0,0.9,0.3,1.3,0.9,1.4v0.2h-3.3
			v-0.2c0.6,0,0.9-0.5,0.9-1.4v-3.5c0-0.7-0.3-1-0.9-0.9v-0.2l2.2-0.4c0.1,0.1,0.2,0.4,0.2,0.9c0.4-0.6,1-0.9,1.8-0.9
			C387.2,1411.5,387.7,1411.6,388.1,1412z"/>
		<path class="st1" d="M394.3,1411.8l2.4-0.4v5c0,0.8,0.3,1.3,0.9,1.3v0.2h-3.3v-0.2c0.6,0,0.9-0.5,0.9-1.3v-3.6
			c0-0.7-0.3-1-0.9-0.9V1411.8z M395.9,1408.5l-1.2,1.9l0.4,0.2l2.2-2.2H395.9z"/>
		<path class="st1" d="M403.8,1412.4c0.2,0.3,0.3,0.8,0.3,1.4v3.2c0,0.4,0.1,0.6,0.3,0.7c0.2,0.1,0.5,0,0.9-0.3l0.1,0.2
			c-0.5,0.3-0.9,0.5-1.4,0.5c-0.9,0-1.3-0.3-1.4-0.9c-0.2,0.3-0.4,0.5-0.8,0.7c-0.3,0.2-0.8,0.3-1.3,0.3c-0.5,0-1-0.2-1.4-0.5
			c-0.4-0.3-0.5-0.8-0.5-1.3c0-0.9,0.5-1.5,1.5-1.8c1.6-0.6,2.5-1.2,2.4-1.9c0-0.6-0.4-0.8-1.3-0.8c-0.3,0-0.6,0.1-0.7,0.2
			c0,0-0.1,0.2-0.3,0.6c-0.1,0.2-0.2,0.3-0.3,0.4c-0.1,0.1-0.2,0.2-0.3,0.2c-0.1,0-0.3,0-0.4-0.1c-0.1-0.1-0.2-0.2-0.2-0.4
			c0-0.2,0.1-0.5,0.4-0.7c0.5-0.4,1.1-0.6,1.9-0.6C402.6,1411.4,403.5,1411.8,403.8,1412.4z M401.1,1414.7c-0.3,0.1-0.5,0.4-0.7,0.6
			c-0.1,0.3-0.2,0.6-0.2,0.9c0,0.3,0.1,0.7,0.3,0.9c0.2,0.3,0.4,0.4,0.8,0.4c0.4,0,0.7-0.2,1-0.6c0.2-0.4,0.3-1,0.3-1.6v-1.6
			C402.3,1414,401.8,1414.3,401.1,1414.7z"/>
		<path class="st1" d="M407.1,1408.6c0.2,0,0.4,0,0.6,0.1c0.3,0.2,0.5,0.5,0.6,0.9c0.1,0.4,0.1,0.8,0,1.3c-0.1,0.5-0.4,0.9-0.7,1.3
			c-0.4,0.3-0.8,0.5-1.3,0.6v-0.4c0.3-0.1,0.6-0.3,0.9-0.6c0.3-0.3,0.4-0.6,0.5-0.9c0-0.1,0.1-0.3,0.1-0.4c0-0.2-0.1-0.2-0.2-0.1
			c-0.1,0.1-0.3,0.1-0.5,0.1c-0.2,0-0.5-0.1-0.6-0.3c-0.2-0.2-0.3-0.4-0.3-0.7c0-0.3,0.1-0.5,0.3-0.7
			C406.6,1408.7,406.9,1408.6,407.1,1408.6z M409.8,1408.6c0.2,0,0.4,0,0.6,0.1c0.3,0.2,0.5,0.5,0.6,0.9c0.1,0.4,0.1,0.8,0,1.3
			c-0.1,0.5-0.4,0.9-0.7,1.3c-0.4,0.3-0.8,0.5-1.3,0.6v-0.4c0.3-0.1,0.6-0.3,0.9-0.6c0.3-0.3,0.4-0.6,0.5-0.9c0-0.1,0.1-0.3,0.1-0.4
			c0-0.2-0.1-0.2-0.2-0.1c-0.1,0.1-0.3,0.1-0.5,0.1c-0.2,0-0.5-0.1-0.6-0.3c-0.2-0.2-0.3-0.4-0.3-0.7c0-0.3,0.1-0.5,0.3-0.7
			C409.3,1408.7,409.5,1408.6,409.8,1408.6z"/>
		<path class="st1" d="M420,1412.2c0.6-0.5,1.3-0.7,1.9-0.7c0.8,0,1.5,0.3,2,0.9c0.5,0.6,0.8,1.4,0.8,2.4c0,1-0.3,1.8-0.8,2.5
			c-0.5,0.6-1.2,0.9-2,0.9c-0.7,0-1.3-0.2-1.9-0.6v2.4c0,0.9,0.3,1.3,0.9,1.4v0.2h-3.3v-0.2c0.6,0,0.9-0.5,0.9-1.4v-6.9
			c0-0.7-0.3-1-0.9-0.9v-0.2l2.2-0.4C419.9,1411.6,419.9,1411.8,420,1412.2z M422.7,1416.9c0.3-0.5,0.4-1.2,0.4-2
			c0-0.9-0.2-1.6-0.5-2.1c-0.3-0.6-0.8-0.8-1.3-0.8c-0.3,0-0.6,0.2-0.9,0.5c-0.3,0.3-0.4,0.7-0.4,1.2v3.4c0.1,0.2,0.3,0.3,0.6,0.5
			c0.3,0.2,0.5,0.2,0.8,0.2C421.9,1417.7,422.3,1417.4,422.7,1416.9z"/>
		<path class="st1" d="M431.4,1412.4c0.6,0.6,0.9,1.4,0.9,2.4c0,1-0.3,1.8-1,2.4c-0.6,0.7-1.4,1-2.3,1c-0.9,0-1.6-0.3-2.2-1
			c-0.6-0.6-0.9-1.4-0.9-2.3c0-1,0.3-1.8,0.9-2.4c0.6-0.7,1.4-1,2.3-1C430.1,1411.4,430.8,1411.8,431.4,1412.4z M428,1412.7
			c-0.3,0.6-0.4,1.3-0.4,2.2c0,0.8,0.1,1.5,0.4,2.1c0.3,0.6,0.6,0.9,1.1,0.9c0.4,0,0.8-0.3,1.1-0.9c0.3-0.6,0.5-1.3,0.5-2.2
			c0-0.9-0.1-1.6-0.4-2.2c-0.3-0.5-0.6-0.8-1.1-0.8C428.7,1411.8,428.3,1412.1,428,1412.7z"/>
		<path class="st1" d="M435.7,1412.4c0.4-0.6,0.9-0.9,1.6-0.9c0.4,0,0.8,0.1,1.2,0.3c0.3,0.2,0.4,0.4,0.4,0.7c0,0.1,0,0.3-0.1,0.4
			s-0.2,0.2-0.4,0.2c-0.2,0-0.3,0-0.4-0.1s-0.2-0.2-0.3-0.4c-0.1-0.2-0.2-0.4-0.3-0.5c-0.1-0.1-0.3-0.2-0.5-0.1
			c-0.3,0-0.5,0.2-0.8,0.6c-0.2,0.4-0.4,0.9-0.4,1.4v2.6c0,0.9,0.3,1.4,0.9,1.4v0.2h-3.2v-0.2c0.6,0,0.9-0.5,0.9-1.4v-3.4
			c0-0.7-0.3-1-0.9-1v-0.2l2.2-0.4C435.6,1411.6,435.7,1411.9,435.7,1412.4z"/>
	</g>
	<g class="st0">
		<path class="st1" d="M320.8,1428.8l3.3,8c0.3,0.6,0.7,1,1.3,1v0.3h-3.8v-0.3c0.7,0,0.9-0.3,0.7-1l-0.7-1.8h-3.3l-0.7,1.8
			c-0.3,0.7,0,1,0.7,1v0.3h-2.3v-0.3c0.6,0,1.1-0.3,1.4-1l3-8H320.8z M318.4,1434.7h3.1c-0.1-0.3-0.6-1.6-1.6-3.9
			C319,1433.2,318.5,1434.5,318.4,1434.7z"/>
		<path class="st1" d="M332.3,1432c0.4,0.4,0.6,0.9,0.6,1.6v2.8c0,0.9,0.3,1.3,0.9,1.4v0.2h-3.3v-0.2c0.6,0,0.9-0.5,0.9-1.4v-3
			c0-0.4-0.1-0.7-0.3-1c-0.2-0.3-0.5-0.4-0.9-0.4c-0.3,0-0.6,0.1-0.9,0.4c-0.2,0.3-0.3,0.6-0.3,1v3c0,0.9,0.3,1.3,0.9,1.4v0.2h-3.3
			v-0.2c0.6,0,0.9-0.5,0.9-1.4v-3.5c0-0.7-0.3-1-0.9-0.9v-0.2l2.2-0.4c0.1,0.1,0.2,0.4,0.2,0.9c0.5-0.6,1.1-0.9,1.9-0.9
			C331.4,1431.4,331.9,1431.6,332.3,1432z"/>
		<path class="st1" d="M339.9,1432.4c0.2,0.3,0.3,0.8,0.3,1.4v3.2c0,0.4,0.1,0.6,0.3,0.7c0.2,0.1,0.5,0,0.9-0.3l0.1,0.2
			c-0.5,0.3-0.9,0.5-1.4,0.5c-0.9,0-1.3-0.3-1.4-0.9c-0.2,0.3-0.4,0.5-0.8,0.7c-0.3,0.2-0.8,0.3-1.3,0.3c-0.5,0-1-0.2-1.4-0.5
			c-0.4-0.3-0.5-0.8-0.5-1.3c0-0.9,0.5-1.5,1.5-1.8c1.6-0.6,2.5-1.2,2.4-1.9c0-0.6-0.4-0.8-1.3-0.8c-0.3,0-0.6,0.1-0.7,0.2
			c0,0-0.1,0.2-0.3,0.6c-0.1,0.2-0.2,0.3-0.3,0.4c-0.1,0.1-0.2,0.2-0.3,0.2c-0.1,0-0.3,0-0.4-0.1c-0.1-0.1-0.2-0.2-0.2-0.4
			c0-0.2,0.1-0.5,0.4-0.7c0.5-0.4,1.1-0.6,1.9-0.6C338.7,1431.4,339.6,1431.8,339.9,1432.4z M337.2,1434.7c-0.3,0.1-0.5,0.4-0.7,0.6
			c-0.1,0.3-0.2,0.6-0.2,0.9c0,0.3,0.1,0.7,0.3,0.9c0.2,0.3,0.4,0.4,0.8,0.4c0.4,0,0.7-0.2,1-0.6c0.2-0.4,0.3-1,0.3-1.6v-1.6
			C338.4,1434,337.9,1434.3,337.2,1434.7z M338.1,1428.7l-1.2,1.9l0.4,0.2l2.2-2.2H338.1z"/>
		<path class="st1" d="M348.4,1432c0.4,0.4,0.5,0.9,0.6,1.6v2.8c0,0.9,0.3,1.3,0.9,1.3v0.2h-3.3v-0.2c0.6,0,0.9-0.5,0.9-1.3v-3
			c0-0.4-0.1-0.7-0.3-1c-0.2-0.3-0.5-0.4-0.9-0.4c-0.3,0-0.6,0.1-0.9,0.4c-0.2,0.3-0.3,0.6-0.3,1v3c0,0.9,0.3,1.3,0.9,1.3v0.2h-3.3
			v-0.2c0.6,0,0.9-0.5,0.9-1.3v-6.5c0-0.7-0.3-1-0.9-0.9v-0.2l2.5-0.4v3.9c0.5-0.6,1.1-0.9,1.9-0.9
			C347.5,1431.5,348,1431.6,348.4,1432z"/>
		<path class="st1" d="M352.2,1437.6c-0.4-0.4-0.6-0.9-0.6-1.6v-2.8c0-0.9-0.3-1.3-0.9-1.4v-0.2h2.4v4.6c0,0.4,0.1,0.7,0.3,1
			c0.2,0.3,0.5,0.4,0.9,0.4c0.3,0,0.6-0.1,0.9-0.4c0.2-0.3,0.3-0.6,0.3-1l0-3c0-0.9-0.3-1.3-0.9-1.4v-0.2l2.4,0v5
			c0,0.8,0.3,1.1,0.9,1v0.2l-2.2,0.4c-0.1-0.1-0.2-0.4-0.2-0.9c-0.5,0.6-1.1,0.9-1.9,0.9C353.1,1438.2,352.6,1438,352.2,1437.6z"/>
		<path class="st1" d="M364.1,1432.4c0.2,0.3,0.3,0.8,0.3,1.4v3.2c0,0.4,0.1,0.6,0.3,0.7c0.2,0.1,0.5,0,0.9-0.3l0.1,0.2
			c-0.5,0.3-0.9,0.5-1.4,0.5c-0.9,0-1.3-0.3-1.4-0.9c-0.2,0.3-0.4,0.5-0.8,0.7c-0.3,0.2-0.8,0.3-1.3,0.3c-0.5,0-1-0.2-1.4-0.5
			c-0.4-0.3-0.5-0.8-0.5-1.3c0-0.9,0.5-1.5,1.5-1.8c1.6-0.6,2.5-1.2,2.4-1.9c0-0.6-0.4-0.8-1.3-0.8c-0.3,0-0.6,0.1-0.7,0.2
			c0,0-0.1,0.2-0.3,0.6c-0.1,0.2-0.2,0.3-0.3,0.4c-0.1,0.1-0.2,0.2-0.3,0.2c-0.1,0-0.3,0-0.4-0.1c-0.1-0.1-0.2-0.2-0.2-0.4
			c0-0.2,0.1-0.5,0.4-0.7c0.5-0.4,1.1-0.6,1.9-0.6C362.9,1431.4,363.8,1431.8,364.1,1432.4z M361.4,1434.7c-0.3,0.1-0.5,0.4-0.7,0.6
			c-0.1,0.3-0.2,0.6-0.2,0.9c0,0.3,0.1,0.7,0.3,0.9c0.2,0.3,0.4,0.4,0.8,0.4c0.4,0,0.7-0.2,1-0.6c0.2-0.4,0.3-1,0.3-1.6v-1.6
			C362.6,1434,362.1,1434.3,361.4,1434.7z"/>
		<path class="st1" d="M371.7,1432c0.3,0.2,0.4,0.5,0.4,0.7c0,0.2-0.1,0.3-0.2,0.4c-0.1,0.1-0.3,0.1-0.4,0.1c-0.1,0-0.2-0.1-0.3-0.2
			c-0.1-0.1-0.2-0.3-0.2-0.5c-0.1-0.3-0.2-0.5-0.2-0.6c-0.2-0.1-0.4-0.2-0.7-0.2c-0.4,0-0.7,0.2-1,0.5c-0.3,0.3-0.5,0.7-0.6,1.2
			c-0.1,0.5-0.2,0.9-0.2,1.4c0,0.7,0.2,1.4,0.6,1.9c0.4,0.5,0.9,0.8,1.5,0.8c1,0,1.6-0.7,2-2.1h0.2c-0.1,0.8-0.5,1.5-1,2
			c-0.5,0.5-1.1,0.7-1.8,0.7c-0.9,0-1.6-0.3-2.2-0.9c-0.6-0.6-0.9-1.4-0.9-2.3c0-1,0.3-1.8,0.8-2.4c0.6-0.7,1.4-1,2.4-1
			C370.5,1431.4,371.2,1431.6,371.7,1432z"/>
		<path class="st1" d="M387.3,1429.9c0.8,0.9,1.3,2,1.3,3.4c0,0.9-0.2,1.8-0.7,2.5c-0.5,0.8-1.1,1.3-1.9,1.8l0.4,0.3
			c0.5,0.4,1,0.3,1.5-0.2l0.1,0.1c-0.1,0.3-0.3,0.5-0.5,0.7c-0.3,0.3-0.6,0.5-0.9,0.6c-0.3,0.1-0.6,0.1-0.9,0.1
			c-0.2,0-0.5-0.1-0.7-0.3c-0.4-0.2-0.7-0.5-0.9-0.7c-0.2,0-0.4,0-0.5,0c-0.9,0-1.7-0.2-2.4-0.6c-0.7-0.4-1.3-1-1.7-1.7
			c-0.4-0.7-0.6-1.5-0.6-2.4c0-0.9,0.2-1.7,0.6-2.4c0.4-0.7,1-1.3,1.7-1.8c0.8-0.4,1.6-0.7,2.6-0.7
			C385.3,1428.6,386.4,1429,387.3,1429.9z M382.1,1429.6c-0.5,0.4-0.8,1-1.1,1.6c-0.3,0.7-0.4,1.4-0.4,2.3c0,0.8,0.1,1.5,0.4,2.2
			c0.2,0.7,0.6,1.2,1.1,1.6c0.4-0.5,0.9-0.7,1.5-0.7c0.6,0,1.2,0.2,1.7,0.6c0.4-0.4,0.7-0.9,1-1.6c0.3-0.7,0.4-1.4,0.4-2.2
			c0-1.3-0.3-2.4-0.8-3.2c-0.5-0.8-1.2-1.2-2.2-1.2C383.1,1428.9,382.6,1429.1,382.1,1429.6z M382.4,1437.4c0.4,0.3,0.8,0.4,1.3,0.4
			h0.1c-0.3-0.4-0.7-0.6-1-0.6C382.6,1437.2,382.5,1437.3,382.4,1437.4z"/>
		<path class="st1" d="M390.9,1437.6c-0.4-0.4-0.6-0.9-0.6-1.6v-2.8c0-0.9-0.3-1.3-0.9-1.4v-0.2h2.4v4.6c0,0.4,0.1,0.7,0.3,1
			c0.2,0.3,0.5,0.4,0.9,0.4c0.3,0,0.6-0.1,0.9-0.4c0.2-0.3,0.3-0.6,0.3-1l0-3c0-0.9-0.3-1.3-0.9-1.4v-0.2l2.4,0v5
			c0,0.8,0.3,1.1,0.9,1v0.2l-2.2,0.4c-0.1-0.1-0.2-0.4-0.2-0.9c-0.5,0.6-1.1,0.9-1.9,0.9C391.8,1438.2,391.3,1438,390.9,1437.6z"/>
		<path class="st1" d="M403,1432.3c0.5,0.6,0.8,1.3,0.9,2.3h-4.6c-0.1,0.8,0.1,1.5,0.5,2.1c0.4,0.6,0.9,0.9,1.6,0.8
			c0.5,0,1-0.2,1.4-0.6s0.6-0.9,0.8-1.5h0.2c-0.2,0.9-0.5,1.5-1.1,2c-0.6,0.5-1.2,0.7-2,0.7c-0.8,0-1.6-0.3-2.2-1
			c-0.6-0.6-0.9-1.4-0.9-2.3c0-1,0.3-1.8,0.9-2.4c0.6-0.7,1.4-1,2.3-1C401.7,1431.4,402.4,1431.7,403,1432.3z M400.1,1432
			c-0.2,0.2-0.3,0.4-0.5,0.7c-0.1,0.3-0.2,0.5-0.2,0.8c-0.1,0.3-0.1,0.5-0.1,0.8h2.9c0-0.3,0-0.7-0.1-1c-0.1-0.4-0.2-0.7-0.5-1
			c-0.2-0.3-0.5-0.5-0.9-0.5C400.5,1431.7,400.3,1431.8,400.1,1432z"/>
		<path class="st1" d="M407.2,1432.4c0.4-0.6,0.9-0.9,1.6-0.9c0.4,0,0.8,0.1,1.2,0.3c0.3,0.2,0.4,0.4,0.4,0.7c0,0.1,0,0.3-0.1,0.4
			s-0.2,0.2-0.4,0.2c-0.2,0-0.3,0-0.4-0.1s-0.2-0.2-0.3-0.4c-0.1-0.2-0.2-0.4-0.3-0.5c-0.1-0.1-0.3-0.2-0.5-0.1
			c-0.3,0-0.5,0.2-0.8,0.6c-0.2,0.4-0.4,0.9-0.4,1.4v2.6c0,0.9,0.3,1.4,0.9,1.4v0.2h-3.2v-0.2c0.6,0,0.9-0.5,0.9-1.4v-3.4
			c0-0.7-0.3-1-0.9-1v-0.2l2.2-0.4C407.2,1431.6,407.2,1431.9,407.2,1432.4z"/>
		<path class="st1" d="M416.9,1432.3c0.5,0.6,0.8,1.3,0.9,2.3h-4.6c-0.1,0.8,0.1,1.5,0.5,2.1c0.4,0.6,0.9,0.9,1.6,0.8
			c0.5,0,1-0.2,1.4-0.6s0.6-0.9,0.8-1.5h0.2c-0.2,0.9-0.5,1.5-1.1,2c-0.6,0.5-1.2,0.7-2,0.7c-0.8,0-1.6-0.3-2.2-1
			c-0.6-0.6-0.9-1.4-0.9-2.3c0-1,0.3-1.8,0.9-2.4c0.6-0.7,1.4-1,2.3-1C415.6,1431.4,416.3,1431.7,416.9,1432.3z M414,1432
			c-0.2,0.2-0.3,0.4-0.5,0.7c-0.1,0.3-0.2,0.5-0.2,0.8c-0.1,0.3-0.1,0.5-0.1,0.8h2.9c0-0.3,0-0.7-0.1-1c-0.1-0.4-0.2-0.7-0.5-1
			c-0.2-0.3-0.5-0.5-0.9-0.5C414.4,1431.7,414.2,1431.8,414,1432z M414.9,1428.6l-1.2,1.9l0.4,0.2l2.2-2.2H414.9z"/>
		<path class="st1" d="M421.2,1429.3v2.3h1.3v0.3h-1.3v4.4c0,0.5,0.1,0.8,0.3,1c0.2,0.2,0.4,0.2,0.8,0.1c0.1,0,0.3-0.1,0.6-0.2
			l0.1,0.3c-0.2,0.1-0.4,0.2-0.7,0.3c-1.7,0.6-2.6,0.1-2.6-1.4v-4.6h-0.9v-0.2c0.5-0.1,0.9-0.4,1.3-0.9c0.4-0.5,0.7-1,0.9-1.6H421.2
			z"/>
		<path class="st1" d="M429.1,1432.4c0.2,0.3,0.3,0.8,0.3,1.4v3.2c0,0.4,0.1,0.6,0.3,0.7c0.2,0.1,0.5,0,0.9-0.3l0.1,0.2
			c-0.5,0.3-0.9,0.5-1.4,0.5c-0.9,0-1.3-0.3-1.4-0.9c-0.2,0.3-0.4,0.5-0.8,0.7c-0.3,0.2-0.8,0.3-1.3,0.3c-0.5,0-1-0.2-1.4-0.5
			c-0.4-0.3-0.5-0.8-0.5-1.3c0-0.9,0.5-1.5,1.5-1.8c1.6-0.6,2.5-1.2,2.4-1.9c0-0.6-0.4-0.8-1.3-0.8c-0.3,0-0.6,0.1-0.7,0.2
			c0,0-0.1,0.2-0.3,0.6c-0.1,0.2-0.2,0.3-0.3,0.4c-0.1,0.1-0.2,0.2-0.3,0.2c-0.1,0-0.3,0-0.4-0.1c-0.1-0.1-0.2-0.2-0.2-0.4
			c0-0.2,0.1-0.5,0.4-0.7c0.5-0.4,1.1-0.6,1.9-0.6C427.9,1431.4,428.8,1431.8,429.1,1432.4z M426.4,1434.7c-0.3,0.1-0.5,0.4-0.7,0.6
			c-0.1,0.3-0.2,0.6-0.2,0.9c0,0.3,0.1,0.7,0.3,0.9c0.2,0.3,0.4,0.4,0.8,0.4c0.4,0,0.7-0.2,1-0.6c0.2-0.4,0.3-1,0.3-1.6v-1.6
			C427.6,1434,427.1,1434.3,426.4,1434.7z"/>
		<path class="st1" d="M433.9,1432.4c0.4-0.6,0.9-0.9,1.6-0.9c0.4,0,0.8,0.1,1.2,0.3c0.3,0.2,0.4,0.4,0.4,0.7c0,0.1,0,0.3-0.1,0.4
			s-0.2,0.2-0.4,0.2c-0.2,0-0.3,0-0.4-0.1s-0.2-0.2-0.3-0.4c-0.1-0.2-0.2-0.4-0.3-0.5c-0.1-0.1-0.3-0.2-0.5-0.1
			c-0.3,0-0.5,0.2-0.8,0.6c-0.2,0.4-0.4,0.9-0.4,1.4v2.6c0,0.9,0.3,1.4,0.9,1.4v0.2h-3.2v-0.2c0.6,0,0.9-0.5,0.9-1.4v-3.4
			c0-0.7-0.3-1-0.9-1v-0.2l2.2-0.4C433.8,1431.6,433.9,1431.9,433.9,1432.4z"/>
		<path class="st1" d="M443.2,1432.4c0.6,0.6,0.9,1.4,0.9,2.4c0,1-0.3,1.8-1,2.4c-0.6,0.7-1.4,1-2.3,1c-0.9,0-1.6-0.3-2.2-1
			c-0.6-0.6-0.9-1.4-0.9-2.3c0-1,0.3-1.8,0.9-2.4c0.6-0.7,1.4-1,2.3-1C441.9,1431.4,442.6,1431.8,443.2,1432.4z M439.8,1432.7
			c-0.3,0.6-0.4,1.3-0.4,2.2c0,0.8,0.1,1.5,0.4,2.1c0.3,0.6,0.6,0.9,1.1,0.9c0.4,0,0.8-0.3,1.1-0.9c0.3-0.6,0.5-1.3,0.5-2.2
			c0-0.9-0.1-1.6-0.4-2.2c-0.3-0.5-0.6-0.8-1.1-0.8C440.5,1431.8,440.1,1432.1,439.8,1432.7z"/>
		<path class="st1" d="M446.9,1437.3c0,0.3-0.1,0.5-0.3,0.6c-0.2,0.2-0.4,0.3-0.6,0.3c-0.2,0-0.5-0.1-0.6-0.3
			c-0.2-0.2-0.3-0.4-0.3-0.6c0-0.3,0.1-0.5,0.3-0.6c0.2-0.2,0.4-0.3,0.6-0.3c0.2,0,0.5,0.1,0.6,0.3
			C446.8,1436.8,446.9,1437,446.9,1437.3z"/>
	</g>
	<g transform="translate(196.209 486.102)">
		<path class="st2" d="M159,1010.4c0.8,0.3,1.7,0.7,3.5,1.6c-0.2-1.8-0.7-3.5-1.5-5.1c-2.4-4.7-7.3-9.3-12.8-12.4
			c0,1.5,0.1,3.1,0.6,4.5C149.9,1003.8,153.7,1008,159,1010.4z"/>
		<path class="st2" d="M208.6,1010.4c5.3-2.3,9.1-6.5,10.3-11.4c0.4-1.5,0.6-3,0.6-4.5c-5.5,3.1-10.4,7.7-12.8,12.4
			c-0.8,1.6-1.3,3.3-1.5,5.1C206.9,1011.1,207.8,1010.7,208.6,1010.4z"/>
		<path class="st2" d="M154.3,1016.8c2-0.3,4-0.8,5.9-1.6c-3.4-1.6-4-1.9-4.9-2.4c-3.9-1.8-8.4-2.2-12.5-1c-2.7,0.7-5.3,1.7-7.7,3.1
			c4.1,1.3,8.4,2.1,12.6,2.2C150,1017.3,152.2,1017.2,154.3,1016.8z"/>
		<path class="st2" d="M212.3,1012.9c-1,0.5-1.5,0.7-4.9,2.4c1.9,0.8,3.9,1.4,5.9,1.6c2.2,0.3,4.4,0.4,6.6,0.3
			c4.3-0.2,8.6-0.9,12.6-2.2c-2.4-1.4-5-2.4-7.7-3.1C220.6,1010.7,216.2,1011,212.3,1012.9z"/>
		<path class="st2" d="M146.8,1008.9l-2.8-1.3c-5.5-2.5-11.7-2.7-17.3-0.7c-1.5,0.5-2.9,1.2-4.3,1.9
			C128.8,1011.2,139.8,1012.2,146.8,1008.9z"/>
		<path class="st2" d="M223.6,1007.5l-2.8,1.3c7,3.3,18,2.3,24.5,0c-1.4-0.8-2.8-1.4-4.3-1.9
			C235.3,1004.9,229.1,1005.1,223.6,1007.5z"/>
		<path class="st2" d="M142.8,1003.4l5.9,2.5c-0.4-4.6-4.2-11.1-13.9-16.8c-0.3,1.9,0.6,5.4,1.9,8.6
			C138,1000.3,140.2,1002.3,142.8,1003.4z"/>
		<path class="st2" d="M224.7,1003.4c2.7-1.1,4.8-3.1,6.1-5.7c1.4-3.2,2.2-6.7,1.9-8.6c-9.7,5.7-13.5,12.2-13.9,16.8L224.7,1003.4z"
			/>
		<path class="st2" d="M131.4,998.6l3,1.3c-0.4-5.4-6.1-12.3-10.8-16.2c-0.4,1.1-0.5,2.2-0.6,3.3C123,991.9,126.2,996.4,131.4,998.6
			z"/>
		<path class="st2" d="M244.5,987.1c0-1.1-0.2-2.3-0.6-3.3c-4.7,3.9-10.4,10.7-10.8,16.2l3-1.3C241.4,996.4,244.6,991.9,244.5,987.1
			z"/>
		<path class="st2" d="M132.8,1002.5c-3.8-1.7-6.1-2.7-8.7-4c-5.5-0.1-10.9,0.7-16.2,2.2C114.2,1004.2,125.2,1006.3,132.8,1002.5z"
			/>
		<path class="st2" d="M243.4,998.4c-2.6,1.3-4.8,2.3-8.7,4c7.7,3.8,18.7,1.8,24.9-1.8C254.3,999.1,248.9,998.4,243.4,998.4z"/>
		<path class="st2" d="M117.5,991.7c1,0.6,2.1,1.2,3.4,1.9c0.3-4.1-1.8-9.3-3.9-13c-0.2-0.3-0.4-0.7-0.6-1c-0.2-0.3-0.4-0.6-0.6-0.9
			s-0.4-0.6-0.7-0.9s-0.5-0.6-0.7-0.9c-0.5,0.8-0.9,1.6-1.2,2.5c-0.3,1.1-0.6,2.2-0.7,3.3C112.3,986.5,114.2,989.9,117.5,991.7z"/>
		<path class="st2" d="M250.1,991.7c3.2-1.8,5.2-5.2,5-8.9c-0.1-1.1-0.3-2.2-0.7-3.3c-0.3-0.9-0.7-1.7-1.2-2.5
			c-0.2,0.3-0.5,0.6-0.7,0.9c-0.2,0.3-0.5,0.6-0.7,0.9s-0.4,0.6-0.6,0.9s-0.4,0.6-0.6,1c-2.2,3.7-4.3,8.9-3.9,13
			C248,992.9,249.1,992.3,250.1,991.7z"/>
		<path class="st2" d="M119.2,995.7c-0.5-0.3-1.1-0.6-1.5-0.9c-5.9-3.5-12.8-5.1-19.7-4.7c-0.9,0.1-1.7,0.1-2.3,0.2
			C102.2,996,112.5,998.3,119.2,995.7z"/>
		<path class="st2" d="M249.9,994.8c-0.5,0.3-1,0.6-1.5,0.9c6.6,2.6,17,0.2,23.5-5.4c-0.6-0.1-1.4-0.2-2.3-0.2
			C262.8,989.7,255.9,991.3,249.9,994.8z"/>
		<path class="st2" d="M104.7,981.9l0.5,0.5c0.6,0.5,2.3,2.2,3.8,3.4c0.4-1.3,0.6-2.6,0.6-3.9c0-4.4-1.1-8.7-3.2-12.5
			c-1.8,1.9-3.1,4.4-3.6,7C102.5,978.4,103.2,980.5,104.7,981.9L104.7,981.9z"/>
		<path class="st2" d="M258.5,985.8c1.5-1.2,3.3-2.9,3.8-3.4l0.5-0.5l0,0c1.5-1.4,2.2-3.5,1.8-5.6c-0.5-2.6-1.8-5.1-3.6-7
			c-2,3.9-3.1,8.2-3.2,12.5C257.9,983.2,258.1,984.5,258.5,985.8z"/>
		<path class="st2" d="M107.3,987.3c-1.1-1-2.6-2.3-4-3.8c-1.9-1.9-4.4-3.3-7-3.9c-3.1-0.8-6.2-1.3-9.4-1.5
			C91.5,984.5,100.7,988.7,107.3,987.3z"/>
		<path class="st2" d="M264.3,983.5c-1.4,1.5-2.8,2.8-4,3.8c6.6,1.4,15.8-2.8,20.4-9.2c-3.2,0.2-6.3,0.7-9.4,1.5
			C268.6,980.2,266.2,981.6,264.3,983.5z"/>
		<path class="st2" d="M97.5,973.2c0.6,0.9,1.3,1.8,1.8,2.5c2.5-3.5,4-11,2.5-16.2c-2.2,1.4-3.9,3.4-5.1,5.8
			C95.6,967.9,95.9,970.9,97.5,973.2z"/>
		<path class="st2" d="M270.1,973.2c1.6-2.3,1.9-5.3,0.7-7.8c-1.1-2.4-2.9-4.4-5.1-5.8c-1.5,5.1,0.1,12.7,2.5,16.2
			C268.8,975,269.5,974.1,270.1,973.2z"/>
		<path class="st2" d="M95.6,973.5c-1.1-1.8-2.7-3.4-4.5-4.5c-3.3-2-7-3.5-10.8-4.4c3.1,7.7,11.4,12.2,17.3,12
			C96.6,975.1,96,974.3,95.6,973.5z"/>
		<path class="st2" d="M272,973.5c-0.4,0.7-1,1.6-2,3.1c5.9,0.2,14.2-4.3,17.3-12c-3.8,0.9-7.5,2.4-10.8,4.4
			C274.7,970.2,273.2,971.7,272,973.5z"/>
		<path class="st2" d="M92.8,964.4c3.4-2.9,6.7-9.7,6.2-15h0c-6,3-8.7,9.1-6.4,14.6C92.7,964.1,92.7,964.2,92.8,964.4z"/>
		<path class="st2" d="M268.6,949.4c-0.4,5.3,2.9,12.1,6.2,15c0.1-0.1,0.1-0.3,0.2-0.4C277.3,958.5,274.6,952.4,268.6,949.4
			L268.6,949.4z"/>
		<path class="st2" d="M91.3,964.8c-0.3-0.9-0.7-2-1-2.9c-0.4-1.4-1.1-2.7-2.1-3.8c-1.5-1.8-3.5-3.6-7.6-5.7
			c-0.9-0.5-1.9-0.9-2.9-1.3c0.3,1.9,0.9,3.7,1.9,5.3C81.7,960.1,86.4,964.2,91.3,964.8z"/>
		<path class="st2" d="M286.9,952.4c-4.1,2.2-6.1,3.9-7.6,5.7c-0.9,1.1-1.6,2.4-2.1,3.8c-0.3,0.9-0.7,2-1,2.9
			c4.9-0.6,9.6-4.7,11.7-8.4c0.9-1.6,1.6-3.4,1.9-5.3C288.8,951.5,287.9,951.9,286.9,952.4z"/>
		<path class="st2" d="M88.2,952.2c-0.5-3.8-0.5-9-10.1-14.6C77.7,945,83.5,951,88.2,952.2z"/>
		<path class="st2" d="M279.4,952.2c4.6-1.2,10.5-7.2,10.1-14.6C279.9,943.2,279.9,948.4,279.4,952.2z"/>
		<path class="st2" d="M98.1,938.7c-6.2,2.2-9.8,7.6-8.9,13.2c0,0.1,0,0.2,0,0.2c3.9-2.1,8.6-8.1,9-13.4L98.1,938.7z"/>
		<path class="st2" d="M278.4,952.1c0,0,0-0.1,0-0.2c0.9-5.6-2.7-10.9-8.9-13.2l-0.2-0.1C269.8,944,274.5,950,278.4,952.1z"/>
		<path class="st2" d="M88.4,939.4c3.1-1,9.5-5.7,11-11.7C91.4,929.7,88.6,933.9,88.4,939.4z"/>
		<path class="st2" d="M279.1,939.4c-0.1-5.5-2.9-9.7-11-11.7C269.6,933.7,276,938.4,279.1,939.4z"/>
		<path class="st2" d="M87.9,939.4c0.4-5.4-0.8-9.8-7.2-14.8C78.9,931.6,84,937.9,87.9,939.4z"/>
		<path class="st2" d="M279.7,939.4c3.9-1.5,8.9-7.8,7.2-14.8C280.5,929.6,279.3,934,279.7,939.4z"/>
		<path class="st2" d="M93.8,914.4c-5.7,3.2-9.1,10.4-4.6,14.5C95.1,926.3,95.4,919.8,93.8,914.4z"/>
		<path class="st2" d="M278.3,928.9c4.6-4.1,1.1-11.3-4.6-14.5C272.2,919.8,272.5,926.3,278.3,928.9z"/>
		<path class="st2" d="M172.4,1016.4c1.1,0.5,1.9,0.9,4.6,2.2c-0.3-5.6-4.7-10.9-9.5-14.8c-1.6-1.3-3.3-2.5-5-3.5
			c-0.1,2.1,0.2,4.1,0.9,6.1C164.7,1010.9,168.1,1014.6,172.4,1016.4z"/>
		<path class="st2" d="M204.3,1006.4c0.6-2,0.9-4,0.9-6.1c-1.8,1-3.4,2.2-5,3.5c-4.8,3.9-9.2,9.3-9.5,14.8c2.7-1.3,3.5-1.7,4.6-2.2
			C199.5,1014.6,202.8,1010.9,204.3,1006.4z"/>
		<path class="st2" d="M170,1020c-4.7-2.3-10-2.7-15-1.2c-2.3,0.6-4.5,1.5-6.5,2.7c7.4,2.4,18.1,3.8,25.8,0.7
			C171.8,1020.9,171,1020.5,170,1020z"/>
		<path class="st2" d="M197.5,1020c-1,0.5-1.8,0.9-4.3,2.2c7.7,3.1,18.4,1.7,25.8-0.7c-2-1.2-4.2-2.1-6.5-2.7
			C207.5,1017.3,202.2,1017.7,197.5,1020z"/>
		<path class="st2" d="M186.5,1024.6c0.8-0.4,1.5-0.8,2.2-1.2c5.6-3,17.8-9,23.1-11.5c27.4-12.9,33.5-14.7,42.9-21.6
			c-12.6,8.7-43.9,19.4-67.2,31l-1.7,0.8l-2.1,1l-2.1-1l-1.7-0.8c-23.2-11.7-54.5-22.4-67.2-31c9.4,6.9,15.5,8.8,42.9,21.6
			c5.2,2.4,17.5,8.4,23.1,11.5c0.7,0.4,1.5,0.8,2.2,1.2c-11.9,6-13.8,7.8-17.9,14.8c3.7-2.7,12.4-8.5,20.6-13.2
			c8.2,4.7,16.9,10.5,20.6,13.2C200.3,1032.4,198.4,1030.6,186.5,1024.6z"/>
	</g>
</g>
</svg>
