<?xml version="1.0" encoding="utf-8"?>
<!-- Generator: Adobe Illustrator 25.2.3, SVG Export Plug-In . SVG Version: 6.00 Build 0)  -->
<svg version="1.1" id="Layer_1" xmlns="http://www.w3.org/2000/svg" xmlns:xlink="http://www.w3.org/1999/xlink" x="0px" y="0px"
	 viewBox="0 0 212.1 146.5" style="enable-background:new 0 0 212.1 146.5;" xml:space="preserve">
<style type="text/css">
	.st0{enable-background:new    ;}
	.st1{fill:#706C6C;}
	.st2{fill:#BBAC9A;}
</style>
<g transform="translate(-959.961 -1643)">
	<g class="st0">
		<path class="st1" d="M995,1647.8c-0.2,0-0.4,0-0.6-0.1c-0.3-0.2-0.5-0.5-0.6-0.9c-0.1-0.4-0.1-0.8,0-1.3c0.1-0.5,0.4-0.9,0.7-1.3
			c0.4-0.3,0.8-0.5,1.3-0.6v0.4c-0.3,0.1-0.6,0.3-0.9,0.6c-0.3,0.3-0.4,0.6-0.5,0.9c0,0.1-0.1,0.3-0.1,0.4c0,0.2,0.1,0.2,0.2,0.1
			c0.1-0.1,0.3-0.1,0.5-0.1c0.2,0,0.5,0.1,0.6,0.3c0.2,0.2,0.3,0.4,0.3,0.7c0,0.3-0.1,0.5-0.3,0.7
			C995.5,1647.7,995.3,1647.8,995,1647.8z M997.7,1647.8c-0.2,0-0.4,0-0.6-0.1c-0.3-0.2-0.5-0.5-0.6-0.9c-0.1-0.4-0.1-0.8,0-1.3
			c0.1-0.5,0.4-0.9,0.7-1.3c0.4-0.3,0.8-0.5,1.3-0.6v0.4c-0.3,0.1-0.6,0.3-0.9,0.6c-0.3,0.3-0.4,0.6-0.5,0.9c0,0.1-0.1,0.3-0.1,0.4
			c0,0.2,0.1,0.2,0.2,0.1c0.1-0.1,0.3-0.1,0.5-0.1c0.2,0,0.5,0.1,0.6,0.3c0.2,0.2,0.3,0.4,0.3,0.7c0,0.3-0.1,0.5-0.3,0.7
			C998.2,1647.7,997.9,1647.8,997.7,1647.8z"/>
		<path class="st1" d="M1004.5,1643.8c0.7,0,1.3,0.1,1.9,0.4c0.6,0.3,1.1,0.6,1.6,1c0.4,0.4,0.8,0.9,1,1.5c0.3,0.6,0.4,1.2,0.4,1.8
			c0,1.3-0.4,2.4-1.2,3.3c-0.9,0.9-1.9,1.4-3.1,1.4h-5.4v-0.3c0.8,0,1.2-0.4,1.2-1.1v-6.4c0-0.8-0.4-1.1-1.2-1.2v-0.3H1004.5z
			 M1002.4,1651.2c0,1,0.6,1.5,1.8,1.5c0.5,0,0.9-0.1,1.3-0.2c0.4-0.1,0.8-0.4,1.1-0.8c0.4-0.4,0.6-0.9,0.8-1.4
			c0.2-0.6,0.3-1.2,0.3-1.9c0-1.2-0.4-2.2-1.2-3.1c-0.4-0.4-0.8-0.7-1.4-0.9c-0.6-0.2-1.1-0.3-1.6-0.3h-1.1V1651.2z"/>
		<path class="st1" d="M1010.5,1646.8l2.4-0.4v5c0,0.8,0.3,1.3,0.9,1.3v0.2h-3.3v-0.2c0.6,0,0.9-0.5,0.9-1.3v-3.6
			c0-0.7-0.3-1-0.9-0.9V1646.8z M1013,1644.5c0,0.3-0.1,0.5-0.3,0.6c-0.2,0.2-0.4,0.3-0.6,0.3c-0.2,0-0.5-0.1-0.6-0.3
			c-0.2-0.2-0.3-0.4-0.3-0.6c0-0.3,0.1-0.5,0.3-0.6c0.2-0.2,0.4-0.3,0.6-0.3c0.2,0,0.5,0.1,0.6,0.3
			C1012.9,1644,1013,1644.2,1013,1644.5z"/>
		<path class="st1" d="M1017.3,1647.2c0.6-0.5,1.2-0.7,1.9-0.7c0.8,0,1.5,0.3,2,0.9c0.5,0.6,0.8,1.4,0.8,2.4c0,1-0.3,1.8-0.8,2.5
			c-0.5,0.6-1.2,0.9-2,0.9c-0.7,0-1.3-0.2-1.9-0.6v2.4c0,0.9,0.3,1.3,0.9,1.4v0.2h-3.3v-0.2c0.6,0,0.9-0.5,0.9-1.4v-6.9
			c0-0.7-0.3-1-0.9-0.9v-0.2l2.2-0.4C1017.2,1646.6,1017.3,1646.8,1017.3,1647.2z M1020,1651.9c0.3-0.5,0.4-1.2,0.4-2
			c0-0.9-0.2-1.6-0.5-2.1c-0.3-0.6-0.8-0.8-1.3-0.8c-0.3,0-0.6,0.2-0.9,0.5c-0.3,0.3-0.4,0.7-0.4,1.2v3.4c0.1,0.2,0.3,0.3,0.6,0.5
			c0.3,0.2,0.5,0.2,0.8,0.2C1019.2,1652.7,1019.7,1652.4,1020,1651.9z"/>
		<path class="st1" d="M1025.4,1651.4c0,0.9,0.3,1.3,0.9,1.4v0.2h-3.3v-0.2c0.6,0,0.9-0.5,0.9-1.4v-6.5c0-0.7-0.3-1-0.9-0.9v-0.2
			l2.5-0.4v3V1651.4z"/>
		<path class="st1" d="M1032.8,1647.4c0.6,0.6,0.9,1.4,0.9,2.4c0,1-0.3,1.8-1,2.4c-0.6,0.7-1.4,1-2.3,1c-0.9,0-1.6-0.3-2.2-1
			c-0.6-0.6-0.9-1.4-0.9-2.3c0-1,0.3-1.8,0.9-2.4c0.6-0.7,1.4-1,2.3-1C1031.5,1646.4,1032.3,1646.8,1032.8,1647.4z M1029.5,1647.7
			c-0.3,0.6-0.4,1.3-0.4,2.2c0,0.8,0.1,1.5,0.4,2.1c0.3,0.6,0.6,0.9,1.1,0.9c0.4,0,0.8-0.3,1.1-0.9c0.3-0.6,0.5-1.3,0.5-2.2
			c0-0.9-0.1-1.6-0.4-2.2c-0.3-0.5-0.6-0.8-1.1-0.8C1030.1,1646.8,1029.8,1647.1,1029.5,1647.7z"/>
		<path class="st1" d="M1040.4,1647c0.2,0.2,0.3,0.3,0.4,0.5c0.5-0.7,1.1-1.1,1.9-1.1c0.6,0,1.1,0.2,1.5,0.6
			c0.4,0.4,0.5,0.9,0.5,1.6v2.8c0,0.9,0.3,1.3,0.9,1.4v0.2h-3.3v-0.2c0.6,0,0.9-0.5,0.9-1.4v-3c0-0.4-0.1-0.7-0.3-1
			c-0.2-0.3-0.5-0.4-0.8-0.4c-0.3,0-0.6,0.1-0.8,0.4c-0.2,0.3-0.3,0.6-0.3,1v3c0,0.9,0.3,1.3,0.9,1.4v0.2h-3.3v-0.2
			c0.6,0,0.9-0.5,0.9-1.4v-3c0-0.4-0.1-0.7-0.3-1c-0.2-0.3-0.5-0.4-0.8-0.4c-0.3,0-0.6,0.1-0.8,0.4c-0.2,0.3-0.4,0.6-0.3,1v3
			c0,0.9,0.3,1.3,0.9,1.4v0.2h-3.3v-0.2c0.6,0,0.9-0.5,0.9-1.4v-3.5c0-0.7-0.3-1-0.9-0.9v-0.2l2.2-0.4c0.1,0.1,0.2,0.4,0.2,0.9
			c0.4-0.6,1-0.9,1.8-0.9C1039.6,1646.5,1040.1,1646.6,1040.4,1647z"/>
		<path class="st1" d="M1051.8,1647.4c0.2,0.3,0.3,0.8,0.3,1.4v3.2c0,0.4,0.1,0.6,0.3,0.7c0.2,0.1,0.5,0,0.9-0.3l0.1,0.2
			c-0.5,0.3-0.9,0.5-1.4,0.5c-0.9,0-1.3-0.3-1.4-0.9c-0.2,0.3-0.4,0.5-0.8,0.7c-0.3,0.2-0.8,0.3-1.3,0.3c-0.5,0-1-0.2-1.4-0.5
			c-0.4-0.3-0.5-0.8-0.5-1.3c0-0.9,0.5-1.5,1.5-1.8c1.6-0.6,2.5-1.2,2.4-1.9c0-0.6-0.4-0.8-1.3-0.8c-0.3,0-0.6,0.1-0.7,0.2
			c0,0-0.1,0.2-0.3,0.6c-0.1,0.2-0.2,0.3-0.3,0.4c-0.1,0.1-0.2,0.2-0.3,0.2c-0.1,0-0.3,0-0.4-0.1c-0.1-0.1-0.2-0.2-0.2-0.4
			c0-0.2,0.1-0.5,0.4-0.7c0.5-0.4,1.1-0.6,1.9-0.6C1050.7,1646.4,1051.5,1646.8,1051.8,1647.4z M1049.1,1649.7
			c-0.3,0.1-0.5,0.4-0.7,0.6c-0.1,0.3-0.2,0.6-0.2,0.9c0,0.3,0.1,0.7,0.3,0.9c0.2,0.3,0.4,0.4,0.8,0.4c0.4,0,0.7-0.2,1-0.6
			c0.2-0.4,0.3-1,0.3-1.6v-1.6C1050.4,1649,1049.9,1649.3,1049.1,1649.7z"/>
		<path class="st1" d="M1058.9,1652.4c-0.6,0.5-1.2,0.7-1.9,0.7c-0.8,0-1.5-0.3-2-0.9c-0.5-0.6-0.7-1.4-0.7-2.4c0-1,0.3-1.8,0.8-2.5
			c0.5-0.6,1.2-0.9,2-0.9c0.7,0,1.3,0.2,1.9,0.6v-2.2c0-0.7-0.3-1-0.9-0.9v-0.2l2.4-0.4v8.1c0,0.7,0.3,1,0.9,0.9v0.2l-2.2,0.5
			C1059,1653,1058.9,1652.8,1058.9,1652.4z M1056.2,1647.7c-0.3,0.5-0.4,1.2-0.4,2c0,0.9,0.2,1.6,0.5,2.1c0.3,0.6,0.8,0.8,1.3,0.8
			c0.3,0,0.6-0.2,0.9-0.5c0.3-0.3,0.4-0.7,0.4-1.2v-3.4c-0.1-0.2-0.3-0.4-0.6-0.5c-0.3-0.2-0.5-0.2-0.8-0.2
			C1056.9,1646.9,1056.5,1647.2,1056.2,1647.7z"/>
		<path class="st1" d="M1067.8,1647.4c0.6,0.6,0.9,1.4,0.9,2.4c0,1-0.3,1.8-1,2.4c-0.6,0.7-1.4,1-2.3,1c-0.9,0-1.6-0.3-2.2-1
			c-0.6-0.6-0.9-1.4-0.9-2.3c0-1,0.3-1.8,0.9-2.4c0.6-0.7,1.4-1,2.3-1C1066.5,1646.4,1067.3,1646.8,1067.8,1647.4z M1064.5,1647.7
			c-0.3,0.6-0.4,1.3-0.4,2.2c0,0.8,0.1,1.5,0.4,2.1c0.3,0.6,0.6,0.9,1.1,0.9c0.4,0,0.8-0.3,1.1-0.9c0.3-0.6,0.5-1.3,0.5-2.2
			c0-0.9-0.1-1.6-0.4-2.2c-0.3-0.5-0.6-0.8-1.1-0.8C1065.1,1646.8,1064.8,1647.1,1064.5,1647.7z"/>
		<path class="st1" d="M1080.5,1647.3c0.5,0.6,0.8,1.3,0.9,2.3h-4.6c-0.1,0.8,0.1,1.5,0.5,2.1c0.4,0.6,0.9,0.9,1.6,0.8
			c0.5,0,1-0.2,1.4-0.6s0.6-0.9,0.8-1.5h0.2c-0.2,0.9-0.5,1.5-1.1,2c-0.6,0.5-1.2,0.7-2,0.7c-0.8,0-1.6-0.3-2.2-1
			c-0.6-0.6-0.9-1.4-0.9-2.3c0-1,0.3-1.8,0.9-2.4c0.6-0.7,1.4-1,2.3-1C1079.2,1646.4,1080,1646.7,1080.5,1647.3z M1077.6,1647
			c-0.2,0.2-0.3,0.4-0.5,0.7c-0.1,0.3-0.2,0.5-0.2,0.8c-0.1,0.3-0.1,0.5-0.1,0.8h2.9c0-0.3,0-0.7-0.1-1c-0.1-0.4-0.2-0.7-0.5-1
			c-0.2-0.3-0.5-0.5-0.9-0.5C1078,1646.7,1077.8,1646.8,1077.6,1647z"/>
		<path class="st1" d="M1088.2,1647c0.4,0.4,0.6,0.9,0.6,1.6v2.8c0,0.9,0.3,1.3,0.9,1.4v0.2h-3.3v-0.2c0.6,0,0.9-0.5,0.9-1.4v-3
			c0-0.4-0.1-0.7-0.3-1c-0.2-0.3-0.5-0.4-0.9-0.4c-0.3,0-0.6,0.1-0.9,0.4c-0.2,0.3-0.3,0.6-0.3,1v3c0,0.9,0.3,1.3,0.9,1.4v0.2h-3.3
			v-0.2c0.6,0,0.9-0.5,0.9-1.4v-3.5c0-0.7-0.3-1-0.9-0.9v-0.2l2.2-0.4c0.1,0.1,0.2,0.4,0.2,0.9c0.5-0.6,1.1-0.9,1.9-0.9
			C1087.3,1646.4,1087.9,1646.6,1088.2,1647z"/>
		<path class="st1" d="M1103.1,1644c0.6,0.2,0.9,0.1,0.9-0.3h0.3l0.2,2.7l-0.3,0c-0.4-1.7-1.4-2.5-3.1-2.5c-0.9,0-1.7,0.5-2.3,1.4
			c-0.6,0.9-0.9,1.9-0.9,3.1c0,2.9,1.1,4.3,3.3,4.3c1.5,0,2.6-0.6,3.2-1.8l0.2,0.1c-0.6,1.4-1.8,2.1-3.5,2.1c-1,0-1.9-0.2-2.7-0.6
			c-0.7-0.4-1.3-1-1.7-1.7c-0.4-0.7-0.6-1.5-0.6-2.4c0-0.9,0.2-1.7,0.6-2.4c0.4-0.7,1-1.3,1.8-1.8c0.8-0.4,1.7-0.7,2.6-0.7
			C1101.7,1643.6,1102.3,1643.8,1103.1,1644z"/>
		<path class="st1" d="M1111.2,1647.4c0.6,0.6,0.9,1.4,0.9,2.4c0,1-0.3,1.8-1,2.4c-0.6,0.7-1.4,1-2.3,1c-0.9,0-1.6-0.3-2.2-1
			c-0.6-0.6-0.9-1.4-0.9-2.3c0-1,0.3-1.8,0.9-2.4c0.6-0.7,1.4-1,2.3-1C1109.9,1646.4,1110.6,1646.8,1111.2,1647.4z M1107.8,1647.7
			c-0.3,0.6-0.4,1.3-0.4,2.2c0,0.8,0.1,1.5,0.4,2.1c0.3,0.6,0.6,0.9,1.1,0.9c0.4,0,0.8-0.3,1.1-0.9c0.3-0.6,0.5-1.3,0.5-2.2
			c0-0.9-0.1-1.6-0.4-2.2c-0.3-0.5-0.6-0.8-1.1-0.8C1108.5,1646.8,1108.1,1647.1,1107.8,1647.7z"/>
		<path class="st1" d="M1118.5,1647c0.3,0.2,0.4,0.5,0.4,0.7c0,0.2-0.1,0.3-0.2,0.4c-0.1,0.1-0.3,0.1-0.4,0.1
			c-0.1,0-0.2-0.1-0.3-0.2c-0.1-0.1-0.2-0.3-0.2-0.5c-0.1-0.3-0.2-0.5-0.2-0.6c-0.2-0.1-0.4-0.2-0.7-0.2c-0.4,0-0.7,0.2-1,0.5
			c-0.3,0.3-0.5,0.7-0.6,1.2c-0.1,0.5-0.2,0.9-0.2,1.4c0,0.7,0.2,1.4,0.6,1.9c0.4,0.5,0.9,0.8,1.5,0.8c1,0,1.6-0.7,2-2.1h0.2
			c-0.1,0.8-0.5,1.5-1,2c-0.5,0.5-1.1,0.7-1.8,0.7c-0.9,0-1.6-0.3-2.2-0.9c-0.6-0.6-0.9-1.4-0.9-2.3c0-1,0.3-1.8,0.8-2.4
			c0.6-0.7,1.4-1,2.4-1C1117.4,1646.4,1118,1646.6,1118.5,1647z"/>
		<path class="st1" d="M1120.3,1646.8l2.4-0.4v5c0,0.8,0.3,1.3,0.9,1.3v0.2h-3.3v-0.2c0.6,0,0.9-0.5,0.9-1.3v-3.6
			c0-0.7-0.3-1-0.9-0.9V1646.8z M1122.8,1644.5c0,0.3-0.1,0.5-0.3,0.6c-0.2,0.2-0.4,0.3-0.6,0.3c-0.2,0-0.5-0.1-0.6-0.3
			c-0.2-0.2-0.3-0.4-0.3-0.6c0-0.3,0.1-0.5,0.3-0.6c0.2-0.2,0.4-0.3,0.6-0.3c0.2,0,0.5,0.1,0.6,0.3
			C1122.7,1644,1122.8,1644.2,1122.8,1644.5z"/>
		<path class="st1" d="M1130.5,1647c0.4,0.4,0.6,0.9,0.6,1.6v2.8c0,0.9,0.3,1.3,0.9,1.4v0.2h-3.3v-0.2c0.6,0,0.9-0.5,0.9-1.4v-3
			c0-0.4-0.1-0.7-0.3-1c-0.2-0.3-0.5-0.4-0.9-0.4c-0.3,0-0.6,0.1-0.9,0.4c-0.2,0.3-0.3,0.6-0.3,1v3c0,0.9,0.3,1.3,0.9,1.4v0.2h-3.3
			v-0.2c0.6,0,0.9-0.5,0.9-1.4v-3.5c0-0.7-0.3-1-0.9-0.9v-0.2l2.2-0.4c0.1,0.1,0.2,0.4,0.2,0.9c0.5-0.6,1.1-0.9,1.9-0.9
			C1129.6,1646.4,1130.1,1646.6,1130.5,1647z"/>
		<path class="st1" d="M1138.1,1647.4c0.2,0.3,0.3,0.8,0.3,1.4v3.2c0,0.4,0.1,0.6,0.3,0.7c0.2,0.1,0.5,0,0.9-0.3l0.1,0.2
			c-0.5,0.3-0.9,0.5-1.4,0.5c-0.9,0-1.3-0.3-1.4-0.9c-0.2,0.3-0.4,0.5-0.8,0.7c-0.3,0.2-0.8,0.3-1.3,0.3c-0.5,0-1-0.2-1.4-0.5
			c-0.4-0.3-0.5-0.8-0.5-1.3c0-0.9,0.5-1.5,1.5-1.8c1.6-0.6,2.5-1.2,2.4-1.9c0-0.6-0.4-0.8-1.3-0.8c-0.3,0-0.6,0.1-0.7,0.2
			c0,0-0.1,0.2-0.3,0.6c-0.1,0.2-0.2,0.3-0.3,0.4c-0.1,0.1-0.2,0.2-0.3,0.2c-0.1,0-0.3,0-0.4-0.1c-0.1-0.1-0.2-0.2-0.2-0.4
			c0-0.2,0.1-0.5,0.4-0.7c0.5-0.4,1.1-0.6,1.9-0.6C1136.9,1646.4,1137.8,1646.8,1138.1,1647.4z M1135.4,1649.7
			c-0.3,0.1-0.5,0.4-0.7,0.6c-0.1,0.3-0.2,0.6-0.2,0.9c0,0.3,0.1,0.7,0.3,0.9c0.2,0.3,0.4,0.4,0.8,0.4c0.4,0,0.7-0.2,1-0.6
			c0.2-0.4,0.3-1,0.3-1.6v-1.6C1136.6,1649,1136.1,1649.3,1135.4,1649.7z"/>
	</g>
	<g class="st0">
		<path class="st1" d="M991.7,1663.8c0,0.2,0.1,0.4,0.2,0.6l3,6.7l3-7.3l2.6,0v0.3c-0.8,0-1.2,0.4-1.2,1.2v6.4
			c0,0.8,0.4,1.2,1.2,1.2v0.2h-3.9v-0.2c0.8,0,1.2-0.4,1.2-1.2v-6.8l-3.4,8.2h-0.5l-3.7-8.2v6.8c0,0.8,0.4,1.2,1.1,1.2v0.2h-2.6
			v-0.2c0.8,0,1.2-0.4,1.2-1.2v-6.4c0-0.8-0.4-1.2-1.2-1.2v-0.3L991.7,1663.8z"/>
		<path class="st1" d="M1006.8,1667.3c0.5,0.6,0.8,1.3,0.9,2.3h-4.6c-0.1,0.8,0.1,1.5,0.5,2.1c0.4,0.6,0.9,0.9,1.6,0.8
			c0.5,0,1-0.2,1.4-0.6s0.6-0.9,0.8-1.5h0.2c-0.2,0.9-0.5,1.5-1.1,2c-0.6,0.5-1.2,0.7-2,0.7c-0.8,0-1.6-0.3-2.2-1
			c-0.6-0.6-0.9-1.4-0.9-2.3c0-1,0.3-1.8,0.9-2.4c0.6-0.7,1.4-1,2.3-1C1005.5,1666.4,1006.2,1666.7,1006.8,1667.3z M1003.9,1667
			c-0.2,0.2-0.3,0.4-0.5,0.7c-0.1,0.3-0.2,0.5-0.2,0.8c-0.1,0.3-0.1,0.5-0.1,0.8h2.9c0-0.3,0-0.7-0.1-1c-0.1-0.4-0.2-0.7-0.5-1
			c-0.2-0.3-0.5-0.5-0.9-0.5C1004.3,1666.7,1004.1,1666.8,1003.9,1667z"/>
		<path class="st1" d="M1011.3,1666.6v0.2c-0.6,0-0.6,0.4-0.1,1.2l0.5,0.9l0.7-0.9c0.6-0.8,0.6-1.2-0.1-1.2v-0.2h2.2v0.2
			c-0.6,0-1.2,0.4-1.8,1.2l-0.8,1.1l1.4,2.4c0.4,0.8,0.9,1.2,1.5,1.2v0.2h-3.3v-0.2c0.6,0,0.7-0.4,0.2-1.2l-0.8-1.4l-1,1.4
			c-0.5,0.8-0.5,1.2,0.1,1.2v0.2h-2.2v-0.2c0.6,0,1.2-0.4,1.8-1.2l1.2-1.7l-1.1-1.9c-0.5-0.8-1-1.2-1.5-1.2v-0.2H1011.3z"/>
		<path class="st1" d="M1015.7,1666.8l2.4-0.4v5c0,0.8,0.3,1.3,0.9,1.3v0.2h-3.3v-0.2c0.6,0,0.9-0.5,0.9-1.3v-3.6
			c0-0.7-0.3-1-0.9-0.9V1666.8z M1018.2,1664.5c0,0.3-0.1,0.5-0.3,0.6c-0.2,0.2-0.4,0.3-0.6,0.3c-0.2,0-0.5-0.1-0.6-0.3
			c-0.2-0.2-0.3-0.4-0.3-0.6c0-0.3,0.1-0.5,0.3-0.6c0.2-0.2,0.4-0.3,0.6-0.3c0.2,0,0.5,0.1,0.6,0.3
			C1018.1,1664,1018.2,1664.2,1018.2,1664.5z"/>
		<path class="st1" d="M1025.2,1667c0.3,0.2,0.4,0.5,0.4,0.7c0,0.2-0.1,0.3-0.2,0.4c-0.1,0.1-0.3,0.1-0.4,0.1
			c-0.1,0-0.2-0.1-0.3-0.2c-0.1-0.1-0.2-0.3-0.2-0.5c-0.1-0.3-0.2-0.5-0.2-0.6c-0.2-0.1-0.4-0.2-0.7-0.2c-0.4,0-0.7,0.2-1,0.5
			c-0.3,0.3-0.5,0.7-0.6,1.2c-0.1,0.5-0.2,0.9-0.2,1.4c0,0.7,0.2,1.4,0.6,1.9c0.4,0.5,0.9,0.8,1.5,0.8c1,0,1.6-0.7,2-2.1h0.2
			c-0.1,0.8-0.5,1.5-1,2c-0.5,0.5-1.1,0.7-1.8,0.7c-0.9,0-1.6-0.3-2.2-0.9c-0.6-0.6-0.9-1.4-0.9-2.3c0-1,0.3-1.8,0.8-2.4
			c0.6-0.7,1.4-1,2.4-1C1024.1,1666.4,1024.7,1666.6,1025.2,1667z"/>
		<path class="st1" d="M1032.3,1667.4c0.2,0.3,0.3,0.8,0.3,1.4v3.2c0,0.4,0.1,0.6,0.3,0.7c0.2,0.1,0.5,0,0.9-0.3l0.1,0.2
			c-0.5,0.3-0.9,0.5-1.4,0.5c-0.9,0-1.3-0.3-1.4-0.9c-0.2,0.3-0.4,0.5-0.8,0.7c-0.3,0.2-0.8,0.3-1.3,0.3c-0.5,0-1-0.2-1.4-0.5
			c-0.4-0.3-0.5-0.8-0.5-1.3c0-0.9,0.5-1.5,1.5-1.8c1.6-0.6,2.5-1.2,2.4-1.9c0-0.6-0.4-0.8-1.3-0.8c-0.3,0-0.6,0.1-0.7,0.2
			c0,0-0.1,0.2-0.3,0.6c-0.1,0.2-0.2,0.3-0.3,0.4c-0.1,0.1-0.2,0.2-0.3,0.2c-0.1,0-0.3,0-0.4-0.1c-0.1-0.1-0.2-0.2-0.2-0.4
			c0-0.2,0.1-0.5,0.4-0.7c0.5-0.4,1.1-0.6,1.9-0.6C1031.1,1666.4,1031.9,1666.8,1032.3,1667.4z M1029.5,1669.7
			c-0.3,0.1-0.5,0.4-0.7,0.6c-0.1,0.3-0.2,0.6-0.2,0.9c0,0.3,0.1,0.7,0.3,0.9c0.2,0.3,0.4,0.4,0.8,0.4c0.4,0,0.7-0.2,1-0.6
			c0.2-0.4,0.3-1,0.3-1.6v-1.6C1030.8,1669,1030.3,1669.3,1029.5,1669.7z"/>
		<path class="st1" d="M1040.5,1667c0.4,0.4,0.6,0.9,0.6,1.6v2.8c0,0.9,0.3,1.3,0.9,1.4v0.2h-3.3v-0.2c0.6,0,0.9-0.5,0.9-1.4v-3
			c0-0.4-0.1-0.7-0.3-1c-0.2-0.3-0.5-0.4-0.9-0.4c-0.3,0-0.6,0.1-0.9,0.4c-0.2,0.3-0.3,0.6-0.3,1v3c0,0.9,0.3,1.3,0.9,1.4v0.2h-3.3
			v-0.2c0.6,0,0.9-0.5,0.9-1.4v-3.5c0-0.7-0.3-1-0.9-0.9v-0.2l2.2-0.4c0.1,0.1,0.2,0.4,0.2,0.9c0.5-0.6,1.1-0.9,1.9-0.9
			C1039.6,1666.4,1040.1,1666.6,1040.5,1667z"/>
		<path class="st1" d="M1048.1,1667.4c0.2,0.3,0.3,0.8,0.3,1.4v3.2c0,0.4,0.1,0.6,0.3,0.7c0.2,0.1,0.5,0,0.9-0.3l0.1,0.2
			c-0.5,0.3-0.9,0.5-1.4,0.5c-0.9,0-1.3-0.3-1.4-0.9c-0.2,0.3-0.4,0.5-0.8,0.7c-0.3,0.2-0.8,0.3-1.3,0.3c-0.5,0-1-0.2-1.4-0.5
			c-0.4-0.3-0.5-0.8-0.5-1.3c0-0.9,0.5-1.5,1.5-1.8c1.6-0.6,2.5-1.2,2.4-1.9c0-0.6-0.4-0.8-1.3-0.8c-0.3,0-0.6,0.1-0.7,0.2
			c0,0-0.1,0.2-0.3,0.6c-0.1,0.2-0.2,0.3-0.3,0.4c-0.1,0.1-0.2,0.2-0.3,0.2c-0.1,0-0.3,0-0.4-0.1c-0.1-0.1-0.2-0.2-0.2-0.4
			c0-0.2,0.1-0.5,0.4-0.7c0.5-0.4,1.1-0.6,1.9-0.6C1047,1666.4,1047.8,1666.8,1048.1,1667.4z M1045.4,1669.7
			c-0.3,0.1-0.5,0.4-0.7,0.6c-0.1,0.3-0.2,0.6-0.2,0.9c0,0.3,0.1,0.7,0.3,0.9c0.2,0.3,0.4,0.4,0.8,0.4c0.4,0,0.7-0.2,1-0.6
			c0.2-0.4,0.3-1,0.3-1.6v-1.6C1046.7,1669,1046.2,1669.3,1045.4,1669.7z"/>
		<path class="st1" d="M1060.9,1663.8c0.7,0,1.4,0.3,1.9,0.8c0.5,0.5,0.8,1.1,0.8,1.9c0,0.7-0.3,1.3-0.8,1.9
			c-0.5,0.5-1.2,0.8-1.9,0.8h-2.2v2.6c0,0.8,0.4,1.2,1.1,1.2v0.3h-3.9v-0.3c0.8,0,1.2-0.4,1.1-1.2v-6.4c0-0.8-0.4-1.2-1.1-1.2v-0.3
			H1060.9z M1058.7,1668.7h1.1c0.6,0,1.1-0.2,1.5-0.7s0.6-1,0.6-1.7c0-0.7-0.2-1.2-0.6-1.7c-0.4-0.4-0.9-0.7-1.5-0.7h-1.1V1668.7z"
			/>
		<path class="st1" d="M1067.1,1667.4c0.4-0.6,0.9-0.9,1.6-0.9c0.4,0,0.8,0.1,1.2,0.3c0.3,0.2,0.4,0.4,0.4,0.7c0,0.1,0,0.3-0.1,0.4
			s-0.2,0.2-0.4,0.2c-0.2,0-0.3,0-0.4-0.1s-0.2-0.2-0.3-0.4c-0.1-0.2-0.2-0.4-0.3-0.5c-0.1-0.1-0.3-0.2-0.5-0.1
			c-0.3,0-0.5,0.2-0.8,0.6c-0.2,0.4-0.4,0.9-0.4,1.4v2.6c0,0.9,0.3,1.4,0.9,1.4v0.2h-3.2v-0.2c0.6,0,0.9-0.5,0.9-1.4v-3.4
			c0-0.7-0.3-1-0.9-1v-0.2l2.2-0.4C1067,1666.6,1067.1,1666.9,1067.1,1667.4z"/>
		<path class="st1" d="M1076.2,1667.3c0.5,0.6,0.8,1.3,0.9,2.3h-4.6c-0.1,0.8,0.1,1.5,0.5,2.1c0.4,0.6,0.9,0.9,1.6,0.8
			c0.5,0,1-0.2,1.4-0.6s0.6-0.9,0.8-1.5h0.2c-0.2,0.9-0.5,1.5-1.1,2c-0.6,0.5-1.2,0.7-2,0.7c-0.8,0-1.6-0.3-2.2-1
			c-0.6-0.6-0.9-1.4-0.9-2.3c0-1,0.3-1.8,0.9-2.4c0.6-0.7,1.4-1,2.3-1C1075,1666.4,1075.7,1666.7,1076.2,1667.3z M1073.3,1667
			c-0.2,0.2-0.3,0.4-0.5,0.7c-0.1,0.3-0.2,0.5-0.2,0.8c-0.1,0.3-0.1,0.5-0.1,0.8h2.9c0-0.3,0-0.7-0.1-1c-0.1-0.4-0.2-0.7-0.5-1
			c-0.2-0.3-0.5-0.5-0.9-0.5C1073.8,1666.7,1073.5,1666.8,1073.3,1667z"/>
		<path class="st1" d="M1084,1667c0.4,0.4,0.5,0.9,0.6,1.6v2.8c0,0.9,0.3,1.3,0.9,1.3v0.2h-3.3v-0.2c0.6,0,0.9-0.5,0.9-1.3v-3
			c0-0.4-0.1-0.7-0.3-1c-0.2-0.3-0.5-0.4-0.9-0.4c-0.3,0-0.6,0.1-0.9,0.4c-0.2,0.3-0.3,0.6-0.3,1v3c0,0.9,0.3,1.3,0.9,1.3v0.2h-3.3
			v-0.2c0.6,0,0.9-0.5,0.9-1.3v-6.5c0-0.7-0.3-1-0.9-0.9v-0.2l2.5-0.4v3.9c0.5-0.6,1.1-0.9,1.9-0.9
			C1083.1,1666.5,1083.6,1666.6,1084,1667z"/>
		<path class="st1" d="M1086.5,1666.8l2.4-0.4v5c0,0.8,0.3,1.3,0.9,1.3v0.2h-3.3v-0.2c0.6,0,0.9-0.5,0.9-1.3v-3.6
			c0-0.7-0.3-1-0.9-0.9V1666.8z M1089,1664.5c0,0.3-0.1,0.5-0.3,0.6c-0.2,0.2-0.4,0.3-0.6,0.3c-0.2,0-0.5-0.1-0.6-0.3
			c-0.2-0.2-0.3-0.4-0.3-0.6c0-0.3,0.1-0.5,0.3-0.6c0.2-0.2,0.4-0.3,0.6-0.3c0.2,0,0.5,0.1,0.6,0.3
			C1088.9,1664,1089,1664.2,1089,1664.5z"/>
		<path class="st1" d="M1093.9,1666.6c0.3,0.1,0.5,0.2,0.5,0.1c0.1,0,0.1-0.1,0.1-0.2h0.2l0.2,1.9h-0.2c-0.1-0.5-0.3-0.9-0.6-1.3
			c-0.1-0.1-0.3-0.2-0.6-0.3c-0.2-0.1-0.4-0.1-0.6-0.1c-0.3,0-0.6,0.1-0.8,0.3c-0.2,0.1-0.3,0.3-0.3,0.6c0,0.2,0.1,0.4,0.2,0.6
			c0.1,0.1,0.5,0.3,1.1,0.6c0.6,0.2,1,0.4,1.2,0.5c0.7,0.4,1,1,0.9,1.8c0,0.6-0.3,1.1-0.7,1.5c-0.4,0.4-1,0.6-1.8,0.5
			c-0.3,0-0.5-0.1-0.8-0.2c-0.5-0.2-0.8-0.3-0.9-0.2c-0.1,0-0.2,0.1-0.2,0.3h-0.2l0-2h0.2c0,0.2,0.1,0.4,0.1,0.6
			c0.1,0.2,0.2,0.3,0.4,0.5c0.4,0.4,0.9,0.6,1.4,0.7c0.5,0.1,0.9,0,1.2-0.2c0.3-0.2,0.4-0.4,0.4-0.7c0-0.3,0-0.5-0.2-0.7
			c-0.1-0.1-0.3-0.3-0.6-0.4c-0.4-0.2-0.7-0.3-1-0.4c-0.4-0.1-0.6-0.2-0.8-0.3c-0.8-0.4-1.1-1-1.1-1.8c0-0.5,0.2-1,0.5-1.3
			c0.4-0.4,0.9-0.5,1.5-0.5C1093.3,1666.4,1093.6,1666.5,1093.9,1666.6z"/>
		<path class="st1" d="M1098.9,1667.2c0.6-0.5,1.3-0.7,1.9-0.7c0.8,0,1.5,0.3,2,0.9c0.5,0.6,0.8,1.4,0.8,2.4c0,1-0.3,1.8-0.8,2.5
			c-0.5,0.6-1.2,0.9-2,0.9c-0.7,0-1.3-0.2-1.9-0.6v2.4c0,0.9,0.3,1.3,0.9,1.4v0.2h-3.3v-0.2c0.6,0,0.9-0.5,0.9-1.4v-6.9
			c0-0.7-0.3-1-0.9-0.9v-0.2l2.2-0.4C1098.8,1666.6,1098.9,1666.8,1098.9,1667.2z M1101.6,1671.9c0.3-0.5,0.4-1.2,0.4-2
			c0-0.9-0.2-1.6-0.5-2.1c-0.3-0.6-0.8-0.8-1.3-0.8c-0.3,0-0.6,0.2-0.9,0.5c-0.3,0.3-0.4,0.7-0.4,1.2v3.4c0.1,0.2,0.3,0.3,0.6,0.5
			c0.3,0.2,0.5,0.2,0.8,0.2C1100.9,1672.7,1101.3,1672.4,1101.6,1671.9z"/>
		<path class="st1" d="M1109.8,1667.4c0.2,0.3,0.3,0.8,0.3,1.4v3.2c0,0.4,0.1,0.6,0.3,0.7c0.2,0.1,0.5,0,0.9-0.3l0.1,0.2
			c-0.5,0.3-0.9,0.5-1.4,0.5c-0.9,0-1.3-0.3-1.4-0.9c-0.2,0.3-0.4,0.5-0.8,0.7c-0.3,0.2-0.8,0.3-1.3,0.3c-0.5,0-1-0.2-1.4-0.5
			c-0.4-0.3-0.5-0.8-0.5-1.3c0-0.9,0.5-1.5,1.5-1.8c1.6-0.6,2.5-1.2,2.4-1.9c0-0.6-0.4-0.8-1.3-0.8c-0.3,0-0.6,0.1-0.7,0.2
			c0,0-0.1,0.2-0.3,0.6c-0.1,0.2-0.2,0.3-0.3,0.4c-0.1,0.1-0.2,0.2-0.3,0.2c-0.1,0-0.3,0-0.4-0.1c-0.1-0.1-0.2-0.2-0.2-0.4
			c0-0.2,0.1-0.5,0.4-0.7c0.5-0.4,1.1-0.6,1.9-0.6C1108.6,1666.4,1109.4,1666.8,1109.8,1667.4z M1107,1669.7
			c-0.3,0.1-0.5,0.4-0.7,0.6c-0.1,0.3-0.2,0.6-0.2,0.9c0,0.3,0.1,0.7,0.3,0.9c0.2,0.3,0.4,0.4,0.8,0.4c0.4,0,0.7-0.2,1-0.6
			c0.2-0.4,0.3-1,0.3-1.6v-1.6C1108.3,1669,1107.8,1669.3,1107,1669.7z M1108,1663.7l-1.2,1.9l0.4,0.2l2.2-2.2H1108z"/>
		<path class="st1" d="M1118.2,1667c0.4,0.4,0.6,0.9,0.6,1.6v2.8c0,0.9,0.3,1.3,0.9,1.4v0.2h-3.3v-0.2c0.6,0,0.9-0.5,0.9-1.4v-3
			c0-0.4-0.1-0.7-0.3-1c-0.2-0.3-0.5-0.4-0.9-0.4c-0.3,0-0.6,0.1-0.9,0.4c-0.2,0.3-0.3,0.6-0.3,1v3c0,0.9,0.3,1.3,0.9,1.4v0.2h-3.3
			v-0.2c0.6,0,0.9-0.5,0.9-1.4v-3.5c0-0.7-0.3-1-0.9-0.9v-0.2l2.2-0.4c0.1,0.1,0.2,0.4,0.2,0.9c0.5-0.6,1.1-0.9,1.9-0.9
			C1117.3,1666.4,1117.8,1666.6,1118.2,1667z"/>
		<path class="st1" d="M1120.7,1666.8l2.4-0.4v5c0,0.8,0.3,1.3,0.9,1.3v0.2h-3.3v-0.2c0.6,0,0.9-0.5,0.9-1.3v-3.6
			c0-0.7-0.3-1-0.9-0.9V1666.8z M1123.2,1664.5c0,0.3-0.1,0.5-0.3,0.6c-0.2,0.2-0.4,0.3-0.6,0.3c-0.2,0-0.5-0.1-0.6-0.3
			c-0.2-0.2-0.3-0.4-0.3-0.6c0-0.3,0.1-0.5,0.3-0.6c0.2-0.2,0.4-0.3,0.6-0.3c0.2,0,0.5,0.1,0.6,0.3
			C1123.1,1664,1123.2,1664.2,1123.2,1664.5z"/>
		<path class="st1" d="M1130.2,1667c0.3,0.2,0.4,0.5,0.4,0.7c0,0.2-0.1,0.3-0.2,0.4c-0.1,0.1-0.3,0.1-0.4,0.1
			c-0.1,0-0.2-0.1-0.3-0.2c-0.1-0.1-0.2-0.3-0.2-0.5c-0.1-0.3-0.2-0.5-0.2-0.6c-0.2-0.1-0.4-0.2-0.7-0.2c-0.4,0-0.7,0.2-1,0.5
			c-0.3,0.3-0.5,0.7-0.6,1.2c-0.1,0.5-0.2,0.9-0.2,1.4c0,0.7,0.2,1.4,0.6,1.9c0.4,0.5,0.9,0.8,1.5,0.8c1,0,1.6-0.7,2-2.1h0.2
			c-0.1,0.8-0.5,1.5-1,2c-0.5,0.5-1.1,0.7-1.8,0.7c-0.9,0-1.6-0.3-2.2-0.9c-0.6-0.6-0.9-1.4-0.9-2.3c0-1,0.3-1.8,0.8-2.4
			c0.6-0.7,1.4-1,2.4-1C1129.1,1666.4,1129.7,1666.6,1130.2,1667z"/>
		<path class="st1" d="M1137.2,1667.4c0.2,0.3,0.3,0.8,0.3,1.4v3.2c0,0.4,0.1,0.6,0.3,0.7c0.2,0.1,0.5,0,0.9-0.3l0.1,0.2
			c-0.5,0.3-0.9,0.5-1.4,0.5c-0.9,0-1.3-0.3-1.4-0.9c-0.2,0.3-0.4,0.5-0.8,0.7c-0.3,0.2-0.8,0.3-1.3,0.3c-0.5,0-1-0.2-1.4-0.5
			c-0.4-0.3-0.5-0.8-0.5-1.3c0-0.9,0.5-1.5,1.5-1.8c1.6-0.6,2.5-1.2,2.4-1.9c0-0.6-0.4-0.8-1.3-0.8c-0.3,0-0.6,0.1-0.7,0.2
			c0,0-0.1,0.2-0.3,0.6c-0.1,0.2-0.2,0.3-0.3,0.4c-0.1,0.1-0.2,0.2-0.3,0.2c-0.1,0-0.3,0-0.4-0.1c-0.1-0.1-0.2-0.2-0.2-0.4
			c0-0.2,0.1-0.5,0.4-0.7c0.5-0.4,1.1-0.6,1.9-0.6C1136.1,1666.4,1136.9,1666.8,1137.2,1667.4z M1134.5,1669.7
			c-0.3,0.1-0.5,0.4-0.7,0.6c-0.1,0.3-0.2,0.6-0.2,0.9c0,0.3,0.1,0.7,0.3,0.9c0.2,0.3,0.4,0.4,0.8,0.4c0.4,0,0.7-0.2,1-0.6
			c0.2-0.4,0.3-1,0.3-1.6v-1.6C1135.8,1669,1135.3,1669.3,1134.5,1669.7z"/>
		<path class="st1" d="M1140.5,1663.6c0.2,0,0.4,0,0.6,0.1c0.3,0.2,0.5,0.5,0.6,0.9c0.1,0.4,0.1,0.8,0,1.3c-0.1,0.5-0.4,0.9-0.7,1.3
			c-0.4,0.3-0.8,0.5-1.3,0.6v-0.4c0.3-0.1,0.6-0.3,0.9-0.6c0.3-0.3,0.4-0.6,0.5-0.9c0-0.1,0.1-0.3,0.1-0.4c0-0.2-0.1-0.2-0.2-0.1
			c-0.1,0.1-0.3,0.1-0.5,0.1c-0.2,0-0.5-0.1-0.6-0.3c-0.2-0.2-0.3-0.4-0.3-0.7c0-0.3,0.1-0.5,0.3-0.7
			C1140.1,1663.7,1140.3,1663.6,1140.5,1663.6z M1143.2,1663.6c0.2,0,0.4,0,0.6,0.1c0.3,0.2,0.5,0.5,0.6,0.9c0.1,0.4,0.1,0.8,0,1.3
			c-0.1,0.5-0.4,0.9-0.7,1.3c-0.4,0.3-0.8,0.5-1.3,0.6v-0.4c0.3-0.1,0.6-0.3,0.9-0.6c0.3-0.3,0.4-0.6,0.5-0.9c0-0.1,0.1-0.3,0.1-0.4
			c0-0.2-0.1-0.2-0.2-0.1c-0.1,0.1-0.3,0.1-0.5,0.1c-0.2,0-0.5-0.1-0.6-0.3c-0.2-0.2-0.3-0.4-0.3-0.7c0-0.3,0.1-0.5,0.3-0.7
			C1142.7,1663.7,1142.9,1663.6,1143.2,1663.6z"/>
	</g>
	<g class="st0">
		<path class="st1" d="M1012,1687.2c0.6-0.5,1.3-0.7,1.9-0.7c0.8,0,1.5,0.3,2,0.9c0.5,0.6,0.7,1.4,0.7,2.4c0,1-0.3,1.8-0.8,2.5
			c-0.5,0.6-1.2,0.9-2,0.9c-0.7,0-1.3-0.2-1.9-0.6v2.4c0,0.9,0.3,1.3,0.9,1.4v0.2h-3.3v-0.2c0.6,0,0.9-0.5,0.9-1.4v-6.9
			c0-0.7-0.3-1-0.9-0.9v-0.2l2.2-0.4C1011.9,1686.6,1011.9,1686.8,1012,1687.2z M1014.7,1691.9c0.3-0.5,0.4-1.2,0.4-2
			c0-0.9-0.2-1.6-0.5-2.1c-0.3-0.6-0.8-0.8-1.3-0.8c-0.3,0-0.6,0.2-0.9,0.5c-0.3,0.3-0.4,0.7-0.4,1.2v3.4c0.1,0.2,0.3,0.3,0.6,0.5
			c0.3,0.2,0.5,0.2,0.8,0.2C1013.9,1692.7,1014.3,1692.4,1014.7,1691.9z"/>
		<path class="st1" d="M1023.4,1687.4c0.6,0.6,0.9,1.4,0.9,2.4c0,1-0.3,1.8-1,2.4c-0.6,0.7-1.4,1-2.3,1c-0.9,0-1.6-0.3-2.2-1
			c-0.6-0.6-0.9-1.4-0.9-2.3c0-1,0.3-1.8,0.9-2.4c0.6-0.7,1.4-1,2.3-1C1022.1,1686.4,1022.8,1686.8,1023.4,1687.4z M1020,1687.7
			c-0.3,0.6-0.4,1.3-0.4,2.2c0,0.8,0.1,1.5,0.4,2.1c0.3,0.6,0.6,0.9,1.1,0.9c0.4,0,0.8-0.3,1.1-0.9c0.3-0.6,0.5-1.3,0.5-2.2
			c0-0.9-0.1-1.6-0.4-2.2c-0.3-0.5-0.6-0.8-1.1-0.8C1020.7,1686.8,1020.3,1687.1,1020,1687.7z"/>
		<path class="st1" d="M1027.7,1687.4c0.4-0.6,0.9-0.9,1.6-0.9c0.4,0,0.8,0.1,1.2,0.3c0.3,0.2,0.4,0.4,0.4,0.7c0,0.1,0,0.3-0.1,0.4
			c-0.1,0.1-0.2,0.2-0.4,0.2c-0.2,0-0.3,0-0.4-0.1c-0.1-0.1-0.2-0.2-0.3-0.4c-0.1-0.2-0.2-0.4-0.3-0.5c-0.1-0.1-0.3-0.2-0.5-0.1
			c-0.3,0-0.5,0.2-0.8,0.6c-0.2,0.4-0.4,0.9-0.4,1.4v2.6c0,0.9,0.3,1.4,0.9,1.4v0.2h-3.2v-0.2c0.6,0,0.9-0.5,0.9-1.4v-3.4
			c0-0.7-0.3-1-0.9-1v-0.2l2.2-0.4C1027.6,1686.6,1027.7,1686.9,1027.7,1687.4z"/>
		<path class="st1" d="M1039.8,1691.4c0,0.9,0.3,1.3,0.9,1.4v0.2h-3.3v-0.2c0.6,0,0.9-0.5,0.9-1.4v-6.5c0-0.7-0.3-1-0.9-0.9v-0.2
			l2.5-0.4v3V1691.4z"/>
		<path class="st1" d="M1046.9,1687.4c0.2,0.3,0.3,0.8,0.3,1.4v3.2c0,0.4,0.1,0.6,0.3,0.7c0.2,0.1,0.5,0,0.9-0.3l0.1,0.2
			c-0.5,0.3-0.9,0.5-1.4,0.5c-0.9,0-1.3-0.3-1.4-0.9c-0.2,0.3-0.4,0.5-0.8,0.7c-0.3,0.2-0.8,0.3-1.3,0.3c-0.5,0-1-0.2-1.4-0.5
			c-0.4-0.3-0.5-0.8-0.5-1.3c0-0.9,0.5-1.5,1.5-1.8c1.6-0.6,2.5-1.2,2.4-1.9c0-0.6-0.4-0.8-1.3-0.8c-0.3,0-0.6,0.1-0.7,0.2
			c0,0-0.1,0.2-0.3,0.6c-0.1,0.2-0.2,0.3-0.3,0.4c-0.1,0.1-0.2,0.2-0.3,0.2c-0.1,0-0.3,0-0.4-0.1c-0.1-0.1-0.2-0.2-0.2-0.4
			c0-0.2,0.1-0.5,0.4-0.7c0.5-0.4,1.1-0.6,1.9-0.6C1045.7,1686.4,1046.5,1686.8,1046.9,1687.4z M1044.2,1689.7
			c-0.3,0.1-0.5,0.4-0.7,0.6c-0.1,0.3-0.2,0.6-0.2,0.9c0,0.3,0.1,0.7,0.3,0.9c0.2,0.3,0.4,0.4,0.8,0.4c0.4,0,0.7-0.2,1-0.6
			c0.2-0.4,0.3-1,0.3-1.6v-1.6C1045.4,1689,1044.9,1689.3,1044.2,1689.7z"/>
		<path class="st1" d="M1062.1,1683.8l0.1,2.2l-0.2,0c-0.1-1.3-0.8-2-2.2-2h-2.3v3.8h1.2c0.9,0,1.4-0.5,1.4-1.4h0.2v3.1h-0.2
			c0-0.9-0.5-1.4-1.4-1.4h-1.2v3c0,1,0.7,1.5,2.1,1.5c1.9,0,3-0.8,3-2.4l0.2,0l-0.2,2.6h-8v-0.3c0.8,0,1.2-0.4,1.2-1.1v-6.4
			c0-0.8-0.4-1.2-1.2-1.2v-0.3H1062.1z"/>
		<path class="st1" d="M1066.9,1686.6c0.3,0.1,0.5,0.2,0.5,0.1c0.1,0,0.1-0.1,0.1-0.2h0.2l0.2,1.9h-0.2c-0.1-0.5-0.3-0.9-0.6-1.3
			c-0.1-0.1-0.3-0.2-0.6-0.3c-0.2-0.1-0.4-0.1-0.6-0.1c-0.3,0-0.6,0.1-0.8,0.3c-0.2,0.1-0.3,0.3-0.3,0.6c0,0.2,0.1,0.4,0.2,0.6
			c0.1,0.1,0.5,0.3,1.1,0.6c0.6,0.2,1,0.4,1.2,0.5c0.7,0.4,1,1,0.9,1.8c0,0.6-0.3,1.1-0.7,1.5c-0.4,0.4-1,0.6-1.8,0.5
			c-0.3,0-0.5-0.1-0.8-0.2c-0.5-0.2-0.8-0.3-0.9-0.2c-0.1,0-0.2,0.1-0.2,0.3h-0.2l0-2h0.2c0,0.2,0.1,0.4,0.1,0.6
			c0.1,0.2,0.2,0.3,0.4,0.5c0.4,0.4,0.9,0.6,1.4,0.7c0.5,0.1,0.9,0,1.2-0.2c0.3-0.2,0.4-0.4,0.4-0.7c0-0.3,0-0.5-0.2-0.7
			c-0.1-0.1-0.3-0.3-0.6-0.4c-0.4-0.2-0.7-0.3-1-0.4c-0.4-0.1-0.6-0.2-0.8-0.3c-0.8-0.4-1.1-1-1.1-1.8c0-0.5,0.2-1,0.5-1.3
			c0.4-0.4,0.9-0.5,1.5-0.5C1066.3,1686.4,1066.6,1686.5,1066.9,1686.6z"/>
		<path class="st1" d="M1074.9,1687c0.3,0.2,0.4,0.5,0.4,0.7c0,0.2-0.1,0.3-0.2,0.4c-0.1,0.1-0.3,0.1-0.4,0.1
			c-0.1,0-0.2-0.1-0.3-0.2c-0.1-0.1-0.2-0.3-0.2-0.5c-0.1-0.3-0.2-0.5-0.2-0.6c-0.2-0.1-0.4-0.2-0.7-0.2c-0.4,0-0.7,0.2-1,0.5
			c-0.3,0.3-0.5,0.7-0.6,1.2c-0.1,0.5-0.2,0.9-0.2,1.4c0,0.7,0.2,1.4,0.6,1.9c0.4,0.5,0.9,0.8,1.5,0.8c1,0,1.6-0.7,2-2.1h0.2
			c-0.1,0.8-0.5,1.5-1,2c-0.5,0.5-1.1,0.7-1.8,0.7c-0.9,0-1.6-0.3-2.2-0.9c-0.6-0.6-0.9-1.4-0.9-2.3c0-1,0.3-1.8,0.8-2.4
			c0.6-0.7,1.4-1,2.4-1C1073.8,1686.4,1074.4,1686.6,1074.9,1687z"/>
		<path class="st1" d="M1078,1692.6c-0.4-0.4-0.6-0.9-0.6-1.6v-2.8c0-0.9-0.3-1.3-0.9-1.4v-0.2h2.4v4.6c0,0.4,0.1,0.7,0.3,1
			c0.2,0.3,0.5,0.4,0.9,0.4c0.3,0,0.6-0.1,0.9-0.4c0.2-0.3,0.3-0.6,0.3-1l0-3c0-0.9-0.3-1.3-0.9-1.4v-0.2l2.4,0v5
			c0,0.8,0.3,1.1,0.9,1v0.2l-2.2,0.4c-0.1-0.1-0.2-0.4-0.2-0.9c-0.5,0.6-1.1,0.9-1.9,0.9C1078.9,1693.2,1078.4,1693,1078,1692.6z"/>
		<path class="st1" d="M1090.1,1687.3c0.5,0.6,0.8,1.3,0.9,2.3h-4.6c-0.1,0.8,0.1,1.5,0.5,2.1c0.4,0.6,0.9,0.9,1.6,0.8
			c0.5,0,1-0.2,1.4-0.6s0.6-0.9,0.8-1.5h0.2c-0.2,0.9-0.5,1.5-1.1,2c-0.6,0.5-1.2,0.7-2,0.7c-0.8,0-1.6-0.3-2.2-1
			c-0.6-0.6-0.9-1.4-0.9-2.3c0-1,0.3-1.8,0.9-2.4c0.6-0.7,1.4-1,2.3-1C1088.8,1686.4,1089.6,1686.7,1090.1,1687.3z M1087.2,1687
			c-0.2,0.2-0.3,0.4-0.5,0.7c-0.1,0.3-0.2,0.5-0.2,0.8c-0.1,0.3-0.1,0.5-0.1,0.8h2.9c0-0.3,0-0.7-0.1-1c-0.1-0.4-0.2-0.7-0.5-1
			c-0.2-0.3-0.5-0.5-0.9-0.5C1087.6,1686.7,1087.4,1686.8,1087.2,1687z"/>
		<path class="st1" d="M1094.4,1691.4c0,0.9,0.3,1.3,0.9,1.4v0.2h-3.3v-0.2c0.6,0,0.9-0.5,0.9-1.4v-6.5c0-0.7-0.3-1-0.9-0.9v-0.2
			l2.5-0.4v3V1691.4z"/>
		<path class="st1" d="M1101.5,1687.4c0.2,0.3,0.3,0.8,0.3,1.4v3.2c0,0.4,0.1,0.6,0.3,0.7c0.2,0.1,0.5,0,0.9-0.3l0.1,0.2
			c-0.5,0.3-0.9,0.5-1.4,0.5c-0.9,0-1.3-0.3-1.4-0.9c-0.2,0.3-0.4,0.5-0.8,0.7c-0.3,0.2-0.8,0.3-1.3,0.3c-0.5,0-1-0.2-1.4-0.5
			c-0.4-0.3-0.5-0.8-0.5-1.3c0-0.9,0.5-1.5,1.5-1.8c1.6-0.6,2.5-1.2,2.4-1.9c0-0.6-0.4-0.8-1.3-0.8c-0.3,0-0.6,0.1-0.7,0.2
			c0,0-0.1,0.2-0.3,0.6c-0.1,0.2-0.2,0.3-0.3,0.4c-0.1,0.1-0.2,0.2-0.3,0.2c-0.1,0-0.3,0-0.4-0.1c-0.1-0.1-0.2-0.2-0.2-0.4
			c0-0.2,0.1-0.5,0.4-0.7c0.5-0.4,1.1-0.6,1.9-0.6C1100.3,1686.4,1101.2,1686.8,1101.5,1687.4z M1098.8,1689.7
			c-0.3,0.1-0.5,0.4-0.7,0.6c-0.1,0.3-0.2,0.6-0.2,0.9c0,0.3,0.1,0.7,0.3,0.9c0.2,0.3,0.4,0.4,0.8,0.4c0.4,0,0.7-0.2,1-0.6
			c0.2-0.4,0.3-1,0.3-1.6v-1.6C1100,1689,1099.5,1689.3,1098.8,1689.7z"/>
		<path class="st1" d="M1114,1692.4c-0.6,0.5-1.2,0.7-1.9,0.7c-0.8,0-1.5-0.3-2-0.9c-0.5-0.6-0.7-1.4-0.7-2.4c0-1,0.3-1.8,0.8-2.5
			c0.5-0.6,1.2-0.9,2-0.9c0.7,0,1.3,0.2,1.9,0.6v-2.2c0-0.7-0.3-1-0.9-0.9v-0.2l2.4-0.4v8.1c0,0.7,0.3,1,0.9,0.9v0.2l-2.2,0.5
			C1114.1,1693,1114,1692.8,1114,1692.4z M1111.3,1687.7c-0.3,0.5-0.4,1.2-0.4,2c0,0.9,0.2,1.6,0.5,2.1c0.3,0.6,0.8,0.8,1.3,0.8
			c0.3,0,0.6-0.2,0.9-0.5c0.3-0.3,0.4-0.7,0.4-1.2v-3.4c-0.1-0.2-0.3-0.4-0.6-0.5c-0.3-0.2-0.5-0.2-0.8-0.2
			C1112,1686.9,1111.6,1687.2,1111.3,1687.7z"/>
		<path class="st1" d="M1122.8,1687.3c0.5,0.6,0.8,1.3,0.9,2.3h-4.6c-0.1,0.8,0.1,1.5,0.5,2.1c0.4,0.6,0.9,0.9,1.6,0.8
			c0.5,0,1-0.2,1.4-0.6s0.6-0.9,0.8-1.5h0.2c-0.2,0.9-0.5,1.5-1.1,2c-0.6,0.5-1.2,0.7-2,0.7c-0.8,0-1.6-0.3-2.2-1
			c-0.6-0.6-0.9-1.4-0.9-2.3c0-1,0.3-1.8,0.9-2.4c0.6-0.7,1.4-1,2.3-1C1121.5,1686.4,1122.3,1686.7,1122.8,1687.3z M1119.9,1687
			c-0.2,0.2-0.3,0.4-0.5,0.7c-0.1,0.3-0.2,0.5-0.2,0.8c-0.1,0.3-0.1,0.5-0.1,0.8h2.9c0-0.3,0-0.7-0.1-1c-0.1-0.4-0.2-0.7-0.5-1
			c-0.2-0.3-0.5-0.5-0.9-0.5C1120.3,1686.7,1120.1,1686.8,1119.9,1687z"/>
	</g>
	<g class="st0">
		<path class="st1" d="M999.3,1704c0.6,0.2,0.9,0.1,0.9-0.3h0.2l0.1,2.7l-0.2,0c-0.4-1.7-1.4-2.5-3.1-2.5c-0.9,0-1.7,0.5-2.3,1.3
			c-0.6,0.9-0.9,1.9-0.9,3.1c0,0.8,0.1,1.6,0.3,2.2c0.2,0.6,0.5,1.1,1,1.5c0.4,0.4,1,0.6,1.7,0.6c0.6,0,1.1-0.1,1.5-0.5
			c0.4-0.3,0.5-0.7,0.5-1.3v-0.3c0-0.8-0.4-1.3-1.3-1.5v-0.3h4.2v0.3c-0.8,0.2-1.2,0.7-1.2,1.5v1.1c-0.4,0.4-1,0.7-1.5,0.9
			c-0.6,0.3-1.3,0.4-2.1,0.4c-1.4,0-2.6-0.4-3.5-1.3c-0.9-0.9-1.4-2-1.4-3.4c0-0.9,0.2-1.7,0.6-2.4c0.4-0.7,1-1.3,1.8-1.8
			c0.8-0.4,1.7-0.7,2.7-0.7C997.9,1703.6,998.5,1703.8,999.3,1704z"/>
		<path class="st1" d="M1008.2,1707.4c0.2,0.3,0.3,0.8,0.3,1.4v3.2c0,0.4,0.1,0.6,0.3,0.7c0.2,0.1,0.5,0,0.9-0.3l0.1,0.2
			c-0.5,0.3-0.9,0.5-1.4,0.5c-0.9,0-1.3-0.3-1.4-0.9c-0.2,0.3-0.4,0.5-0.8,0.7c-0.3,0.2-0.8,0.3-1.3,0.3c-0.5,0-1-0.2-1.4-0.5
			c-0.4-0.3-0.5-0.8-0.5-1.3c0-0.9,0.5-1.5,1.5-1.8c1.6-0.6,2.5-1.2,2.4-1.9c0-0.6-0.4-0.8-1.3-0.8c-0.3,0-0.6,0.1-0.7,0.2
			c0,0-0.1,0.2-0.3,0.6c-0.1,0.2-0.2,0.3-0.3,0.4c-0.1,0.1-0.2,0.2-0.3,0.2c-0.1,0-0.3,0-0.4-0.1c-0.1-0.1-0.2-0.2-0.2-0.4
			c0-0.2,0.1-0.5,0.4-0.7c0.5-0.4,1.1-0.6,1.9-0.6C1007,1706.4,1007.9,1706.8,1008.2,1707.4z M1005.5,1709.7
			c-0.3,0.1-0.5,0.4-0.7,0.6c-0.1,0.3-0.2,0.6-0.2,0.9c0,0.3,0.1,0.7,0.3,0.9c0.2,0.3,0.4,0.4,0.8,0.4c0.4,0,0.7-0.2,1-0.6
			c0.2-0.4,0.3-1,0.3-1.6v-1.6C1006.7,1709,1006.3,1709.3,1005.5,1709.7z"/>
		<path class="st1" d="M1013.7,1706.6c0.3,0.1,0.5,0.2,0.5,0.1c0.1,0,0.1-0.1,0.1-0.2h0.2l0.2,1.9h-0.2c-0.1-0.5-0.3-0.9-0.6-1.3
			c-0.1-0.1-0.3-0.2-0.6-0.3c-0.2-0.1-0.4-0.1-0.6-0.1c-0.3,0-0.6,0.1-0.8,0.3c-0.2,0.1-0.3,0.3-0.3,0.6c0,0.2,0.1,0.4,0.2,0.6
			c0.1,0.1,0.5,0.3,1.1,0.6c0.6,0.2,1,0.4,1.2,0.5c0.7,0.4,1,1,0.9,1.8c0,0.6-0.3,1.1-0.7,1.5c-0.4,0.4-1,0.6-1.8,0.5
			c-0.3,0-0.5-0.1-0.8-0.2c-0.5-0.2-0.8-0.3-0.9-0.2c-0.1,0-0.2,0.1-0.2,0.3h-0.2l0-2h0.2c0,0.2,0.1,0.4,0.1,0.6
			c0.1,0.2,0.2,0.3,0.4,0.5c0.4,0.4,0.9,0.6,1.4,0.7c0.5,0.1,0.9,0,1.2-0.2c0.3-0.2,0.4-0.4,0.4-0.7c0-0.3,0-0.5-0.2-0.7
			c-0.1-0.1-0.3-0.3-0.6-0.4c-0.4-0.2-0.7-0.3-1-0.4c-0.4-0.1-0.6-0.2-0.8-0.3c-0.8-0.4-1.1-1-1.1-1.8c0-0.5,0.2-1,0.5-1.3
			c0.4-0.4,0.9-0.5,1.5-0.5C1013.1,1706.4,1013.4,1706.5,1013.7,1706.6z"/>
		<path class="st1" d="M1018.7,1704.3v2.3h1.3v0.3h-1.3v4.4c0,0.5,0.1,0.8,0.3,1c0.2,0.2,0.4,0.2,0.8,0.1c0.1,0,0.3-0.1,0.6-0.2
			l0.1,0.3c-0.2,0.1-0.4,0.2-0.7,0.3c-1.7,0.6-2.6,0.1-2.6-1.4v-4.6h-0.9v-0.2c0.5-0.1,0.9-0.4,1.3-0.9c0.4-0.5,0.7-1,0.9-1.6
			H1018.7z"/>
		<path class="st1" d="M1023.8,1707.4c0.4-0.6,0.9-0.9,1.6-0.9c0.4,0,0.8,0.1,1.2,0.3c0.3,0.2,0.4,0.4,0.4,0.7c0,0.1,0,0.3-0.1,0.4
			s-0.2,0.2-0.4,0.2c-0.2,0-0.3,0-0.4-0.1s-0.2-0.2-0.3-0.4c-0.1-0.2-0.2-0.4-0.3-0.5c-0.1-0.1-0.3-0.2-0.5-0.1
			c-0.3,0-0.5,0.2-0.8,0.6c-0.3,0.4-0.4,0.9-0.4,1.4v2.6c0,0.9,0.3,1.4,0.9,1.4v0.2h-3.3v-0.2c0.6,0,0.9-0.5,0.9-1.4v-3.4
			c0-0.7-0.3-1-0.9-1v-0.2l2.2-0.4C1023.8,1706.6,1023.8,1706.9,1023.8,1707.4z"/>
		<path class="st1" d="M1033.1,1707.4c0.6,0.6,0.9,1.4,0.9,2.4c0,1-0.3,1.8-1,2.4c-0.6,0.7-1.4,1-2.3,1c-0.9,0-1.6-0.3-2.2-1
			c-0.6-0.6-0.9-1.4-0.9-2.3c0-1,0.3-1.8,0.9-2.4c0.6-0.7,1.4-1,2.3-1C1031.8,1706.4,1032.6,1706.8,1033.1,1707.4z M1029.8,1707.7
			c-0.3,0.6-0.4,1.3-0.4,2.2c0,0.8,0.1,1.5,0.4,2.1c0.3,0.6,0.6,0.9,1.1,0.9c0.4,0,0.8-0.3,1.1-0.9c0.3-0.6,0.5-1.3,0.5-2.2
			c0-0.9-0.1-1.6-0.4-2.2c-0.3-0.5-0.6-0.8-1.1-0.8C1030.5,1706.8,1030.1,1707.1,1029.8,1707.7z"/>
		<path class="st1" d="M1040.9,1707c0.4,0.4,0.6,0.9,0.6,1.6v2.8c0,0.9,0.3,1.3,0.9,1.4v0.2h-3.3v-0.2c0.6,0,0.9-0.5,0.9-1.4v-3
			c0-0.4-0.1-0.7-0.3-1c-0.2-0.3-0.5-0.4-0.9-0.4c-0.3,0-0.6,0.1-0.9,0.4c-0.2,0.3-0.3,0.6-0.3,1v3c0,0.9,0.3,1.3,0.9,1.4v0.2h-3.3
			v-0.2c0.6,0,0.9-0.5,0.9-1.4v-3.5c0-0.7-0.3-1-0.9-0.9v-0.2l2.2-0.4c0.1,0.1,0.2,0.4,0.2,0.9c0.5-0.6,1.1-0.9,1.9-0.9
			C1040,1706.4,1040.5,1706.6,1040.9,1707z"/>
		<path class="st1" d="M1048.9,1707.4c0.6,0.6,0.9,1.4,0.9,2.4c0,1-0.3,1.8-1,2.4c-0.6,0.7-1.4,1-2.3,1c-0.9,0-1.6-0.3-2.2-1
			c-0.6-0.6-0.9-1.4-0.9-2.3c0-1,0.3-1.8,0.9-2.4c0.6-0.7,1.4-1,2.3-1C1047.6,1706.4,1048.3,1706.8,1048.9,1707.4z M1045.5,1707.7
			c-0.3,0.6-0.4,1.3-0.4,2.2c0,0.8,0.1,1.5,0.4,2.1c0.3,0.6,0.6,0.9,1.1,0.9c0.4,0,0.8-0.3,1.1-0.9c0.3-0.6,0.5-1.3,0.5-2.2
			c0-0.9-0.1-1.6-0.4-2.2c-0.3-0.5-0.6-0.8-1.1-0.8C1046.2,1706.8,1045.8,1707.1,1045.5,1707.7z"/>
		<path class="st1" d="M1056.5,1707c0.2,0.2,0.3,0.3,0.4,0.5c0.5-0.7,1.1-1.1,1.9-1.1c0.6,0,1.1,0.2,1.5,0.6
			c0.4,0.4,0.5,0.9,0.5,1.6v2.8c0,0.9,0.3,1.3,0.9,1.4v0.2h-3.3v-0.2c0.6,0,0.9-0.5,0.9-1.4v-3c0-0.4-0.1-0.7-0.3-1
			c-0.2-0.3-0.5-0.4-0.8-0.4c-0.3,0-0.6,0.1-0.8,0.4c-0.2,0.3-0.3,0.6-0.3,1v3c0,0.9,0.3,1.3,0.9,1.4v0.2h-3.3v-0.2
			c0.6,0,0.9-0.5,0.9-1.4v-3c0-0.4-0.1-0.7-0.3-1c-0.2-0.3-0.5-0.4-0.8-0.4c-0.3,0-0.6,0.1-0.8,0.4c-0.2,0.3-0.4,0.6-0.3,1v3
			c0,0.9,0.3,1.3,0.9,1.4v0.2h-3.3v-0.2c0.6,0,0.9-0.5,0.9-1.4v-3.5c0-0.7-0.3-1-0.9-0.9v-0.2l2.2-0.4c0.1,0.1,0.2,0.4,0.2,0.9
			c0.4-0.6,1-0.9,1.8-0.9C1055.6,1706.5,1056.1,1706.6,1056.5,1707z"/>
		<path class="st1" d="M1062.7,1706.8l2.4-0.4v5c0,0.8,0.3,1.3,0.9,1.3v0.2h-3.3v-0.2c0.6,0,0.9-0.5,0.9-1.3v-3.6
			c0-0.7-0.3-1-0.9-0.9V1706.8z M1064.3,1703.5l-1.2,1.9l0.4,0.2l2.2-2.2H1064.3z"/>
		<path class="st1" d="M1072.2,1707.4c0.2,0.3,0.3,0.8,0.3,1.4v3.2c0,0.4,0.1,0.6,0.3,0.7c0.2,0.1,0.5,0,0.9-0.3l0.1,0.2
			c-0.5,0.3-0.9,0.5-1.4,0.5c-0.9,0-1.3-0.3-1.4-0.9c-0.2,0.3-0.4,0.5-0.8,0.7c-0.3,0.2-0.8,0.3-1.3,0.3c-0.5,0-1-0.2-1.4-0.5
			c-0.4-0.3-0.5-0.8-0.5-1.3c0-0.9,0.5-1.5,1.5-1.8c1.6-0.6,2.5-1.2,2.4-1.9c0-0.6-0.4-0.8-1.3-0.8c-0.3,0-0.6,0.1-0.7,0.2
			c0,0-0.1,0.2-0.3,0.6c-0.1,0.2-0.2,0.3-0.3,0.4c-0.1,0.1-0.2,0.2-0.3,0.2c-0.1,0-0.3,0-0.4-0.1c-0.1-0.1-0.2-0.2-0.2-0.4
			c0-0.2,0.1-0.5,0.4-0.7c0.5-0.4,1.1-0.6,1.9-0.6C1071,1706.4,1071.9,1706.8,1072.2,1707.4z M1069.5,1709.7
			c-0.3,0.1-0.5,0.4-0.7,0.6c-0.1,0.3-0.2,0.6-0.2,0.9c0,0.3,0.1,0.7,0.3,0.9c0.2,0.3,0.4,0.4,0.8,0.4c0.4,0,0.7-0.2,1-0.6
			c0.2-0.4,0.3-1,0.3-1.6v-1.6C1070.7,1709,1070.2,1709.3,1069.5,1709.7z"/>
		<path class="st1" d="M1083,1703.8c0,0.2,0.1,0.4,0.2,0.6l3,6.7l3-7.3l2.6,0v0.3c-0.8,0-1.2,0.4-1.2,1.2v6.4c0,0.8,0.4,1.2,1.2,1.2
			v0.2h-3.9v-0.2c0.8,0,1.2-0.4,1.2-1.2v-6.8l-3.4,8.2h-0.5l-3.7-8.2v6.8c0,0.8,0.4,1.2,1.1,1.2v0.2h-2.6v-0.2
			c0.8,0,1.2-0.4,1.2-1.2v-6.4c0-0.8-0.4-1.2-1.2-1.2v-0.3L1083,1703.8z"/>
		<path class="st1" d="M1098.1,1707.3c0.5,0.6,0.8,1.3,0.9,2.3h-4.6c-0.1,0.8,0.1,1.5,0.5,2.1c0.4,0.6,0.9,0.9,1.6,0.8
			c0.5,0,1-0.2,1.4-0.6s0.6-0.9,0.8-1.5h0.2c-0.2,0.9-0.5,1.5-1.1,2c-0.6,0.5-1.2,0.7-2,0.7c-0.8,0-1.6-0.3-2.2-1
			c-0.6-0.6-0.9-1.4-0.9-2.3c0-1,0.3-1.8,0.9-2.4c0.6-0.7,1.4-1,2.3-1C1096.9,1706.4,1097.6,1706.7,1098.1,1707.3z M1095.2,1707
			c-0.2,0.2-0.3,0.4-0.5,0.7c-0.1,0.3-0.2,0.5-0.2,0.8c-0.1,0.3-0.1,0.5-0.1,0.8h2.9c0-0.3,0-0.7-0.1-1c-0.1-0.4-0.2-0.7-0.5-1
			c-0.2-0.3-0.5-0.5-0.9-0.5C1095.7,1706.7,1095.4,1706.8,1095.2,1707z"/>
		<path class="st1" d="M1102.6,1706.6v0.2c-0.6,0-0.6,0.4-0.1,1.2l0.5,0.9l0.7-0.9c0.6-0.8,0.6-1.2-0.1-1.2v-0.2h2.2v0.2
			c-0.6,0-1.2,0.4-1.8,1.2l-0.8,1.1l1.4,2.4c0.4,0.8,0.9,1.2,1.5,1.2v0.2h-3.3v-0.2c0.6,0,0.7-0.4,0.2-1.2l-0.8-1.4l-1,1.4
			c-0.5,0.8-0.5,1.2,0.1,1.2v0.2h-2.2v-0.2c0.6,0,1.2-0.4,1.8-1.2l1.2-1.7l-1.1-1.9c-0.5-0.8-1-1.2-1.5-1.2v-0.2H1102.6z"/>
		<path class="st1" d="M1107.1,1706.8l2.4-0.4v5c0,0.8,0.3,1.3,0.9,1.3v0.2h-3.3v-0.2c0.6,0,0.9-0.5,0.9-1.3v-3.6
			c0-0.7-0.3-1-0.9-0.9V1706.8z M1109.6,1704.5c0,0.3-0.1,0.5-0.3,0.6c-0.2,0.2-0.4,0.3-0.6,0.3c-0.2,0-0.5-0.1-0.6-0.3
			c-0.2-0.2-0.3-0.4-0.3-0.6c0-0.3,0.1-0.5,0.3-0.6c0.2-0.2,0.4-0.3,0.6-0.3c0.2,0,0.5,0.1,0.6,0.3
			C1109.5,1704,1109.6,1704.2,1109.6,1704.5z"/>
		<path class="st1" d="M1116.6,1707c0.3,0.2,0.4,0.5,0.4,0.7c0,0.2-0.1,0.3-0.2,0.4c-0.1,0.1-0.3,0.1-0.4,0.1
			c-0.1,0-0.2-0.1-0.3-0.2c-0.1-0.1-0.2-0.3-0.2-0.5c-0.1-0.3-0.2-0.5-0.2-0.6c-0.2-0.1-0.4-0.2-0.7-0.2c-0.4,0-0.7,0.2-1,0.5
			c-0.3,0.3-0.5,0.7-0.6,1.2c-0.1,0.5-0.2,0.9-0.2,1.4c0,0.7,0.2,1.4,0.6,1.9c0.4,0.5,0.9,0.8,1.5,0.8c1,0,1.6-0.7,2-2.1h0.2
			c-0.1,0.8-0.5,1.5-1,2c-0.5,0.5-1.1,0.7-1.8,0.7c-0.9,0-1.6-0.3-2.2-0.9c-0.6-0.6-0.9-1.4-0.9-2.3c0-1,0.3-1.8,0.8-2.4
			c0.6-0.7,1.4-1,2.4-1C1115.5,1706.4,1116.1,1706.6,1116.6,1707z"/>
		<path class="st1" d="M1123.6,1707.4c0.2,0.3,0.3,0.8,0.3,1.4v3.2c0,0.4,0.1,0.6,0.3,0.7c0.2,0.1,0.5,0,0.9-0.3l0.1,0.2
			c-0.5,0.3-0.9,0.5-1.4,0.5c-0.9,0-1.3-0.3-1.4-0.9c-0.2,0.3-0.4,0.5-0.8,0.7c-0.3,0.2-0.8,0.3-1.3,0.3c-0.5,0-1-0.2-1.4-0.5
			c-0.4-0.3-0.5-0.8-0.5-1.3c0-0.9,0.5-1.5,1.5-1.8c1.6-0.6,2.5-1.2,2.4-1.9c0-0.6-0.4-0.8-1.3-0.8c-0.3,0-0.6,0.1-0.7,0.2
			c0,0-0.1,0.2-0.3,0.6c-0.1,0.2-0.2,0.3-0.3,0.4c-0.1,0.1-0.2,0.2-0.3,0.2c-0.1,0-0.3,0-0.4-0.1c-0.1-0.1-0.2-0.2-0.2-0.4
			c0-0.2,0.1-0.5,0.4-0.7c0.5-0.4,1.1-0.6,1.9-0.6C1122.5,1706.4,1123.3,1706.8,1123.6,1707.4z M1120.9,1709.7
			c-0.3,0.1-0.5,0.4-0.7,0.6c-0.1,0.3-0.2,0.6-0.2,0.9c0,0.3,0.1,0.7,0.3,0.9c0.2,0.3,0.4,0.4,0.8,0.4c0.4,0,0.7-0.2,1-0.6
			c0.2-0.4,0.3-1,0.3-1.6v-1.6C1122.1,1709,1121.7,1709.3,1120.9,1709.7z"/>
		<path class="st1" d="M1131.9,1707c0.4,0.4,0.6,0.9,0.6,1.6v2.8c0,0.9,0.3,1.3,0.9,1.4v0.2h-3.3v-0.2c0.6,0,0.9-0.5,0.9-1.4v-3
			c0-0.4-0.1-0.7-0.3-1c-0.2-0.3-0.5-0.4-0.9-0.4c-0.3,0-0.6,0.1-0.9,0.4c-0.2,0.3-0.3,0.6-0.3,1v3c0,0.9,0.3,1.3,0.9,1.4v0.2h-3.3
			v-0.2c0.6,0,0.9-0.5,0.9-1.4v-3.5c0-0.7-0.3-1-0.9-0.9v-0.2l2.2-0.4c0.1,0.1,0.2,0.4,0.2,0.9c0.5-0.6,1.1-0.9,1.9-0.9
			C1131,1706.4,1131.5,1706.6,1131.9,1707z"/>
		<path class="st1" d="M1139.5,1707.4c0.2,0.3,0.3,0.8,0.3,1.4v3.2c0,0.4,0.1,0.6,0.3,0.7c0.2,0.1,0.5,0,0.9-0.3l0.1,0.2
			c-0.5,0.3-0.9,0.5-1.4,0.5c-0.9,0-1.3-0.3-1.4-0.9c-0.2,0.3-0.4,0.5-0.8,0.7c-0.3,0.2-0.8,0.3-1.3,0.3c-0.5,0-1-0.2-1.4-0.5
			c-0.4-0.3-0.5-0.8-0.5-1.3c0-0.9,0.5-1.5,1.5-1.8c1.6-0.6,2.5-1.2,2.4-1.9c0-0.6-0.4-0.8-1.3-0.8c-0.3,0-0.6,0.1-0.7,0.2
			c0,0-0.1,0.2-0.3,0.6c-0.1,0.2-0.2,0.3-0.3,0.4c-0.1,0.1-0.2,0.2-0.3,0.2c-0.1,0-0.3,0-0.4-0.1c-0.1-0.1-0.2-0.2-0.2-0.4
			c0-0.2,0.1-0.5,0.4-0.7c0.5-0.4,1.1-0.6,1.9-0.6C1138.3,1706.4,1139.2,1706.8,1139.5,1707.4z M1136.8,1709.7
			c-0.3,0.1-0.5,0.4-0.7,0.6c-0.1,0.3-0.2,0.6-0.2,0.9c0,0.3,0.1,0.7,0.3,0.9c0.2,0.3,0.4,0.4,0.8,0.4c0.4,0,0.7-0.2,1-0.6
			c0.2-0.4,0.3-1,0.3-1.6v-1.6C1138,1709,1137.5,1709.3,1136.8,1709.7z"/>
	</g>
	<g class="st0">
		<path class="st1" d="M1037.8,1723.8l0.1,2.2l-0.2,0c-0.1-1.3-0.8-2-2.2-2h-2.3v3.8h1.2c0.9,0,1.4-0.5,1.4-1.4h0.2v3.1h-0.2
			c0-0.9-0.5-1.4-1.4-1.4h-1.2v3c0,1,0.7,1.5,2.1,1.5c1.9,0,3-0.8,3-2.4l0.2,0l-0.2,2.6h-8v-0.3c0.8,0,1.2-0.4,1.2-1.1v-6.4
			c0-0.8-0.4-1.2-1.2-1.2v-0.3H1037.8z"/>
		<path class="st1" d="M1044.7,1723.9c0.6,0.3,0.9,0.2,0.9-0.2h0.2l0.2,2.6l-0.2,0c-0.2-0.7-0.4-1.3-0.8-1.7c-0.4-0.5-1-0.8-1.7-0.7
			c-0.5,0-0.9,0.1-1.2,0.4c-0.2,0.2-0.3,0.4-0.4,0.6c-0.1,0.2-0.1,0.5,0,0.8c0,0.2,0.2,0.4,0.3,0.6c0.2,0.2,0.8,0.5,1.6,0.8
			c0.8,0.3,1.4,0.5,1.7,0.7c0.4,0.3,0.8,0.6,1,0.9c0.2,0.4,0.3,0.9,0.3,1.4c0,0.8-0.4,1.5-1,2.1c-0.6,0.6-1.4,0.8-2.5,0.8
			c-0.6,0-1.2-0.2-1.8-0.5c-0.2-0.1-0.4-0.2-0.5-0.3c-0.1,0-0.3,0-0.4,0.1c-0.1,0.1-0.2,0.3-0.2,0.6h-0.2v-2.8h0.2
			c0.2,0.8,0.5,1.4,0.9,1.8c0.5,0.5,1.2,0.8,1.9,0.8c0.6,0,1.1-0.1,1.5-0.4c0.2-0.2,0.4-0.4,0.5-0.7c0.1-0.2,0.1-0.5,0.1-0.8
			c0-0.3-0.1-0.5-0.3-0.7c-0.1-0.2-0.4-0.4-0.7-0.6c-0.3-0.2-0.7-0.4-1.1-0.5c-0.4-0.2-0.8-0.3-1-0.4c-1.3-0.7-1.9-1.5-1.9-2.5
			c0-0.7,0.2-1.3,0.7-1.8c0.6-0.5,1.3-0.7,2.2-0.7C1043.7,1723.6,1044.2,1723.7,1044.7,1723.9z"/>
		<path class="st1" d="M1054.7,1724c0.6,0.2,0.9,0.1,0.9-0.3h0.2l0.1,2.7l-0.2,0c-0.4-1.7-1.4-2.5-3.1-2.5c-0.9,0-1.7,0.5-2.3,1.3
			c-0.6,0.9-0.9,1.9-0.9,3.1c0,0.8,0.1,1.6,0.3,2.2c0.2,0.6,0.5,1.1,1,1.5c0.4,0.4,1,0.6,1.7,0.6c0.6,0,1.1-0.1,1.5-0.5
			c0.4-0.3,0.5-0.7,0.5-1.3v-0.3c0-0.8-0.4-1.3-1.3-1.5v-0.3h4.2v0.3c-0.8,0.2-1.2,0.7-1.2,1.5v1.1c-0.4,0.4-1,0.7-1.5,0.9
			c-0.6,0.3-1.3,0.4-2.1,0.4c-1.4,0-2.6-0.4-3.5-1.3c-0.9-0.9-1.4-2-1.4-3.4c0-0.9,0.2-1.7,0.6-2.4c0.4-0.7,1-1.3,1.8-1.8
			c0.8-0.4,1.7-0.7,2.7-0.7C1053.3,1723.6,1053.9,1723.8,1054.7,1724z"/>
		<path class="st1" d="M1063.3,1723.8l3.3,8c0.3,0.6,0.7,1,1.3,1v0.3h-3.8v-0.3c0.7,0,0.9-0.3,0.7-1l-0.7-1.8h-3.3l-0.7,1.8
			c-0.3,0.7,0,1,0.7,1v0.3h-2.3v-0.3c0.6,0,1.1-0.3,1.4-1l3-8H1063.3z M1060.9,1729.7h3.1c-0.1-0.3-0.6-1.6-1.6-3.9
			C1061.5,1728.2,1061,1729.5,1060.9,1729.7z"/>
		<path class="st1" d="M1071.7,1723.8c0,0.2,0.1,0.4,0.2,0.6l3,6.7l3-7.3l2.6,0v0.3c-0.8,0-1.2,0.4-1.2,1.2v6.4
			c0,0.8,0.4,1.2,1.2,1.2v0.2h-3.9v-0.2c0.8,0,1.2-0.4,1.2-1.2v-6.8l-3.4,8.2h-0.5l-3.7-8.2v6.8c0,0.8,0.4,1.2,1.1,1.2v0.2h-2.6
			v-0.2c0.8,0,1.2-0.4,1.2-1.2v-6.4c0-0.8-0.4-1.2-1.2-1.2v-0.3L1071.7,1723.8z"/>
		<path class="st1" d="M1088.8,1723.8l0.1,2.2l-0.2,0c-0.1-1.3-0.8-2-2.2-2h-2.3v3.8h1.2c0.9,0,1.4-0.5,1.4-1.4h0.2v3.1h-0.2
			c0-0.9-0.5-1.4-1.4-1.4h-1.2v3c0,1,0.7,1.5,2.1,1.5c1.9,0,3-0.8,3-2.4l0.2,0l-0.2,2.6h-8v-0.3c0.8,0,1.2-0.4,1.2-1.1v-6.4
			c0-0.8-0.4-1.2-1.2-1.2v-0.3H1088.8z"/>
		<path class="st1" d="M1094.6,1723.8v0.2c-0.7,0-0.8,0.4-0.3,1.2l1.3,2l1.4-2c0.5-0.8,0.5-1.1-0.2-1.2v-0.2h2.3v0.2
			c-0.6,0-1.2,0.4-1.8,1.2l-1.6,2.3l2.6,4.1c0.5,0.8,1,1.2,1.6,1.2v0.3h-3.8v-0.3c0.7,0,0.8-0.4,0.3-1.2l-1.7-2.7l-2.1,2.7
			c-0.6,0.7-0.5,1.1,0.2,1.1v0.3h-2.3v-0.3c0.6,0,1.2-0.4,1.8-1.1l2.2-3l-2.2-3.5c-0.5-0.8-1-1.1-1.6-1.1v-0.2H1094.6z"/>
		<path class="st1" d="M1102.8,1732.3c0,0.3-0.1,0.5-0.3,0.6c-0.2,0.2-0.4,0.3-0.6,0.3c-0.2,0-0.5-0.1-0.6-0.3
			c-0.2-0.2-0.3-0.4-0.3-0.6c0-0.3,0.1-0.5,0.3-0.6c0.2-0.2,0.4-0.3,0.6-0.3c0.2,0,0.5,0.1,0.6,0.3
			C1102.7,1731.8,1102.8,1732,1102.8,1732.3z"/>
	</g>
	<g transform="translate(882.209 750.102)">
		<path class="st2" d="M159,1010.4c0.8,0.3,1.7,0.7,3.5,1.6c-0.2-1.8-0.7-3.5-1.5-5.1c-2.4-4.7-7.3-9.3-12.8-12.4
			c0,1.5,0.1,3.1,0.6,4.5C149.9,1003.8,153.7,1008,159,1010.4z"/>
		<path class="st2" d="M208.6,1010.4c5.3-2.3,9.1-6.5,10.3-11.4c0.4-1.5,0.6-3,0.6-4.5c-5.5,3.1-10.4,7.7-12.8,12.4
			c-0.8,1.6-1.3,3.3-1.5,5.1C206.9,1011.1,207.8,1010.7,208.6,1010.4z"/>
		<path class="st2" d="M154.3,1016.8c2-0.3,4-0.8,5.9-1.6c-3.4-1.6-4-1.9-4.9-2.4c-3.9-1.8-8.4-2.2-12.5-1c-2.7,0.7-5.3,1.7-7.7,3.1
			c4.1,1.3,8.4,2.1,12.6,2.2C150,1017.3,152.2,1017.2,154.3,1016.8z"/>
		<path class="st2" d="M212.3,1012.9c-1,0.5-1.5,0.7-4.9,2.4c1.9,0.8,3.9,1.4,5.9,1.6c2.2,0.3,4.4,0.4,6.6,0.3
			c4.3-0.2,8.6-0.9,12.6-2.2c-2.4-1.4-5-2.4-7.7-3.1C220.6,1010.7,216.2,1011,212.3,1012.9z"/>
		<path class="st2" d="M146.8,1008.9l-2.8-1.3c-5.5-2.5-11.7-2.7-17.3-0.7c-1.5,0.5-2.9,1.2-4.3,1.9
			C128.8,1011.2,139.8,1012.2,146.8,1008.9z"/>
		<path class="st2" d="M223.6,1007.5l-2.8,1.3c7,3.3,18,2.3,24.5,0c-1.4-0.8-2.8-1.4-4.3-1.9
			C235.3,1004.9,229.1,1005.1,223.6,1007.5z"/>
		<path class="st2" d="M142.8,1003.4l5.9,2.5c-0.4-4.6-4.2-11.1-13.9-16.8c-0.3,1.9,0.6,5.4,1.9,8.6
			C138,1000.3,140.2,1002.3,142.8,1003.4z"/>
		<path class="st2" d="M224.7,1003.4c2.7-1.1,4.8-3.1,6.1-5.7c1.4-3.2,2.2-6.7,1.9-8.6c-9.7,5.7-13.5,12.2-13.9,16.8L224.7,1003.4z"
			/>
		<path class="st2" d="M131.4,998.6l3,1.3c-0.4-5.4-6.1-12.3-10.8-16.2c-0.4,1.1-0.5,2.2-0.6,3.3C123,991.9,126.2,996.4,131.4,998.6
			z"/>
		<path class="st2" d="M244.5,987.1c0-1.1-0.2-2.3-0.6-3.3c-4.7,3.9-10.4,10.7-10.8,16.2l3-1.3C241.4,996.4,244.6,991.9,244.5,987.1
			z"/>
		<path class="st2" d="M132.8,1002.5c-3.8-1.7-6.1-2.7-8.7-4c-5.5-0.1-10.9,0.7-16.2,2.2C114.2,1004.2,125.2,1006.3,132.8,1002.5z"
			/>
		<path class="st2" d="M243.4,998.4c-2.6,1.3-4.8,2.3-8.7,4c7.7,3.8,18.7,1.8,24.9-1.8C254.3,999.1,248.9,998.4,243.4,998.4z"/>
		<path class="st2" d="M117.5,991.7c1,0.6,2.1,1.2,3.4,1.9c0.3-4.1-1.8-9.3-3.9-13c-0.2-0.3-0.4-0.7-0.6-1c-0.2-0.3-0.4-0.6-0.6-0.9
			s-0.4-0.6-0.7-0.9s-0.5-0.6-0.7-0.9c-0.5,0.8-0.9,1.6-1.2,2.5c-0.3,1.1-0.6,2.2-0.7,3.3C112.3,986.5,114.2,989.9,117.5,991.7z"/>
		<path class="st2" d="M250.1,991.7c3.2-1.8,5.2-5.2,5-8.9c-0.1-1.1-0.3-2.2-0.7-3.3c-0.3-0.9-0.7-1.7-1.2-2.5
			c-0.2,0.3-0.5,0.6-0.7,0.9c-0.2,0.3-0.5,0.6-0.7,0.9s-0.4,0.6-0.6,0.9s-0.4,0.6-0.6,1c-2.2,3.7-4.3,8.9-3.9,13
			C248,992.9,249.1,992.3,250.1,991.7z"/>
		<path class="st2" d="M119.2,995.7c-0.5-0.3-1.1-0.6-1.5-0.9c-5.9-3.5-12.8-5.1-19.7-4.7c-0.9,0.1-1.7,0.1-2.3,0.2
			C102.2,996,112.5,998.3,119.2,995.7z"/>
		<path class="st2" d="M249.9,994.8c-0.5,0.3-1,0.6-1.5,0.9c6.6,2.6,17,0.2,23.5-5.4c-0.6-0.1-1.4-0.2-2.3-0.2
			C262.8,989.7,255.9,991.3,249.9,994.8z"/>
		<path class="st2" d="M104.7,981.9l0.5,0.5c0.6,0.5,2.3,2.2,3.8,3.4c0.4-1.3,0.6-2.6,0.6-3.9c0-4.4-1.1-8.7-3.2-12.5
			c-1.8,1.9-3.1,4.4-3.6,7C102.5,978.4,103.2,980.5,104.7,981.9L104.7,981.9z"/>
		<path class="st2" d="M258.5,985.8c1.5-1.2,3.3-2.9,3.8-3.4l0.5-0.5l0,0c1.5-1.4,2.2-3.5,1.8-5.6c-0.5-2.6-1.8-5.1-3.6-7
			c-2,3.9-3.1,8.2-3.2,12.5C257.9,983.2,258.1,984.5,258.5,985.8z"/>
		<path class="st2" d="M107.3,987.3c-1.1-1-2.6-2.3-4-3.8c-1.9-1.9-4.4-3.3-7-3.9c-3.1-0.8-6.2-1.3-9.4-1.5
			C91.5,984.5,100.7,988.7,107.3,987.3z"/>
		<path class="st2" d="M264.3,983.5c-1.4,1.5-2.8,2.8-4,3.8c6.6,1.4,15.8-2.8,20.4-9.2c-3.2,0.2-6.3,0.7-9.4,1.5
			C268.6,980.2,266.2,981.6,264.3,983.5z"/>
		<path class="st2" d="M97.5,973.2c0.6,0.9,1.3,1.8,1.8,2.5c2.5-3.5,4-11,2.5-16.2c-2.2,1.4-3.9,3.4-5.1,5.8
			C95.6,967.9,95.9,970.9,97.5,973.2z"/>
		<path class="st2" d="M270.1,973.2c1.6-2.3,1.9-5.3,0.7-7.8c-1.1-2.4-2.9-4.4-5.1-5.8c-1.5,5.1,0.1,12.7,2.5,16.2
			C268.8,975,269.5,974.1,270.1,973.2z"/>
		<path class="st2" d="M95.6,973.5c-1.1-1.8-2.7-3.4-4.5-4.5c-3.3-2-7-3.5-10.8-4.4c3.1,7.7,11.4,12.2,17.3,12
			C96.6,975.1,96,974.3,95.6,973.5z"/>
		<path class="st2" d="M272,973.5c-0.4,0.7-1,1.6-2,3.1c5.9,0.2,14.2-4.3,17.3-12c-3.8,0.9-7.5,2.4-10.8,4.4
			C274.7,970.2,273.2,971.7,272,973.5z"/>
		<path class="st2" d="M92.8,964.4c3.4-2.9,6.7-9.7,6.2-15h0c-6,3-8.7,9.1-6.4,14.6C92.7,964.1,92.7,964.2,92.8,964.4z"/>
		<path class="st2" d="M268.6,949.4c-0.4,5.3,2.9,12.1,6.2,15c0.1-0.1,0.1-0.3,0.2-0.4C277.3,958.5,274.6,952.4,268.6,949.4
			L268.6,949.4z"/>
		<path class="st2" d="M91.3,964.8c-0.3-0.9-0.7-2-1-2.9c-0.4-1.4-1.1-2.7-2.1-3.8c-1.5-1.8-3.5-3.6-7.6-5.7
			c-0.9-0.5-1.9-0.9-2.9-1.3c0.3,1.9,0.9,3.7,1.9,5.3C81.7,960.1,86.4,964.2,91.3,964.8z"/>
		<path class="st2" d="M286.9,952.4c-4.1,2.2-6.1,3.9-7.6,5.7c-0.9,1.1-1.6,2.4-2.1,3.8c-0.3,0.9-0.7,2-1,2.9
			c4.9-0.6,9.6-4.7,11.7-8.4c0.9-1.6,1.6-3.4,1.9-5.3C288.8,951.5,287.9,951.9,286.9,952.4z"/>
		<path class="st2" d="M88.2,952.2c-0.5-3.8-0.5-9-10.1-14.6C77.7,945,83.5,951,88.2,952.2z"/>
		<path class="st2" d="M279.4,952.2c4.6-1.2,10.5-7.2,10.1-14.6C279.9,943.2,279.9,948.4,279.4,952.2z"/>
		<path class="st2" d="M98.1,938.7c-6.2,2.2-9.8,7.6-8.9,13.2c0,0.1,0,0.2,0,0.2c3.9-2.1,8.6-8.1,9-13.4L98.1,938.7z"/>
		<path class="st2" d="M278.4,952.1c0,0,0-0.1,0-0.2c0.9-5.6-2.7-10.9-8.9-13.2l-0.2-0.1C269.8,944,274.5,950,278.4,952.1z"/>
		<path class="st2" d="M88.4,939.4c3.1-1,9.5-5.7,11-11.7C91.4,929.7,88.6,933.9,88.4,939.4z"/>
		<path class="st2" d="M279.1,939.4c-0.1-5.5-2.9-9.7-11-11.7C269.6,933.7,276,938.4,279.1,939.4z"/>
		<path class="st2" d="M87.9,939.4c0.4-5.4-0.8-9.8-7.2-14.8C78.9,931.6,84,937.9,87.9,939.4z"/>
		<path class="st2" d="M279.7,939.4c3.9-1.5,8.9-7.8,7.2-14.8C280.5,929.6,279.3,934,279.7,939.4z"/>
		<path class="st2" d="M93.8,914.4c-5.7,3.2-9.1,10.4-4.6,14.5C95.1,926.3,95.4,919.8,93.8,914.4z"/>
		<path class="st2" d="M278.3,928.9c4.6-4.1,1.1-11.3-4.6-14.5C272.2,919.8,272.5,926.3,278.3,928.9z"/>
		<path class="st2" d="M172.4,1016.4c1.1,0.5,1.9,0.9,4.6,2.2c-0.3-5.6-4.7-10.9-9.5-14.8c-1.6-1.3-3.3-2.5-5-3.5
			c-0.1,2.1,0.2,4.1,0.9,6.1C164.7,1010.9,168.1,1014.6,172.4,1016.4z"/>
		<path class="st2" d="M204.3,1006.4c0.6-2,0.9-4,0.9-6.1c-1.8,1-3.4,2.2-5,3.5c-4.8,3.9-9.2,9.3-9.5,14.8c2.7-1.3,3.5-1.7,4.6-2.2
			C199.5,1014.6,202.8,1010.9,204.3,1006.4z"/>
		<path class="st2" d="M170,1020c-4.7-2.3-10-2.7-15-1.2c-2.3,0.6-4.5,1.5-6.5,2.7c7.4,2.4,18.1,3.8,25.8,0.7
			C171.8,1020.9,171,1020.5,170,1020z"/>
		<path class="st2" d="M197.5,1020c-1,0.5-1.8,0.9-4.3,2.2c7.7,3.1,18.4,1.7,25.8-0.7c-2-1.2-4.2-2.1-6.5-2.7
			C207.5,1017.3,202.2,1017.7,197.5,1020z"/>
		<path class="st2" d="M186.5,1024.6c0.8-0.4,1.5-0.8,2.2-1.2c5.6-3,17.8-9,23.1-11.5c27.4-12.9,33.5-14.7,42.9-21.6
			c-12.6,8.7-43.9,19.4-67.2,31l-1.7,0.8l-2.1,1l-2.1-1l-1.7-0.8c-23.2-11.7-54.5-22.4-67.2-31c9.4,6.9,15.5,8.8,42.9,21.6
			c5.2,2.4,17.5,8.4,23.1,11.5c0.7,0.4,1.5,0.8,2.2,1.2c-11.9,6-13.8,7.8-17.9,14.8c3.7-2.7,12.4-8.5,20.6-13.2
			c8.2,4.7,16.9,10.5,20.6,13.2C200.3,1032.4,198.4,1030.6,186.5,1024.6z"/>
	</g>
</g>
</svg>
