<?xml version="1.0" encoding="utf-8"?>
<!-- Generator: Adobe Illustrator 25.2.3, SVG Export Plug-In . SVG Version: 6.00 Build 0)  -->
<svg version="1.1" id="Layer_1" xmlns="http://www.w3.org/2000/svg" xmlns:xlink="http://www.w3.org/1999/xlink" x="0px" y="0px"
	 viewBox="0 0 212.1 136.5" style="enable-background:new 0 0 212.1 136.5;" xml:space="preserve">
<style type="text/css">
	.st0{enable-background:new    ;}
	.st1{fill:#706C6C;}
	.st2{fill:#BBAC9A;}
</style>
<g transform="translate(-613.961 -1653)">
	<g class="st0">
		<path class="st1" d="M641.2,1657.8c-0.2,0-0.4,0-0.6-0.1c-0.3-0.2-0.5-0.5-0.6-0.9c-0.1-0.4-0.1-0.8,0-1.3
			c0.1-0.5,0.4-0.9,0.7-1.3c0.4-0.3,0.8-0.5,1.3-0.6v0.4c-0.3,0.1-0.6,0.3-0.9,0.6c-0.3,0.3-0.4,0.6-0.5,0.9c0,0.1-0.1,0.3-0.1,0.4
			c0,0.2,0.1,0.2,0.2,0.1c0.1-0.1,0.3-0.1,0.5-0.1c0.2,0,0.5,0.1,0.6,0.3c0.2,0.2,0.3,0.4,0.3,0.7c0,0.3-0.1,0.5-0.3,0.7
			C641.7,1657.7,641.4,1657.8,641.2,1657.8z M643.8,1657.8c-0.2,0-0.4,0-0.6-0.1c-0.3-0.2-0.5-0.5-0.6-0.9c-0.1-0.4-0.1-0.8,0-1.3
			c0.1-0.5,0.4-0.9,0.7-1.3c0.4-0.3,0.8-0.5,1.3-0.6v0.4c-0.3,0.1-0.6,0.3-0.9,0.6c-0.3,0.3-0.4,0.6-0.5,0.9c0,0.1-0.1,0.3-0.1,0.4
			c0,0.2,0.1,0.2,0.2,0.1c0.1-0.1,0.3-0.1,0.5-0.1c0.2,0,0.5,0.1,0.6,0.3c0.2,0.2,0.3,0.4,0.3,0.7c0,0.3-0.1,0.5-0.3,0.7
			C644.3,1657.7,644.1,1657.8,643.8,1657.8z"/>
		<path class="st1" d="M650.8,1653.8c0.7,0,1.4,0.3,1.9,0.8c0.5,0.5,0.8,1.1,0.8,1.9c0,0.7-0.3,1.3-0.8,1.9
			c-0.5,0.5-1.2,0.8-1.9,0.8h-2.2v2.6c0,0.8,0.4,1.2,1.1,1.2v0.3h-3.9v-0.3c0.8,0,1.2-0.4,1.1-1.2v-6.4c0-0.8-0.4-1.2-1.1-1.2v-0.3
			H650.8z M648.5,1658.7h1.1c0.6,0,1.1-0.2,1.5-0.7s0.6-1,0.6-1.7c0-0.7-0.2-1.2-0.6-1.7c-0.4-0.4-0.9-0.7-1.5-0.7h-1.1V1658.7z"/>
		<path class="st1" d="M656.9,1657.4c0.4-0.6,0.9-0.9,1.6-0.9c0.4,0,0.8,0.1,1.2,0.3c0.3,0.2,0.4,0.4,0.4,0.7c0,0.1,0,0.3-0.1,0.4
			c-0.1,0.1-0.2,0.2-0.4,0.2c-0.2,0-0.3,0-0.4-0.1c-0.1-0.1-0.2-0.2-0.3-0.4c-0.1-0.2-0.2-0.4-0.3-0.5c-0.1-0.1-0.3-0.2-0.5-0.1
			c-0.3,0-0.5,0.2-0.8,0.6c-0.2,0.4-0.4,0.9-0.4,1.4v2.6c0,0.9,0.3,1.4,0.9,1.4v0.2h-3.2v-0.2c0.6,0,0.9-0.5,0.9-1.4v-3.4
			c0-0.7-0.3-1-0.9-1v-0.2l2.2-0.4C656.8,1656.6,656.9,1656.9,656.9,1657.4z"/>
		<path class="st1" d="M666.1,1657.3c0.5,0.6,0.8,1.3,0.9,2.3h-4.6c-0.1,0.8,0.1,1.5,0.5,2.1c0.4,0.6,0.9,0.9,1.6,0.8
			c0.5,0,1-0.2,1.4-0.6s0.6-0.9,0.8-1.5h0.2c-0.2,0.9-0.5,1.5-1.1,2c-0.6,0.5-1.2,0.7-2,0.7c-0.8,0-1.6-0.3-2.2-1
			c-0.6-0.6-0.9-1.4-0.9-2.3c0-1,0.3-1.8,0.9-2.4c0.6-0.7,1.4-1,2.3-1C664.8,1656.4,665.5,1656.7,666.1,1657.3z M663.2,1657
			c-0.2,0.2-0.3,0.4-0.5,0.7c-0.1,0.3-0.2,0.5-0.2,0.8c-0.1,0.3-0.1,0.5-0.1,0.8h2.9c0-0.3,0-0.7-0.1-1c-0.1-0.4-0.2-0.7-0.5-1
			c-0.2-0.3-0.5-0.5-0.9-0.5C663.6,1656.7,663.4,1656.8,663.2,1657z"/>
		<path class="st1" d="M673.7,1657c0.2,0.2,0.3,0.3,0.4,0.5c0.5-0.7,1.1-1.1,1.9-1.1c0.6,0,1.1,0.2,1.5,0.6c0.4,0.4,0.5,0.9,0.5,1.6
			v2.8c0,0.9,0.3,1.3,0.9,1.4v0.2h-3.3v-0.2c0.6,0,0.9-0.5,0.9-1.4v-3c0-0.4-0.1-0.7-0.3-1c-0.2-0.3-0.5-0.4-0.8-0.4
			c-0.3,0-0.6,0.1-0.8,0.4c-0.2,0.3-0.3,0.6-0.3,1v3c0,0.9,0.3,1.3,0.9,1.4v0.2h-3.3v-0.2c0.6,0,0.9-0.5,0.9-1.4v-3
			c0-0.4-0.1-0.7-0.3-1c-0.2-0.3-0.5-0.4-0.8-0.4c-0.3,0-0.6,0.1-0.8,0.4c-0.2,0.3-0.4,0.6-0.3,1v3c0,0.9,0.3,1.3,0.9,1.4v0.2H668
			v-0.2c0.6,0,0.9-0.5,0.9-1.4v-3.5c0-0.7-0.3-1-0.9-0.9v-0.2l2.2-0.4c0.1,0.1,0.2,0.4,0.2,0.9c0.4-0.6,1-0.9,1.8-0.9
			C672.8,1656.5,673.3,1656.6,673.7,1657z"/>
		<path class="st1" d="M679.9,1656.8l2.4-0.4v5c0,0.8,0.3,1.3,0.9,1.3v0.2h-3.3v-0.2c0.6,0,0.9-0.5,0.9-1.3v-3.6
			c0-0.7-0.3-1-0.9-0.9V1656.8z M682.4,1654.5c0,0.3-0.1,0.5-0.3,0.6c-0.2,0.2-0.4,0.3-0.6,0.3c-0.2,0-0.5-0.1-0.6-0.3
			c-0.2-0.2-0.3-0.4-0.3-0.6c0-0.3,0.1-0.5,0.3-0.6c0.2-0.2,0.4-0.3,0.6-0.3c0.2,0,0.5,0.1,0.6,0.3
			C682.3,1654,682.4,1654.2,682.4,1654.5z"/>
		<path class="st1" d="M689.7,1657.4c0.6,0.6,0.9,1.4,0.9,2.4c0,1-0.3,1.8-1,2.4c-0.6,0.7-1.4,1-2.3,1c-0.9,0-1.6-0.3-2.2-1
			c-0.6-0.6-0.9-1.4-0.9-2.3c0-1,0.3-1.8,0.9-2.4c0.6-0.7,1.4-1,2.3-1C688.4,1656.4,689.2,1656.8,689.7,1657.4z M686.4,1657.7
			c-0.3,0.6-0.4,1.3-0.4,2.2c0,0.8,0.1,1.5,0.4,2.1c0.3,0.6,0.6,0.9,1.1,0.9c0.4,0,0.8-0.3,1.1-0.9c0.3-0.6,0.5-1.3,0.5-2.2
			c0-0.9-0.1-1.6-0.4-2.2c-0.3-0.5-0.6-0.8-1.1-0.8C687,1656.8,686.7,1657.1,686.4,1657.7z"/>
		<path class="st1" d="M702.2,1657.4c0.2,0.3,0.3,0.8,0.3,1.4v3.2c0,0.4,0.1,0.6,0.3,0.7c0.2,0.1,0.5,0,0.9-0.3l0.1,0.2
			c-0.5,0.3-0.9,0.5-1.4,0.5c-0.9,0-1.3-0.3-1.4-0.9c-0.2,0.3-0.4,0.5-0.8,0.7c-0.3,0.2-0.8,0.3-1.3,0.3c-0.5,0-1-0.2-1.4-0.5
			c-0.4-0.3-0.5-0.8-0.5-1.3c0-0.9,0.5-1.5,1.5-1.8c1.6-0.6,2.5-1.2,2.4-1.9c0-0.6-0.4-0.8-1.3-0.8c-0.3,0-0.6,0.1-0.7,0.2
			c0,0-0.1,0.2-0.3,0.6c-0.1,0.2-0.2,0.3-0.3,0.4c-0.1,0.1-0.2,0.2-0.3,0.2c-0.1,0-0.3,0-0.4-0.1c-0.1-0.1-0.2-0.2-0.2-0.4
			c0-0.2,0.1-0.5,0.4-0.7c0.5-0.4,1.1-0.6,1.9-0.6C701,1656.4,701.9,1656.8,702.2,1657.4z M699.5,1659.7c-0.3,0.1-0.5,0.4-0.7,0.6
			c-0.1,0.3-0.2,0.6-0.2,0.9c0,0.3,0.1,0.7,0.3,0.9c0.2,0.3,0.4,0.4,0.8,0.4c0.4,0,0.7-0.2,1-0.6c0.2-0.4,0.3-1,0.3-1.6v-1.6
			C700.7,1659,700.2,1659.3,699.5,1659.7z"/>
		<path class="st1" d="M707,1661.4c0,0.9,0.3,1.3,0.9,1.4v0.2h-3.3v-0.2c0.6,0,0.9-0.5,0.9-1.4v-6.5c0-0.7-0.3-1-0.9-0.9v-0.2
			l2.5-0.4v3V1661.4z"/>
		<path class="st1" d="M719.2,1653.8c0.7,0,1.3,0.1,1.9,0.4c0.6,0.3,1.1,0.6,1.6,1c0.4,0.4,0.8,0.9,1,1.5c0.3,0.6,0.4,1.2,0.4,1.8
			c0,1.3-0.4,2.4-1.2,3.3c-0.9,0.9-1.9,1.4-3.1,1.4h-5.4v-0.3c0.8,0,1.2-0.4,1.2-1.1v-6.4c0-0.8-0.4-1.1-1.2-1.2v-0.3H719.2z
			 M717.1,1661.2c0,1,0.6,1.5,1.8,1.5c0.5,0,0.9-0.1,1.3-0.2c0.4-0.1,0.8-0.4,1.1-0.8c0.4-0.4,0.6-0.9,0.8-1.4
			c0.2-0.6,0.3-1.2,0.3-1.9c0-1.2-0.4-2.2-1.2-3.1c-0.4-0.4-0.8-0.7-1.4-0.9c-0.6-0.2-1.1-0.3-1.6-0.3h-1.1V1661.2z"/>
		<path class="st1" d="M730.6,1657.3c0.5,0.6,0.8,1.3,0.9,2.3h-4.6c-0.1,0.8,0.1,1.5,0.5,2.1c0.4,0.6,0.9,0.9,1.6,0.8
			c0.5,0,1-0.2,1.4-0.6s0.6-0.9,0.8-1.5h0.2c-0.2,0.9-0.5,1.5-1.1,2c-0.6,0.5-1.2,0.7-2,0.7c-0.8,0-1.6-0.3-2.2-1
			c-0.6-0.6-0.9-1.4-0.9-2.3c0-1,0.3-1.8,0.9-2.4c0.6-0.7,1.4-1,2.3-1C729.3,1656.4,730.1,1656.7,730.6,1657.3z M727.7,1657
			c-0.2,0.2-0.3,0.4-0.5,0.7c-0.1,0.3-0.2,0.5-0.2,0.8c-0.1,0.3-0.1,0.5-0.1,0.8h2.9c0-0.3,0-0.7-0.1-1c-0.1-0.4-0.2-0.7-0.5-1
			c-0.2-0.3-0.5-0.5-0.9-0.5C728.1,1656.7,727.9,1656.8,727.7,1657z"/>
		<path class="st1" d="M735.6,1656.6c0.3,0.1,0.5,0.2,0.5,0.1c0.1,0,0.1-0.1,0.1-0.2h0.2l0.2,1.9h-0.2c-0.1-0.5-0.3-0.9-0.6-1.3
			c-0.1-0.1-0.3-0.2-0.6-0.3c-0.2-0.1-0.4-0.1-0.6-0.1c-0.3,0-0.6,0.1-0.8,0.3c-0.2,0.1-0.3,0.3-0.3,0.6c0,0.2,0.1,0.4,0.2,0.6
			c0.1,0.1,0.5,0.3,1.1,0.6c0.6,0.2,1,0.4,1.2,0.5c0.7,0.4,1,1,0.9,1.8c0,0.6-0.3,1.1-0.7,1.5c-0.4,0.4-1,0.6-1.8,0.5
			c-0.3,0-0.5-0.1-0.8-0.2c-0.5-0.2-0.8-0.3-0.9-0.2c-0.1,0-0.2,0.1-0.2,0.3h-0.2l0-2h0.2c0,0.2,0.1,0.4,0.1,0.6
			c0.1,0.2,0.2,0.3,0.4,0.5c0.4,0.4,0.9,0.6,1.4,0.7c0.5,0.1,0.9,0,1.2-0.2c0.3-0.2,0.4-0.4,0.4-0.7c0-0.3,0-0.5-0.2-0.7
			c-0.1-0.1-0.3-0.3-0.6-0.4c-0.4-0.2-0.7-0.3-1-0.4c-0.4-0.1-0.6-0.2-0.8-0.3c-0.8-0.4-1.1-1-1.1-1.8c0-0.5,0.2-1,0.5-1.3
			c0.4-0.4,0.9-0.5,1.5-0.5C734.9,1656.4,735.2,1656.5,735.6,1656.6z"/>
		<path class="st1" d="M743.7,1657.3c0.5,0.6,0.8,1.3,0.9,2.3H740c-0.1,0.8,0.1,1.5,0.5,2.1c0.4,0.6,0.9,0.9,1.6,0.8
			c0.5,0,1-0.2,1.4-0.6s0.6-0.9,0.8-1.5h0.2c-0.2,0.9-0.5,1.5-1.1,2c-0.6,0.5-1.2,0.7-2,0.7c-0.8,0-1.6-0.3-2.2-1
			c-0.6-0.6-0.9-1.4-0.9-2.3c0-1,0.3-1.8,0.9-2.4c0.6-0.7,1.4-1,2.3-1C742.5,1656.4,743.2,1656.7,743.7,1657.3z M740.8,1657
			c-0.2,0.2-0.3,0.4-0.5,0.7c-0.1,0.3-0.2,0.5-0.2,0.8c-0.1,0.3-0.1,0.5-0.1,0.8h2.9c0-0.3,0-0.7-0.1-1c-0.1-0.4-0.2-0.7-0.5-1
			c-0.2-0.3-0.5-0.5-0.9-0.5C741.3,1656.7,741,1656.8,740.8,1657z"/>
		<path class="st1" d="M751.3,1657c0.2,0.2,0.3,0.3,0.4,0.5c0.5-0.7,1.1-1.1,1.9-1.1c0.6,0,1.1,0.2,1.5,0.6c0.4,0.4,0.5,0.9,0.5,1.6
			v2.8c0,0.9,0.3,1.3,0.9,1.4v0.2h-3.3v-0.2c0.6,0,0.9-0.5,0.9-1.4v-3c0-0.4-0.1-0.7-0.3-1c-0.2-0.3-0.5-0.4-0.8-0.4
			c-0.3,0-0.6,0.1-0.8,0.4c-0.2,0.3-0.3,0.6-0.3,1v3c0,0.9,0.3,1.3,0.9,1.4v0.2h-3.3v-0.2c0.6,0,0.9-0.5,0.9-1.4v-3
			c0-0.4-0.1-0.7-0.3-1c-0.2-0.3-0.5-0.4-0.8-0.4c-0.3,0-0.6,0.1-0.8,0.4c-0.2,0.3-0.4,0.6-0.3,1v3c0,0.9,0.3,1.3,0.9,1.4v0.2h-3.3
			v-0.2c0.6,0,0.9-0.5,0.9-1.4v-3.5c0-0.7-0.3-1-0.9-0.9v-0.2l2.2-0.4c0.1,0.1,0.2,0.4,0.2,0.9c0.4-0.6,1-0.9,1.8-0.9
			C750.5,1656.5,750.9,1656.6,751.3,1657z"/>
		<path class="st1" d="M760,1657.2c0.6-0.5,1.3-0.7,1.9-0.7c0.8,0,1.5,0.3,2,0.9c0.5,0.6,0.8,1.4,0.8,2.4c0,1-0.3,1.8-0.8,2.5
			c-0.5,0.6-1.2,0.9-2,0.9c-0.7,0-1.3-0.2-1.9-0.6v2.4c0,0.9,0.3,1.3,0.9,1.4v0.2h-3.3v-0.2c0.6,0,0.9-0.5,0.9-1.4v-6.9
			c0-0.7-0.3-1-0.9-0.9v-0.2l2.2-0.4C759.9,1656.6,760,1656.8,760,1657.2z M762.7,1661.9c0.3-0.5,0.4-1.2,0.4-2
			c0-0.9-0.2-1.6-0.5-2.1c-0.3-0.6-0.8-0.8-1.3-0.8c-0.3,0-0.6,0.2-0.9,0.5c-0.3,0.3-0.4,0.7-0.4,1.2v3.4c0.1,0.2,0.3,0.3,0.6,0.5
			c0.3,0.2,0.5,0.2,0.8,0.2C761.9,1662.7,762.4,1662.4,762.7,1661.9z"/>
		<path class="st1" d="M771.3,1657.3c0.5,0.6,0.8,1.3,0.9,2.3h-4.6c-0.1,0.8,0.1,1.5,0.5,2.1c0.4,0.6,0.9,0.9,1.6,0.8
			c0.5,0,1-0.2,1.4-0.6s0.6-0.9,0.8-1.5h0.2c-0.2,0.9-0.5,1.5-1.1,2c-0.6,0.5-1.2,0.7-2,0.7c-0.8,0-1.6-0.3-2.2-1
			c-0.6-0.6-0.9-1.4-0.9-2.3c0-1,0.3-1.8,0.9-2.4c0.6-0.7,1.4-1,2.3-1C770,1656.4,770.7,1656.7,771.3,1657.3z M768.4,1657
			c-0.2,0.2-0.3,0.4-0.5,0.7c-0.1,0.3-0.2,0.5-0.2,0.8c-0.1,0.3-0.1,0.5-0.1,0.8h2.9c0-0.3,0-0.7-0.1-1c-0.1-0.4-0.2-0.7-0.5-1
			c-0.2-0.3-0.5-0.5-0.9-0.5C768.8,1656.7,768.6,1656.8,768.4,1657z"/>
		<path class="st1" d="M779,1657c0.4,0.4,0.6,0.9,0.6,1.6v2.8c0,0.9,0.3,1.3,0.9,1.4v0.2h-3.3v-0.2c0.6,0,0.9-0.5,0.9-1.4v-3
			c0-0.4-0.1-0.7-0.3-1c-0.2-0.3-0.5-0.4-0.9-0.4c-0.3,0-0.6,0.1-0.9,0.4c-0.2,0.3-0.3,0.6-0.3,1v3c0,0.9,0.3,1.3,0.9,1.4v0.2h-3.3
			v-0.2c0.6,0,0.9-0.5,0.9-1.4v-3.5c0-0.7-0.3-1-0.9-0.9v-0.2l2.2-0.4c0.1,0.1,0.2,0.4,0.2,0.9c0.5-0.6,1.1-0.9,1.9-0.9
			C778.1,1656.4,778.6,1656.6,779,1657z M778.1,1654.6l-1.9-0.6c-1.2-0.4-1.8,0-1.8,1.2l0.3,0c0.2-0.5,0.4-0.7,0.8-0.6l1.8,0.6
			c1.3,0.4,1.9,0,2-1.2l-0.3,0C778.7,1654.5,778.5,1654.7,778.1,1654.6z"/>
		<path class="st1" d="M787,1657.4c0.6,0.6,0.9,1.4,0.9,2.4c0,1-0.3,1.8-1,2.4c-0.6,0.7-1.4,1-2.3,1c-0.9,0-1.6-0.3-2.2-1
			c-0.6-0.6-0.9-1.4-0.9-2.3c0-1,0.3-1.8,0.9-2.4c0.6-0.7,1.4-1,2.3-1C785.7,1656.4,786.4,1656.8,787,1657.4z M783.6,1657.7
			c-0.3,0.6-0.4,1.3-0.4,2.2c0,0.8,0.1,1.5,0.4,2.1c0.3,0.6,0.6,0.9,1.1,0.9c0.4,0,0.8-0.3,1.1-0.9c0.3-0.6,0.5-1.3,0.5-2.2
			c0-0.9-0.1-1.6-0.4-2.2c-0.3-0.5-0.6-0.8-1.1-0.8C784.3,1656.8,783.9,1657.1,783.6,1657.7z"/>
		<path class="st1" d="M799.4,1657.4c0.2,0.3,0.3,0.8,0.3,1.4v3.2c0,0.4,0.1,0.6,0.3,0.7c0.2,0.1,0.5,0,0.9-0.3l0.1,0.2
			c-0.5,0.3-0.9,0.5-1.4,0.5c-0.9,0-1.3-0.3-1.4-0.9c-0.2,0.3-0.4,0.5-0.8,0.7c-0.3,0.2-0.8,0.3-1.3,0.3c-0.5,0-1-0.2-1.4-0.5
			c-0.4-0.3-0.5-0.8-0.5-1.3c0-0.9,0.5-1.5,1.5-1.8c1.6-0.6,2.5-1.2,2.4-1.9c0-0.6-0.4-0.8-1.3-0.8c-0.3,0-0.6,0.1-0.7,0.2
			c0,0-0.1,0.2-0.3,0.6c-0.1,0.2-0.2,0.3-0.3,0.4c-0.1,0.1-0.2,0.2-0.3,0.2c-0.1,0-0.3,0-0.4-0.1c-0.1-0.1-0.2-0.2-0.2-0.4
			c0-0.2,0.1-0.5,0.4-0.7c0.5-0.4,1.1-0.6,1.9-0.6C798.3,1656.4,799.1,1656.8,799.4,1657.4z M796.7,1659.7c-0.3,0.1-0.5,0.4-0.7,0.6
			c-0.1,0.3-0.2,0.6-0.2,0.9c0,0.3,0.1,0.7,0.3,0.9c0.2,0.3,0.4,0.4,0.8,0.4c0.4,0,0.7-0.2,1-0.6c0.2-0.4,0.3-1,0.3-1.6v-1.6
			C798,1659,797.5,1659.3,796.7,1659.7z"/>
	</g>
	<g class="st0">
		<path class="st1" d="M641.8,1681.4c0,0.9,0.3,1.3,0.9,1.4v0.2h-3.3v-0.2c0.6,0,0.9-0.5,0.9-1.4v-6.5c0-0.7-0.3-1-0.9-0.9v-0.2
			l2.5-0.4v3V1681.4z"/>
		<path class="st1" d="M648.9,1677.4c0.2,0.3,0.3,0.8,0.3,1.4v3.2c0,0.4,0.1,0.6,0.3,0.7c0.2,0.1,0.5,0,0.9-0.3l0.1,0.2
			c-0.5,0.3-0.9,0.5-1.4,0.5c-0.9,0-1.3-0.3-1.4-0.9c-0.2,0.3-0.4,0.5-0.8,0.7c-0.3,0.2-0.8,0.3-1.3,0.3c-0.5,0-1-0.2-1.4-0.5
			c-0.4-0.3-0.5-0.8-0.5-1.3c0-0.9,0.5-1.5,1.5-1.8c1.6-0.6,2.5-1.2,2.4-1.9c0-0.6-0.4-0.8-1.3-0.8c-0.3,0-0.6,0.1-0.7,0.2
			c0,0-0.1,0.2-0.3,0.6c-0.1,0.2-0.2,0.3-0.3,0.4c-0.1,0.1-0.2,0.2-0.3,0.2c-0.1,0-0.3,0-0.4-0.1c-0.1-0.1-0.2-0.2-0.2-0.4
			c0-0.2,0.1-0.5,0.4-0.7c0.5-0.4,1.1-0.6,1.9-0.6C647.7,1676.4,648.5,1676.8,648.9,1677.4z M646.1,1679.7c-0.3,0.1-0.5,0.4-0.7,0.6
			c-0.1,0.3-0.2,0.6-0.2,0.9c0,0.3,0.1,0.7,0.3,0.9c0.2,0.3,0.4,0.4,0.8,0.4c0.4,0,0.7-0.2,1-0.6c0.2-0.4,0.3-1,0.3-1.6v-1.6
			C647.4,1679,646.9,1679.3,646.1,1679.7z"/>
		<path class="st1" d="M664.1,1673.8l0.1,2.2l-0.2,0c-0.1-1.3-0.8-2-2.2-2h-2.3v3.8h1.2c0.9,0,1.4-0.5,1.4-1.4h0.2v3.1H662
			c0-0.9-0.5-1.4-1.4-1.4h-1.2v3c0,1,0.7,1.5,2.1,1.5c1.9,0,3-0.8,3-2.4l0.2,0l-0.2,2.6h-8v-0.3c0.8,0,1.2-0.4,1.2-1.1v-6.4
			c0-0.8-0.4-1.2-1.2-1.2v-0.3H664.1z"/>
		<path class="st1" d="M669.4,1676.6v0.2c-0.6,0-0.6,0.4-0.1,1.2l0.5,0.9l0.7-0.9c0.6-0.8,0.6-1.2-0.1-1.2v-0.2h2.2v0.2
			c-0.6,0-1.2,0.4-1.8,1.2l-0.8,1.1l1.4,2.4c0.4,0.8,0.9,1.2,1.5,1.2v0.2h-3.3v-0.2c0.6,0,0.7-0.4,0.2-1.2l-0.8-1.4l-1,1.4
			c-0.5,0.8-0.5,1.2,0.1,1.2v0.2h-2.2v-0.2c0.6,0,1.2-0.4,1.8-1.2l1.2-1.7l-1.1-1.9c-0.5-0.8-1-1.2-1.5-1.2v-0.2H669.4z"/>
		<path class="st1" d="M678,1677c0.3,0.2,0.4,0.5,0.4,0.7c0,0.2-0.1,0.3-0.2,0.4c-0.1,0.1-0.3,0.1-0.4,0.1c-0.1,0-0.2-0.1-0.3-0.2
			c-0.1-0.1-0.2-0.3-0.2-0.5c-0.1-0.3-0.2-0.5-0.2-0.6c-0.2-0.1-0.4-0.2-0.7-0.2c-0.4,0-0.7,0.2-1,0.5c-0.3,0.3-0.5,0.7-0.6,1.2
			c-0.1,0.5-0.2,0.9-0.2,1.4c0,0.7,0.2,1.4,0.6,1.9c0.4,0.5,0.9,0.8,1.5,0.8c1,0,1.6-0.7,2-2.1h0.2c-0.1,0.8-0.5,1.5-1,2
			c-0.5,0.5-1.1,0.7-1.8,0.7c-0.9,0-1.6-0.3-2.2-0.9c-0.6-0.6-0.9-1.4-0.9-2.3c0-1,0.3-1.8,0.8-2.4c0.6-0.7,1.4-1,2.4-1
			C676.9,1676.4,677.5,1676.6,678,1677z"/>
		<path class="st1" d="M685.2,1677.3c0.5,0.6,0.8,1.3,0.9,2.3h-4.6c-0.1,0.8,0.1,1.5,0.5,2.1c0.4,0.6,0.9,0.9,1.6,0.8
			c0.5,0,1-0.2,1.4-0.6s0.6-0.9,0.8-1.5h0.2c-0.2,0.9-0.5,1.5-1.1,2c-0.6,0.5-1.2,0.7-2,0.7c-0.8,0-1.6-0.3-2.2-1
			c-0.6-0.6-0.9-1.4-0.9-2.3c0-1,0.3-1.8,0.9-2.4c0.6-0.7,1.4-1,2.3-1C684,1676.4,684.7,1676.7,685.2,1677.3z M682.4,1677
			c-0.2,0.2-0.3,0.4-0.5,0.7c-0.1,0.3-0.2,0.5-0.2,0.8c-0.1,0.3-0.1,0.5-0.1,0.8h2.9c0-0.3,0-0.7-0.1-1c-0.1-0.4-0.2-0.7-0.5-1
			c-0.2-0.3-0.5-0.5-0.9-0.5C682.8,1676.7,682.6,1676.8,682.4,1677z"/>
		<path class="st1" d="M689.6,1681.4c0,0.9,0.3,1.3,0.9,1.4v0.2h-3.3v-0.2c0.6,0,0.9-0.5,0.9-1.4v-6.5c0-0.7-0.3-1-0.9-0.9v-0.2
			l2.5-0.4v3V1681.4z"/>
		<path class="st1" d="M696.9,1677.3c0.5,0.6,0.8,1.3,0.9,2.3h-4.6c-0.1,0.8,0.1,1.5,0.5,2.1c0.4,0.6,0.9,0.9,1.6,0.8
			c0.5,0,1-0.2,1.4-0.6s0.6-0.9,0.8-1.5h0.2c-0.2,0.9-0.5,1.5-1.1,2c-0.6,0.5-1.2,0.7-2,0.7c-0.8,0-1.6-0.3-2.2-1
			c-0.6-0.6-0.9-1.4-0.9-2.3c0-1,0.3-1.8,0.9-2.4c0.6-0.7,1.4-1,2.3-1C695.6,1676.4,696.3,1676.7,696.9,1677.3z M694,1677
			c-0.2,0.2-0.3,0.4-0.5,0.7c-0.1,0.3-0.2,0.5-0.2,0.8c-0.1,0.3-0.1,0.5-0.1,0.8h2.9c0-0.3,0-0.7-0.1-1c-0.1-0.4-0.2-0.7-0.5-1
			c-0.2-0.3-0.5-0.5-0.9-0.5C694.4,1676.7,694.2,1676.8,694,1677z"/>
		<path class="st1" d="M704.6,1677c0.4,0.4,0.6,0.9,0.6,1.6v2.8c0,0.9,0.3,1.3,0.9,1.4v0.2h-3.3v-0.2c0.6,0,0.9-0.5,0.9-1.4v-3
			c0-0.4-0.1-0.7-0.3-1c-0.2-0.3-0.5-0.4-0.9-0.4c-0.3,0-0.6,0.1-0.9,0.4c-0.2,0.3-0.3,0.6-0.3,1v3c0,0.9,0.3,1.3,0.9,1.4v0.2h-3.3
			v-0.2c0.6,0,0.9-0.5,0.9-1.4v-3.5c0-0.7-0.3-1-0.9-0.9v-0.2l2.2-0.4c0.1,0.1,0.2,0.4,0.2,0.9c0.5-0.6,1.1-0.9,1.9-0.9
			C703.7,1676.4,704.2,1676.6,704.6,1677z"/>
		<path class="st1" d="M712.3,1677c0.3,0.2,0.4,0.5,0.4,0.7c0,0.2-0.1,0.3-0.2,0.4c-0.1,0.1-0.3,0.1-0.4,0.1c-0.1,0-0.2-0.1-0.3-0.2
			c-0.1-0.1-0.2-0.3-0.2-0.5c-0.1-0.3-0.2-0.5-0.2-0.6c-0.2-0.1-0.4-0.2-0.7-0.2c-0.4,0-0.7,0.2-1,0.5c-0.3,0.3-0.5,0.7-0.6,1.2
			c-0.1,0.5-0.2,0.9-0.2,1.4c0,0.7,0.2,1.4,0.6,1.9c0.4,0.5,0.9,0.8,1.5,0.8c1,0,1.6-0.7,2-2.1h0.2c-0.1,0.8-0.5,1.5-1,2
			c-0.5,0.5-1.1,0.7-1.8,0.7c-0.9,0-1.6-0.3-2.2-0.9c-0.6-0.6-0.9-1.4-0.9-2.3c0-1,0.3-1.8,0.8-2.4c0.6-0.7,1.4-1,2.4-1
			C711.1,1676.4,711.8,1676.6,712.3,1677z"/>
		<path class="st1" d="M714,1676.8l2.4-0.4v5c0,0.8,0.3,1.3,0.9,1.3v0.2H714v-0.2c0.6,0,0.9-0.5,0.9-1.3v-3.6c0-0.7-0.3-1-0.9-0.9
			V1676.8z M716.5,1674.5c0,0.3-0.1,0.5-0.3,0.6c-0.2,0.2-0.4,0.3-0.6,0.3c-0.2,0-0.5-0.1-0.6-0.3c-0.2-0.2-0.3-0.4-0.3-0.6
			c0-0.3,0.1-0.5,0.3-0.6c0.2-0.2,0.4-0.3,0.6-0.3c0.2,0,0.5,0.1,0.6,0.3C716.4,1674,716.5,1674.2,716.5,1674.5z"/>
		<path class="st1" d="M723.5,1677.4c0.2,0.3,0.3,0.8,0.3,1.4v3.2c0,0.4,0.1,0.6,0.3,0.7c0.2,0.1,0.5,0,0.9-0.3l0.1,0.2
			c-0.5,0.3-0.9,0.5-1.4,0.5c-0.9,0-1.3-0.3-1.4-0.9c-0.2,0.3-0.4,0.5-0.8,0.7c-0.3,0.2-0.8,0.3-1.3,0.3c-0.5,0-1-0.2-1.4-0.5
			c-0.4-0.3-0.5-0.8-0.5-1.3c0-0.9,0.5-1.5,1.5-1.8c1.6-0.6,2.5-1.2,2.4-1.9c0-0.6-0.4-0.8-1.3-0.8c-0.3,0-0.6,0.1-0.7,0.2
			c0,0-0.1,0.2-0.3,0.6c-0.1,0.2-0.2,0.3-0.3,0.4c-0.1,0.1-0.2,0.2-0.3,0.2c-0.1,0-0.3,0-0.4-0.1c-0.1-0.1-0.2-0.2-0.2-0.4
			c0-0.2,0.1-0.5,0.4-0.7c0.5-0.4,1.1-0.6,1.9-0.6C722.3,1676.4,723.2,1676.8,723.5,1677.4z M720.8,1679.7c-0.3,0.1-0.5,0.4-0.7,0.6
			c-0.1,0.3-0.2,0.6-0.2,0.9c0,0.3,0.1,0.7,0.3,0.9c0.2,0.3,0.4,0.4,0.8,0.4c0.4,0,0.7-0.2,1-0.6c0.2-0.4,0.3-1,0.3-1.6v-1.6
			C722,1679,721.5,1679.3,720.8,1679.7z"/>
		<path class="st1" d="M738.3,1674c0.6,0.2,0.9,0.1,0.9-0.3h0.3l0.2,2.7l-0.3,0c-0.4-1.7-1.4-2.5-3.1-2.5c-0.9,0-1.7,0.5-2.3,1.4
			c-0.6,0.9-0.9,1.9-0.9,3.1c0,2.9,1.1,4.3,3.3,4.3c1.5,0,2.6-0.6,3.2-1.8l0.2,0.1c-0.6,1.4-1.8,2.1-3.5,2.1c-1,0-1.9-0.2-2.7-0.6
			c-0.7-0.4-1.3-1-1.7-1.7c-0.4-0.7-0.6-1.5-0.6-2.4c0-0.9,0.2-1.7,0.6-2.4c0.4-0.7,1-1.3,1.8-1.8c0.8-0.4,1.7-0.7,2.6-0.7
			C736.8,1673.6,737.5,1673.8,738.3,1674z"/>
		<path class="st1" d="M748.3,1673.8l0.1,2.2l-0.2,0c-0.1-1.3-0.8-2-2.2-2h-2.3v3.8h1.2c0.9,0,1.4-0.5,1.4-1.4h0.2v3.1h-0.2
			c0-0.9-0.5-1.4-1.4-1.4h-1.2v3c0,1,0.7,1.5,2.1,1.5c1.9,0,3-0.8,3-2.4l0.2,0l-0.2,2.6h-8v-0.3c0.8,0,1.2-0.4,1.2-1.1v-6.4
			c0-0.8-0.4-1.2-1.2-1.2v-0.3H748.3z"/>
		<path class="st1" d="M753.3,1673.8c0,0.1,0.1,0.3,0.3,0.6c0.8,1.3,2.2,3.2,4.2,5.8v-5c0-0.8-0.4-1.2-1.2-1.2v-0.3h2.6v0.3
			c-0.8,0-1.1,0.4-1.1,1.1v7.8h-0.5l-6.1-8.2v6.8c0,0.8,0.4,1.2,1.1,1.2v0.2h-2.6v-0.2c0.8,0,1.1-0.4,1.1-1.2v-6.4
			c0-0.8-0.4-1.2-1.1-1.2v-0.3H753.3z"/>
		<path class="st1" d="M767.7,1673.8l0.1,2.2l-0.2,0c-0.1-1.3-0.8-2-2.2-2h-2.3v3.8h1.2c0.9,0,1.4-0.5,1.4-1.4h0.2v3.1h-0.2
			c0-0.9-0.5-1.4-1.4-1.4h-1.2v3c0,1,0.7,1.5,2.1,1.5c1.9,0,3-0.8,3-2.4l0.2,0l-0.2,2.6h-8v-0.3c0.8,0,1.2-0.4,1.2-1.1v-6.4
			c0-0.8-0.4-1.2-1.2-1.2v-0.3H767.7z"/>
		<path class="st1" d="M773.3,1673.8v0.2c-0.8,0-1.1,0.4-0.7,1.2l2.5,5.8l2.2-5.8c0.3-0.8,0.1-1.2-0.6-1.2v-0.2h2.3v0.2
			c-0.6,0-1.1,0.4-1.4,1.2l-3,7.8h-0.4l-3.4-7.8c-0.3-0.8-0.8-1.2-1.3-1.2v-0.2H773.3z"/>
		<path class="st1" d="M781.9,1673.8l3.3,8c0.3,0.6,0.7,1,1.3,1v0.3h-3.8v-0.3c0.7,0,0.9-0.3,0.7-1l-0.7-1.8h-3.3l-0.7,1.8
			c-0.3,0.7,0,1,0.7,1v0.3h-2.3v-0.3c0.6,0,1.1-0.3,1.4-1l3-8H781.9z M779.5,1679.7h3.1c-0.1-0.3-0.6-1.6-1.6-3.9
			C780.1,1678.2,779.6,1679.5,779.5,1679.7z"/>
		<path class="st1" d="M791.2,1673.8v0.3c-0.8,0-1.1,0.4-1.1,1.2v6c0,1,0.7,1.5,2.1,1.5c0.5,0,1-0.1,1.4-0.2s0.8-0.4,1.1-0.8
			c0.3-0.4,0.5-0.8,0.6-1.4l0.2,0l-0.2,2.6h-8l0-0.2c0.8,0,1.1-0.4,1.1-1.2v-6.4c0-0.8-0.4-1.2-1.1-1.2v-0.3H791.2z"/>
		<path class="st1" d="M797.3,1673.6c0.2,0,0.4,0,0.6,0.1c0.3,0.2,0.5,0.5,0.6,0.9c0.1,0.4,0.1,0.8,0,1.3c-0.1,0.5-0.4,0.9-0.7,1.3
			c-0.4,0.3-0.8,0.5-1.3,0.6v-0.4c0.3-0.1,0.6-0.3,0.9-0.6c0.3-0.3,0.4-0.6,0.5-0.9c0-0.1,0.1-0.3,0.1-0.4c0-0.2-0.1-0.2-0.2-0.1
			c-0.1,0.1-0.3,0.1-0.5,0.1c-0.2,0-0.5-0.1-0.6-0.3c-0.2-0.2-0.3-0.4-0.3-0.7c0-0.3,0.1-0.5,0.3-0.7
			C796.9,1673.7,797.1,1673.6,797.3,1673.6z M800,1673.6c0.2,0,0.4,0,0.6,0.1c0.3,0.2,0.5,0.5,0.6,0.9c0.1,0.4,0.1,0.8,0,1.3
			c-0.1,0.5-0.4,0.9-0.7,1.3c-0.4,0.3-0.8,0.5-1.3,0.6v-0.4c0.3-0.1,0.6-0.3,0.9-0.6c0.3-0.3,0.4-0.6,0.5-0.9c0-0.1,0.1-0.3,0.1-0.4
			c0-0.2-0.1-0.2-0.2-0.1c-0.1,0.1-0.3,0.1-0.5,0.1c-0.2,0-0.5-0.1-0.6-0.3c-0.2-0.2-0.3-0.4-0.3-0.7c0-0.3,0.1-0.5,0.3-0.7
			C799.5,1673.7,799.7,1673.6,800,1673.6z"/>
	</g>
	<g class="st0">
		<path class="st1" d="M648.4,1702.4c-0.6,0.5-1.2,0.7-1.9,0.7c-0.8,0-1.5-0.3-2-0.9c-0.5-0.6-0.7-1.4-0.7-2.4c0-1,0.3-1.8,0.8-2.5
			c0.5-0.6,1.2-0.9,2-0.9c0.7,0,1.3,0.2,1.9,0.6v-2.2c0-0.7-0.3-1-0.9-0.9v-0.2l2.4-0.4v8.1c0,0.7,0.3,1,0.9,0.9v0.2l-2.2,0.5
			C648.5,1703,648.4,1702.8,648.4,1702.4z M645.7,1697.7c-0.3,0.5-0.4,1.2-0.4,2c0,0.9,0.2,1.6,0.5,2.1c0.3,0.6,0.8,0.8,1.3,0.8
			c0.3,0,0.6-0.2,0.9-0.5c0.3-0.3,0.4-0.7,0.4-1.2v-3.4c-0.1-0.2-0.3-0.4-0.6-0.5c-0.3-0.2-0.5-0.2-0.8-0.2
			C646.4,1696.9,646,1697.2,645.7,1697.7z"/>
		<path class="st1" d="M657.2,1697.3c0.5,0.6,0.8,1.3,0.9,2.3h-4.6c-0.1,0.8,0.1,1.5,0.5,2.1c0.4,0.6,0.9,0.9,1.6,0.8
			c0.5,0,1-0.2,1.4-0.6s0.6-0.9,0.8-1.5h0.2c-0.2,0.9-0.5,1.5-1.1,2c-0.6,0.5-1.2,0.7-2,0.7c-0.8,0-1.6-0.3-2.2-1
			c-0.6-0.6-0.9-1.4-0.9-2.3c0-1,0.3-1.8,0.9-2.4c0.6-0.7,1.4-1,2.3-1C655.9,1696.4,656.7,1696.7,657.2,1697.3z M654.3,1697
			c-0.2,0.2-0.3,0.4-0.5,0.7c-0.1,0.3-0.2,0.5-0.2,0.8c-0.1,0.3-0.1,0.5-0.1,0.8h2.9c0-0.3,0-0.7-0.1-1c-0.1-0.4-0.2-0.7-0.5-1
			c-0.2-0.3-0.5-0.5-0.9-0.5C654.7,1696.7,654.5,1696.8,654.3,1697z"/>
		<path class="st1" d="M666.9,1701.4c0,0.9,0.3,1.3,0.9,1.4v0.2h-3.3v-0.2c0.6,0,0.9-0.5,0.9-1.4v-6.5c0-0.7-0.3-1-0.9-0.9v-0.2
			l2.5-0.4v3V1701.4z"/>
		<path class="st1" d="M674,1697.4c0.2,0.3,0.3,0.8,0.3,1.4v3.2c0,0.4,0.1,0.6,0.3,0.7c0.2,0.1,0.5,0,0.9-0.3l0.1,0.2
			c-0.5,0.3-0.9,0.5-1.4,0.5c-0.9,0-1.3-0.3-1.4-0.9c-0.2,0.3-0.4,0.5-0.8,0.7c-0.3,0.2-0.8,0.3-1.3,0.3c-0.5,0-1-0.2-1.4-0.5
			c-0.4-0.3-0.5-0.8-0.5-1.3c0-0.9,0.5-1.5,1.5-1.8c1.6-0.6,2.5-1.2,2.4-1.9c0-0.6-0.4-0.8-1.3-0.8c-0.3,0-0.6,0.1-0.7,0.2
			c0,0-0.1,0.2-0.3,0.6c-0.1,0.2-0.2,0.3-0.3,0.4c-0.1,0.1-0.2,0.2-0.3,0.2c-0.1,0-0.3,0-0.4-0.1c-0.1-0.1-0.2-0.2-0.2-0.4
			c0-0.2,0.1-0.5,0.4-0.7c0.5-0.4,1.1-0.6,1.9-0.6C672.8,1696.4,673.7,1696.8,674,1697.4z M671.3,1699.7c-0.3,0.1-0.5,0.4-0.7,0.6
			c-0.1,0.3-0.2,0.6-0.2,0.9c0,0.3,0.1,0.7,0.3,0.9c0.2,0.3,0.4,0.4,0.8,0.4c0.4,0,0.7-0.2,1-0.6c0.2-0.4,0.3-1,0.3-1.6v-1.6
			C672.5,1699,672,1699.3,671.3,1699.7z"/>
		<path class="st1" d="M687.7,1697c0.4,0.4,0.5,0.9,0.6,1.6v2.8c0,0.9,0.3,1.3,0.9,1.3v0.2h-3.3v-0.2c0.6,0,0.9-0.5,0.9-1.3v-3
			c0-0.4-0.1-0.7-0.3-1c-0.2-0.3-0.5-0.4-0.9-0.4c-0.3,0-0.6,0.1-0.9,0.4c-0.2,0.3-0.3,0.6-0.3,1v3c0,0.9,0.3,1.3,0.9,1.3v0.2h-3.3
			v-0.2c0.6,0,0.9-0.5,0.9-1.3v-6.5c0-0.7-0.3-1-0.9-0.9v-0.2l2.5-0.4v3.9c0.5-0.6,1.1-0.9,1.9-0.9
			C686.8,1696.5,687.3,1696.6,687.7,1697z"/>
		<path class="st1" d="M690.2,1696.8l2.4-0.4v5c0,0.8,0.3,1.3,0.9,1.3v0.2h-3.3v-0.2c0.6,0,0.9-0.5,0.9-1.3v-3.6
			c0-0.7-0.3-1-0.9-0.9V1696.8z M692.7,1694.5c0,0.3-0.1,0.5-0.3,0.6c-0.2,0.2-0.4,0.3-0.6,0.3c-0.2,0-0.5-0.1-0.6-0.3
			c-0.2-0.2-0.3-0.4-0.3-0.6c0-0.3,0.1-0.5,0.3-0.6c0.2-0.2,0.4-0.3,0.6-0.3c0.2,0,0.5,0.1,0.6,0.3
			C692.6,1694,692.7,1694.2,692.7,1694.5z"/>
		<path class="st1" d="M697.6,1696.6c0.3,0.1,0.5,0.2,0.5,0.1c0.1,0,0.1-0.1,0.1-0.2h0.2l0.2,1.9h-0.2c-0.1-0.5-0.3-0.9-0.6-1.3
			c-0.1-0.1-0.3-0.2-0.6-0.3c-0.2-0.1-0.4-0.1-0.6-0.1c-0.3,0-0.6,0.1-0.8,0.3c-0.2,0.1-0.3,0.3-0.3,0.6c0,0.2,0.1,0.4,0.2,0.6
			c0.1,0.1,0.5,0.3,1.1,0.6c0.6,0.2,1,0.4,1.2,0.5c0.7,0.4,1,1,0.9,1.8c0,0.6-0.3,1.1-0.7,1.5c-0.4,0.4-1,0.6-1.8,0.5
			c-0.3,0-0.5-0.1-0.8-0.2c-0.5-0.2-0.8-0.3-0.9-0.2c-0.1,0-0.2,0.1-0.2,0.3h-0.2l0-2h0.2c0,0.2,0.1,0.4,0.1,0.6
			c0.1,0.2,0.2,0.3,0.4,0.5c0.4,0.4,0.9,0.6,1.4,0.7c0.5,0.1,0.9,0,1.2-0.2c0.3-0.2,0.4-0.4,0.4-0.7c0-0.3,0-0.5-0.2-0.7
			c-0.1-0.1-0.3-0.3-0.6-0.4c-0.4-0.2-0.7-0.3-1-0.4c-0.4-0.1-0.6-0.2-0.8-0.3c-0.8-0.4-1.1-1-1.1-1.8c0-0.5,0.2-1,0.5-1.3
			c0.4-0.4,0.9-0.5,1.5-0.5C697,1696.4,697.3,1696.5,697.6,1696.6z"/>
		<path class="st1" d="M702.6,1694.3v2.3h1.3v0.3h-1.3v4.4c0,0.5,0.1,0.8,0.3,1c0.2,0.2,0.4,0.2,0.8,0.1c0.1,0,0.3-0.1,0.6-0.2
			l0.1,0.3c-0.2,0.1-0.4,0.2-0.7,0.3c-1.7,0.6-2.6,0.1-2.6-1.4v-4.6h-0.9v-0.2c0.5-0.1,0.9-0.4,1.3-0.9c0.4-0.5,0.7-1,0.9-1.6H702.6
			z"/>
		<path class="st1" d="M710.9,1697.4c0.6,0.6,0.9,1.4,0.9,2.4c0,1-0.3,1.8-1,2.4c-0.6,0.7-1.4,1-2.3,1c-0.9,0-1.6-0.3-2.2-1
			c-0.6-0.6-0.9-1.4-0.9-2.3c0-1,0.3-1.8,0.9-2.4c0.6-0.7,1.4-1,2.3-1C709.6,1696.4,710.3,1696.8,710.9,1697.4z M707.5,1697.7
			c-0.3,0.6-0.4,1.3-0.4,2.2c0,0.8,0.1,1.5,0.4,2.1c0.3,0.6,0.6,0.9,1.1,0.9c0.4,0,0.8-0.3,1.1-0.9c0.3-0.6,0.5-1.3,0.5-2.2
			c0-0.9-0.1-1.6-0.4-2.2c-0.3-0.5-0.6-0.8-1.1-0.8C708.2,1696.8,707.8,1697.1,707.5,1697.7z"/>
		<path class="st1" d="M715.2,1697.4c0.4-0.6,0.9-0.9,1.6-0.9c0.4,0,0.8,0.1,1.2,0.3c0.3,0.2,0.4,0.4,0.4,0.7c0,0.1,0,0.3-0.1,0.4
			s-0.2,0.2-0.4,0.2c-0.2,0-0.3,0-0.4-0.1s-0.2-0.2-0.3-0.4c-0.1-0.2-0.2-0.4-0.3-0.5c-0.1-0.1-0.3-0.2-0.5-0.1
			c-0.3,0-0.5,0.2-0.8,0.6c-0.2,0.4-0.4,0.9-0.4,1.4v2.6c0,0.9,0.3,1.4,0.9,1.4v0.2h-3.2v-0.2c0.6,0,0.9-0.5,0.9-1.4v-3.4
			c0-0.7-0.3-1-0.9-1v-0.2l2.2-0.4C715.1,1696.6,715.2,1696.9,715.2,1697.4z"/>
		<path class="st1" d="M719.3,1696.8l2.4-0.4v5c0,0.8,0.3,1.3,0.9,1.3v0.2h-3.3v-0.2c0.6,0,0.9-0.5,0.9-1.3v-3.6
			c0-0.7-0.3-1-0.9-0.9V1696.8z M721.8,1694.5c0,0.3-0.1,0.5-0.3,0.6c-0.2,0.2-0.4,0.3-0.6,0.3c-0.2,0-0.5-0.1-0.6-0.3
			c-0.2-0.2-0.3-0.4-0.3-0.6c0-0.3,0.1-0.5,0.3-0.6c0.2-0.2,0.4-0.3,0.6-0.3c0.2,0,0.5,0.1,0.6,0.3
			C721.7,1694,721.8,1694.2,721.8,1694.5z"/>
		<path class="st1" d="M728.8,1697.4c0.2,0.3,0.3,0.8,0.3,1.4v3.2c0,0.4,0.1,0.6,0.3,0.7c0.2,0.1,0.5,0,0.9-0.3l0.1,0.2
			c-0.5,0.3-0.9,0.5-1.4,0.5c-0.9,0-1.3-0.3-1.4-0.9c-0.2,0.3-0.4,0.5-0.8,0.7c-0.3,0.2-0.8,0.3-1.3,0.3c-0.5,0-1-0.2-1.4-0.5
			c-0.4-0.3-0.5-0.8-0.5-1.3c0-0.9,0.5-1.5,1.5-1.8c1.6-0.6,2.5-1.2,2.4-1.9c0-0.6-0.4-0.8-1.3-0.8c-0.3,0-0.6,0.1-0.7,0.2
			c0,0-0.1,0.2-0.3,0.6c-0.1,0.2-0.2,0.3-0.3,0.4c-0.1,0.1-0.2,0.2-0.3,0.2c-0.1,0-0.3,0-0.4-0.1c-0.1-0.1-0.2-0.2-0.2-0.4
			c0-0.2,0.1-0.5,0.4-0.7c0.5-0.4,1.1-0.6,1.9-0.6C727.6,1696.4,728.5,1696.8,728.8,1697.4z M726.1,1699.7c-0.3,0.1-0.5,0.4-0.7,0.6
			c-0.1,0.3-0.2,0.6-0.2,0.9c0,0.3,0.1,0.7,0.3,0.9c0.2,0.3,0.4,0.4,0.8,0.4c0.4,0,0.7-0.2,1-0.6c0.2-0.4,0.3-1,0.3-1.6v-1.6
			C727.3,1699,726.8,1699.3,726.1,1699.7z"/>
		<path class="st1" d="M741.3,1702.4c-0.6,0.5-1.2,0.7-1.9,0.7c-0.8,0-1.5-0.3-2-0.9c-0.5-0.6-0.7-1.4-0.7-2.4c0-1,0.3-1.8,0.8-2.5
			c0.5-0.6,1.2-0.9,2-0.9c0.7,0,1.3,0.2,1.9,0.6v-2.2c0-0.7-0.3-1-0.9-0.9v-0.2l2.4-0.4v8.1c0,0.7,0.3,1,0.9,0.9v0.2l-2.2,0.5
			C741.4,1703,741.3,1702.8,741.3,1702.4z M738.6,1697.7c-0.3,0.5-0.4,1.2-0.4,2c0,0.9,0.2,1.6,0.5,2.1c0.3,0.6,0.8,0.8,1.3,0.8
			c0.3,0,0.6-0.2,0.9-0.5c0.3-0.3,0.4-0.7,0.4-1.2v-3.4c-0.1-0.2-0.3-0.4-0.6-0.5c-0.3-0.2-0.5-0.2-0.8-0.2
			C739.3,1696.9,738.9,1697.2,738.6,1697.7z"/>
		<path class="st1" d="M750.1,1697.3c0.5,0.6,0.8,1.3,0.9,2.3h-4.6c-0.1,0.8,0.1,1.5,0.5,2.1c0.4,0.6,0.9,0.9,1.6,0.8
			c0.5,0,1-0.2,1.4-0.6s0.6-0.9,0.8-1.5h0.2c-0.2,0.9-0.5,1.5-1.1,2c-0.6,0.5-1.2,0.7-2,0.7c-0.8,0-1.6-0.3-2.2-1
			c-0.6-0.6-0.9-1.4-0.9-2.3c0-1,0.3-1.8,0.9-2.4c0.6-0.7,1.4-1,2.3-1C748.8,1696.4,749.5,1696.7,750.1,1697.3z M747.2,1697
			c-0.2,0.2-0.3,0.4-0.5,0.7c-0.1,0.3-0.2,0.5-0.2,0.8c-0.1,0.3-0.1,0.5-0.1,0.8h2.9c0-0.3,0-0.7-0.1-1c-0.1-0.4-0.2-0.7-0.5-1
			c-0.2-0.3-0.5-0.5-0.9-0.5C747.6,1696.7,747.4,1696.8,747.2,1697z"/>
		<path class="st1" d="M759.8,1701.4c0,0.9,0.3,1.3,0.9,1.4v0.2h-3.3v-0.2c0.6,0,0.9-0.5,0.9-1.4v-6.5c0-0.7-0.3-1-0.9-0.9v-0.2
			l2.5-0.4v3V1701.4z"/>
		<path class="st1" d="M766.9,1697.4c0.2,0.3,0.3,0.8,0.3,1.4v3.2c0,0.4,0.1,0.6,0.3,0.7c0.2,0.1,0.5,0,0.9-0.3l0.1,0.2
			c-0.5,0.3-0.9,0.5-1.4,0.5c-0.9,0-1.3-0.3-1.4-0.9c-0.2,0.3-0.4,0.5-0.8,0.7c-0.3,0.2-0.8,0.3-1.3,0.3c-0.5,0-1-0.2-1.4-0.5
			c-0.4-0.3-0.5-0.8-0.5-1.3c0-0.9,0.5-1.5,1.5-1.8c1.6-0.6,2.5-1.2,2.4-1.9c0-0.6-0.4-0.8-1.3-0.8c-0.3,0-0.6,0.1-0.7,0.2
			c0,0-0.1,0.2-0.3,0.6c-0.1,0.2-0.2,0.3-0.3,0.4c-0.1,0.1-0.2,0.2-0.3,0.2c-0.1,0-0.3,0-0.4-0.1c-0.1-0.1-0.2-0.2-0.2-0.4
			c0-0.2,0.1-0.5,0.4-0.7c0.5-0.4,1.1-0.6,1.9-0.6C765.7,1696.4,766.5,1696.8,766.9,1697.4z M764.2,1699.7c-0.3,0.1-0.5,0.4-0.7,0.6
			c-0.1,0.3-0.2,0.6-0.2,0.9c0,0.3,0.1,0.7,0.3,0.9c0.2,0.3,0.4,0.4,0.8,0.4c0.4,0,0.7-0.2,1-0.6c0.2-0.4,0.3-1,0.3-1.6v-1.6
			C765.4,1699,764.9,1699.3,764.2,1699.7z"/>
		<path class="st1" d="M778.6,1693.8v0.3c-0.8,0-1.1,0.4-1.1,1.2v6c0,1,0.7,1.5,2.1,1.5c0.5,0,1-0.1,1.4-0.2s0.8-0.4,1.1-0.8
			c0.3-0.4,0.5-0.8,0.6-1.4l0.2,0l-0.2,2.6h-8l0-0.2c0.8,0,1.1-0.4,1.1-1.2v-6.4c0-0.8-0.4-1.2-1.1-1.2v-0.3H778.6z"/>
		<path class="st1" d="M783.9,1696.8l2.4-0.4v5c0,0.8,0.3,1.3,0.9,1.3v0.2h-3.3v-0.2c0.6,0,0.9-0.5,0.9-1.3v-3.6
			c0-0.7-0.3-1-0.9-0.9V1696.8z M786.4,1694.5c0,0.3-0.1,0.5-0.3,0.6c-0.2,0.2-0.4,0.3-0.6,0.3c-0.2,0-0.5-0.1-0.6-0.3
			c-0.2-0.2-0.3-0.4-0.3-0.6c0-0.3,0.1-0.5,0.3-0.6c0.2-0.2,0.4-0.3,0.6-0.3c0.2,0,0.5,0.1,0.6,0.3
			C786.3,1694,786.4,1694.2,786.4,1694.5z"/>
		<path class="st1" d="M793.4,1697c0.3,0.2,0.4,0.5,0.4,0.7c0,0.2-0.1,0.3-0.2,0.4c-0.1,0.1-0.3,0.1-0.4,0.1c-0.1,0-0.2-0.1-0.3-0.2
			c-0.1-0.1-0.2-0.3-0.2-0.5c-0.1-0.3-0.2-0.5-0.2-0.6c-0.2-0.1-0.4-0.2-0.7-0.2c-0.4,0-0.7,0.2-1,0.5c-0.3,0.3-0.5,0.7-0.6,1.2
			c-0.1,0.5-0.2,0.9-0.2,1.4c0,0.7,0.2,1.4,0.6,1.9c0.4,0.5,0.9,0.8,1.5,0.8c1,0,1.6-0.7,2-2.1h0.2c-0.1,0.8-0.5,1.5-1,2
			c-0.5,0.5-1.1,0.7-1.8,0.7c-0.9,0-1.6-0.3-2.2-0.9c-0.6-0.6-0.9-1.4-0.9-2.3c0-1,0.3-1.8,0.8-2.4c0.6-0.7,1.4-1,2.4-1
			C792.2,1696.4,792.9,1696.6,793.4,1697z"/>
		<path class="st1" d="M796.9,1702.3c0,0.3-0.1,0.5-0.3,0.6c-0.2,0.2-0.4,0.3-0.6,0.3c-0.2,0-0.5-0.1-0.6-0.3
			c-0.2-0.2-0.3-0.4-0.3-0.6c0-0.3,0.1-0.5,0.3-0.6c0.2-0.2,0.4-0.3,0.6-0.3c0.2,0,0.5,0.1,0.6,0.3
			C796.8,1701.8,796.9,1702,796.9,1702.3z"/>
	</g>
	<g class="st0">
		<path class="st1" d="M674.2,1713.8l0.1,2.2l-0.2,0c-0.1-1.3-0.8-2-2.2-2h-2.3v3.8h1.2c0.9,0,1.4-0.5,1.4-1.4h0.2v3.1h-0.2
			c0-0.9-0.5-1.4-1.4-1.4h-1.2v3c0,1,0.7,1.5,2.1,1.5c1.9,0,3-0.8,3-2.4l0.2,0l-0.2,2.6h-8v-0.3c0.8,0,1.2-0.4,1.2-1.1v-6.4
			c0-0.8-0.4-1.2-1.2-1.2v-0.3H674.2z"/>
		<path class="st1" d="M681.9,1717c0.4,0.4,0.6,0.9,0.6,1.6v2.8c0,0.9,0.3,1.3,0.9,1.4v0.2H680v-0.2c0.6,0,0.9-0.5,0.9-1.4v-3
			c0-0.4-0.1-0.7-0.3-1c-0.2-0.3-0.5-0.4-0.9-0.4c-0.3,0-0.6,0.1-0.9,0.4c-0.2,0.3-0.3,0.6-0.3,1v3c0,0.9,0.3,1.3,0.9,1.4v0.2H676
			v-0.2c0.6,0,0.9-0.5,0.9-1.4v-3.5c0-0.7-0.3-1-0.9-0.9v-0.2l2.2-0.4c0.1,0.1,0.2,0.4,0.2,0.9c0.5-0.6,1.1-0.9,1.9-0.9
			C680.9,1716.4,681.5,1716.6,681.9,1717z"/>
		<path class="st1" d="M696.8,1714c0.6,0.2,0.9,0.1,0.9-0.3h0.2l0.1,2.7l-0.2,0c-0.4-1.7-1.4-2.5-3.1-2.5c-0.9,0-1.7,0.5-2.3,1.3
			c-0.6,0.9-0.9,1.9-0.9,3.1c0,0.8,0.1,1.6,0.3,2.2c0.2,0.6,0.5,1.1,1,1.5c0.4,0.4,1,0.6,1.7,0.6c0.6,0,1.1-0.1,1.5-0.5
			c0.4-0.3,0.5-0.7,0.5-1.3v-0.3c0-0.8-0.4-1.3-1.3-1.5v-0.3h4.2v0.3c-0.8,0.2-1.2,0.7-1.2,1.5v1.1c-0.4,0.4-1,0.7-1.5,0.9
			c-0.6,0.3-1.3,0.4-2.1,0.4c-1.4,0-2.6-0.4-3.5-1.3c-0.9-0.9-1.4-2-1.4-3.4c0-0.9,0.2-1.7,0.6-2.4c0.4-0.7,1-1.3,1.8-1.8
			c0.8-0.4,1.7-0.7,2.7-0.7C695.3,1713.6,696,1713.8,696.8,1714z"/>
		<path class="st1" d="M705.6,1717.4c0.2,0.3,0.3,0.8,0.3,1.4v3.2c0,0.4,0.1,0.6,0.3,0.7c0.2,0.1,0.5,0,0.9-0.3l0.1,0.2
			c-0.5,0.3-0.9,0.5-1.4,0.5c-0.9,0-1.3-0.3-1.4-0.9c-0.2,0.3-0.4,0.5-0.8,0.7c-0.3,0.2-0.8,0.3-1.3,0.3c-0.5,0-1-0.2-1.4-0.5
			c-0.4-0.3-0.5-0.8-0.5-1.3c0-0.9,0.5-1.5,1.5-1.8c1.6-0.6,2.5-1.2,2.4-1.9c0-0.6-0.4-0.8-1.3-0.8c-0.3,0-0.6,0.1-0.7,0.2
			c0,0-0.1,0.2-0.3,0.6c-0.1,0.2-0.2,0.3-0.3,0.4c-0.1,0.1-0.2,0.2-0.3,0.2c-0.1,0-0.3,0-0.4-0.1c-0.1-0.1-0.2-0.2-0.2-0.4
			c0-0.2,0.1-0.5,0.4-0.7c0.5-0.4,1.1-0.6,1.9-0.6C704.5,1716.4,705.3,1716.8,705.6,1717.4z M702.9,1719.7c-0.3,0.1-0.5,0.4-0.7,0.6
			c-0.1,0.3-0.2,0.6-0.2,0.9c0,0.3,0.1,0.7,0.3,0.9c0.2,0.3,0.4,0.4,0.8,0.4c0.4,0,0.7-0.2,1-0.6c0.2-0.4,0.3-1,0.3-1.6v-1.6
			C704.2,1719,703.7,1719.3,702.9,1719.7z"/>
		<path class="st1" d="M711.1,1716.6c0.3,0.1,0.5,0.2,0.5,0.1c0.1,0,0.1-0.1,0.1-0.2h0.2l0.2,1.9H712c-0.1-0.5-0.3-0.9-0.6-1.3
			c-0.1-0.1-0.3-0.2-0.6-0.3c-0.2-0.1-0.4-0.1-0.6-0.1c-0.3,0-0.6,0.1-0.8,0.3c-0.2,0.1-0.3,0.3-0.3,0.6c0,0.2,0.1,0.4,0.2,0.6
			c0.1,0.1,0.5,0.3,1.1,0.6c0.6,0.2,1,0.4,1.2,0.5c0.7,0.4,1,1,0.9,1.8c0,0.6-0.3,1.1-0.7,1.5c-0.4,0.4-1,0.6-1.8,0.5
			c-0.3,0-0.5-0.1-0.8-0.2c-0.5-0.2-0.8-0.3-0.9-0.2c-0.1,0-0.2,0.1-0.2,0.3h-0.2l0-2h0.2c0,0.2,0.1,0.4,0.1,0.6
			c0.1,0.2,0.2,0.3,0.4,0.5c0.4,0.4,0.9,0.6,1.4,0.7c0.5,0.1,0.9,0,1.2-0.2c0.3-0.2,0.4-0.4,0.4-0.7c0-0.3,0-0.5-0.2-0.7
			c-0.1-0.1-0.3-0.3-0.6-0.4c-0.4-0.2-0.7-0.3-1-0.4c-0.4-0.1-0.6-0.2-0.8-0.3c-0.8-0.4-1.1-1-1.1-1.8c0-0.5,0.2-1,0.5-1.3
			c0.4-0.4,0.9-0.5,1.5-0.5C710.5,1716.4,710.8,1716.5,711.1,1716.6z"/>
		<path class="st1" d="M716.1,1714.3v2.3h1.3v0.3h-1.3v4.4c0,0.5,0.1,0.8,0.3,1c0.2,0.2,0.4,0.2,0.8,0.1c0.1,0,0.3-0.1,0.6-0.2
			l0.1,0.3c-0.2,0.1-0.4,0.2-0.7,0.3c-1.7,0.6-2.6,0.1-2.6-1.4v-4.6h-0.9v-0.2c0.5-0.1,0.9-0.4,1.3-0.9c0.4-0.5,0.7-1,0.9-1.6H716.1
			z"/>
		<path class="st1" d="M721.3,1717.4c0.4-0.6,0.9-0.9,1.6-0.9c0.4,0,0.8,0.1,1.2,0.3c0.3,0.2,0.4,0.4,0.4,0.7c0,0.1,0,0.3-0.1,0.4
			s-0.2,0.2-0.4,0.2c-0.2,0-0.3,0-0.4-0.1s-0.2-0.2-0.3-0.4c-0.1-0.2-0.2-0.4-0.3-0.5c-0.1-0.1-0.3-0.2-0.5-0.1
			c-0.3,0-0.5,0.2-0.8,0.6c-0.2,0.4-0.4,0.9-0.4,1.4v2.6c0,0.9,0.3,1.4,0.9,1.4v0.2h-3.3v-0.2c0.6,0,0.9-0.5,0.9-1.4v-3.4
			c0-0.7-0.3-1-0.9-1v-0.2l2.2-0.4C721.2,1716.6,721.3,1716.9,721.3,1717.4z"/>
		<path class="st1" d="M730.6,1717.4c0.6,0.6,0.9,1.4,0.9,2.4c0,1-0.3,1.8-1,2.4c-0.6,0.7-1.4,1-2.3,1c-0.9,0-1.6-0.3-2.2-1
			c-0.6-0.6-0.9-1.4-0.9-2.3c0-1,0.3-1.8,0.9-2.4c0.6-0.7,1.4-1,2.3-1C729.3,1716.4,730,1716.8,730.6,1717.4z M727.2,1717.7
			c-0.3,0.6-0.4,1.3-0.4,2.2c0,0.8,0.1,1.5,0.4,2.1c0.3,0.6,0.6,0.9,1.1,0.9c0.4,0,0.8-0.3,1.1-0.9c0.3-0.6,0.5-1.3,0.5-2.2
			c0-0.9-0.1-1.6-0.4-2.2c-0.3-0.5-0.6-0.8-1.1-0.8C727.9,1716.8,727.5,1717.1,727.2,1717.7z"/>
		<path class="st1" d="M738.3,1717c0.4,0.4,0.6,0.9,0.6,1.6v2.8c0,0.9,0.3,1.3,0.9,1.4v0.2h-3.3v-0.2c0.6,0,0.9-0.5,0.9-1.4v-3
			c0-0.4-0.1-0.7-0.3-1c-0.2-0.3-0.5-0.4-0.9-0.4c-0.3,0-0.6,0.1-0.9,0.4c-0.2,0.3-0.3,0.6-0.3,1v3c0,0.9,0.3,1.3,0.9,1.4v0.2h-3.3
			v-0.2c0.6,0,0.9-0.5,0.9-1.4v-3.5c0-0.7-0.3-1-0.9-0.9v-0.2l2.2-0.4c0.1,0.1,0.2,0.4,0.2,0.9c0.5-0.6,1.1-0.9,1.9-0.9
			C737.4,1716.4,737.9,1716.6,738.3,1717z"/>
		<path class="st1" d="M746.3,1717.4c0.6,0.6,0.9,1.4,0.9,2.4c0,1-0.3,1.8-1,2.4c-0.6,0.7-1.4,1-2.3,1c-0.9,0-1.6-0.3-2.2-1
			c-0.6-0.6-0.9-1.4-0.9-2.3c0-1,0.3-1.8,0.9-2.4c0.6-0.7,1.4-1,2.3-1C745,1716.4,745.7,1716.8,746.3,1717.4z M742.9,1717.7
			c-0.3,0.6-0.4,1.3-0.4,2.2c0,0.8,0.1,1.5,0.4,2.1c0.3,0.6,0.6,0.9,1.1,0.9c0.4,0,0.8-0.3,1.1-0.9c0.3-0.6,0.5-1.3,0.5-2.2
			c0-0.9-0.1-1.6-0.4-2.2c-0.3-0.5-0.6-0.8-1.1-0.8C743.6,1716.8,743.2,1717.1,742.9,1717.7z"/>
		<path class="st1" d="M753.9,1717c0.2,0.2,0.3,0.3,0.4,0.5c0.5-0.7,1.1-1.1,1.9-1.1c0.6,0,1.1,0.2,1.5,0.6c0.4,0.4,0.5,0.9,0.5,1.6
			v2.8c0,0.9,0.3,1.3,0.9,1.4v0.2h-3.3v-0.2c0.6,0,0.9-0.5,0.9-1.4v-3c0-0.4-0.1-0.7-0.3-1c-0.2-0.3-0.5-0.4-0.8-0.4
			c-0.3,0-0.6,0.1-0.8,0.4c-0.2,0.3-0.3,0.6-0.3,1v3c0,0.9,0.3,1.3,0.9,1.4v0.2H752v-0.2c0.6,0,0.9-0.5,0.9-1.4v-3
			c0-0.4-0.1-0.7-0.3-1c-0.2-0.3-0.5-0.4-0.8-0.4c-0.3,0-0.6,0.1-0.8,0.4c-0.2,0.3-0.4,0.6-0.3,1v3c0,0.9,0.3,1.3,0.9,1.4v0.2h-3.3
			v-0.2c0.6,0,0.9-0.5,0.9-1.4v-3.5c0-0.7-0.3-1-0.9-0.9v-0.2l2.2-0.4c0.1,0.1,0.2,0.4,0.2,0.9c0.4-0.6,1-0.9,1.8-0.9
			C753,1716.5,753.5,1716.6,753.9,1717z"/>
		<path class="st1" d="M760.1,1716.8l2.4-0.4v5c0,0.8,0.3,1.3,0.9,1.3v0.2h-3.3v-0.2c0.6,0,0.9-0.5,0.9-1.3v-3.6
			c0-0.7-0.3-1-0.9-0.9V1716.8z M761.7,1713.5l-1.2,1.9l0.4,0.2l2.2-2.2H761.7z"/>
		<path class="st1" d="M769.6,1717.4c0.2,0.3,0.3,0.8,0.3,1.4v3.2c0,0.4,0.1,0.6,0.3,0.7c0.2,0.1,0.5,0,0.9-0.3l0.1,0.2
			c-0.5,0.3-0.9,0.5-1.4,0.5c-0.9,0-1.3-0.3-1.4-0.9c-0.2,0.3-0.4,0.5-0.8,0.7c-0.3,0.2-0.8,0.3-1.3,0.3c-0.5,0-1-0.2-1.4-0.5
			c-0.4-0.3-0.5-0.8-0.5-1.3c0-0.9,0.5-1.5,1.5-1.8c1.6-0.6,2.5-1.2,2.4-1.9c0-0.6-0.4-0.8-1.3-0.8c-0.3,0-0.6,0.1-0.7,0.2
			c0,0-0.1,0.2-0.3,0.6c-0.1,0.2-0.2,0.3-0.3,0.4c-0.1,0.1-0.2,0.2-0.3,0.2c-0.1,0-0.3,0-0.4-0.1c-0.1-0.1-0.2-0.2-0.2-0.4
			c0-0.2,0.1-0.5,0.4-0.7c0.5-0.4,1.1-0.6,1.9-0.6C768.5,1716.4,769.3,1716.8,769.6,1717.4z M766.9,1719.7c-0.3,0.1-0.5,0.4-0.7,0.6
			c-0.1,0.3-0.2,0.6-0.2,0.9c0,0.3,0.1,0.7,0.3,0.9c0.2,0.3,0.4,0.4,0.8,0.4c0.4,0,0.7-0.2,1-0.6c0.2-0.4,0.3-1,0.3-1.6v-1.6
			C768.2,1719,767.7,1719.3,766.9,1719.7z"/>
		<path class="st1" d="M773.8,1722.3c0,0.3-0.1,0.5-0.3,0.6c-0.2,0.2-0.4,0.3-0.6,0.3c-0.2,0-0.5-0.1-0.6-0.3
			c-0.2-0.2-0.3-0.4-0.3-0.6c0-0.3,0.1-0.5,0.3-0.6c0.2-0.2,0.4-0.3,0.6-0.3c0.2,0,0.5,0.1,0.6,0.3
			C773.7,1721.8,773.8,1722,773.8,1722.3z"/>
	</g>
	<g transform="translate(536.209 750.102)">
		<path class="st2" d="M159,1010.4c0.8,0.3,1.7,0.7,3.5,1.6c-0.2-1.8-0.7-3.5-1.5-5.1c-2.4-4.7-7.3-9.3-12.8-12.4
			c0,1.5,0.1,3.1,0.6,4.5C149.9,1003.8,153.7,1008,159,1010.4z"/>
		<path class="st2" d="M208.6,1010.4c5.3-2.3,9.1-6.5,10.3-11.4c0.4-1.5,0.6-3,0.6-4.5c-5.5,3.1-10.4,7.7-12.8,12.4
			c-0.8,1.6-1.3,3.3-1.5,5.1C206.9,1011.1,207.8,1010.7,208.6,1010.4z"/>
		<path class="st2" d="M154.3,1016.8c2-0.3,4-0.8,5.9-1.6c-3.4-1.6-4-1.9-4.9-2.4c-3.9-1.8-8.4-2.2-12.5-1c-2.7,0.7-5.3,1.7-7.7,3.1
			c4.1,1.3,8.4,2.1,12.6,2.2C150,1017.3,152.2,1017.2,154.3,1016.8z"/>
		<path class="st2" d="M212.3,1012.9c-1,0.5-1.5,0.7-4.9,2.4c1.9,0.8,3.9,1.4,5.9,1.6c2.2,0.3,4.4,0.4,6.6,0.3
			c4.3-0.2,8.6-0.9,12.6-2.2c-2.4-1.4-5-2.4-7.7-3.1C220.6,1010.7,216.2,1011,212.3,1012.9z"/>
		<path class="st2" d="M146.8,1008.9l-2.8-1.3c-5.5-2.5-11.7-2.7-17.3-0.7c-1.5,0.5-2.9,1.2-4.3,1.9
			C128.8,1011.2,139.8,1012.2,146.8,1008.9z"/>
		<path class="st2" d="M223.6,1007.5l-2.8,1.3c7,3.3,18,2.3,24.5,0c-1.4-0.8-2.8-1.4-4.3-1.9
			C235.3,1004.9,229.1,1005.1,223.6,1007.5z"/>
		<path class="st2" d="M142.8,1003.4l5.9,2.5c-0.4-4.6-4.2-11.1-13.9-16.8c-0.3,1.9,0.6,5.4,1.9,8.6
			C138,1000.3,140.2,1002.3,142.8,1003.4z"/>
		<path class="st2" d="M224.7,1003.4c2.7-1.1,4.8-3.1,6.1-5.7c1.4-3.2,2.2-6.7,1.9-8.6c-9.7,5.7-13.5,12.2-13.9,16.8L224.7,1003.4z"
			/>
		<path class="st2" d="M131.4,998.6l3,1.3c-0.4-5.4-6.1-12.3-10.8-16.2c-0.4,1.1-0.5,2.2-0.6,3.3C123,991.9,126.2,996.4,131.4,998.6
			z"/>
		<path class="st2" d="M244.5,987.1c0-1.1-0.2-2.3-0.6-3.3c-4.7,3.9-10.4,10.7-10.8,16.2l3-1.3C241.4,996.4,244.6,991.9,244.5,987.1
			z"/>
		<path class="st2" d="M132.8,1002.5c-3.8-1.7-6.1-2.7-8.7-4c-5.5-0.1-10.9,0.7-16.2,2.2C114.2,1004.2,125.2,1006.3,132.8,1002.5z"
			/>
		<path class="st2" d="M243.4,998.4c-2.6,1.3-4.8,2.3-8.7,4c7.7,3.8,18.7,1.8,24.9-1.8C254.3,999.1,248.9,998.4,243.4,998.4z"/>
		<path class="st2" d="M117.5,991.7c1,0.6,2.1,1.2,3.4,1.9c0.3-4.1-1.8-9.3-3.9-13c-0.2-0.3-0.4-0.7-0.6-1c-0.2-0.3-0.4-0.6-0.6-0.9
			s-0.4-0.6-0.7-0.9s-0.5-0.6-0.7-0.9c-0.5,0.8-0.9,1.6-1.2,2.5c-0.3,1.1-0.6,2.2-0.7,3.3C112.3,986.5,114.2,989.9,117.5,991.7z"/>
		<path class="st2" d="M250.1,991.7c3.2-1.8,5.2-5.2,5-8.9c-0.1-1.1-0.3-2.2-0.7-3.3c-0.3-0.9-0.7-1.7-1.2-2.5
			c-0.2,0.3-0.5,0.6-0.7,0.9c-0.2,0.3-0.5,0.6-0.7,0.9s-0.4,0.6-0.6,0.9s-0.4,0.6-0.6,1c-2.2,3.7-4.3,8.9-3.9,13
			C248,992.9,249.1,992.3,250.1,991.7z"/>
		<path class="st2" d="M119.2,995.7c-0.5-0.3-1.1-0.6-1.5-0.9c-5.9-3.5-12.8-5.1-19.7-4.7c-0.9,0.1-1.7,0.1-2.3,0.2
			C102.2,996,112.5,998.3,119.2,995.7z"/>
		<path class="st2" d="M249.9,994.8c-0.5,0.3-1,0.6-1.5,0.9c6.6,2.6,17,0.2,23.5-5.4c-0.6-0.1-1.4-0.2-2.3-0.2
			C262.8,989.7,255.9,991.3,249.9,994.8z"/>
		<path class="st2" d="M104.7,981.9l0.5,0.5c0.6,0.5,2.3,2.2,3.8,3.4c0.4-1.3,0.6-2.6,0.6-3.9c0-4.4-1.1-8.7-3.2-12.5
			c-1.8,1.9-3.1,4.4-3.6,7C102.5,978.4,103.2,980.5,104.7,981.9L104.7,981.9z"/>
		<path class="st2" d="M258.5,985.8c1.5-1.2,3.3-2.9,3.8-3.4l0.5-0.5l0,0c1.5-1.4,2.2-3.5,1.8-5.6c-0.5-2.6-1.8-5.1-3.6-7
			c-2,3.9-3.1,8.2-3.2,12.5C257.9,983.2,258.1,984.5,258.5,985.8z"/>
		<path class="st2" d="M107.3,987.3c-1.1-1-2.6-2.3-4-3.8c-1.9-1.9-4.4-3.3-7-3.9c-3.1-0.8-6.2-1.3-9.4-1.5
			C91.5,984.5,100.7,988.7,107.3,987.3z"/>
		<path class="st2" d="M264.3,983.5c-1.4,1.5-2.8,2.8-4,3.8c6.6,1.4,15.8-2.8,20.4-9.2c-3.2,0.2-6.3,0.7-9.4,1.5
			C268.6,980.2,266.2,981.6,264.3,983.5z"/>
		<path class="st2" d="M97.5,973.2c0.6,0.9,1.3,1.8,1.8,2.5c2.5-3.5,4-11,2.5-16.2c-2.2,1.4-3.9,3.4-5.1,5.8
			C95.6,967.9,95.9,970.9,97.5,973.2z"/>
		<path class="st2" d="M270.1,973.2c1.6-2.3,1.9-5.3,0.7-7.8c-1.1-2.4-2.9-4.4-5.1-5.8c-1.5,5.1,0.1,12.7,2.5,16.2
			C268.8,975,269.5,974.1,270.1,973.2z"/>
		<path class="st2" d="M95.6,973.5c-1.1-1.8-2.7-3.4-4.5-4.5c-3.3-2-7-3.5-10.8-4.4c3.1,7.7,11.4,12.2,17.3,12
			C96.6,975.1,96,974.3,95.6,973.5z"/>
		<path class="st2" d="M272,973.5c-0.4,0.7-1,1.6-2,3.1c5.9,0.2,14.2-4.3,17.3-12c-3.8,0.9-7.5,2.4-10.8,4.4
			C274.7,970.2,273.2,971.7,272,973.5z"/>
		<path class="st2" d="M92.8,964.4c3.4-2.9,6.7-9.7,6.2-15h0c-6,3-8.7,9.1-6.4,14.6C92.7,964.1,92.7,964.2,92.8,964.4z"/>
		<path class="st2" d="M268.6,949.4c-0.4,5.3,2.9,12.1,6.2,15c0.1-0.1,0.1-0.3,0.2-0.4C277.3,958.5,274.6,952.4,268.6,949.4
			L268.6,949.4z"/>
		<path class="st2" d="M91.3,964.8c-0.3-0.9-0.7-2-1-2.9c-0.4-1.4-1.1-2.7-2.1-3.8c-1.5-1.8-3.5-3.6-7.6-5.7
			c-0.9-0.5-1.9-0.9-2.9-1.3c0.3,1.9,0.9,3.7,1.9,5.3C81.7,960.1,86.4,964.2,91.3,964.8z"/>
		<path class="st2" d="M286.9,952.4c-4.1,2.2-6.1,3.9-7.6,5.7c-0.9,1.1-1.6,2.4-2.1,3.8c-0.3,0.9-0.7,2-1,2.9
			c4.9-0.6,9.6-4.7,11.7-8.4c0.9-1.6,1.6-3.4,1.9-5.3C288.8,951.5,287.9,951.9,286.9,952.4z"/>
		<path class="st2" d="M88.2,952.2c-0.5-3.8-0.5-9-10.1-14.6C77.7,945,83.5,951,88.2,952.2z"/>
		<path class="st2" d="M279.4,952.2c4.6-1.2,10.5-7.2,10.1-14.6C279.9,943.2,279.9,948.4,279.4,952.2z"/>
		<path class="st2" d="M98.1,938.7c-6.2,2.2-9.8,7.6-8.9,13.2c0,0.1,0,0.2,0,0.2c3.9-2.1,8.6-8.1,9-13.4L98.1,938.7z"/>
		<path class="st2" d="M278.4,952.1c0,0,0-0.1,0-0.2c0.9-5.6-2.7-10.9-8.9-13.2l-0.2-0.1C269.8,944,274.5,950,278.4,952.1z"/>
		<path class="st2" d="M88.4,939.4c3.1-1,9.5-5.7,11-11.7C91.4,929.7,88.6,933.9,88.4,939.4z"/>
		<path class="st2" d="M279.1,939.4c-0.1-5.5-2.9-9.7-11-11.7C269.6,933.7,276,938.4,279.1,939.4z"/>
		<path class="st2" d="M87.9,939.4c0.4-5.4-0.8-9.8-7.2-14.8C78.9,931.6,84,937.9,87.9,939.4z"/>
		<path class="st2" d="M279.7,939.4c3.9-1.5,8.9-7.8,7.2-14.8C280.5,929.6,279.3,934,279.7,939.4z"/>
		<path class="st2" d="M93.8,914.4c-5.7,3.2-9.1,10.4-4.6,14.5C95.1,926.3,95.4,919.8,93.8,914.4z"/>
		<path class="st2" d="M278.3,928.9c4.6-4.1,1.1-11.3-4.6-14.5C272.2,919.8,272.5,926.3,278.3,928.9z"/>
		<path class="st2" d="M172.4,1016.4c1.1,0.5,1.9,0.9,4.6,2.2c-0.3-5.6-4.7-10.9-9.5-14.8c-1.6-1.3-3.3-2.5-5-3.5
			c-0.1,2.1,0.2,4.1,0.9,6.1C164.7,1010.9,168.1,1014.6,172.4,1016.4z"/>
		<path class="st2" d="M204.3,1006.4c0.6-2,0.9-4,0.9-6.1c-1.8,1-3.4,2.2-5,3.5c-4.8,3.9-9.2,9.3-9.5,14.8c2.7-1.3,3.5-1.7,4.6-2.2
			C199.5,1014.6,202.8,1010.9,204.3,1006.4z"/>
		<path class="st2" d="M170,1020c-4.7-2.3-10-2.7-15-1.2c-2.3,0.6-4.5,1.5-6.5,2.7c7.4,2.4,18.1,3.8,25.8,0.7
			C171.8,1020.9,171,1020.5,170,1020z"/>
		<path class="st2" d="M197.5,1020c-1,0.5-1.8,0.9-4.3,2.2c7.7,3.1,18.4,1.7,25.8-0.7c-2-1.2-4.2-2.1-6.5-2.7
			C207.5,1017.3,202.2,1017.7,197.5,1020z"/>
		<path class="st2" d="M186.5,1024.6c0.8-0.4,1.5-0.8,2.2-1.2c5.6-3,17.8-9,23.1-11.5c27.4-12.9,33.5-14.7,42.9-21.6
			c-12.6,8.7-43.9,19.4-67.2,31l-1.7,0.8l-2.1,1l-2.1-1l-1.7-0.8c-23.2-11.7-54.5-22.4-67.2-31c9.4,6.9,15.5,8.8,42.9,21.6
			c5.2,2.4,17.5,8.4,23.1,11.5c0.7,0.4,1.5,0.8,2.2,1.2c-11.9,6-13.8,7.8-17.9,14.8c3.7-2.7,12.4-8.5,20.6-13.2
			c8.2,4.7,16.9,10.5,20.6,13.2C200.3,1032.4,198.4,1030.6,186.5,1024.6z"/>
	</g>
</g>
</svg>
