<svg xmlns="http://www.w3.org/2000/svg" width="24" height="23" viewBox="0 0 24 23"><g transform="translate(0.439)"><ellipse cx="12" cy="11.5" rx="12" ry="11.5" transform="translate(-0.439)" fill="#bbac9a"/><g transform="translate(7.033 7.814)"><path d="M10.159,48.977a4.342,4.342,0,0,1-1.2.329,2.071,2.071,0,0,0,.916-1.151,4.162,4.162,0,0,1-1.321.5,2.082,2.082,0,0,0-3.6,1.424A2.144,2.144,0,0,0,5,50.558,5.9,5.9,0,0,1,.707,48.38a2.083,2.083,0,0,0,.64,2.783,2.057,2.057,0,0,1-.941-.257v.023a2.092,2.092,0,0,0,1.669,2.046,2.079,2.079,0,0,1-.546.069,1.841,1.841,0,0,1-.394-.036A2.1,2.1,0,0,0,3.081,54.46,4.185,4.185,0,0,1,.5,55.348a3.9,3.9,0,0,1-.5-.029,5.863,5.863,0,0,0,3.195.935,5.887,5.887,0,0,0,5.928-5.926c0-.092,0-.181-.008-.269A4.155,4.155,0,0,0,10.159,48.977Z" transform="translate(0 -48)" fill="#fff"/></g></g></svg>