<svg xmlns="http://www.w3.org/2000/svg" width="340.643" height="223.605" viewBox="0 0 340.643 223.605"><g transform="translate(0)"><path d="M1338.669,1157.269q20.259,0,47.1-10.806l1.6-8.02q-21.1,9.457-39.843,9.456-14.328,0-23.413-7.7l23.433-36.95h6.925l1.085-5.084h-35.88l-1,5.084h6.676q7.509,0,7.509,3.167,0,6.977-13.1,29.283-8.112-10.209-8.113-27,0-15.121,6.078-32.017t15.7-28.3q14.518-17.232,33.85-17.232,12.831,0,20.85,4.563t8.019,11.91a32.651,32.651,0,0,1-.844,6.5h5.318l7.175-23.227a128.262,128.262,0,0,0-36.214-4.9q-32.668,0-55.671,24.691t-23,59.892q0,22.2,11.986,34.441a37.025,37.025,0,0,0,6.094,5.02c-.784,1.241-1.584,2.5-2.411,3.793l-26.7,41.757q0-120.1-52.342-120.1-21.922,0-40.423,28.755l4.25,2.25q12.5-20.753,28.755-20.753,18,0,30.422,26.421,11.752,25.088,11.752,89.681l-.5,21.753,8.751-2.083,43.534-68.647Q1325.619,1157.268,1338.669,1157.269Z" transform="translate(-1189.12 -1026.005)" fill="#fff"/><path d="M1585.531,1529.267a11.206,11.206,0,0,0,8.739-3.845,6.692,6.692,0,0,1,1.243,2.719h.816v-9.05h-.816c-.388,3.224-2.058,6.331-4.039,7.574a10.083,10.083,0,0,1-5.166,1.515c-5.554,0-9.127-4.7-9.127-12,0-8,3.34-12.778,8.933-12.778a8.945,8.945,0,0,1,7.379,3.651,13.861,13.861,0,0,1,2.019,5.67h.816l-.233-9.826h-.815a9.815,9.815,0,0,1-1.01,3.34,11.633,11.633,0,0,0-8.778-3.806c-7.5,0-12.7,5.67-12.7,13.9C1572.792,1523.985,1577.958,1529.267,1585.531,1529.267Z" transform="translate(-1451.867 -1352.271)" fill="#fff"/><path d="M1686.216,1505.925a15.857,15.857,0,0,0-10.137-3.5c-8.117,0-13.943,5.476-13.943,13.089,0,8.273,5.632,13.749,14.1,13.749,8.428,0,14.1-5.437,14.1-13.477A13.063,13.063,0,0,0,1686.216,1505.925Zm-9.865,22.371a9.34,9.34,0,0,1-6.991-2.641c-1.787-1.864-2.835-5.477-2.835-9.943,0-3.767.971-7.379,2.524-9.244a9.107,9.107,0,0,1,7.147-3.068,9.3,9.3,0,0,1,6.525,2.447c2.058,1.942,3.224,5.515,3.224,10.021C1685.945,1523.868,1682.527,1528.3,1676.351,1528.3Z" transform="translate(-1513.052 -1352.271)" fill="#fff"/><path d="M1787.7,1504.8h.311v-.893h-9.4v.893h.5c3.107.233,4.039,1.126,3.923,3.884v15.5l-15.342-20.274h-7.651v.893h.233c3.3-.078,3.573.311,3.612,5.554V1524.1c0,2.331-.039,2.719-.311,3.224-.389.816-1.826,1.437-3.418,1.592h-.427v.893h9.671v-.893h-.31c-3.03-.117-4.311-1.126-4.233-3.3l-.039-1.515v-17.982l18.332,24.274h.816v-21.439C1783.816,1506.2,1784.709,1505.15,1787.7,1504.8Z" transform="translate(-1579.89 -1353.283)" fill="#fff"/><path d="M1876.967,1525.422a6.7,6.7,0,0,1,1.243,2.719h.815v-9.05h-.815c-.388,3.224-2.058,6.331-4.039,7.574a10.083,10.083,0,0,1-5.166,1.515c-5.554,0-9.127-4.7-9.127-12,0-8,3.34-12.778,8.933-12.778a8.946,8.946,0,0,1,7.38,3.651,13.866,13.866,0,0,1,2.02,5.67h.815l-.233-9.826h-.816a9.817,9.817,0,0,1-1.009,3.34,11.634,11.634,0,0,0-8.778-3.806c-7.5,0-12.7,5.67-12.7,13.9,0,7.651,5.165,12.933,12.739,12.933A11.208,11.208,0,0,0,1876.967,1525.422Z" transform="translate(-1645.464 -1352.271)" fill="#fff"/><path d="M1964.72,1521.773h-.893c-1.359,5.2-3.612,7.3-7.768,7.146h-1.942c-3.573.039-3.768-.272-3.768-6.214v-6.1h2.835c3.146-.077,3.729.505,3.806,3.729v.35h.893v-8.894h-.893v.31c.039,2.991-.622,3.574-3.884,3.574h-2.758V1504.8h3.574c5.126-.156,6.486.854,7.573,5.593h.894l-.622-6.486h-18.487v.893h.311c2.835,0,3.108.505,3.03,5.593v12.7c.078,5.321-.233,5.787-3.34,5.826h-.544v.893h21.439Z" transform="translate(-1705.214 -1353.283)" fill="#fff"/><path d="M2037.2,1504.482c-1.747-1.049-3.884-1.437-8.04-1.437-1.786,0-2.058,0-6.059.155l-3.223.117v.893h.466c3.3-.077,3.573.311,3.5,5.554v12.74c.039,5.321-.233,5.826-3.3,5.826h-.66v.893h11.846v-.893h-.855c-3.068,0-3.379-.505-3.3-5.826v-5.477h2.835c3.535,0,5.359-.31,6.758-1.126a6.516,6.516,0,0,0,3.146-5.826A5.947,5.947,0,0,0,2037.2,1504.482Zm-3.068,10.564c-1.126.816-2.175,1.049-4.7,1.049h-1.864v-12.04c.621-.039,1.01-.078,1.825-.078,2.525,0,3.806.311,4.894,1.165a6.338,6.338,0,0,1,1.981,5.049A5.666,5.666,0,0,1,2034.135,1515.046Z" transform="translate(-1758.044 -1352.693)" fill="#fff"/><path d="M2092.741,1503.907l-.155,6.253h.854c.971-4.738,1.9-5.554,6.137-5.36h3.845v18.254c.077,5.36-.233,5.826-3.3,5.865H2098.8v.893H2111.7v-.893h-1.243c-3.068-.039-3.34-.505-3.3-5.865V1504.8h4.156c3.923-.194,4.933.777,5.826,5.36h.855l-.156-6.253Z" transform="translate(-1807.834 -1353.283)" fill="#fff"/><path d="M2204.533,1505.925a15.858,15.858,0,0,0-10.137-3.5c-8.117,0-13.943,5.476-13.943,13.089,0,8.273,5.632,13.749,14.1,13.749,8.428,0,14.1-5.437,14.1-13.477A13.065,13.065,0,0,0,2204.533,1505.925Zm-9.865,22.371a9.34,9.34,0,0,1-6.991-2.641c-1.786-1.864-2.835-5.477-2.835-9.943,0-3.767.971-7.379,2.524-9.244a9.106,9.106,0,0,1,7.146-3.068,9.3,9.3,0,0,1,6.525,2.447c2.059,1.942,3.224,5.515,3.224,10.021C2204.261,1523.868,2200.843,1528.3,2194.667,1528.3Z" transform="translate(-1868.006 -1352.271)" fill="#fff"/><path d="M1589.062,1664.331c-1.01-.971-2.019-1.515-6.02-3.3a16.81,16.81,0,0,1-4.428-2.446,4.366,4.366,0,0,1-1.748-3.38c0-2.369,1.826-4,4.428-4,3.34,0,5.865,2.369,6.913,6.37h.816v-6.8h-.816a4.322,4.322,0,0,1-1.01,2.292,7.389,7.389,0,0,0-5.982-2.758c-3.961,0-6.874,2.719-6.874,6.447a7.318,7.318,0,0,0,1.864,4.816,15.231,15.231,0,0,0,5.282,3.146c3.418,1.476,4.078,1.825,5.049,2.6a4.86,4.86,0,0,1,1.981,3.845c0,2.913-2.447,5.049-5.709,5.049-4.039,0-6.641-2.758-7.729-8.117h-.932v8.311h.932a7.3,7.3,0,0,1,.971-2.525,9.005,9.005,0,0,0,7.108,3.263c4.855,0,8.117-3.029,8.117-7.5A7.054,7.054,0,0,0,1589.062,1664.331Z" transform="translate(-1452.795 -1453.543)" fill="#fff"/><path d="M1663.3,1653.805a15.859,15.859,0,0,0-10.137-3.5c-8.117,0-13.943,5.476-13.943,13.089,0,8.273,5.632,13.749,14.1,13.749,8.428,0,14.1-5.437,14.1-13.477A13.065,13.065,0,0,0,1663.3,1653.805Zm-9.865,22.372a9.338,9.338,0,0,1-6.991-2.641c-1.787-1.864-2.835-5.477-2.835-9.943,0-3.767.971-7.38,2.524-9.244a9.107,9.107,0,0,1,7.147-3.068,9.3,9.3,0,0,1,6.525,2.447c2.058,1.942,3.224,5.515,3.224,10.021C1663.025,1671.749,1659.606,1676.177,1653.431,1676.177Z" transform="translate(-1497.356 -1453.543)" fill="#fff"/><path d="M1753.711,1651.281a8.945,8.945,0,0,1,7.379,3.651,13.865,13.865,0,0,1,2.02,5.67h.815l-.233-9.826h-.816a9.817,9.817,0,0,1-1.009,3.34,11.633,11.633,0,0,0-8.778-3.806c-7.5,0-12.7,5.67-12.7,13.9,0,7.651,5.165,12.933,12.739,12.933a11.208,11.208,0,0,0,8.739-3.845,6.7,6.7,0,0,1,1.243,2.719h.815v-9.05h-.815c-.388,3.224-2.058,6.331-4.039,7.574a10.08,10.08,0,0,1-5.166,1.515c-5.554,0-9.127-4.7-9.127-12C1744.778,1656.058,1748.118,1651.281,1753.711,1651.281Z" transform="translate(-1566.641 -1453.543)" fill="#fff"/><path d="M1827.638,1652.682h.544c3.3-.078,3.573.311,3.5,5.554v12.74c.078,5.321-.233,5.826-3.3,5.826h-.738v.893h11.807v-.893h-.738c-3.069,0-3.341-.5-3.3-5.826v-12.74c-.078-5.243.194-5.632,3.5-5.554h.544v-.893h-11.807Z" transform="translate(-1626.391 -1454.555)" fill="#fff"/><path d="M1894.164,1671.18l-8.661-20.624h-.738l-7.5,18.021-.932,2.214c-1.476,3.845-2.175,4.66-4.234,5.127l-.349.039v.893h7.69v-.893h-.311a2.348,2.348,0,0,1-2.525-2.369c0-.893.194-1.554,1.515-4.622l.661-1.631h9.826l1.981,4.777c.893,2.02.893,2.02.893,2.486,0,1.049-.7,1.359-2.874,1.359h-.311v.893h10.176v-.893h-.233C1896.106,1675.568,1895.873,1675.3,1894.164,1671.18Zm-15.031-4.738,4.583-11.031,4.583,11.031Z" transform="translate(-1656.603 -1453.711)" fill="#fff"/><path d="M1972.142,1676.8H1970.2c-3.768-.039-4-.349-3.884-5.01v-13.555c-.078-5.243.155-5.632,3.457-5.554h1.165v-.893H1958.51v.893h.582c3.3-.078,3.535.311,3.5,5.554v12.7c.039,5.36-.233,5.826-3.3,5.865h-.776v.893h21.983l.194-7.651h-.894C1978.279,1675.48,1976.57,1677,1972.142,1676.8Z" transform="translate(-1716.016 -1454.555)" fill="#fff"/></g></svg>