<svg xmlns="http://www.w3.org/2000/svg" width="305.82" height="227.391" viewBox="0 0 305.82 227.391"><g transform="translate(0)"><path d="M1215.566,155.277c1.072,6.623,4.076,12.231,10.534,15.257,4.368,2.046,9.024,2.06,13.7,1.666,8.393-.707,13.948-5.3,16.1-13.417,2.186-8.227,2.034-16.66,2.026-25.075,0-1.206-.754-1.144-1.551-1.143-3.462,0-6.925,0-10.386.017a11.524,11.524,0,0,0-1.5.218c0,.817,0,1.524,0,2.23-.02,4.119.113,8.246-.111,12.354a46.169,46.169,0,0,1-1.29,8.808c-.775,3.053-3.55,4.611-7.268,4.654-3.221.037-5.531-1.307-6.405-4.384a33.649,33.649,0,0,1-1.5-8.77q-.212-26.592-.036-53.186a37.375,37.375,0,0,1,1.135-8.123,7.47,7.47,0,0,1,8.068-5.9c2.508.246,6.16,1.309,7.067,7.473a65.752,65.752,0,0,1,.311,8.4c.061,3.458.015,6.918.015,10.727,4.328,0,8.43.031,12.53-.061.313-.007.86-.871.867-1.344.047-3.341.18-6.7-.1-10.023a91.135,91.135,0,0,0-1.731-13.08c-1.586-6.806-5.5-11.781-12.8-13.108a42.942,42.942,0,0,0-7.828-.574c-9.689.039-15.763,4.569-18.905,13.686-2.122,6.155-2.338,12.538-2.411,18.907-.145,12.534-.181,25.074.023,37.606A113.14,113.14,0,0,0,1215.566,155.277Z" transform="translate(-1050.572 -68.889)" fill="#fff"/><path d="M1120.561,172.384c.314,0,.826-.733.894-1.178.923-6.066,1.784-12.143,2.659-18.217q3.16-21.936,6.321-43.872,1.926-13.358,3.86-26.714c.515-3.586,1-7.176,1.547-11.112-4.073,0-7.823-.052-11.567.074-.417.014-1.082,1.011-1.155,1.611-1.021,8.342-2.011,16.688-2.906,25.045-1.624,15.174-3.182,30.354-4.762,45.532-.222,2.135-.372,4.278-.646,6.406-.052.4-.534.747-.818,1.119a4.209,4.209,0,0,1-.848-1.108,9.545,9.545,0,0,1-.278-1.941c-.784-7.35-1.469-14.712-2.365-22.049-1.547-12.662-3.227-25.307-4.845-37.961-.635-4.965-1.217-9.938-1.92-14.893-.094-.659-.742-1.756-1.167-1.771-3.8-.139-7.607-.081-11.693-.081,4.808,33.825,9.584,67.419,14.381,101.16C1110.44,172.436,1115.5,172.458,1120.561,172.384Z" transform="translate(-983.956 -70.174)" fill="#fff"/><path d="M1369.058,248.679c.157-1.972.36-3.969.462-5.971.106-2.085.219-4.18.13-6.262-.063-1.495.4-2.142,1.925-2.308a11.994,11.994,0,0,0,7.1-3.078,7.981,7.981,0,0,0,2.777-5.428,18.058,18.058,0,0,0-7.72,1.866c-2.485,1.3-3.97,3.45-5.166,6.522-2.376-6.407-7.1-8.07-12.929-8.356a8.573,8.573,0,0,0,2.813,5.386,12.46,12.46,0,0,0,7.273,3.12c1.244.136,1.752.59,1.667,1.918-.145,2.261-.042,4.537-.161,6.8-.105,1.994-.371,3.979-.621,6.521-2.807-4.362-6.638-5.817-11.173-6.451a7.328,7.328,0,0,0,2.394,5.818,13.35,13.35,0,0,0,7.082,3.581c1.047.207,1.438.638,1.231,1.7-.948,4.851-1.863,9.708-2.811,14.559a5.869,5.869,0,0,1-.567,1.155c-2.033-4.676-5.725-6.807-10.488-8,.074,2.629.473,4.949,2.222,6.5a32.332,32.332,0,0,0,6.178,4.1c1.066.572,1.445.977,1.048,2.128-.7,2.027-1.261,4.1-1.95,6.132-.639,1.886-1.368,3.741-2.246,6.121a15.317,15.317,0,0,0-7.96-9.069,4.478,4.478,0,0,0-.43.824,7.053,7.053,0,0,0-.126,1.061c-.358,4.52,2.048,7.6,5.46,10.007,1.2.85,1.356,1.513.722,2.746-1.447,2.809-2.749,5.691-4.177,8.51-.843,1.664-1.815,3.262-2.729,4.89a16.439,16.439,0,0,0-6.779-9.972,8.7,8.7,0,0,0-.942,5.507,13.962,13.962,0,0,0,4.3,7.467c.393.388.767,1.384.555,1.708-2.415,3.678-4.946,7.279-7.446,10.9l-.493-.1a15.08,15.08,0,0,0-5.162-10.706,20.282,20.282,0,0,0-1.14,2.42c-.99,3.184-.236,6.116,1.4,8.9.667,1.137,1.915,2.368,1.787,3.421-.14,1.15-1.525,2.182-2.443,3.2-1.695,1.871-3.445,3.691-5.172,5.532a15.741,15.741,0,0,0-4.38-10.979,16.256,16.256,0,0,0-1.952,4.858,11.442,11.442,0,0,0,2.053,8.149,1.625,1.625,0,0,1-.379,2.544c-2.385,1.981-4.683,4.067-7.04,6.084-.784.671-1.639,1.259-2.856,2.185a14.88,14.88,0,0,0-2.943-11.928,22.947,22.947,0,0,0-1.682,2.559c-1.673,3.525-1.1,7,.57,10.319.671,1.334.388,2.019-.771,2.755-2.517,1.6-4.967,3.3-7.466,4.925-.914.594-1.892,1.09-3.327,1.908,2.171-4.9,1.674-9.082-.661-13.433-5.023,4.606-4.021,9.68-1.975,15.143l-13.484,6.5a57.228,57.228,0,0,0,1.034-6.945,10.792,10.792,0,0,0-2.078-6.674c-4.928,4.4-3.912,9.5-1.982,14.885l-12.926,4.341c2.532-4.751,1.955-9.14-.376-13.684a14.315,14.315,0,0,0-3.1,4.219c-2.648,6.765,2.218,16.607,9.036,18.95,1.627.559,3.532.306,5.31.426l.321-.751a38.167,38.167,0,0,0-3.353-4.281,42.391,42.391,0,0,0-4.557-3.419c3.413-1.229,6.745-2.474,10.121-3.583.389-.128,1.113.421,1.538.812a46.062,46.062,0,0,0,3.855,3.69,8.636,8.636,0,0,0,8.476,1.109,15.633,15.633,0,0,0-8.8-7.582c4.009-2.029,7.7-3.931,11.44-5.732.314-.151,1.047.265,1.425.6a52.111,52.111,0,0,0,4.322,3.962,8.333,8.333,0,0,0,8.024.871,15,15,0,0,0-9.4-7.758c3.751-2.529,7.231-4.914,10.778-7.2.3-.19,1.112.209,1.562.517,1.951,1.338,3.718,3.026,5.814,4.049a8.2,8.2,0,0,0,7.561-.367c-3-3.913-6.538-6.407-11.651-6.368a4.876,4.876,0,0,1,.469-.64c3.537-3.02,7.1-6.01,10.6-9.068.858-.748,1.261-.188,1.952.223a39.522,39.522,0,0,0,6.835,3.666,6.741,6.741,0,0,0,6.505-1.231c-3.371-3.518-7.025-5.859-12.218-5.353,3.151-3.491,5.992-6.693,8.926-9.807a1.981,1.981,0,0,1,1.744-.094c1.8.771,3.445,1.987,5.3,2.49a8.413,8.413,0,0,0,8.313-1.7c-3.655-3.1-7.569-4.964-12.648-3.883l9.274-13.072c7.6,3.2,11.837,3.042,14.532-.567-3.879-2.586-8-3.784-12.754-2.246l8.446-16.538c5.2,1.636,10.32,2.519,14.572-2.72-4.539-2.04-8.824-2.675-13.336-.153,1.667-5.1,3.19-9.849,4.814-14.565a1.987,1.987,0,0,1,1.45-.862,49.94,49.94,0,0,0,5.323-.436,8.686,8.686,0,0,0,6.653-5.749,14.861,14.861,0,0,0-11.888,2.023c.972-5.464,1.85-10.56,2.836-15.634.077-.4.867-.812,1.393-.937,1.558-.37,3.215-.409,4.714-.924a9.146,9.146,0,0,0,6.453-7.15,40.086,40.086,0,0,0-6.355,1.039A40.751,40.751,0,0,0,1369.058,248.679Z" transform="translate(-1075.629 -153.699)" fill="#fff"/><path d="M974.751,357.589c-1.9,4.47-2.469,8.87.284,13.3l-.34.289-12.469-4.211c.453-2.979,1.168-5.6,1.163-8.219a7.678,7.678,0,0,0-3.8-6.757c-2.063,4.522-2.977,8.854-.5,13.5-4.5-1.93-8.758-4-12.966-6.181-.311-.161-.4-1.115-.3-1.639.272-1.338.819-2.622,1.067-3.963.61-3.3-.441-7.764-3.969-9.676-.576,2.191-1.453,4.259-1.585,6.374-.135,2.165.459,4.376.776,6.9-3.716-2.494-7.379-4.914-10.972-7.434-.3-.212-.3-1.14-.156-1.655.454-1.6,1.215-3.12,1.551-4.736.7-3.368-.6-6.915-2.879-8.25a16.236,16.236,0,0,0-2.889,11.355c-3.38-2.627-6.487-5.383-9.66-8.06-1.009-.851-.822-1.5-.314-2.586a24.014,24.014,0,0,0,2.1-6.013,7.71,7.71,0,0,0-2.29-6.974,16.43,16.43,0,0,0-3.963,11.035c-2.708-2.721-5.226-5.472-7.643-8.31-.256-.3-.074-1.18.167-1.659.931-1.851,2.29-3.55,2.888-5.492a8.184,8.184,0,0,0-1.251-7.92,16.7,16.7,0,0,0-5.289,10.626c-2.615-3.361-4.9-6.758-7.282-10.094-.808-1.134-.4-1.751.352-2.743a27.047,27.047,0,0,0,3.8-6.151,6.893,6.893,0,0,0-.714-6.437,14.739,14.739,0,0,0-6.373,9.839c-.26-.143-.411-.173-.454-.257-2.37-4.6-4.761-9.2-7.039-13.85-.182-.371.289-1.256.689-1.682a54.566,54.566,0,0,0,4.031-4,8.933,8.933,0,0,0,1.307-8.239,14.952,14.952,0,0,0-7.943,8.717l-.465-.115c-1.453-4.323-2.905-8.646-4.268-12.7a68.133,68.133,0,0,0,6.91-4.5,7.359,7.359,0,0,0,2.664-7.185c-4.653,1.183-8.2,3.472-10.474,7.732-1.177-5.015-2.034-9.934-3.01-14.829-.337-1.69.307-2.266,1.87-2.6a10.951,10.951,0,0,0,7.456-4.811,27.4,27.4,0,0,0,1.737-4.393c-5.015.588-8.82,2.215-11.661,5.992-.417-4.557-.634-9.01-.734-13.467-.008-.372.721-.942,1.214-1.11,1.574-.535,3.27-.754,4.786-1.4a9.2,9.2,0,0,0,5.752-7.293c-5.877.286-10.612,2-13,8.376-2.344-6.439-7.089-8.068-12.77-8.357.374,3.918,3.213,6.819,7.746,8.092,1.243.349,2.962.29,3.613,1.1.671.835.326,2.5.392,3.807.172,3.369.325,6.739.506,10.532-3.476-3.33-7.311-4.462-12.081-4.084a21.586,21.586,0,0,0,1.465,3.079c2.288,3.266,5.709,4.352,9.469,4.565,1.259.071,1.749.493,1.927,1.751.435,3.065,1.016,6.11,1.569,9.158.33,1.819.717,3.627,1.166,5.881a14.688,14.688,0,0,0-12.061-2.184,8.711,8.711,0,0,0,4,4.717,12.748,12.748,0,0,0,7.448,1.426,1.886,1.886,0,0,1,2.289,1.585c1.311,4.147,2.782,8.243,4.18,12.362.135.4.188.825.353,1.573-4.636-2.654-8.877-1.809-13.254.032a8.462,8.462,0,0,0,5.588,3.816,13.2,13.2,0,0,0,7.558-.688c1.093-.4,1.645-.164,2.178.949,1.983,4.139,4.094,8.217,6.172,12.311.448.883.959,1.735,1.67,3.013-5.041-1.575-9.135-.388-13.448,2.54a31.5,31.5,0,0,0,4.424,2.238c3.287,1.032,6.381.078,9.286-1.475,1.1-.587,1.619-.386,2.283.614,2.112,3.178,4.329,6.286,6.516,9.415.519.743,1.077,1.459,1.882,2.544-5.231-1.149-9.041.779-12.538,3.642l-.115.724a27,27,0,0,0,4.272,1.4,11.568,11.568,0,0,0,8.879-2.547c1.147-.856,1.7-.673,2.591.352,2.419,2.8,4.988,5.461,7.489,8.187.286.312.52.67.864,1.118-5.77.242-10.153,2.349-11.822,5.575,2.893,2.034,7.162,1.722,10.85-.812,1.162-.8,2.382-2.387,3.417-2.266,1.222.143,2.268,1.754,3.4,2.717,2.746,2.334,5.5,4.66,8.535,7.234-5.281-.018-8.775,2.482-11.851,6.536a26.718,26.718,0,0,0,3.228.808c3.529.4,6.368-1.074,8.883-3.4,2.324-2.147,2.335-2.122,5-.347,2.811,1.873,5.632,3.731,8.769,5.807-4.5,1.209-7.395,3.882-9.574,7.855a22.731,22.731,0,0,0,2.672.443c4.177.161,7.1-2.071,9.475-5.182.7-.917,1.249-1.178,2.347-.559,2.127,1.2,4.354,2.222,6.542,3.313,1.338.667,2.681,1.323,4.392,2.167a15.389,15.389,0,0,0-8.99,7.657c4.453,1.323,8.2.178,10.681-3.109,2.175-2.884,4.131-2.627,6.841-1.358,2.058.963,4.285,1.564,6.944,2.505a15.885,15.885,0,0,0-8.3,7.815c5.107,1.6,11.781-2.184,13.84-7.62C980.12,365.94,979.116,359.9,974.751,357.589Z" transform="translate(-857.898 -153.705)" fill="#fff"/><path d="M1175.948,318.833c.33-2.083.33-2.09-2.275-2.09q-106.807,0-213.614,0a4.6,4.6,0,0,0-1.594.073c-.379.147-.866.672-.849,1.006a1.591,1.591,0,0,0,.878,1.046,3.593,3.593,0,0,0,1.414.06q106.987,0,213.972,0C1174.58,318.925,1175.281,318.864,1175.948,318.833Z" transform="translate(-911.853 -202.98)" fill="#fff"/><path d="M902.831,96.667c-1.121,3.182-2.122,6.406-3.172,9.613l.371.2c2.791-2.023,5.625-3.991,8.352-6.1a2.02,2.02,0,0,1,2.947.034c2.244,1.769,4.6,3.4,6.913,5.077.438.318.91.588,1.366.88a77.023,77.023,0,0,0-2.9-10.082,1.839,1.839,0,0,1,.808-2.522c2.557-1.746,5.035-3.609,7.533-5.439a16.091,16.091,0,0,0,1.205-1.128c-3.9,0-7.407-.039-10.911.022a1.76,1.76,0,0,1-2.022-1.47c-1.04-3.389-2.21-6.737-3.329-10.1a67.868,67.868,0,0,0-3.311,9.257c-.471,1.7-1.207,2.433-3.078,2.34-3.305-.164-6.624-.046-9.936-.046a69.96,69.96,0,0,0,8.212,6.348C903.236,94.439,903.311,95.307,902.831,96.667Z" transform="translate(-877.253 -72.547)" fill="#fff"/><path d="M1436.82,95.912c-1.185,3.218-2.134,6.523-3.348,10.318,2.9-2.106,5.383-3.915,7.877-5.706s2.5-1.778,4.937.005c2.381,1.744,4.784,3.458,7.177,5.185l.374-.229c-.168-.656-.306-1.322-.512-1.966-.653-2.04-1.344-4.069-2-6.109-1.091-3.392-1.075-3.381,1.893-5.5,2.294-1.639,4.561-3.317,6.841-4.977a47.783,47.783,0,0,0-6.542-.363c-1.888-.039-4.272.5-5.523-.436-1.267-.949-1.429-3.39-2.047-5.187-.682-1.984-1.332-3.979-2.16-6.461-1.081,3.318-1.983,6.088-2.884,8.858-1.045,3.211-1.045,3.217-4.468,3.227-2.883.008-5.766,0-8.649,0a66.814,66.814,0,0,0,7.954,6.275C1436.951,93.674,1437.374,94.408,1436.82,95.912Z" transform="translate(-1166.255 -71.917)" fill="#fff"/><path d="M1197.28,410.982c-1.467.063-1.055,1.631-1.057,2.629q-.041,20.487-.021,40.974a4.344,4.344,0,0,0,.2,1.573,1.186,1.186,0,0,0,.878.668,1.5,1.5,0,0,0,1.076-.685,3.863,3.863,0,0,0,.163-1.575q.012-10.289.006-20.577c0-6.8.017-13.6-.017-20.4C1198.508,412.559,1198.981,410.909,1197.28,410.982Z" transform="translate(-1040.932 -253.989)" fill="#fff"/><path d="M1137.435,412.256c-.113.107-.116.332-.162.5q-3.746,13.961-7.49,27.923c-.94,3.506-1.879,7.011-2.9,10.815.231.289.525.989.888,1.027a1.994,1.994,0,0,0,1.35-.786,3.493,3.493,0,0,0,.443-1.341q3.55-13.185,7.093-26.372c1-3.735,2.026-7.465,2.921-11.226.134-.56-.386-1.274-.6-1.917C1138.459,411.338,1137.93,411.78,1137.435,412.256Z" transform="translate(-1003.442 -253.937)" fill="#fff"/><path d="M1254.669,452.564c1.138-.178.809-1.15.581-2q-4.19-15.623-8.342-31.255c-.645-2.416-1.262-4.842-2.018-7.222a2.092,2.092,0,0,0-1.359-1.065c-.218-.056-.658.749-.866,1,.1.617.116.918.193,1.2,3.4,12.658,6.786,25.319,10.253,37.959C1253.273,451.776,1254.216,452.635,1254.669,452.564Z" transform="translate(-1066.089 -254.009)" fill="#fff"/><path d="M1224.248,441.589c.274-.679.849-1.393.775-2.032-.813-7.028-1.719-14.046-2.617-21.064-.272-2.122-.536-4.25-.945-6.348-.1-.5-.761-.879-1.164-1.314-.316.547-.662,1.081-.932,1.65-.089.188.017.468.033.705l-.057.007q.4,3,.8,6.009c.909,6.9,1.787,13.8,2.773,20.688C1223.005,440.508,1223.788,441.025,1224.248,441.589Z" transform="translate(-1053.463 -253.908)" fill="#fff"/><path d="M1170.39,410.99c-.416-.005-1.129.947-1.22,1.538-.65,4.179-1.187,8.377-1.735,12.572-.648,4.963-1.273,9.93-1.967,15.361l.955,1.27c.488-.641,1.317-1.234,1.413-1.929,1.245-8.971,2.382-17.957,3.557-26.938C1171.511,411.958,1171.468,411,1170.39,410.99Z" transform="translate(-1024.319 -253.994)" fill="#fff"/><path d="M1489.962,188.138c-3.539,5.275-3.523,11.79.646,14.959C1494.4,197.741,1493.992,190.5,1489.962,188.138Z" transform="translate(-1198.506 -133.413)" fill="#fff"/><path d="M885.123,188.076c-4.089,2.71-4.242,9.449-.657,15.09C888.528,199.817,888.788,192.709,885.123,188.076Z" transform="translate(-870.89 -133.379)" fill="#fff"/><path d="M1269.281,410.5l-.636.038c-.15.672-.583,1.438-.4,2,.594,1.8,1.422,3.524,2.151,5.281,2.074,5,4.112,10.008,6.259,14.973.234.543,1.079.822,1.64,1.223.172-.607.654-1.338.468-1.8-2.744-6.841-5.565-13.651-8.408-20.452A5.5,5.5,0,0,0,1269.281,410.5Z" transform="translate(-1079.907 -253.728)" fill="#fff"/><path d="M1108.3,433.439c.209-.158.275-.515.389-.789q3.9-9.391,7.786-18.785c.226-.547.4-1.117.657-1.865-.249-.3-.477-.829-.821-.918a1.629,1.629,0,0,0-1.211.42,2.793,2.793,0,0,0-.586,1.083q-2.532,6.1-5.048,12.2c-1.069,2.581-2.2,5.139-3.168,7.758-.175.472.305,1.186.483,1.788A13.885,13.885,0,0,0,1108.3,433.439Z" transform="translate(-992.281 -254.033)" fill="#fff"/><path d="M1100.962,466.82a1.32,1.32,0,0,0-1.188.366c-.84,1.754-1.615,3.545-2.281,5.371-.109.3.328,1,.688,1.209a1.254,1.254,0,0,0,1.192-.352c.879-1.8,1.643-3.659,2.512-5.656C1101.567,467.412,1101.318,466.916,1100.962,466.82Z" transform="translate(-987.53 -284.19)" fill="#fff"/><path d="M1163.244,484.345c-.358,1.558-.526,3.159-.835,5.2l1.012,1.2c.468-.482,1.209-.9,1.35-1.459a23.255,23.255,0,0,0,.641-4.576c.02-.448-.638-.926-.985-1.39C1164.017,483.659,1163.338,483.936,1163.244,484.345Z" transform="translate(-1022.664 -293.132)" fill="#fff"/><path d="M1293.306,473.287a1.318,1.318,0,0,0,1.2.373c.354-.107.581-.636.884-1-.867-1.978-1.639-3.84-2.524-5.647a1.271,1.271,0,0,0-1.189-.337c-.333.131-.781.794-.69,1.046C1291.681,469.6,1292.454,471.466,1293.306,473.287Z" transform="translate(-1092.232 -284.101)" fill="#fff"/><path d="M1229.568,483.424c-.511.11-.83,1.111-1.012,1.377.292,2.043.422,3.535.762,4.977.1.408.8.673,1.232,1,.307-.437.882-.878.873-1.308a33.791,33.791,0,0,0-.435-4.265C1230.862,484.357,1230.832,483.152,1229.568,483.424Z" transform="translate(-1058.455 -293.166)" fill="#fff"/><path d="M1012.5,350.393v-2.635q0-4.458-4.4-4.458t-4.389,4.458v14.776q0,4.469,4.389,4.469t4.4-4.469v-8.5h-4.019v2.217h1.763v6.28q0,2.253-2.145,2.253t-2.133-2.253V347.758q0-2.254,2.121-2.253h.025q2.133.012,2.133,2.253v2.635Z" transform="translate(-936.794 -217.368)" fill="#fff"/><path d="M1048.478,352.234V348.6q0-4.458-4.032-4.457l-4.463-.012V367.06h2.256V356.569l1.5-.2,3.156,10.688h2.5l-3.834-11A3.877,3.877,0,0,0,1048.478,352.234Zm-2.256,0a2.073,2.073,0,0,1-1.344,2.118,3.954,3.954,0,0,1-1.221.135h-1.418v-8.151h1.849q2.134,0,2.133,2.266Z" transform="translate(-956.421 -217.819)" fill="#fff"/><path d="M1076.489,344.132l-2.392,15.1-1.035,7.831h2.269l.69-5.122h4.648l.678,5.122h2.28l-1.048-7.868-2.367-15.059Zm-.185,15.589,2.034-14.21,2.034,14.21Z" transform="translate(-974.32 -217.819)" fill="#fff"/><path d="M1120.115,348.6q0-4.458-4.031-4.457l-4.759-.012V367.06h4.512q.148-.012.247-.012,4.031,0,4.031-4.445Zm-2.256,14q0,2.253-2.133,2.253h-2.145v-18.52h2.145q2.133,0,2.133,2.266Z" transform="translate(-995.023 -217.819)" fill="#fff"/><path d="M1156.122,362.984V344.132h-2.256v18.852q0,2.253-2.145,2.253t-2.133-2.253V344.132h-2.256v18.852q0,4.47,4.389,4.469T1156.122,362.984Z" transform="translate(-1014.506 -217.819)" fill="#fff"/><path d="M1188.609,344.132h-3.723l-2.392,15.1-1.035,7.831h2.268l.69-5.122h4.648l.678,5.122h2.281l-1.048-7.868Zm-3.908,15.589,2.034-14.21,2.034,14.21Z" transform="translate(-1032.971 -217.819)" fill="#fff"/><path d="M1223.573,343.3q-4.389,0-4.389,4.458v14.776q0,4.469,4.389,4.469t4.4-4.469V359.9h-2.256v2.635q0,2.253-2.145,2.253t-2.133-2.253V347.758q0-2.254,2.121-2.253h.025q2.132.012,2.132,2.253v2.635h2.256v-2.635Q1227.974,343.3,1223.573,343.3Z" transform="translate(-1053.384 -217.368)" fill="#fff"/><rect width="2.256" height="22.928" transform="translate(182.386 126.313)" fill="#fff"/><path d="M1286.287,362.534V347.758q0-4.458-4.4-4.458t-4.389,4.458v14.776q0,4.469,4.389,4.469T1286.287,362.534Zm-6.534,0V347.758q0-2.254,2.121-2.253h.025q2.132.012,2.133,2.253v14.776q0,2.253-2.146,2.253T1279.752,362.534Z" transform="translate(-1084.936 -217.368)" fill="#fff"/><path d="M1316.151,344.132h-2.379V367.06h2.121V348.774l4.29,18.285h2.38V344.144l-2,.037v18.643Z" transform="translate(-1104.564 -217.818)" fill="#fff"/><path d="M1358.4,346.336v-2.2h-7.817V367.06h7.817v-2.2h-5.56V356.7h4.783v-2.217h-4.783v-8.152Z" transform="translate(-1124.483 -217.818)" fill="#fff"/><path d="M1392.185,350.393v-2.635q0-4.458-4.4-4.458t-4.388,4.458v2.265a6.227,6.227,0,0,0,3.008,5.16q3.526,2.524,3.526,4.593v2.759q0,2.253-2.133,2.253t-2.145-2.253V359.9H1383.4v2.635q0,4.458,4.4,4.469t4.389-4.469V359.48q0-2.931-3.008-5.073-3.526-2.524-3.526-4.458v-2.191q0-2.254,2.12-2.253h.025q2.132.012,2.133,2.253v2.635Z" transform="translate(-1142.236 -217.368)" fill="#fff"/></g></svg>