<svg xmlns="http://www.w3.org/2000/svg" width="80" height="64.702" viewBox="0 0 80 64.702"><g transform="translate(-7.766 -109.623)"><path d="M46.843,143.922A33.7,33.7,0,0,0,59.151,141.1l.419-2.1a25.52,25.52,0,0,1-10.411,2.471,9.137,9.137,0,0,1-6.118-2.012l6.123-9.655h1.81l.284-1.328H41.882l-.262,1.328h1.744q1.962,0,1.962.828,0,1.823-3.422,7.652a11.01,11.01,0,0,1-2.12-7.054,24.737,24.737,0,0,1,1.588-8.366,23.881,23.881,0,0,1,4.1-7.395q3.793-4.5,8.845-4.5a10.95,10.95,0,0,1,5.448,1.192,3.534,3.534,0,0,1,2.1,3.112,8.532,8.532,0,0,1-.221,1.7h1.39l1.875-6.069a33.518,33.518,0,0,0-9.463-1.28A19.156,19.156,0,0,0,40.9,116.075a22.126,22.126,0,0,0-6.011,15.65q0,5.8,3.132,9a9.671,9.671,0,0,0,1.592,1.312c-.2.324-.414.654-.63.991l-6.977,10.911q0-31.382-13.677-31.383-5.728,0-10.563,7.514l1.111.588q3.267-5.423,7.514-5.423,4.7,0,7.949,6.9,3.071,6.556,3.071,23.434l-.131,5.684,2.287-.544,11.375-17.937A13.99,13.99,0,0,0,46.843,143.922Z" fill="#b6091b"/><path d="M410.427,584.147l4.68-7.38h.432l.068-.317h-2.239l-.062.317h.416q.469,0,.469.2a9.121,9.121,0,0,1-1.515,2.959l-1.666,2.606q0-7.494-3.266-7.494a3.168,3.168,0,0,0-2.522,1.794l.265.14a2.181,2.181,0,0,1,1.794-1.295q1.123,0,1.9,1.649a14.69,14.69,0,0,1,.733,5.6l-.031,1.357Z" transform="translate(-364.722 -427.083)" fill="#b6091b"/><path d="M548.525,584.382l-1.467.957-.349.707,1.368-.707Z" transform="translate(-494.559 -435.66)" fill="#b6091b"/><path d="M528.815,619.822a5.187,5.187,0,0,0-.12.874q0,.785.749.785a3.084,3.084,0,0,0,2.044-1.222l.094-.484q-1.035,1.144-1.55,1.144-.307,0-.307-.338a5.437,5.437,0,0,1,.12-.77l.51-2.569.4-1.664-2.543.832-.062.317a3.6,3.6,0,0,1,.837-.177q.338,0,.338.437a7,7,0,0,1-.146,1.025Z" transform="translate(-477.522 -464.287)" fill="#b6091b"/><path d="M581.183,576.083a5.6,5.6,0,0,0-1.413,2.931l-.713,3.589a4.775,4.775,0,0,0-.109.879q0,.8.739.8a3.343,3.343,0,0,0,2.113-1.253l.094-.478q-.2.171-.276.244-1,.926-1.348.926-.307,0-.307-.328a5.214,5.214,0,0,1,.12-.78l.817-4.109a6.713,6.713,0,0,1,.75-2.283,1.412,1.412,0,0,1,1.244-.6,2.591,2.591,0,0,1,1.041.276l.713-.744a3.7,3.7,0,0,0-.937-.109A3.424,3.424,0,0,0,581.183,576.083Z" transform="translate(-524.141 -427.083)" fill="#b6091b"/><path d="M626.082,578.5a6.711,6.711,0,0,1,.75-2.283,1.412,1.412,0,0,1,1.244-.6,2.591,2.591,0,0,1,1.041.276l.713-.744a3.7,3.7,0,0,0-.937-.109,3.424,3.424,0,0,0-2.527,1.048,5.6,5.6,0,0,0-1.413,2.931l-.713,3.589a4.76,4.76,0,0,0-.109.879q0,.8.739.8a3.343,3.343,0,0,0,2.113-1.253l.094-.478q-.2.171-.276.244-1,.926-1.348.926-.307,0-.307-.328a5.22,5.22,0,0,1,.12-.78Z" transform="translate(-565.604 -427.083)" fill="#b6091b"/><path d="M667.173,617.839a4.615,4.615,0,0,0-1.207,2.964q0,1.373,1.1,1.373a2.312,2.312,0,0,0,1.548-.824,7.06,7.06,0,0,0,1.413-2.13h.094l-.256,1.285a5.216,5.216,0,0,0-.125.884q0,.785.755.785a3.091,3.091,0,0,0,2.048-1.222l.094-.484q-1.03,1.144-1.55,1.144-.307,0-.307-.328a5.363,5.363,0,0,1,.12-.78l.5-2.569.374-1.539q-.811-.062-1.555-.062A3.824,3.824,0,0,0,667.173,617.839Zm2.069-.988a3.168,3.168,0,0,1,1.295.291l-.235,1.181a10.585,10.585,0,0,1-1.473,2.145q-.839.939-1.286.939-.478,0-.478-.817a6.077,6.077,0,0,1,.665-2.543Q668.3,616.851,669.242,616.851Z" transform="translate(-603.993 -464.982)" fill="#b6091b"/><path d="M589.047,712.806l.442-1.445a7.832,7.832,0,0,0-2.231-.3,4.5,4.5,0,0,0-3.429,1.536,5.3,5.3,0,0,0-1.417,3.725,2.949,2.949,0,0,0,.738,2.142,2.763,2.763,0,0,0,2.08.761,7.877,7.877,0,0,0,2.9-.672l.1-.5a5.968,5.968,0,0,1-2.454.588,2.076,2.076,0,0,1-1.62-.652,2.562,2.562,0,0,1-.59-1.786,5.938,5.938,0,0,1,.374-1.992,5.7,5.7,0,0,1,.967-1.76,2.655,2.655,0,0,1,2.085-1.072,2.56,2.56,0,0,1,1.284.284.842.842,0,0,1,.494.741,2.049,2.049,0,0,1-.052.4Z" transform="translate(-527.321 -551.902)" fill="#b6091b"/><path d="M674.263,737.068a3.282,3.282,0,0,0-2.47,1.284,4.142,4.142,0,0,0-1.134,2.8,2.006,2.006,0,0,0,.455,1.342,1.427,1.427,0,0,0,1.136.538,3.358,3.358,0,0,0,2.538-1.263,4.135,4.135,0,0,0,1.134-2.833,1.937,1.937,0,0,0-.468-1.339A1.525,1.525,0,0,0,674.263,737.068Zm-.065,4.5a1.642,1.642,0,0,1-1.355,1q-1.045,0-1.045-1.707a4.562,4.562,0,0,1,.6-2.323q.6-1.032,1.339-1.032,1.05,0,1.05,1.738A4.519,4.519,0,0,1,674.2,741.571Z" transform="translate(-608.3 -575.771)" fill="#b6091b"/><path d="M741.953,738.307l-.094.483q1.04-1.154,1.55-1.154.307,0,.307.326a5.323,5.323,0,0,1-.12.788l-.51,2.594-.385,1.617,1.1-.063.38-1.875q1.763-3.177,2.756-3.177.312,0,.312.425a2.543,2.543,0,0,1-.062.5l-.5,2.57a5.343,5.343,0,0,0-.125.892q0,.792.749.792a3.063,3.063,0,0,0,2.043-1.233l.1-.488q-1.035,1.154-1.555,1.154-.307,0-.307-.331a5.464,5.464,0,0,1,.12-.787l.5-2.562a4,4,0,0,0,.088-.756q0-.956-.853-.956a2.288,2.288,0,0,0-1.526.816,7.839,7.839,0,0,0-1.469,2.161h-.078l.255-1.3a5.467,5.467,0,0,0,.12-.893q0-.788-.749-.788A3.059,3.059,0,0,0,741.953,738.307Z" transform="translate(-673.636 -575.771)" fill="#b6091b"/><path d="M844.225,738.491a7.127,7.127,0,0,1-.146,1.034l-.359,1.827a5.294,5.294,0,0,0-.12.882q0,.793.749.793a3.077,3.077,0,0,0,2.044-1.234l.094-.488q-1.035,1.155-1.549,1.155-.307,0-.307-.341a5.54,5.54,0,0,1,.12-.777l.51-2.594.4-1.68-2.543.84-.062.326a3.472,3.472,0,0,1,.837-.184Q844.225,738.05,844.225,738.491Z" transform="translate(-766.494 -575.771)" fill="#b6091b"/><path d="M864.564,703.213a16.615,16.615,0,0,0-2.028,1.407l-.167.473a17.548,17.548,0,0,1,1.856-1.04Z" transform="translate(-784.222 -544.705)" fill="#b6091b"/><path d="M886.09,738.789q1.04-1.154,1.549-1.154.307,0,.307.326a5.337,5.337,0,0,1-.12.788l-.51,2.594-.385,1.617,1.1-.063.38-1.875q1.763-3.177,2.756-3.177.312,0,.312.425a2.54,2.54,0,0,1-.062.5l-.5,2.57a5.336,5.336,0,0,0-.125.892q0,.792.749.792a3.063,3.063,0,0,0,2.044-1.233l.1-.488q-1.035,1.154-1.555,1.154-.307,0-.307-.331a5.461,5.461,0,0,1,.12-.787l.5-2.562a4.006,4.006,0,0,0,.088-.756q0-.956-.853-.956a2.288,2.288,0,0,0-1.526.816,7.843,7.843,0,0,0-1.469,2.161H888.6l.255-1.3a5.479,5.479,0,0,0,.12-.893q0-.788-.749-.788a3.06,3.06,0,0,0-2.044,1.239Z" transform="translate(-805.989 -575.771)" fill="#b6091b"/><rect width="47.761" height="0.329" transform="translate(40.005 169.104)" fill="#b6091b"/><path d="M425.629,855.435a2.638,2.638,0,0,0-.672-.389,3.3,3.3,0,0,1-.527-.267.427.427,0,0,1-.184-.351q0-.434.639-.434a2.618,2.618,0,0,1,.8.121l.06-.4a2.791,2.791,0,0,0-.811-.078,1.153,1.153,0,0,0-.808.262.841.841,0,0,0-.005,1.2,2.414,2.414,0,0,0,.634.376,3.133,3.133,0,0,1,.577.31.52.52,0,0,1,.219.419q0,.484-.846.484a2.4,2.4,0,0,1-.794-.146l-.087.4a2.9,2.9,0,0,0,.831.108q1.281,0,1.281-.933A.878.878,0,0,0,425.629,855.435Z" transform="translate(-381.797 -682.739)" fill="#b6091b"/><path d="M458.894,865.207q.011-.311.011-.43a.749.749,0,0,0-.241-.632,1.1,1.1,0,0,0-.684-.185,3.083,3.083,0,0,0-.858.108l-.042.348a3.035,3.035,0,0,1,.769-.1.938.938,0,0,1,.494.1.455.455,0,0,1,.163.414,1.15,1.15,0,0,1-.008.139,2.226,2.226,0,0,0-1.2.248.737.737,0,0,0-.323.624.594.594,0,0,0,.206.486.75.75,0,0,0,.493.17,1.18,1.18,0,0,0,.833-.283h.025a1,1,0,0,0,.03.235l.39-.015a4.47,4.47,0,0,1-.067-.817Q458.883,865.518,458.894,865.207Zm-1.038.95q-.478,0-.478-.343a.49.49,0,0,1,.408-.482,2.719,2.719,0,0,1,.711-.07q0,.305.012.689A.977.977,0,0,1,457.856,866.157Z" transform="translate(-412.212 -692.212)" fill="#b6091b"/><path d="M490.208,850.689a15.629,15.629,0,0,1,.072,1.668q0,1.05-.045,1.882h.478q-.047-.845-.047-1.882,0-1.007.047-1.693Z" transform="translate(-442.71 -680.012)" fill="#b6091b"/><path d="M506.764,863.622a1.182,1.182,0,0,0-.862.366,1.372,1.372,0,0,0-.367,1.017,1.2,1.2,0,0,0,.332.9,1.1,1.1,0,0,0,.795.32,1.183,1.183,0,0,0,.861-.362,1.354,1.354,0,0,0,.366-1.008,1.219,1.219,0,0,0-.331-.912A1.094,1.094,0,0,0,506.764,863.622Zm.5,2a.664.664,0,0,1-1.108-.014,1.273,1.273,0,0,1-.2-.7,1.189,1.189,0,0,1,.193-.674.663.663,0,0,1,1.107.016,1.275,1.275,0,0,1,.2.7A1.2,1.2,0,0,1,507.266,865.619Z" transform="translate(-456.775 -691.903)" fill="#b6091b"/><path d="M544.463,864.8a.814.814,0,0,0-.226-.66.984.984,0,0,0-.639-.185,1.15,1.15,0,0,0-.788.338h-.02l-.047-.308-.438.063a5.908,5.908,0,0,1,.109,1.145q0,.384-.042,1.241h.453q-.01-1-.01-1.862a.972.972,0,0,1,.652-.26.634.634,0,0,1,.444.143.709.709,0,0,1,.155.531q0,.785-.055,1.448h.453q-.01-.835-.01-1.256,0-.048,0-.189T544.463,864.8Z" transform="translate(-490.516 -692.212)" fill="#b6091b"/><path d="M578.433,863.622a1,1,0,0,0-.832.4,1.5,1.5,0,0,0-.31.947,1.223,1.223,0,0,0,.339.873,1.3,1.3,0,0,0,.986.358,1.96,1.96,0,0,0,.7-.1l.042-.356a2.605,2.605,0,0,1-.709.093.933.933,0,0,1-.679-.249.915.915,0,0,1-.281-.617l1.709-.03q.01-.187.01-.293a1.086,1.086,0,0,0-.25-.739A.915.915,0,0,0,578.433,863.622Zm-.724,1.06q.107-.737.7-.737t.585.709Z" transform="translate(-522.621 -691.903)" fill="#b6091b"/><path d="M611.949,865.391a2.036,2.036,0,0,0-.5-.262,1.769,1.769,0,0,1-.418-.211.28.28,0,0,1-.107-.228q0-.28.478-.28a1.651,1.651,0,0,1,.622.109l.077-.363a2.607,2.607,0,0,0-.686-.073.909.909,0,0,0-.652.206.66.66,0,0,0-.214.493.591.591,0,0,0,.234.469,2.012,2.012,0,0,0,.512.272,1.887,1.887,0,0,1,.4.2.285.285,0,0,1,.121.241q0,.313-.542.313a1.911,1.911,0,0,1-.7-.126l-.077.371a3.353,3.353,0,0,0,.766.083q.928,0,.928-.737A.6.6,0,0,0,611.949,865.391Z" transform="translate(-553.092 -692.325)" fill="#b6091b"/><path d="M656.143,850.787l-.473.018q.035.6.035,1.229h-.02a.82.82,0,0,0-.577-.166,1.041,1.041,0,0,0-.875.4,1.528,1.528,0,0,0-.311.961,1.3,1.3,0,0,0,.28.84.915.915,0,0,0,.752.348,1,1,0,0,0,.776-.288h.027a1.278,1.278,0,0,0,.02.23l.371-.013q-.052-.83-.052-1.885Q656.1,851.428,656.143,850.787Zm-1.032,3.29a.648.648,0,0,1-.549-.262,1.043,1.043,0,0,1-.2-.646,1.171,1.171,0,0,1,.209-.713.731.731,0,0,1,.629-.284.755.755,0,0,1,.5.169q.042.727.042,1.511A.806.806,0,0,1,655.111,854.077Z" transform="translate(-592.941 -680.125)" fill="#b6091b"/><path d="M690.957,863.622a1,1,0,0,0-.832.4,1.5,1.5,0,0,0-.31.947,1.222,1.222,0,0,0,.339.873,1.3,1.3,0,0,0,.986.358,1.96,1.96,0,0,0,.7-.1l.042-.356a2.606,2.606,0,0,1-.709.093.933.933,0,0,1-.679-.249.915.915,0,0,1-.281-.617l1.709-.03q.01-.187.01-.293a1.086,1.086,0,0,0-.25-.739A.915.915,0,0,0,690.957,863.622Zm-.724,1.06q.107-.737.7-.737t.584.709Z" transform="translate(-625.878 -691.903)" fill="#b6091b"/><path d="M741.79,855.914q.627,0,1.179.023v-.376q-.517.03-1.179.03,0-.666-.015-1.057.766,0,1.45.03l.02-.376h-1.88q.035.671.035,1.559,0,.944-.035,1.726h2l.015-.381q-.746.038-1.572.038Q741.79,856.562,741.79,855.914Z" transform="translate(-673.183 -683.246)" fill="#b6091b"/><path d="M772.526,865.966a5.551,5.551,0,0,0-.307.926H772.2a5.673,5.673,0,0,0-.323-.961,5.673,5.673,0,0,1-.323-.961h-.483a8.611,8.611,0,0,0,.444,1.162,6.227,6.227,0,0,1,.444,1.235h.333a6.809,6.809,0,0,1,.5-1.2,7.227,7.227,0,0,0,.5-1.192h-.463A4.428,4.428,0,0,1,772.526,865.966Z" transform="translate(-700.439 -693.14)" fill="#b6091b"/><path d="M805.445,863.622a1,1,0,0,0-.832.4,1.5,1.5,0,0,0-.31.947,1.222,1.222,0,0,0,.339.873,1.3,1.3,0,0,0,.986.358,1.959,1.959,0,0,0,.7-.1l.042-.356a2.6,2.6,0,0,1-.709.093.934.934,0,0,1-.679-.249.915.915,0,0,1-.281-.617l1.709-.03q.01-.187.01-.293a1.086,1.086,0,0,0-.25-.739A.915.915,0,0,0,805.445,863.622Zm-.724,1.06q.107-.737.7-.737t.585.709Z" transform="translate(-730.938 -691.903)" fill="#b6091b"/><path d="M840.422,864.8a.813.813,0,0,0-.226-.66.983.983,0,0,0-.639-.185,1.15,1.15,0,0,0-.788.338h-.02l-.047-.308-.438.063a5.913,5.913,0,0,1,.109,1.145q0,.384-.042,1.241h.453q-.01-1-.01-1.862a.972.972,0,0,1,.652-.26.634.634,0,0,1,.444.143.709.709,0,0,1,.156.531q0,.785-.055,1.448h.453q-.01-.835-.01-1.256,0-.048,0-.189T840.422,864.8Z" transform="translate(-762.101 -692.212)" fill="#b6091b"/><path d="M872.483,859a1.436,1.436,0,0,1-.108-.687q0-.477,0-.858.271,0,.719.015l.017-.376q-.473.025-.716.025,0-.23.042-.759l-.391.04q-.025.568-.025.719-.186,0-.423-.015l-.015.366q.271-.015.41-.015-.005.621-.005,1.007a1.5,1.5,0,0,0,.164.826.7.7,0,0,0,.612.231,1.065,1.065,0,0,0,.37-.073l.03-.328a1.215,1.215,0,0,1-.286.05A.442.442,0,0,1,872.483,859Z" transform="translate(-792.682 -685.241)" fill="#b6091b"/><path d="M898.533,863.622a1.182,1.182,0,0,0-.862.366A1.372,1.372,0,0,0,897.3,865a1.2,1.2,0,0,0,.332.9,1.1,1.1,0,0,0,.795.32,1.184,1.184,0,0,0,.861-.362,1.354,1.354,0,0,0,.366-1.008,1.219,1.219,0,0,0-.331-.912A1.093,1.093,0,0,0,898.533,863.622Zm.5,2a.619.619,0,0,1-.55.291.625.625,0,0,1-.558-.305,1.273,1.273,0,0,1-.2-.7,1.189,1.189,0,0,1,.193-.674.663.663,0,0,1,1.107.016,1.275,1.275,0,0,1,.2.7A1.2,1.2,0,0,1,899.035,865.619Z" transform="translate(-816.28 -691.903)" fill="#b6091b"/><path d="M934.771,865.391a2.036,2.036,0,0,0-.5-.262,1.774,1.774,0,0,1-.418-.211.281.281,0,0,1-.107-.228q0-.28.478-.28a1.653,1.653,0,0,1,.622.109l.077-.363a2.608,2.608,0,0,0-.686-.073.909.909,0,0,0-.652.206.66.66,0,0,0-.214.493.591.591,0,0,0,.234.469,2.012,2.012,0,0,0,.512.272,1.889,1.889,0,0,1,.4.2.285.285,0,0,1,.121.241q0,.313-.542.313a1.91,1.91,0,0,1-.7-.126l-.077.371a3.354,3.354,0,0,0,.766.083q.928,0,.928-.737A.6.6,0,0,0,934.771,865.391Z" transform="translate(-849.327 -692.325)" fill="#b6091b"/></g></svg>