<svg xmlns="http://www.w3.org/2000/svg" width="160" height="129.404" viewBox="0 0 160 129.404"><path d="M85.92,178.222q10.588,0,24.616-5.647l.838-4.191q-11.029,4.942-20.822,4.942-7.488,0-12.235-4.024l12.246-19.31h3.619l.567-2.657H76l-.523,2.657h3.489q3.924,0,3.924,1.655,0,3.646-6.844,15.3-4.239-5.335-4.24-14.109a49.474,49.474,0,0,1,3.176-16.732,47.761,47.761,0,0,1,8.205-14.789q7.587-9.006,17.69-9.006,6.7,0,10.9,2.384t4.191,6.224a17.064,17.064,0,0,1-.441,3.4H118.3l3.75-12.139a67.037,67.037,0,0,0-18.925-2.561q-17.073,0-29.094,12.9t-12.021,31.3q0,11.6,6.264,18a19.341,19.341,0,0,0,3.185,2.623c-.41.649-.828,1.308-1.26,1.982L56.245,198.252q0-62.765-27.354-62.765-11.456,0-21.125,15.027l2.221,1.176q6.533-10.846,15.027-10.846,9.408,0,15.9,13.807,6.142,13.111,6.141,46.867l-.261,11.368,4.573-1.089,22.751-35.875A27.98,27.98,0,0,0,85.92,178.222Z" transform="translate(-7.766 -109.623)" fill="#706c6c"/><path d="M415.633,593.259l9.361-14.76h.864l.135-.634h-4.478l-.125.634h.833q.937,0,.937.4,0,1.186-3.03,5.918l-3.332,5.211q0-14.989-6.532-14.989-2.736,0-5.045,3.589l.53.281q1.56-2.59,3.589-2.59,2.247,0,3.8,3.3,1.467,3.131,1.467,11.192l-.062,2.715Z" transform="translate(-339.756 -498.376)" fill="#706c6c"/><path d="M550.34,584.382l-2.933,1.914-.7,1.415,2.736-1.415Z" transform="translate(-457.94 -506.184)" fill="#706c6c"/><path d="M529.486,624.066a10.375,10.375,0,0,0-.239,1.748q0,1.571,1.5,1.571,1.81,0,4.088-2.444l.187-.967q-2.07,2.289-3.1,2.288-.614,0-.614-.676a10.878,10.878,0,0,1,.239-1.539l1.019-5.138.791-3.328-5.087,1.664-.125.634a7.189,7.189,0,0,1,1.675-.353q.676,0,.676.874a14.014,14.014,0,0,1-.291,2.049Z" transform="translate(-442.432 -532.241)" fill="#706c6c"/><path d="M583.419,577.131a11.205,11.205,0,0,0-2.827,5.861l-1.426,7.177a9.547,9.547,0,0,0-.219,1.758q0,1.591,1.478,1.591,1.769,0,4.226-2.507l.187-.957q-.4.343-.552.489-2,1.852-2.7,1.852-.614,0-.614-.655a10.433,10.433,0,0,1,.24-1.561l1.635-8.217a13.431,13.431,0,0,1,1.5-4.566,2.825,2.825,0,0,1,2.489-1.207,5.182,5.182,0,0,1,2.083.551l1.427-1.487a7.406,7.406,0,0,0-1.874-.218A6.848,6.848,0,0,0,583.419,577.131Z" transform="translate(-484.867 -498.376)" fill="#706c6c"/><path d="M628.034,581.963a13.422,13.422,0,0,1,1.5-4.566,2.825,2.825,0,0,1,2.489-1.207,5.182,5.182,0,0,1,2.083.551l1.427-1.487a7.4,7.4,0,0,0-1.874-.218,6.849,6.849,0,0,0-5.055,2.1,11.207,11.207,0,0,0-2.827,5.861l-1.426,7.177a9.526,9.526,0,0,0-.219,1.758q0,1.591,1.478,1.591,1.77,0,4.226-2.507l.187-.957q-.4.343-.552.489-2,1.852-2.7,1.852-.614,0-.614-.655a10.45,10.45,0,0,1,.24-1.561Z" transform="translate(-522.609 -498.376)" fill="#706c6c"/><path d="M668.379,619.342a9.23,9.23,0,0,0-2.413,5.929q0,2.746,2.193,2.746a4.625,4.625,0,0,0,3.1-1.649,14.116,14.116,0,0,0,2.827-4.259h.188l-.512,2.569a10.423,10.423,0,0,0-.251,1.768q0,1.571,1.511,1.571,1.813,0,4.1-2.444l.187-.967q-2.059,2.289-3.1,2.289-.614,0-.614-.655a10.729,10.729,0,0,1,.239-1.56l1.009-5.138.749-3.079q-1.623-.125-3.11-.125A7.649,7.649,0,0,0,668.379,619.342Zm4.139-1.976a6.337,6.337,0,0,1,2.589.582l-.47,2.361a21.163,21.163,0,0,1-2.947,4.291q-1.679,1.877-2.572,1.877-.957,0-.956-1.633a12.153,12.153,0,0,1,1.331-5.086Q670.625,617.366,672.518,617.366Z" transform="translate(-557.553 -532.875)" fill="#706c6c"/><path d="M595.682,714.555l.884-2.89a15.664,15.664,0,0,0-4.462-.609,8.993,8.993,0,0,0-6.858,3.072,10.592,10.592,0,0,0-2.834,7.451,5.9,5.9,0,0,0,1.477,4.285,5.526,5.526,0,0,0,4.16,1.523,15.756,15.756,0,0,0,5.8-1.344l.2-1a11.934,11.934,0,0,1-4.908,1.176,4.151,4.151,0,0,1-3.24-1.3,5.124,5.124,0,0,1-1.18-3.573,11.876,11.876,0,0,1,.749-3.983,11.4,11.4,0,0,1,1.934-3.521,5.309,5.309,0,0,1,4.17-2.144,5.12,5.12,0,0,1,2.569.568,1.683,1.683,0,0,1,.988,1.481,4.1,4.1,0,0,1-.1.81Z" transform="translate(-487.761 -611.993)" fill="#706c6c"/><path d="M677.866,737.068a6.563,6.563,0,0,0-4.94,2.568,8.284,8.284,0,0,0-2.267,5.592,4.012,4.012,0,0,0,.91,2.683,2.855,2.855,0,0,0,2.272,1.077,6.717,6.717,0,0,0,5.075-2.526,8.27,8.27,0,0,0,2.267-5.666,3.874,3.874,0,0,0-.936-2.678A3.05,3.05,0,0,0,677.866,737.068Zm-.13,9.005q-1.17,2-2.709,2-2.09,0-2.09-3.413a9.125,9.125,0,0,1,1.191-4.647q1.19-2.064,2.678-2.063,2.1,0,2.1,3.476A9.038,9.038,0,0,1,677.736,746.073Z" transform="translate(-561.473 -633.721)" fill="#706c6c"/><path d="M742.046,739.545l-.187.965q2.08-2.309,3.1-2.308.614,0,.614.651a10.646,10.646,0,0,1-.239,1.575l-1.019,5.188-.77,3.234,2.194-.126.759-3.749q3.525-6.354,5.511-6.353.624,0,.624.85a5.086,5.086,0,0,1-.125,1.007l-1.009,5.14a10.685,10.685,0,0,0-.25,1.783q0,1.584,1.5,1.584,1.82,0,4.087-2.467l.2-.976q-2.069,2.308-3.109,2.308-.614,0-.614-.662a10.932,10.932,0,0,1,.239-1.575l1.009-5.125a8,8,0,0,0,.177-1.512q0-1.911-1.706-1.911a4.575,4.575,0,0,0-3.052,1.633,15.676,15.676,0,0,0-2.938,4.321h-.156l.509-2.594a10.935,10.935,0,0,0,.239-1.785q0-1.575-1.5-1.575Q744.313,737.068,742.046,739.545Z" transform="translate(-620.945 -633.721)" fill="#706c6c"/><path d="M845.4,739.914a14.263,14.263,0,0,1-.291,2.069l-.718,3.655a10.59,10.59,0,0,0-.239,1.764q0,1.586,1.5,1.586,1.809,0,4.087-2.468l.187-.976q-2.07,2.31-3.1,2.31-.614,0-.614-.683a11.066,11.066,0,0,1,.239-1.554l1.019-5.188.79-3.361-5.085,1.68-.125.651a6.939,6.939,0,0,1,1.674-.368Q845.4,739.032,845.4,739.914Z" transform="translate(-705.469 -633.721)" fill="#706c6c"/><path d="M866.759,703.213a33.236,33.236,0,0,0-4.056,2.814l-.333.945a35.1,35.1,0,0,1,3.713-2.079Z" transform="translate(-721.607 -605.442)" fill="#706c6c"/><path d="M886.09,740.511q2.08-2.309,3.1-2.308.614,0,.614.651a10.668,10.668,0,0,1-.239,1.575l-1.019,5.188-.77,3.234,2.194-.126.759-3.749q3.526-6.354,5.512-6.353.624,0,.624.85a5.079,5.079,0,0,1-.125,1.007l-1.009,5.14a10.671,10.671,0,0,0-.25,1.783q0,1.584,1.5,1.584,1.82,0,4.087-2.467l.2-.976q-2.07,2.308-3.109,2.308-.614,0-.614-.662a10.934,10.934,0,0,1,.24-1.575l1.009-5.125a8.013,8.013,0,0,0,.177-1.512q0-1.911-1.706-1.911a4.577,4.577,0,0,0-3.052,1.633,15.686,15.686,0,0,0-2.938,4.321h-.156l.51-2.594a10.955,10.955,0,0,0,.239-1.785q0-1.575-1.5-1.575-1.82,0-4.087,2.477Z" transform="translate(-741.42 -633.721)" fill="#706c6c"/><rect width="95.521" height="0.659" transform="translate(64.479 118.962)" fill="#706c6c"/><path d="M427.43,857.234a5.272,5.272,0,0,0-1.343-.777,6.6,6.6,0,0,1-1.055-.535.853.853,0,0,1-.368-.7q0-.868,1.279-.868a5.238,5.238,0,0,1,1.607.242l.119-.8a5.584,5.584,0,0,0-1.622-.156,2.306,2.306,0,0,0-1.617.525,1.681,1.681,0,0,0-.01,2.407,4.828,4.828,0,0,0,1.269.752,6.26,6.26,0,0,1,1.154.621,1.04,1.04,0,0,1,.438.837q0,.968-1.691.969a4.8,4.8,0,0,1-1.587-.293l-.174.792a5.808,5.808,0,0,0,1.661.217q2.562,0,2.562-1.867A1.756,1.756,0,0,0,427.43,857.234Z" transform="translate(-355.298 -731.088)" fill="#706c6c"/><path d="M460.816,866.454q.023-.623.022-.86a1.5,1.5,0,0,0-.483-1.264,2.2,2.2,0,0,0-1.368-.371,6.164,6.164,0,0,0-1.716.217l-.084.7a6.073,6.073,0,0,1,1.537-.2,1.876,1.876,0,0,1,.987.207.91.91,0,0,1,.326.828,2.3,2.3,0,0,1-.015.277,4.452,4.452,0,0,0-2.4.5,1.473,1.473,0,0,0-.647,1.249,1.188,1.188,0,0,0,.413.972,1.5,1.5,0,0,0,.985.34,2.361,2.361,0,0,0,1.667-.565h.049a1.992,1.992,0,0,0,.06.469l.781-.03a8.943,8.943,0,0,1-.134-1.635Q460.794,867.077,460.816,866.454Zm-2.077,1.9q-.955,0-.955-.687a.979.979,0,0,1,.816-.964,5.438,5.438,0,0,1,1.423-.141q0,.61.025,1.377A1.955,1.955,0,0,1,458.739,868.354Z" transform="translate(-382.983 -739.711)" fill="#706c6c"/><path d="M490.208,850.715a31.259,31.259,0,0,1,.144,3.335q0,2.1-.09,3.764h.955q-.094-1.69-.094-3.764,0-2.013.094-3.386Z" transform="translate(-410.744 -728.606)" fill="#706c6c"/><path d="M507.992,863.622a2.363,2.363,0,0,0-1.724.732,2.744,2.744,0,0,0-.734,2.033,2.394,2.394,0,0,0,.664,1.807,2.208,2.208,0,0,0,1.59.641,2.366,2.366,0,0,0,1.721-.724,2.708,2.708,0,0,0,.731-2.016,2.438,2.438,0,0,0-.661-1.824A2.187,2.187,0,0,0,507.992,863.622Zm1,3.994a1.327,1.327,0,0,1-2.216-.028,2.545,2.545,0,0,1-.391-1.4,2.378,2.378,0,0,1,.386-1.347,1.325,1.325,0,0,1,2.214.033,2.55,2.55,0,0,1,.391,1.4A2.394,2.394,0,0,1,509,867.616Z" transform="translate(-423.547 -739.43)" fill="#706c6c"/><path d="M546.622,865.649a1.627,1.627,0,0,0-.453-1.319,1.967,1.967,0,0,0-1.279-.371,2.3,2.3,0,0,0-1.577.676h-.04l-.095-.615-.875.126a11.822,11.822,0,0,1,.219,2.291q0,.767-.085,2.483h.905q-.02-2-.02-3.724a1.944,1.944,0,0,1,1.3-.52,1.269,1.269,0,0,1,.888.285,1.419,1.419,0,0,1,.311,1.062q0,1.569-.11,2.9h.905q-.02-1.67-.02-2.513c0-.064,0-.19.01-.378S546.622,865.713,546.622,865.649Z" transform="translate(-454.26 -739.711)" fill="#706c6c"/><path d="M579.574,863.622a2,2,0,0,0-1.664.795,2.991,2.991,0,0,0-.619,1.895,2.445,2.445,0,0,0,.679,1.746,2.59,2.59,0,0,0,1.973.716,3.917,3.917,0,0,0,1.408-.2l.085-.711a5.21,5.21,0,0,1-1.418.186,1.867,1.867,0,0,1-1.358-.5,1.829,1.829,0,0,1-.562-1.234l3.417-.061q.02-.373.02-.585a2.172,2.172,0,0,0-.5-1.478A1.83,1.83,0,0,0,579.574,863.622Zm-1.448,2.119q.214-1.473,1.408-1.473,1.169,0,1.169,1.418Z" transform="translate(-483.484 -739.43)" fill="#706c6c"/><path d="M613.4,866.7a4.075,4.075,0,0,0-.995-.525,3.535,3.535,0,0,1-.836-.421.56.56,0,0,1-.214-.457q0-.56.955-.56a3.3,3.3,0,0,1,1.243.217l.154-.727a5.209,5.209,0,0,0-1.373-.146,1.818,1.818,0,0,0-1.3.411,1.32,1.32,0,0,0-.428.986,1.181,1.181,0,0,0,.468.939,4.024,4.024,0,0,0,1.025.545,3.774,3.774,0,0,1,.8.4.569.569,0,0,1,.241.482q0,.625-1.084.625a3.822,3.822,0,0,1-1.4-.252l-.154.742a6.7,6.7,0,0,0,1.532.167q1.855,0,1.855-1.473A1.2,1.2,0,0,0,613.4,866.7Z" transform="translate(-511.219 -739.814)" fill="#706c6c"/><path d="M658.364,850.787l-.945.035q.07,1.206.07,2.457h-.039a1.641,1.641,0,0,0-1.154-.333,2.082,2.082,0,0,0-1.751.807,3.055,3.055,0,0,0-.622,1.922,2.6,2.6,0,0,0,.56,1.68,1.831,1.831,0,0,0,1.5.7,1.991,1.991,0,0,0,1.552-.575h.055a2.555,2.555,0,0,0,.04.459l.741-.025q-.1-1.66-.1-3.769Q658.27,852.069,658.364,850.787Zm-2.064,6.58a1.3,1.3,0,0,1-1.1-.525,2.086,2.086,0,0,1-.4-1.292,2.342,2.342,0,0,1,.418-1.425,1.461,1.461,0,0,1,1.259-.568,1.51,1.51,0,0,1,1,.338q.085,1.453.085,3.023A1.612,1.612,0,0,1,656.3,857.367Z" transform="translate(-547.493 -728.709)" fill="#706c6c"/><path d="M692.1,863.622a2,2,0,0,0-1.664.795,2.991,2.991,0,0,0-.619,1.895,2.444,2.444,0,0,0,.679,1.746,2.59,2.59,0,0,0,1.972.716,3.918,3.918,0,0,0,1.408-.2l.085-.711a5.211,5.211,0,0,1-1.418.186,1.867,1.867,0,0,1-1.358-.5,1.83,1.83,0,0,1-.562-1.234l3.417-.061q.02-.373.02-.585a2.172,2.172,0,0,0-.5-1.478A1.83,1.83,0,0,0,692.1,863.622Zm-1.448,2.119q.214-1.473,1.408-1.473,1.169,0,1.169,1.418Z" transform="translate(-577.474 -739.43)" fill="#706c6c"/><path d="M742.216,857.639q1.254,0,2.358.045v-.752q-1.035.061-2.358.061,0-1.332-.03-2.114,1.532,0,2.9.061l.04-.752h-3.761q.069,1.342.07,3.118,0,1.887-.07,3.451h4.01l.03-.762q-1.492.076-3.144.076Q742.216,858.936,742.216,857.639Z" transform="translate(-620.533 -731.55)" fill="#706c6c"/><path d="M773.985,866.963a11.1,11.1,0,0,0-.614,1.852h-.045a11.348,11.348,0,0,0-.647-1.922,11.349,11.349,0,0,1-.647-1.923h-.965a17.224,17.224,0,0,0,.888,2.324,12.452,12.452,0,0,1,.888,2.47h.667a13.623,13.623,0,0,1,1.007-2.409,14.451,14.451,0,0,0,1.007-2.384H774.6A8.857,8.857,0,0,1,773.985,866.963Z" transform="translate(-645.343 -740.556)" fill="#706c6c"/><path d="M806.586,863.622a2,2,0,0,0-1.664.795,2.991,2.991,0,0,0-.619,1.895,2.444,2.444,0,0,0,.679,1.746,2.589,2.589,0,0,0,1.972.716,3.916,3.916,0,0,0,1.408-.2l.085-.711a5.209,5.209,0,0,1-1.418.186,1.868,1.868,0,0,1-1.358-.5,1.831,1.831,0,0,1-.562-1.234l3.417-.061q.02-.373.02-.585a2.172,2.172,0,0,0-.5-1.478A1.83,1.83,0,0,0,806.586,863.622Zm-1.448,2.119q.214-1.473,1.408-1.473,1.169,0,1.169,1.418Z" transform="translate(-673.104 -739.43)" fill="#706c6c"/><path d="M842.581,865.649a1.627,1.627,0,0,0-.453-1.319,1.966,1.966,0,0,0-1.278-.371,2.3,2.3,0,0,0-1.577.676h-.04l-.095-.615-.875.126a11.822,11.822,0,0,1,.219,2.291q0,.767-.085,2.483h.905q-.02-2-.02-3.724a1.943,1.943,0,0,1,1.3-.52,1.268,1.268,0,0,1,.888.285,1.419,1.419,0,0,1,.311,1.062q0,1.569-.11,2.9h.905q-.02-1.67-.02-2.513c0-.064,0-.19.01-.378S842.581,865.713,842.581,865.649Z" transform="translate(-701.471 -739.711)" fill="#706c6c"/><path d="M873.377,861.642a2.872,2.872,0,0,1-.216-1.375q0-.954.01-1.716.542,0,1.438.03l.035-.752q-.945.051-1.433.051,0-.459.084-1.519l-.781.081q-.05,1.135-.05,1.438-.373,0-.846-.03l-.03.732q.542-.03.821-.03-.01,1.241-.01,2.013a3,3,0,0,0,.328,1.652,1.408,1.408,0,0,0,1.224.462,2.13,2.13,0,0,0,.741-.146l.06-.656a2.431,2.431,0,0,1-.572.1A.884.884,0,0,1,873.377,861.642Z" transform="translate(-729.307 -733.365)" fill="#706c6c"/><path d="M899.762,863.622a2.364,2.364,0,0,0-1.724.732,2.744,2.744,0,0,0-.734,2.033,2.393,2.393,0,0,0,.664,1.807,2.207,2.207,0,0,0,1.589.641,2.367,2.367,0,0,0,1.721-.724,2.709,2.709,0,0,0,.731-2.016,2.437,2.437,0,0,0-.662-1.824A2.186,2.186,0,0,0,899.762,863.622Zm1,3.994a1.237,1.237,0,0,1-1.1.583,1.25,1.25,0,0,1-1.117-.611,2.545,2.545,0,0,1-.39-1.4,2.377,2.377,0,0,1,.385-1.347,1.325,1.325,0,0,1,2.214.033,2.549,2.549,0,0,1,.391,1.4A2.393,2.393,0,0,1,900.766,867.616Z" transform="translate(-750.787 -739.43)" fill="#706c6c"/><path d="M936.223,866.7a4.074,4.074,0,0,0-.995-.525,3.546,3.546,0,0,1-.836-.421.561.561,0,0,1-.214-.457q0-.56.955-.56a3.305,3.305,0,0,1,1.244.217l.154-.727a5.212,5.212,0,0,0-1.373-.146,1.819,1.819,0,0,0-1.3.411,1.321,1.321,0,0,0-.428.986,1.182,1.182,0,0,0,.468.939,4.023,4.023,0,0,0,1.025.545,3.781,3.781,0,0,1,.8.4.57.57,0,0,1,.241.482q0,.625-1.085.625a3.821,3.821,0,0,1-1.4-.252l-.154.742a6.7,6.7,0,0,0,1.532.167q1.855,0,1.856-1.473A1.2,1.2,0,0,0,936.223,866.7Z" transform="translate(-780.869 -739.814)" fill="#706c6c"/></svg>