<svg xmlns="http://www.w3.org/2000/svg" width="23" height="23" viewBox="0 0 23 23"><g transform="translate(-0.447)"><circle cx="11.5" cy="11.5" r="11.5" transform="translate(0.447)" fill="#bbac9a"/><path d="M9.949-4.969a1.273,1.273,0,0,0-.9-.9,29.735,29.735,0,0,0-3.975-.218A30.893,30.893,0,0,0,1.1-5.873a1.3,1.3,0,0,0-.9.9A13.41,13.41,0,0,0,0-2.526,13.361,13.361,0,0,0,.209-.082a1.273,1.273,0,0,0,.9.9,29.789,29.789,0,0,0,3.975.218A30.893,30.893,0,0,0,9.054.821a1.273,1.273,0,0,0,.9-.9,13.414,13.414,0,0,0,.209-2.443A12.73,12.73,0,0,0,9.949-4.969ZM4.067-1V-4.049L6.711-2.526Zm0,0" transform="translate(6.382 14.247)" fill="#fff"/></g></svg>